%TF.GenerationSoftware,KiCad,Pcbnew,(6.0.1)*%
%TF.CreationDate,2022-11-17T10:08:14-05:00*%
%TF.ProjectId,ThermixelCtrl,54686572-6d69-4786-956c-4374726c2e6b,rev?*%
%TF.SameCoordinates,Original*%
%TF.FileFunction,Paste,Top*%
%TF.FilePolarity,Positive*%
%FSLAX46Y46*%
G04 Gerber Fmt 4.6, Leading zero omitted, Abs format (unit mm)*
G04 Created by KiCad (PCBNEW (6.0.1)) date 2022-11-17 10:08:14*
%MOMM*%
%LPD*%
G01*
G04 APERTURE LIST*
G04 Aperture macros list*
%AMRoundRect*
0 Rectangle with rounded corners*
0 $1 Rounding radius*
0 $2 $3 $4 $5 $6 $7 $8 $9 X,Y pos of 4 corners*
0 Add a 4 corners polygon primitive as box body*
4,1,4,$2,$3,$4,$5,$6,$7,$8,$9,$2,$3,0*
0 Add four circle primitives for the rounded corners*
1,1,$1+$1,$2,$3*
1,1,$1+$1,$4,$5*
1,1,$1+$1,$6,$7*
1,1,$1+$1,$8,$9*
0 Add four rect primitives between the rounded corners*
20,1,$1+$1,$2,$3,$4,$5,0*
20,1,$1+$1,$4,$5,$6,$7,0*
20,1,$1+$1,$6,$7,$8,$9,0*
20,1,$1+$1,$8,$9,$2,$3,0*%
G04 Aperture macros list end*
%ADD10RoundRect,0.250000X0.337500X0.475000X-0.337500X0.475000X-0.337500X-0.475000X0.337500X-0.475000X0*%
%ADD11RoundRect,0.250000X0.450000X-0.350000X0.450000X0.350000X-0.450000X0.350000X-0.450000X-0.350000X0*%
%ADD12RoundRect,0.250000X-0.450000X0.350000X-0.450000X-0.350000X0.450000X-0.350000X0.450000X0.350000X0*%
%ADD13RoundRect,0.250000X0.475000X-0.337500X0.475000X0.337500X-0.475000X0.337500X-0.475000X-0.337500X0*%
%ADD14RoundRect,0.075000X0.075000X-0.650000X0.075000X0.650000X-0.075000X0.650000X-0.075000X-0.650000X0*%
%ADD15RoundRect,0.250000X-0.475000X0.337500X-0.475000X-0.337500X0.475000X-0.337500X0.475000X0.337500X0*%
%ADD16RoundRect,0.249999X-1.425001X0.450001X-1.425001X-0.450001X1.425001X-0.450001X1.425001X0.450001X0*%
%ADD17RoundRect,0.100000X-0.637500X-0.100000X0.637500X-0.100000X0.637500X0.100000X-0.637500X0.100000X0*%
G04 APERTURE END LIST*
D10*
%TO.C,C2*%
X50215000Y-18008000D03*
X48140000Y-18008000D03*
%TD*%
D11*
%TO.C,R1*%
X8930000Y-16700000D03*
X8930000Y-14700000D03*
%TD*%
%TO.C,R2*%
X11470000Y-16700000D03*
X11470000Y-14700000D03*
%TD*%
%TO.C,R3*%
X57628000Y-16700000D03*
X57628000Y-14700000D03*
%TD*%
%TO.C,R4*%
X60168000Y-16700000D03*
X60168000Y-14700000D03*
%TD*%
%TO.C,R6*%
X21050000Y-16700000D03*
X21050000Y-14700000D03*
%TD*%
%TO.C,R7*%
X23590000Y-16700000D03*
X23590000Y-14700000D03*
%TD*%
%TO.C,R8*%
X69530000Y-16700000D03*
X69530000Y-14700000D03*
%TD*%
%TO.C,R9*%
X72070000Y-16700000D03*
X72070000Y-14700000D03*
%TD*%
%TO.C,R10*%
X33250000Y-16700000D03*
X33250000Y-14700000D03*
%TD*%
%TO.C,R11*%
X35790000Y-16700000D03*
X35790000Y-14700000D03*
%TD*%
%TO.C,R12*%
X81780000Y-16700000D03*
X81780000Y-14700000D03*
%TD*%
%TO.C,R13*%
X84320000Y-16700000D03*
X84320000Y-14700000D03*
%TD*%
D12*
%TO.C,R21*%
X38608000Y-20558000D03*
X38608000Y-18558000D03*
%TD*%
D11*
%TO.C,R15*%
X40720000Y-16700000D03*
X40720000Y-14700000D03*
%TD*%
%TO.C,R16*%
X43260000Y-16700000D03*
X43260000Y-14700000D03*
%TD*%
%TO.C,R18*%
X48150600Y-39056000D03*
X48150600Y-37056000D03*
%TD*%
%TO.C,R19*%
X50690600Y-39056000D03*
X50690600Y-37056000D03*
%TD*%
D12*
%TO.C,R17*%
X43070600Y-37056000D03*
X43070600Y-39056000D03*
%TD*%
%TO.C,R20*%
X4318000Y-41926000D03*
X4318000Y-43926000D03*
%TD*%
%TO.C,R14*%
X45610600Y-37056000D03*
X45610600Y-39056000D03*
%TD*%
D13*
%TO.C,C1*%
X66798000Y-27043500D03*
X66798000Y-24968500D03*
%TD*%
D14*
%TO.C,U1*%
X61988000Y-28460000D03*
X62488000Y-28460000D03*
X62988000Y-28460000D03*
X63488000Y-28460000D03*
X63988000Y-28460000D03*
X63988000Y-24060000D03*
X63488000Y-24060000D03*
X62988000Y-24060000D03*
X62488000Y-24060000D03*
X61988000Y-24060000D03*
%TD*%
D15*
%TO.C,C3*%
X59940000Y-24968500D03*
X59940000Y-27043500D03*
%TD*%
D16*
%TO.C,R5*%
X70100000Y-23210000D03*
X70100000Y-29310000D03*
%TD*%
D17*
%TO.C,U3*%
X47287500Y-19685000D03*
X47287500Y-20335000D03*
X47287500Y-20985000D03*
X47287500Y-21635000D03*
X47287500Y-22285000D03*
X47287500Y-22935000D03*
X47287500Y-23585000D03*
X47287500Y-24235000D03*
X47287500Y-24885000D03*
X47287500Y-25535000D03*
X47287500Y-26185000D03*
X47287500Y-26835000D03*
X53012500Y-26835000D03*
X53012500Y-26185000D03*
X53012500Y-25535000D03*
X53012500Y-24885000D03*
X53012500Y-24235000D03*
X53012500Y-23585000D03*
X53012500Y-22935000D03*
X53012500Y-22285000D03*
X53012500Y-21635000D03*
X53012500Y-20985000D03*
X53012500Y-20335000D03*
X53012500Y-19685000D03*
%TD*%
M02*
