%TF.GenerationSoftware,KiCad,Pcbnew,(6.0.1)*%
%TF.CreationDate,2022-11-17T10:08:14-05:00*%
%TF.ProjectId,ThermixelCtrl,54686572-6d69-4786-956c-4374726c2e6b,rev?*%
%TF.SameCoordinates,Original*%
%TF.FileFunction,Soldermask,Bot*%
%TF.FilePolarity,Negative*%
%FSLAX46Y46*%
G04 Gerber Fmt 4.6, Leading zero omitted, Abs format (unit mm)*
G04 Created by KiCad (PCBNEW (6.0.1)) date 2022-11-17 10:08:14*
%MOMM*%
%LPD*%
G01*
G04 APERTURE LIST*
%ADD10R,1.700000X1.700000*%
%ADD11O,1.700000X1.700000*%
%ADD12C,3.200000*%
%ADD13O,1.800000X1.800000*%
%ADD14O,1.500000X1.500000*%
%ADD15R,3.000000X3.000000*%
%ADD16C,3.000000*%
%ADD17R,1.524000X1.524000*%
%ADD18C,1.524000*%
G04 APERTURE END LIST*
D10*
%TO.C,J3*%
X81534000Y-34995000D03*
D11*
X78994000Y-34995000D03*
X76454000Y-34995000D03*
X73914000Y-34995000D03*
X71374000Y-34995000D03*
X68834000Y-34995000D03*
%TD*%
D10*
%TO.C,J4*%
X8890000Y-4826000D03*
D11*
X11430000Y-4826000D03*
X13970000Y-4826000D03*
X16510000Y-4826000D03*
%TD*%
D10*
%TO.C,J5*%
X21039666Y-4826000D03*
D11*
X23579666Y-4826000D03*
X26119666Y-4826000D03*
X28659666Y-4826000D03*
%TD*%
D10*
%TO.C,J6*%
X33189332Y-4826000D03*
D11*
X35729332Y-4826000D03*
X38269332Y-4826000D03*
X40809332Y-4826000D03*
%TD*%
D10*
%TO.C,J7*%
X45338998Y-4826000D03*
D11*
X47878998Y-4826000D03*
X50418998Y-4826000D03*
X52958998Y-4826000D03*
%TD*%
D10*
%TO.C,J8*%
X57488664Y-4826000D03*
D11*
X60028664Y-4826000D03*
X62568664Y-4826000D03*
X65108664Y-4826000D03*
%TD*%
D10*
%TO.C,J9*%
X69638330Y-4826000D03*
D11*
X72178330Y-4826000D03*
X74718330Y-4826000D03*
X77258330Y-4826000D03*
%TD*%
D10*
%TO.C,J10*%
X81788000Y-4826000D03*
D11*
X84328000Y-4826000D03*
X86868000Y-4826000D03*
X89408000Y-4826000D03*
%TD*%
D12*
%TO.C,H1*%
X3000000Y-52500000D03*
%TD*%
%TO.C,H2*%
X3000000Y-3000000D03*
%TD*%
%TO.C,H3*%
X95000000Y-3000000D03*
%TD*%
%TO.C,H4*%
X95000000Y-52500000D03*
%TD*%
D13*
%TO.C,U2*%
X58070000Y-40242600D03*
D14*
X55040000Y-45392600D03*
D13*
X58070000Y-45692600D03*
D14*
X55040000Y-40542600D03*
D11*
X58200000Y-34077600D03*
X55660000Y-34077600D03*
D10*
X53120000Y-34077600D03*
D11*
X50580000Y-34077600D03*
X48040000Y-34077600D03*
X45500000Y-34077600D03*
X42960000Y-34077600D03*
D10*
X40420000Y-34077600D03*
D11*
X37880000Y-34077600D03*
X35340000Y-34077600D03*
X32800000Y-34077600D03*
X30260000Y-34077600D03*
D10*
X27720000Y-34077600D03*
D11*
X25180000Y-34077600D03*
X22640000Y-34077600D03*
X20100000Y-34077600D03*
X17560000Y-34077600D03*
D10*
X15020000Y-34077600D03*
D11*
X12480000Y-34077600D03*
X9940000Y-34077600D03*
X9940000Y-51857600D03*
X12480000Y-51857600D03*
D10*
X15020000Y-51857600D03*
D11*
X17560000Y-51857600D03*
X20100000Y-51857600D03*
X22640000Y-51857600D03*
X25180000Y-51857600D03*
D10*
X27720000Y-51857600D03*
D11*
X30260000Y-51857600D03*
X32800000Y-51857600D03*
X35340000Y-51857600D03*
X37880000Y-51857600D03*
D10*
X40420000Y-51857600D03*
D11*
X42960000Y-51857600D03*
X45500000Y-51857600D03*
X48040000Y-51857600D03*
X50580000Y-51857600D03*
D10*
X53120000Y-51857600D03*
D11*
X55660000Y-51857600D03*
X58200000Y-51857600D03*
X10170000Y-40427600D03*
D10*
X10170000Y-42967600D03*
D11*
X10170000Y-45507600D03*
%TD*%
D10*
%TO.C,J2*%
X17526000Y-27686000D03*
D11*
X17526000Y-25146000D03*
X17526000Y-22606000D03*
%TD*%
D15*
%TO.C,J1*%
X77720000Y-28800000D03*
D16*
X77720000Y-23720000D03*
%TD*%
D17*
%TO.C,DIS1*%
X95750000Y-11220000D03*
D18*
X95750000Y-13760000D03*
X95750000Y-16300000D03*
X95750000Y-18840000D03*
X95750000Y-21380000D03*
X95750000Y-23920000D03*
X95750000Y-26460000D03*
X95750000Y-29000000D03*
X95750000Y-31540000D03*
X95750000Y-34080000D03*
X95750000Y-36620000D03*
X95750000Y-39160000D03*
X95750000Y-41700000D03*
X95750000Y-44240000D03*
%TD*%
M02*
