M48
; DRILL file {KiCad (6.0.1)} date Thu Nov 17 10:08:16 2022
; FORMAT={-:-/ absolute / inch / decimal}
; #@! TF.CreationDate,2022-11-17T10:08:16-05:00
; #@! TF.GenerationSoftware,Kicad,Pcbnew,(6.0.1)
; #@! TF.FileFunction,Plated,1,2,PTH
FMAT,2
INCH
; #@! TA.AperFunction,Plated,PTH,ViaDrill
T1C0.0157
; #@! TA.AperFunction,Plated,PTH,ComponentDrill
T2C0.0300
; #@! TA.AperFunction,Plated,PTH,ComponentDrill
T3C0.0394
; #@! TA.AperFunction,Plated,PTH,ComponentDrill
T4C0.0402
; #@! TA.AperFunction,Plated,PTH,ComponentDrill
T5C0.0598
%
G90
G05
T1
X0.17Y-1.56
X0.3Y-0.58
X0.5Y-0.58
X0.64Y-0.66
X0.83Y-0.51
X0.83Y-0.73
X0.93Y-0.51
X1.07Y-0.79
X1.14Y-1.74
X1.18Y-1.69
X1.2Y-1.61
X1.21Y-0.83
X1.31Y-0.5
X1.41Y-0.51
X1.44Y-1.8
X1.54Y-0.94
X1.54Y-1.86
X1.59Y-0.94
X1.61Y-0.51
X1.63Y-1.61
X1.65Y-0.9571
X1.7Y-0.9827
X1.71Y-0.51
X1.72Y-1.69
X1.75Y-1.0082
X1.76Y-1.74
X1.78Y-1.89
X1.79Y-1.05
X1.83Y-1.8
X1.87Y-1.21
X1.924Y-1.139
X1.933Y-1.056
X2.03Y-1.139
X2.03Y-1.18
X2.06Y-1.21
X2.138Y-0.854
X2.17Y-1.06
X2.21Y-1.03
X2.24Y-1.0
X2.27Y-0.51
X2.27Y-0.96
X2.283Y-1.143
X2.3Y-0.92
X2.34Y-0.89
X2.37Y-0.51
X2.39Y-0.85
X2.411Y-1.554
X2.455Y-1.051
X2.462Y-0.894
X2.5102Y-1.0098
X2.586Y-0.899
X2.71Y-1.99
X2.74Y-0.51
X2.84Y-0.51
X2.868Y-1.021
X2.9Y-0.85
X3.045Y-1.845
X3.1Y-1.68
X3.17Y-1.88
X3.22Y-0.5
X3.31Y-1.22
X3.31Y-1.32
X3.32Y-0.51
X3.42Y-1.23
X3.47Y-1.23
X3.47Y-1.42
X3.49Y-1.56
T2
X3.7697Y-0.4417
X3.7697Y-0.5417
X3.7697Y-0.6417
X3.7697Y-0.7417
X3.7697Y-0.8417
X3.7697Y-0.9417
X3.7697Y-1.0417
X3.7697Y-1.1417
X3.7697Y-1.2417
X3.7697Y-1.3417
X3.7697Y-1.4417
X3.7697Y-1.5417
X3.7697Y-1.6417
X3.7697Y-1.7417
T3
X0.35Y-0.19
X0.45Y-0.19
X0.55Y-0.19
X0.65Y-0.19
X0.69Y-0.89
X0.69Y-0.99
X0.69Y-1.09
X0.8283Y-0.19
X0.9283Y-0.19
X1.0283Y-0.19
X1.1283Y-0.19
X1.3067Y-0.19
X1.4067Y-0.19
X1.5067Y-0.19
X1.6067Y-0.19
X1.785Y-0.19
X1.885Y-0.19
X1.985Y-0.19
X2.085Y-0.19
X2.2633Y-0.19
X2.3633Y-0.19
X2.4633Y-0.19
X2.5633Y-0.19
X2.71Y-1.3778
X2.7417Y-0.19
X2.81Y-1.3778
X2.8417Y-0.19
X2.91Y-1.3778
X2.9417Y-0.19
X3.01Y-1.3778
X3.0417Y-0.19
X3.11Y-1.3778
X3.21Y-1.3778
X3.22Y-0.19
X3.32Y-0.19
X3.42Y-0.19
X3.52Y-0.19
T4
X0.3913Y-1.3416
X0.3913Y-2.0416
X0.4004Y-1.5916
X0.4004Y-1.6916
X0.4004Y-1.7916
X0.4913Y-1.3416
X0.4913Y-2.0416
X0.5913Y-1.3416
X0.5913Y-2.0416
X0.6913Y-1.3416
X0.6913Y-2.0416
X0.7913Y-1.3416
X0.7913Y-2.0416
X0.8913Y-1.3416
X0.8913Y-2.0416
X0.9913Y-1.3416
X0.9913Y-2.0416
X1.0913Y-1.3416
X1.0913Y-2.0416
X1.1913Y-1.3416
X1.1913Y-2.0416
X1.2913Y-1.3416
X1.2913Y-2.0416
X1.3913Y-1.3416
X1.3913Y-2.0416
X1.4913Y-1.3416
X1.4913Y-2.0416
X1.5913Y-1.3416
X1.5913Y-2.0416
X1.6913Y-1.3416
X1.6913Y-2.0416
X1.7913Y-1.3416
X1.7913Y-2.0416
X1.8913Y-1.3416
X1.8913Y-2.0416
X1.9913Y-1.3416
X1.9913Y-2.0416
X2.0913Y-1.3416
X2.0913Y-2.0416
X2.1913Y-1.3416
X2.1913Y-2.0416
X2.2913Y-1.3416
X2.2913Y-2.0416
T5
X3.0598Y-0.9339
X3.0598Y-1.1339
T0
M30
