%TF.GenerationSoftware,KiCad,Pcbnew,(6.0.1)*%
%TF.CreationDate,2022-11-17T10:08:14-05:00*%
%TF.ProjectId,ThermixelCtrl,54686572-6d69-4786-956c-4374726c2e6b,rev?*%
%TF.SameCoordinates,Original*%
%TF.FileFunction,Copper,L2,Bot*%
%TF.FilePolarity,Positive*%
%FSLAX46Y46*%
G04 Gerber Fmt 4.6, Leading zero omitted, Abs format (unit mm)*
G04 Created by KiCad (PCBNEW (6.0.1)) date 2022-11-17 10:08:14*
%MOMM*%
%LPD*%
G01*
G04 APERTURE LIST*
%TA.AperFunction,ComponentPad*%
%ADD10R,1.700000X1.700000*%
%TD*%
%TA.AperFunction,ComponentPad*%
%ADD11O,1.700000X1.700000*%
%TD*%
%TA.AperFunction,ComponentPad*%
%ADD12R,3.000000X3.000000*%
%TD*%
%TA.AperFunction,ComponentPad*%
%ADD13C,3.000000*%
%TD*%
%TA.AperFunction,ComponentPad*%
%ADD14R,1.524000X1.524000*%
%TD*%
%TA.AperFunction,ComponentPad*%
%ADD15C,1.524000*%
%TD*%
%TA.AperFunction,ViaPad*%
%ADD16C,0.800000*%
%TD*%
%TA.AperFunction,Conductor*%
%ADD17C,0.250000*%
%TD*%
%TA.AperFunction,Conductor*%
%ADD18C,1.000000*%
%TD*%
%TA.AperFunction,Conductor*%
%ADD19C,2.000000*%
%TD*%
G04 APERTURE END LIST*
D10*
%TO.P,J3,1,Pin_1*%
%TO.N,GND*%
X81534000Y-34995000D03*
D11*
%TO.P,J3,2,Pin_2*%
%TO.N,5V*%
X78994000Y-34995000D03*
%TO.P,J3,3,Pin_3*%
%TO.N,SPI_MISO*%
X76454000Y-34995000D03*
%TO.P,J3,4,Pin_4*%
%TO.N,SPI_MOSI*%
X73914000Y-34995000D03*
%TO.P,J3,5,Pin_5*%
%TO.N,SPI_CLK*%
X71374000Y-34995000D03*
%TO.P,J3,6,Pin_6*%
%TO.N,SD_CS*%
X68834000Y-34995000D03*
%TD*%
D10*
%TO.P,J4,1,Pin_1*%
%TO.N,SD0*%
X8890000Y-4826000D03*
D11*
%TO.P,J4,2,Pin_2*%
%TO.N,SC0*%
X11430000Y-4826000D03*
%TO.P,J4,3,Pin_3*%
%TO.N,5V*%
X13970000Y-4826000D03*
%TO.P,J4,4,Pin_4*%
%TO.N,GND*%
X16510000Y-4826000D03*
%TD*%
D10*
%TO.P,J5,1,Pin_1*%
%TO.N,SD1*%
X21039666Y-4826000D03*
D11*
%TO.P,J5,2,Pin_2*%
%TO.N,SC1*%
X23579666Y-4826000D03*
%TO.P,J5,3,Pin_3*%
%TO.N,5V*%
X26119666Y-4826000D03*
%TO.P,J5,4,Pin_4*%
%TO.N,GND*%
X28659666Y-4826000D03*
%TD*%
D10*
%TO.P,J6,1,Pin_1*%
%TO.N,SD2*%
X33189332Y-4826000D03*
D11*
%TO.P,J6,2,Pin_2*%
%TO.N,SC2*%
X35729332Y-4826000D03*
%TO.P,J6,3,Pin_3*%
%TO.N,5V*%
X38269332Y-4826000D03*
%TO.P,J6,4,Pin_4*%
%TO.N,GND*%
X40809332Y-4826000D03*
%TD*%
D10*
%TO.P,J7,1,Pin_1*%
%TO.N,SD3*%
X45338998Y-4826000D03*
D11*
%TO.P,J7,2,Pin_2*%
%TO.N,SC3*%
X47878998Y-4826000D03*
%TO.P,J7,3,Pin_3*%
%TO.N,5V*%
X50418998Y-4826000D03*
%TO.P,J7,4,Pin_4*%
%TO.N,GND*%
X52958998Y-4826000D03*
%TD*%
D10*
%TO.P,J8,1,Pin_1*%
%TO.N,SD4*%
X57488664Y-4826000D03*
D11*
%TO.P,J8,2,Pin_2*%
%TO.N,SC4*%
X60028664Y-4826000D03*
%TO.P,J8,3,Pin_3*%
%TO.N,5V*%
X62568664Y-4826000D03*
%TO.P,J8,4,Pin_4*%
%TO.N,GND*%
X65108664Y-4826000D03*
%TD*%
D10*
%TO.P,J9,1,Pin_1*%
%TO.N,SD5*%
X69638330Y-4826000D03*
D11*
%TO.P,J9,2,Pin_2*%
%TO.N,SC5*%
X72178330Y-4826000D03*
%TO.P,J9,3,Pin_3*%
%TO.N,5V*%
X74718330Y-4826000D03*
%TO.P,J9,4,Pin_4*%
%TO.N,GND*%
X77258330Y-4826000D03*
%TD*%
D10*
%TO.P,J10,1,Pin_1*%
%TO.N,SD6*%
X81788000Y-4826000D03*
D11*
%TO.P,J10,2,Pin_2*%
%TO.N,SC6*%
X84328000Y-4826000D03*
%TO.P,J10,3,Pin_3*%
%TO.N,5V*%
X86868000Y-4826000D03*
%TO.P,J10,4,Pin_4*%
%TO.N,GND*%
X89408000Y-4826000D03*
%TD*%
%TO.P,U2,1,GPIO0*%
%TO.N,unconnected-(U2-Pad1)*%
X58200000Y-34077600D03*
%TO.P,U2,2,GPIO1*%
%TO.N,unconnected-(U2-Pad2)*%
X55660000Y-34077600D03*
D10*
%TO.P,U2,3,GND*%
%TO.N,unconnected-(U2-Pad3)*%
X53120000Y-34077600D03*
D11*
%TO.P,U2,4,GPIO2*%
%TO.N,SDA_1*%
X50580000Y-34077600D03*
%TO.P,U2,5,GPIO3*%
%TO.N,SCL_1*%
X48040000Y-34077600D03*
%TO.P,U2,6,GPIO4*%
%TO.N,SDA_0*%
X45500000Y-34077600D03*
%TO.P,U2,7,GPIO5*%
%TO.N,SCL_0*%
X42960000Y-34077600D03*
D10*
%TO.P,U2,8,GND*%
%TO.N,unconnected-(U2-Pad8)*%
X40420000Y-34077600D03*
D11*
%TO.P,U2,9,GPIO6*%
%TO.N,SPI_CLK*%
X37880000Y-34077600D03*
%TO.P,U2,10,GPIO7*%
%TO.N,SPI_MOSI*%
X35340000Y-34077600D03*
%TO.P,U2,11,GPIO8*%
%TO.N,SPI_MISO*%
X32800000Y-34077600D03*
%TO.P,U2,12,GPIO9*%
%TO.N,TFT_CS*%
X30260000Y-34077600D03*
D10*
%TO.P,U2,13,GND*%
%TO.N,unconnected-(U2-Pad13)*%
X27720000Y-34077600D03*
D11*
%TO.P,U2,14,GPIO10*%
%TO.N,RST*%
X25180000Y-34077600D03*
%TO.P,U2,15,GPIO11*%
%TO.N,DC*%
X22640000Y-34077600D03*
%TO.P,U2,16,GPIO12*%
%TO.N,unconnected-(U2-Pad16)*%
X20100000Y-34077600D03*
%TO.P,U2,17,GPIO13*%
%TO.N,T_CS*%
X17560000Y-34077600D03*
D10*
%TO.P,U2,18,GND*%
%TO.N,GND*%
X15020000Y-34077600D03*
D11*
%TO.P,U2,19,GPIO14*%
%TO.N,unconnected-(U2-Pad19)*%
X12480000Y-34077600D03*
%TO.P,U2,20,GPIO15*%
%TO.N,unconnected-(U2-Pad20)*%
X9940000Y-34077600D03*
%TO.P,U2,21,GPIO16*%
%TO.N,NEOPIXEL*%
X9940000Y-51857600D03*
%TO.P,U2,22,GPIO17*%
%TO.N,unconnected-(U2-Pad22)*%
X12480000Y-51857600D03*
D10*
%TO.P,U2,23,GND*%
%TO.N,unconnected-(U2-Pad23)*%
X15020000Y-51857600D03*
D11*
%TO.P,U2,24,GPIO18*%
%TO.N,unconnected-(U2-Pad24)*%
X17560000Y-51857600D03*
%TO.P,U2,25,GPIO19*%
%TO.N,unconnected-(U2-Pad25)*%
X20100000Y-51857600D03*
%TO.P,U2,26,GPIO20*%
%TO.N,unconnected-(U2-Pad26)*%
X22640000Y-51857600D03*
%TO.P,U2,27,GPIO21*%
%TO.N,unconnected-(U2-Pad27)*%
X25180000Y-51857600D03*
D10*
%TO.P,U2,28,GND*%
%TO.N,unconnected-(U2-Pad28)*%
X27720000Y-51857600D03*
D11*
%TO.P,U2,29,GPIO22*%
%TO.N,SD_CS*%
X30260000Y-51857600D03*
%TO.P,U2,30,RUN*%
%TO.N,unconnected-(U2-Pad30)*%
X32800000Y-51857600D03*
%TO.P,U2,31,GPIO26_ADC0*%
%TO.N,unconnected-(U2-Pad31)*%
X35340000Y-51857600D03*
%TO.P,U2,32,GPIO27_ADC1*%
%TO.N,unconnected-(U2-Pad32)*%
X37880000Y-51857600D03*
D10*
%TO.P,U2,33,AGND*%
%TO.N,unconnected-(U2-Pad33)*%
X40420000Y-51857600D03*
D11*
%TO.P,U2,34,GPIO28_ADC2*%
%TO.N,unconnected-(U2-Pad34)*%
X42960000Y-51857600D03*
%TO.P,U2,35,ADC_VREF*%
%TO.N,unconnected-(U2-Pad35)*%
X45500000Y-51857600D03*
%TO.P,U2,36,3V3*%
%TO.N,+3V3*%
X48040000Y-51857600D03*
%TO.P,U2,37,3V3_EN*%
%TO.N,unconnected-(U2-Pad37)*%
X50580000Y-51857600D03*
D10*
%TO.P,U2,38,GND*%
%TO.N,unconnected-(U2-Pad38)*%
X53120000Y-51857600D03*
D11*
%TO.P,U2,39,VSYS*%
%TO.N,5V*%
X55660000Y-51857600D03*
%TO.P,U2,40,VBUS*%
%TO.N,unconnected-(U2-Pad40)*%
X58200000Y-51857600D03*
%TO.P,U2,41,SWCLK*%
%TO.N,unconnected-(U2-Pad41)*%
X10170000Y-40427600D03*
D10*
%TO.P,U2,42,GND*%
%TO.N,unconnected-(U2-Pad42)*%
X10170000Y-42967600D03*
D11*
%TO.P,U2,43,SWDIO*%
%TO.N,unconnected-(U2-Pad43)*%
X10170000Y-45507600D03*
%TD*%
D10*
%TO.P,J2,1,Pin_1*%
%TO.N,5V*%
X17526000Y-27686000D03*
D11*
%TO.P,J2,2,Pin_2*%
%TO.N,Net-(J2-Pad2)*%
X17526000Y-25146000D03*
%TO.P,J2,3,Pin_3*%
%TO.N,GND*%
X17526000Y-22606000D03*
%TD*%
D12*
%TO.P,J1,1,Pin_1*%
%TO.N,/+5V_PSU*%
X77720000Y-28800000D03*
D13*
%TO.P,J1,2,Pin_2*%
%TO.N,GND*%
X77720000Y-23720000D03*
%TD*%
D14*
%TO.P,DIS1,1,VCC*%
%TO.N,+3V3*%
X95750000Y-11220000D03*
D15*
%TO.P,DIS1,2,GND*%
%TO.N,GND*%
X95750000Y-13760000D03*
%TO.P,DIS1,3,CS*%
%TO.N,TFT_CS*%
X95750000Y-16300000D03*
%TO.P,DIS1,4,RST*%
%TO.N,RST*%
X95750000Y-18840000D03*
%TO.P,DIS1,5,DC*%
%TO.N,DC*%
X95750000Y-21380000D03*
%TO.P,DIS1,6,MOSI*%
%TO.N,SPI_MOSI*%
X95750000Y-23920000D03*
%TO.P,DIS1,7,SCK*%
%TO.N,SPI_CLK*%
X95750000Y-26460000D03*
%TO.P,DIS1,8,LED*%
%TO.N,+3V3*%
X95750000Y-29000000D03*
%TO.P,DIS1,9,MISO*%
%TO.N,SPI_MISO*%
X95750000Y-31540000D03*
%TO.P,DIS1,10,T_CLK*%
%TO.N,SPI_CLK*%
X95750000Y-34080000D03*
%TO.P,DIS1,11,T_CS*%
%TO.N,T_CS*%
X95750000Y-36620000D03*
%TO.P,DIS1,12,T_DIN*%
%TO.N,SPI_MOSI*%
X95750000Y-39160000D03*
%TO.P,DIS1,13,T_DO*%
%TO.N,SPI_MISO*%
X95750000Y-41700000D03*
%TO.P,DIS1,14,T_IRQ*%
%TO.N,unconnected-(DIS1-Pad14)*%
X95750000Y-44240000D03*
%TD*%
D16*
%TO.N,GND*%
X63758299Y-25649701D03*
%TO.N,TFT_CS*%
X30480000Y-40894000D03*
X41402000Y-40894000D03*
%TO.N,GND*%
X84074000Y-33528000D03*
X84074000Y-30988000D03*
%TO.N,SPI_MISO*%
X78740000Y-42672000D03*
%TO.N,SPI_MOSI*%
X80518000Y-47752000D03*
%TO.N,SPI_CLK*%
X77343000Y-46863000D03*
%TO.N,SD_CS*%
X68834000Y-50546000D03*
%TO.N,GND*%
X49098200Y-26822400D03*
X54305200Y-21691600D03*
X62357000Y-26695400D03*
X57988200Y-29032200D03*
%TO.N,+3V3*%
X73660000Y-21590000D03*
X16256000Y-16764000D03*
X21082000Y-18542000D03*
X60706000Y-21590000D03*
%TO.N,5V*%
X62534800Y-22707600D03*
X61239400Y-39471600D03*
X72847200Y-25933400D03*
X65684400Y-22834600D03*
%TO.N,SC0*%
X27178000Y-20066000D03*
X12700000Y-14732000D03*
%TO.N,SD0*%
X7620000Y-14732000D03*
X30734000Y-21082000D03*
%TO.N,SC1*%
X40386000Y-23876000D03*
X23622000Y-12954000D03*
%TO.N,SD1*%
X21082000Y-12954000D03*
X39116000Y-23876000D03*
%TO.N,SC2*%
X35814000Y-12954000D03*
X43180000Y-24959500D03*
%TO.N,SD2*%
X33274000Y-12700000D03*
X41910000Y-24309500D03*
%TO.N,SC3*%
X45466000Y-26670000D03*
X43434000Y-12954000D03*
%TO.N,SD3*%
X40894000Y-12954000D03*
X44450000Y-25609500D03*
%TO.N,SC4*%
X56134000Y-26162000D03*
X60198000Y-12954000D03*
%TO.N,SD4*%
X57658000Y-12954000D03*
X55118000Y-26924000D03*
%TO.N,SC5*%
X57658000Y-24384000D03*
X72136000Y-12954000D03*
%TO.N,SD5*%
X56896000Y-25400000D03*
X69596000Y-12954000D03*
%TO.N,SC6*%
X84328000Y-12954000D03*
X59436000Y-22606000D03*
%TO.N,SD6*%
X58420000Y-23368000D03*
X81788000Y-12700000D03*
%TO.N,SCL_1*%
X51562000Y-28930600D03*
X48869600Y-28930600D03*
%TO.N,RST*%
X29972000Y-42926000D03*
X43688000Y-42926000D03*
%TO.N,DC*%
X44704000Y-44196000D03*
X28956000Y-44196000D03*
%TO.N,SPI_MOSI*%
X88646000Y-39624000D03*
X86868000Y-31242000D03*
%TO.N,SPI_CLK*%
X88138000Y-36068000D03*
X88138000Y-31242000D03*
%TO.N,SPI_MISO*%
X36576000Y-45720000D03*
X46482000Y-45720000D03*
%TO.N,T_CS*%
X45212000Y-48006000D03*
X39116000Y-47244000D03*
%TO.N,SDA_0*%
X51562000Y-29972000D03*
%TO.N,SCL_0*%
X52324000Y-30734000D03*
X47498000Y-30734000D03*
%TO.N,Net-(J2-Pad2)*%
X4318000Y-39624000D03*
%TD*%
D17*
%TO.N,Net-(J2-Pad2)*%
X4318000Y-30988000D02*
X10160000Y-25146000D01*
X10160000Y-25146000D02*
X17526000Y-25146000D01*
X4318000Y-39624000D02*
X4318000Y-30988000D01*
%TO.N,SC3*%
X44958000Y-21590000D02*
X44958000Y-14478000D01*
X45466000Y-22098000D02*
X44958000Y-21590000D01*
X44958000Y-14478000D02*
X43434000Y-12954000D01*
X45466000Y-26670000D02*
X45466000Y-22098000D01*
%TO.N,SD1*%
X21806511Y-13678511D02*
X21082000Y-12954000D01*
X26886511Y-13678511D02*
X21806511Y-13678511D01*
X37084000Y-23876000D02*
X26886511Y-13678511D01*
X39116000Y-23876000D02*
X37084000Y-23876000D01*
%TO.N,SD3*%
X40894000Y-19050000D02*
X40894000Y-12954000D01*
X44450000Y-25609500D02*
X44450000Y-22606000D01*
X44450000Y-22606000D02*
X40894000Y-19050000D01*
%TO.N,SC2*%
X42418000Y-21844000D02*
X37338000Y-21844000D01*
X43180000Y-24959500D02*
X43180000Y-22606000D01*
X37338000Y-21844000D02*
X35814000Y-20320000D01*
X43180000Y-22606000D02*
X42418000Y-21844000D01*
X35814000Y-20320000D02*
X35814000Y-12954000D01*
%TO.N,SD2*%
X37338000Y-22606000D02*
X33274000Y-18542000D01*
X41910000Y-24309500D02*
X40206500Y-22606000D01*
X33274000Y-18542000D02*
X33274000Y-12700000D01*
X40206500Y-22606000D02*
X37338000Y-22606000D01*
%TO.N,SC1*%
X37121489Y-23151489D02*
X26924000Y-12954000D01*
X39661489Y-23151489D02*
X37121489Y-23151489D01*
X40386000Y-23876000D02*
X39661489Y-23151489D01*
X26924000Y-12954000D02*
X23622000Y-12954000D01*
%TO.N,SC0*%
X17629953Y-19812000D02*
X26924000Y-19812000D01*
X12700000Y-14882047D02*
X17629953Y-19812000D01*
X12700000Y-14732000D02*
X12700000Y-14882047D01*
X26924000Y-19812000D02*
X27178000Y-20066000D01*
%TO.N,SD0*%
X17272000Y-21082000D02*
X30734000Y-21082000D01*
X10922000Y-14732000D02*
X17272000Y-21082000D01*
X7620000Y-14732000D02*
X10922000Y-14732000D01*
%TO.N,GND*%
X64274700Y-25920700D02*
X63500000Y-26695400D01*
X64029298Y-25920700D02*
X64274700Y-25920700D01*
X67284600Y-22910800D02*
X64274700Y-25920700D01*
X63758299Y-25649701D02*
X64029298Y-25920700D01*
%TO.N,RST*%
X93428000Y-18840000D02*
X95750000Y-18840000D01*
X83312000Y-30988000D02*
X83312000Y-28956000D01*
X83312000Y-28956000D02*
X93428000Y-18840000D01*
X80168511Y-35481499D02*
X80168511Y-34131489D01*
X72724010Y-42926000D02*
X80168511Y-35481499D01*
X80168511Y-34131489D02*
X83312000Y-30988000D01*
X43688000Y-42926000D02*
X72724010Y-42926000D01*
%TO.N,TFT_CS*%
X77819489Y-35290521D02*
X71442889Y-41667121D01*
X87485489Y-23004511D02*
X87231489Y-23004511D01*
X71442889Y-41667121D02*
X42175121Y-41667121D01*
X42175121Y-41667121D02*
X41402000Y-40894000D01*
X94190000Y-16300000D02*
X87485489Y-23004511D01*
X77819489Y-32416511D02*
X77819489Y-35290521D01*
X95750000Y-16300000D02*
X94190000Y-16300000D01*
X87231489Y-23004511D02*
X77819489Y-32416511D01*
X30260000Y-40674000D02*
X30260000Y-34077600D01*
X30480000Y-40894000D02*
X30260000Y-40674000D01*
%TO.N,GND*%
X84074000Y-33528000D02*
X84074000Y-30988000D01*
%TO.N,SPI_MISO*%
X78740000Y-42672000D02*
X89872000Y-31540000D01*
X74444879Y-46967121D02*
X78740000Y-42672000D01*
%TO.N,SPI_MOSI*%
X80518000Y-47752000D02*
X78994000Y-49276000D01*
X89110000Y-39160000D02*
X80518000Y-47752000D01*
%TO.N,SPI_CLK*%
X77343000Y-46863000D02*
X76454000Y-47752000D01*
X88138000Y-36068000D02*
X77343000Y-46863000D01*
%TO.N,SD_CS*%
X31825600Y-50292000D02*
X30260000Y-51857600D01*
X68580000Y-50292000D02*
X31825600Y-50292000D01*
X68834000Y-50546000D02*
X68580000Y-50292000D01*
%TO.N,SPI_MOSI*%
X78994000Y-49276000D02*
X44958000Y-49276000D01*
X35340000Y-39658000D02*
X35340000Y-34077600D01*
X95750000Y-39160000D02*
X89110000Y-39160000D01*
X44958000Y-49276000D02*
X35340000Y-39658000D01*
%TO.N,T_CS*%
X45720000Y-48514000D02*
X77724000Y-48514000D01*
X77724000Y-48514000D02*
X89618000Y-36620000D01*
X45212000Y-48006000D02*
X45720000Y-48514000D01*
X89618000Y-36620000D02*
X95750000Y-36620000D01*
%TO.N,SPI_CLK*%
X37880000Y-39150000D02*
X37880000Y-34077600D01*
X46482000Y-47752000D02*
X37880000Y-39150000D01*
X76454000Y-47752000D02*
X46482000Y-47752000D01*
%TO.N,GND*%
X53213000Y-29083000D02*
X50952400Y-26822400D01*
X76910800Y-22910800D02*
X67284600Y-22910800D01*
X54305200Y-28295600D02*
X53517800Y-29083000D01*
X57937400Y-29083000D02*
X53517800Y-29083000D01*
X57988200Y-29032200D02*
X57937400Y-29083000D01*
X77720000Y-23720000D02*
X76910800Y-22910800D01*
X54305200Y-21691600D02*
X54305200Y-28295600D01*
X50952400Y-26822400D02*
X49098200Y-26822400D01*
X53517800Y-29083000D02*
X53213000Y-29083000D01*
X63500000Y-26695400D02*
X62357000Y-26695400D01*
D18*
%TO.N,+3V3*%
X16256000Y-16764000D02*
X18034000Y-16764000D01*
X19812000Y-18542000D02*
X21082000Y-18542000D01*
X60706000Y-21590000D02*
X73660000Y-21590000D01*
X18034000Y-16764000D02*
X19812000Y-18542000D01*
D19*
%TO.N,5V*%
X72847200Y-25933400D02*
X72847200Y-25958800D01*
X72847200Y-25958800D02*
X66294000Y-32512000D01*
X62331600Y-32512000D02*
X61239400Y-33604200D01*
D17*
X62534800Y-22707600D02*
X65557400Y-22707600D01*
D19*
X61239400Y-33604200D02*
X61239400Y-39471600D01*
D17*
X65557400Y-22707600D02*
X65684400Y-22834600D01*
D19*
X66294000Y-32512000D02*
X62331600Y-32512000D01*
D17*
%TO.N,SC1*%
X23622000Y-12954000D02*
X23579666Y-12911666D01*
X23579666Y-12911666D02*
X23579666Y-4826000D01*
%TO.N,SD1*%
X21039666Y-12911666D02*
X21039666Y-4826000D01*
X21082000Y-12954000D02*
X21039666Y-12911666D01*
%TO.N,SC2*%
X35814000Y-12954000D02*
X35729332Y-12869332D01*
X35729332Y-12869332D02*
X35729332Y-4826000D01*
%TO.N,SD2*%
X33189332Y-12615332D02*
X33189332Y-4826000D01*
X33274000Y-12700000D02*
X33189332Y-12615332D01*
%TO.N,SC3*%
X43434000Y-12954000D02*
X47878998Y-8509002D01*
X47878998Y-8509002D02*
X47878998Y-4826000D01*
%TO.N,SD3*%
X40894000Y-12954000D02*
X45338998Y-8509002D01*
X45338998Y-8509002D02*
X45338998Y-4826000D01*
%TO.N,SC4*%
X60028664Y-12784664D02*
X60028664Y-4826000D01*
X60198000Y-12954000D02*
X56134000Y-17018000D01*
X56134000Y-17018000D02*
X56134000Y-26162000D01*
X60198000Y-12954000D02*
X60028664Y-12784664D01*
%TO.N,SD4*%
X57488664Y-12784664D02*
X57488664Y-4826000D01*
X55118000Y-15494000D02*
X55118000Y-26924000D01*
X57658000Y-12954000D02*
X55118000Y-15494000D01*
X57658000Y-12954000D02*
X57488664Y-12784664D01*
%TO.N,SC5*%
X72136000Y-12954000D02*
X68580000Y-16510000D01*
X60198000Y-16510000D02*
X58928000Y-17780000D01*
X58928000Y-17780000D02*
X57658000Y-19050000D01*
X72136000Y-12954000D02*
X72178330Y-12911670D01*
X64516000Y-16510000D02*
X60198000Y-16510000D01*
X57658000Y-19050000D02*
X57658000Y-24384000D01*
X72178330Y-12911670D02*
X72178330Y-4826000D01*
X68580000Y-16510000D02*
X64516000Y-16510000D01*
%TO.N,SD5*%
X69596000Y-12954000D02*
X69638330Y-12911670D01*
X57658000Y-17526000D02*
X56896000Y-18288000D01*
X56896000Y-18288000D02*
X56896000Y-25400000D01*
X59690000Y-15494000D02*
X57658000Y-17526000D01*
X69596000Y-12954000D02*
X67056000Y-15494000D01*
X69638330Y-12911670D02*
X69638330Y-4826000D01*
X61468000Y-15494000D02*
X59690000Y-15494000D01*
X67056000Y-15494000D02*
X61468000Y-15494000D01*
%TO.N,SC6*%
X84582000Y-12954000D02*
X78232000Y-19304000D01*
X84328000Y-12954000D02*
X84328000Y-4826000D01*
X78232000Y-19304000D02*
X60198000Y-19304000D01*
X59436000Y-20066000D02*
X59436000Y-22606000D01*
X84328000Y-12954000D02*
X84582000Y-12954000D01*
X60198000Y-19304000D02*
X59436000Y-20066000D01*
%TO.N,SD6*%
X69088000Y-17780000D02*
X60452000Y-17780000D01*
X59690000Y-18542000D02*
X58420000Y-19812000D01*
X60452000Y-17780000D02*
X59690000Y-18542000D01*
X58420000Y-19812000D02*
X58420000Y-23368000D01*
X76708000Y-17780000D02*
X69088000Y-17780000D01*
X81788000Y-12700000D02*
X76708000Y-17780000D01*
X81788000Y-12700000D02*
X81788000Y-4826000D01*
%TO.N,SCL_1*%
X48869600Y-28930600D02*
X51562000Y-28930600D01*
%TO.N,RST*%
X29972000Y-42926000D02*
X28194000Y-42926000D01*
X25180000Y-39912000D02*
X25180000Y-34077600D01*
X28194000Y-42926000D02*
X25180000Y-39912000D01*
%TO.N,DC*%
X85090000Y-29210000D02*
X92920000Y-21380000D01*
X92920000Y-21380000D02*
X95750000Y-21380000D01*
X85090000Y-33782000D02*
X85090000Y-29210000D01*
X44704000Y-44196000D02*
X74676000Y-44196000D01*
X28956000Y-44196000D02*
X26924000Y-44196000D01*
X22640000Y-39912000D02*
X22640000Y-34077600D01*
X74676000Y-44196000D02*
X85090000Y-33782000D01*
X26924000Y-44196000D02*
X22640000Y-39912000D01*
%TO.N,SPI_MOSI*%
X86868000Y-31242000D02*
X86868000Y-29718000D01*
X92666000Y-23920000D02*
X95750000Y-23920000D01*
X86868000Y-29718000D02*
X92666000Y-23920000D01*
%TO.N,SPI_CLK*%
X88138000Y-30226000D02*
X91904000Y-26460000D01*
X90126000Y-34080000D02*
X88138000Y-36068000D01*
X95750000Y-34080000D02*
X90126000Y-34080000D01*
X91904000Y-26460000D02*
X95750000Y-26460000D01*
X88138000Y-31242000D02*
X88138000Y-30226000D01*
%TO.N,SPI_MISO*%
X36576000Y-45466000D02*
X32800000Y-41690000D01*
X89872000Y-31540000D02*
X95750000Y-31540000D01*
X47729121Y-46967121D02*
X74444879Y-46967121D01*
X36576000Y-45720000D02*
X36576000Y-45466000D01*
X97282000Y-33072000D02*
X95750000Y-31540000D01*
X97282000Y-40168000D02*
X97282000Y-33072000D01*
X95750000Y-41700000D02*
X97282000Y-40168000D01*
X32800000Y-41690000D02*
X32800000Y-34077600D01*
X46482000Y-45720000D02*
X47729121Y-46967121D01*
%TO.N,T_CS*%
X17560000Y-36864000D02*
X17560000Y-34077600D01*
X27940000Y-47244000D02*
X17560000Y-36864000D01*
X39116000Y-47244000D02*
X27940000Y-47244000D01*
%TO.N,SDA_0*%
X46990000Y-29972000D02*
X45500000Y-31462000D01*
X51562000Y-29972000D02*
X46990000Y-29972000D01*
X45500000Y-31462000D02*
X45500000Y-34077600D01*
%TO.N,SCL_0*%
X52324000Y-30734000D02*
X47498000Y-30734000D01*
%TD*%
%TA.AperFunction,Conductor*%
%TO.N,GND*%
G36*
X97434121Y-528002D02*
G01*
X97480614Y-581658D01*
X97492000Y-634000D01*
X97492000Y-32081905D01*
X97471998Y-32150026D01*
X97418342Y-32196519D01*
X97348068Y-32206623D01*
X97283488Y-32177129D01*
X97276905Y-32171000D01*
X97028126Y-31922221D01*
X96994100Y-31859909D01*
X96995515Y-31800514D01*
X97004553Y-31766783D01*
X97004554Y-31766777D01*
X97005978Y-31761463D01*
X97025353Y-31540000D01*
X97005978Y-31318537D01*
X96963562Y-31160238D01*
X96949863Y-31109114D01*
X96949862Y-31109112D01*
X96948440Y-31103804D01*
X96941444Y-31088801D01*
X96856814Y-30907311D01*
X96856811Y-30907306D01*
X96854488Y-30902324D01*
X96851331Y-30897815D01*
X96730136Y-30724730D01*
X96730134Y-30724727D01*
X96726977Y-30720219D01*
X96569781Y-30563023D01*
X96565273Y-30559866D01*
X96565270Y-30559864D01*
X96482313Y-30501777D01*
X96387677Y-30435512D01*
X96382695Y-30433189D01*
X96382690Y-30433186D01*
X96277627Y-30384195D01*
X96224342Y-30337278D01*
X96204881Y-30269001D01*
X96225423Y-30201041D01*
X96277627Y-30155805D01*
X96382690Y-30106814D01*
X96382695Y-30106811D01*
X96387677Y-30104488D01*
X96564887Y-29980404D01*
X96565270Y-29980136D01*
X96565273Y-29980134D01*
X96569781Y-29976977D01*
X96726977Y-29819781D01*
X96826299Y-29677935D01*
X96851331Y-29642185D01*
X96851332Y-29642183D01*
X96854488Y-29637676D01*
X96856811Y-29632694D01*
X96856814Y-29632689D01*
X96946117Y-29441178D01*
X96946118Y-29441177D01*
X96948440Y-29436196D01*
X96951317Y-29425461D01*
X96974634Y-29338438D01*
X97005978Y-29221463D01*
X97025353Y-29000000D01*
X97005978Y-28778537D01*
X96954798Y-28587531D01*
X96949863Y-28569114D01*
X96949862Y-28569112D01*
X96948440Y-28563804D01*
X96925719Y-28515079D01*
X96856814Y-28367311D01*
X96856811Y-28367306D01*
X96854488Y-28362324D01*
X96805703Y-28292651D01*
X96730136Y-28184730D01*
X96730134Y-28184727D01*
X96726977Y-28180219D01*
X96569781Y-28023023D01*
X96565273Y-28019866D01*
X96565270Y-28019864D01*
X96489505Y-27966813D01*
X96387677Y-27895512D01*
X96382695Y-27893189D01*
X96382690Y-27893186D01*
X96277627Y-27844195D01*
X96224342Y-27797278D01*
X96204881Y-27729001D01*
X96225423Y-27661041D01*
X96277627Y-27615805D01*
X96382690Y-27566814D01*
X96382695Y-27566811D01*
X96387677Y-27564488D01*
X96489505Y-27493187D01*
X96565270Y-27440136D01*
X96565273Y-27440134D01*
X96569781Y-27436977D01*
X96726977Y-27279781D01*
X96746524Y-27251866D01*
X96851331Y-27102185D01*
X96851332Y-27102183D01*
X96854488Y-27097676D01*
X96856811Y-27092694D01*
X96856814Y-27092689D01*
X96946117Y-26901178D01*
X96946118Y-26901177D01*
X96948440Y-26896196D01*
X97005978Y-26681463D01*
X97025353Y-26460000D01*
X97005978Y-26238537D01*
X96948440Y-26023804D01*
X96942326Y-26010693D01*
X96856814Y-25827311D01*
X96856811Y-25827306D01*
X96854488Y-25822324D01*
X96851331Y-25817815D01*
X96730136Y-25644730D01*
X96730134Y-25644727D01*
X96726977Y-25640219D01*
X96569781Y-25483023D01*
X96565273Y-25479866D01*
X96565270Y-25479864D01*
X96432402Y-25386829D01*
X96387677Y-25355512D01*
X96382695Y-25353189D01*
X96382690Y-25353186D01*
X96277627Y-25304195D01*
X96224342Y-25257278D01*
X96204881Y-25189001D01*
X96225423Y-25121041D01*
X96277627Y-25075805D01*
X96382690Y-25026814D01*
X96382695Y-25026811D01*
X96387677Y-25024488D01*
X96524730Y-24928522D01*
X96565270Y-24900136D01*
X96565273Y-24900134D01*
X96569781Y-24896977D01*
X96726977Y-24739781D01*
X96738459Y-24723384D01*
X96851331Y-24562185D01*
X96851332Y-24562183D01*
X96854488Y-24557676D01*
X96856811Y-24552694D01*
X96856814Y-24552689D01*
X96946117Y-24361178D01*
X96946118Y-24361177D01*
X96948440Y-24356196D01*
X97005978Y-24141463D01*
X97025353Y-23920000D01*
X97005978Y-23698537D01*
X96957705Y-23518382D01*
X96949863Y-23489114D01*
X96949862Y-23489112D01*
X96948440Y-23483804D01*
X96937637Y-23460637D01*
X96856814Y-23287311D01*
X96856811Y-23287306D01*
X96854488Y-23282324D01*
X96851331Y-23277815D01*
X96730136Y-23104730D01*
X96730134Y-23104727D01*
X96726977Y-23100219D01*
X96569781Y-22943023D01*
X96565273Y-22939866D01*
X96565270Y-22939864D01*
X96414937Y-22834600D01*
X96387677Y-22815512D01*
X96382695Y-22813189D01*
X96382690Y-22813186D01*
X96277627Y-22764195D01*
X96224342Y-22717278D01*
X96204881Y-22649001D01*
X96225423Y-22581041D01*
X96277627Y-22535805D01*
X96382690Y-22486814D01*
X96382695Y-22486811D01*
X96387677Y-22484488D01*
X96505032Y-22402315D01*
X96565270Y-22360136D01*
X96565273Y-22360134D01*
X96569781Y-22356977D01*
X96726977Y-22199781D01*
X96743095Y-22176763D01*
X96851331Y-22022185D01*
X96851332Y-22022183D01*
X96854488Y-22017676D01*
X96856811Y-22012694D01*
X96856814Y-22012689D01*
X96946117Y-21821178D01*
X96946118Y-21821177D01*
X96948440Y-21816196D01*
X96950312Y-21809212D01*
X96979012Y-21702099D01*
X97005978Y-21601463D01*
X97025353Y-21380000D01*
X97005978Y-21158537D01*
X96948440Y-20943804D01*
X96946117Y-20938822D01*
X96856814Y-20747311D01*
X96856811Y-20747306D01*
X96854488Y-20742324D01*
X96851331Y-20737815D01*
X96730136Y-20564730D01*
X96730134Y-20564727D01*
X96726977Y-20560219D01*
X96569781Y-20403023D01*
X96565273Y-20399866D01*
X96565270Y-20399864D01*
X96415170Y-20294763D01*
X96387677Y-20275512D01*
X96382695Y-20273189D01*
X96382690Y-20273186D01*
X96277627Y-20224195D01*
X96224342Y-20177278D01*
X96204881Y-20109001D01*
X96225423Y-20041041D01*
X96277627Y-19995805D01*
X96382690Y-19946814D01*
X96382695Y-19946811D01*
X96387677Y-19944488D01*
X96540380Y-19837564D01*
X96565270Y-19820136D01*
X96565273Y-19820134D01*
X96569781Y-19816977D01*
X96726977Y-19659781D01*
X96802030Y-19552595D01*
X96851331Y-19482185D01*
X96851332Y-19482183D01*
X96854488Y-19477676D01*
X96856811Y-19472694D01*
X96856814Y-19472689D01*
X96946117Y-19281178D01*
X96946118Y-19281177D01*
X96948440Y-19276196D01*
X97005978Y-19061463D01*
X97025353Y-18840000D01*
X97005978Y-18618537D01*
X96967503Y-18474949D01*
X96949863Y-18409114D01*
X96949862Y-18409112D01*
X96948440Y-18403804D01*
X96945955Y-18398474D01*
X96856814Y-18207311D01*
X96856811Y-18207306D01*
X96854488Y-18202324D01*
X96851331Y-18197815D01*
X96730136Y-18024730D01*
X96730134Y-18024727D01*
X96726977Y-18020219D01*
X96569781Y-17863023D01*
X96565273Y-17859866D01*
X96565270Y-17859864D01*
X96443493Y-17774595D01*
X96387677Y-17735512D01*
X96382695Y-17733189D01*
X96382690Y-17733186D01*
X96277627Y-17684195D01*
X96224342Y-17637278D01*
X96204881Y-17569001D01*
X96225423Y-17501041D01*
X96277627Y-17455805D01*
X96382690Y-17406814D01*
X96382695Y-17406811D01*
X96387677Y-17404488D01*
X96564887Y-17280404D01*
X96565270Y-17280136D01*
X96565273Y-17280134D01*
X96569781Y-17276977D01*
X96726977Y-17119781D01*
X96734110Y-17109595D01*
X96851331Y-16942185D01*
X96851332Y-16942183D01*
X96854488Y-16937676D01*
X96856811Y-16932694D01*
X96856814Y-16932689D01*
X96946117Y-16741178D01*
X96946118Y-16741177D01*
X96948440Y-16736196D01*
X97005978Y-16521463D01*
X97025353Y-16300000D01*
X97005978Y-16078537D01*
X96952158Y-15877679D01*
X96949863Y-15869114D01*
X96949862Y-15869112D01*
X96948440Y-15863804D01*
X96935259Y-15835538D01*
X96856814Y-15667311D01*
X96856811Y-15667306D01*
X96854488Y-15662324D01*
X96851331Y-15657815D01*
X96730136Y-15484730D01*
X96730134Y-15484727D01*
X96726977Y-15480219D01*
X96569781Y-15323023D01*
X96565273Y-15319866D01*
X96565270Y-15319864D01*
X96478261Y-15258940D01*
X96387677Y-15195512D01*
X96382695Y-15193189D01*
X96382690Y-15193186D01*
X96191178Y-15103883D01*
X96191177Y-15103882D01*
X96186196Y-15101560D01*
X96180888Y-15100138D01*
X96180886Y-15100137D01*
X96073735Y-15071426D01*
X95971463Y-15044022D01*
X95750000Y-15024647D01*
X95528537Y-15044022D01*
X95426265Y-15071426D01*
X95319114Y-15100137D01*
X95319112Y-15100138D01*
X95313804Y-15101560D01*
X95308823Y-15103882D01*
X95308822Y-15103883D01*
X95117311Y-15193186D01*
X95117306Y-15193189D01*
X95112324Y-15195512D01*
X95107817Y-15198668D01*
X95107815Y-15198669D01*
X94934730Y-15319864D01*
X94934727Y-15319866D01*
X94930219Y-15323023D01*
X94773023Y-15480219D01*
X94769866Y-15484727D01*
X94769864Y-15484730D01*
X94680209Y-15612771D01*
X94624752Y-15657099D01*
X94576996Y-15666500D01*
X94268763Y-15666500D01*
X94257579Y-15665973D01*
X94250091Y-15664299D01*
X94242168Y-15664548D01*
X94182033Y-15666438D01*
X94178075Y-15666500D01*
X94150144Y-15666500D01*
X94146229Y-15666995D01*
X94146225Y-15666995D01*
X94146167Y-15667003D01*
X94146138Y-15667006D01*
X94134296Y-15667939D01*
X94090110Y-15669327D01*
X94072744Y-15674372D01*
X94070658Y-15674978D01*
X94051306Y-15678986D01*
X94039068Y-15680532D01*
X94039066Y-15680533D01*
X94031203Y-15681526D01*
X93990086Y-15697806D01*
X93978885Y-15701641D01*
X93936406Y-15713982D01*
X93929587Y-15718015D01*
X93929582Y-15718017D01*
X93918971Y-15724293D01*
X93901221Y-15732990D01*
X93882383Y-15740448D01*
X93875967Y-15745109D01*
X93875966Y-15745110D01*
X93846625Y-15766428D01*
X93836701Y-15772947D01*
X93805460Y-15791422D01*
X93805455Y-15791426D01*
X93798637Y-15795458D01*
X93784313Y-15809782D01*
X93769281Y-15822621D01*
X93752893Y-15834528D01*
X93728674Y-15863804D01*
X93724712Y-15868593D01*
X93716722Y-15877373D01*
X87258410Y-22335685D01*
X87196098Y-22369711D01*
X87173276Y-22372528D01*
X87144967Y-22373418D01*
X87139519Y-22373589D01*
X87131600Y-22373838D01*
X87112146Y-22379490D01*
X87092789Y-22383498D01*
X87080559Y-22385043D01*
X87080558Y-22385043D01*
X87072692Y-22386037D01*
X87065321Y-22388956D01*
X87065319Y-22388956D01*
X87031577Y-22402315D01*
X87020347Y-22406160D01*
X86985506Y-22416282D01*
X86985505Y-22416282D01*
X86977896Y-22418493D01*
X86971077Y-22422526D01*
X86971072Y-22422528D01*
X86960461Y-22428804D01*
X86942713Y-22437499D01*
X86923872Y-22444959D01*
X86917456Y-22449621D01*
X86917455Y-22449621D01*
X86888102Y-22470947D01*
X86878182Y-22477463D01*
X86846954Y-22495931D01*
X86846951Y-22495933D01*
X86840127Y-22499969D01*
X86825806Y-22514290D01*
X86810773Y-22527130D01*
X86794382Y-22539039D01*
X86766191Y-22573116D01*
X86758201Y-22581895D01*
X79943595Y-29396500D01*
X79881283Y-29430526D01*
X79810468Y-29425461D01*
X79753632Y-29382914D01*
X79728821Y-29316394D01*
X79728500Y-29307405D01*
X79728500Y-27251866D01*
X79721745Y-27189684D01*
X79670615Y-27053295D01*
X79583261Y-26936739D01*
X79466705Y-26849385D01*
X79330316Y-26798255D01*
X79268134Y-26791500D01*
X76171866Y-26791500D01*
X76109684Y-26798255D01*
X75973295Y-26849385D01*
X75856739Y-26936739D01*
X75769385Y-27053295D01*
X75718255Y-27189684D01*
X75711500Y-27251866D01*
X75711500Y-30348134D01*
X75718255Y-30410316D01*
X75769385Y-30546705D01*
X75856739Y-30663261D01*
X75973295Y-30750615D01*
X76109684Y-30801745D01*
X76171866Y-30808500D01*
X78227405Y-30808500D01*
X78295526Y-30828502D01*
X78342019Y-30882158D01*
X78352123Y-30952432D01*
X78322629Y-31017012D01*
X78316500Y-31023595D01*
X77427236Y-31912859D01*
X77418950Y-31920399D01*
X77412471Y-31924511D01*
X77407046Y-31930288D01*
X77365846Y-31974162D01*
X77363091Y-31977004D01*
X77343354Y-31996741D01*
X77340874Y-31999938D01*
X77333171Y-32008958D01*
X77302903Y-32041190D01*
X77299084Y-32048136D01*
X77299082Y-32048139D01*
X77293141Y-32058945D01*
X77282290Y-32075464D01*
X77269875Y-32091470D01*
X77266730Y-32098739D01*
X77266727Y-32098743D01*
X77252315Y-32132048D01*
X77247098Y-32142698D01*
X77225794Y-32181451D01*
X77223823Y-32189126D01*
X77223823Y-32189127D01*
X77220756Y-32201073D01*
X77214352Y-32219777D01*
X77206308Y-32238366D01*
X77205069Y-32246189D01*
X77205066Y-32246199D01*
X77199390Y-32282035D01*
X77196984Y-32293655D01*
X77185989Y-32336481D01*
X77185989Y-32356735D01*
X77184438Y-32376445D01*
X77181269Y-32396454D01*
X77182015Y-32404346D01*
X77185430Y-32440472D01*
X77185989Y-32452330D01*
X77185989Y-33635175D01*
X77165987Y-33703296D01*
X77112331Y-33749789D01*
X77042057Y-33759893D01*
X77012867Y-33751417D01*
X77012789Y-33751638D01*
X77008964Y-33750283D01*
X77008956Y-33750281D01*
X76997379Y-33746181D01*
X76807087Y-33678795D01*
X76807083Y-33678794D01*
X76802212Y-33677069D01*
X76797119Y-33676162D01*
X76797116Y-33676161D01*
X76587373Y-33638800D01*
X76587367Y-33638799D01*
X76582284Y-33637894D01*
X76508452Y-33636992D01*
X76364081Y-33635228D01*
X76364079Y-33635228D01*
X76358911Y-33635165D01*
X76138091Y-33668955D01*
X75925756Y-33738357D01*
X75887947Y-33758039D01*
X75738799Y-33835681D01*
X75727607Y-33841507D01*
X75723474Y-33844610D01*
X75723471Y-33844612D01*
X75553100Y-33972530D01*
X75548965Y-33975635D01*
X75394629Y-34137138D01*
X75287201Y-34294621D01*
X75232293Y-34339621D01*
X75161768Y-34347792D01*
X75098021Y-34316538D01*
X75077324Y-34292054D01*
X74996822Y-34167617D01*
X74996820Y-34167614D01*
X74994014Y-34163277D01*
X74843670Y-33998051D01*
X74839619Y-33994852D01*
X74839615Y-33994848D01*
X74672414Y-33862800D01*
X74672410Y-33862798D01*
X74668359Y-33859598D01*
X74656748Y-33853188D01*
X74581655Y-33811735D01*
X74472789Y-33751638D01*
X74467920Y-33749914D01*
X74467916Y-33749912D01*
X74267087Y-33678795D01*
X74267083Y-33678794D01*
X74262212Y-33677069D01*
X74257119Y-33676162D01*
X74257116Y-33676161D01*
X74047373Y-33638800D01*
X74047367Y-33638799D01*
X74042284Y-33637894D01*
X73968452Y-33636992D01*
X73824081Y-33635228D01*
X73824079Y-33635228D01*
X73818911Y-33635165D01*
X73598091Y-33668955D01*
X73385756Y-33738357D01*
X73347947Y-33758039D01*
X73198799Y-33835681D01*
X73187607Y-33841507D01*
X73183474Y-33844610D01*
X73183471Y-33844612D01*
X73013100Y-33972530D01*
X73008965Y-33975635D01*
X72854629Y-34137138D01*
X72747201Y-34294621D01*
X72692293Y-34339621D01*
X72621768Y-34347792D01*
X72558021Y-34316538D01*
X72537324Y-34292054D01*
X72456822Y-34167617D01*
X72456820Y-34167614D01*
X72454014Y-34163277D01*
X72303670Y-33998051D01*
X72299619Y-33994852D01*
X72299615Y-33994848D01*
X72132414Y-33862800D01*
X72132410Y-33862798D01*
X72128359Y-33859598D01*
X72116748Y-33853188D01*
X72041655Y-33811735D01*
X71932789Y-33751638D01*
X71927920Y-33749914D01*
X71927916Y-33749912D01*
X71727087Y-33678795D01*
X71727083Y-33678794D01*
X71722212Y-33677069D01*
X71717119Y-33676162D01*
X71717116Y-33676161D01*
X71507373Y-33638800D01*
X71507367Y-33638799D01*
X71502284Y-33637894D01*
X71428452Y-33636992D01*
X71284081Y-33635228D01*
X71284079Y-33635228D01*
X71278911Y-33635165D01*
X71058091Y-33668955D01*
X70845756Y-33738357D01*
X70807947Y-33758039D01*
X70658799Y-33835681D01*
X70647607Y-33841507D01*
X70643474Y-33844610D01*
X70643471Y-33844612D01*
X70473100Y-33972530D01*
X70468965Y-33975635D01*
X70314629Y-34137138D01*
X70207201Y-34294621D01*
X70152293Y-34339621D01*
X70081768Y-34347792D01*
X70018021Y-34316538D01*
X69997324Y-34292054D01*
X69916822Y-34167617D01*
X69916820Y-34167614D01*
X69914014Y-34163277D01*
X69763670Y-33998051D01*
X69759619Y-33994852D01*
X69759615Y-33994848D01*
X69592414Y-33862800D01*
X69592410Y-33862798D01*
X69588359Y-33859598D01*
X69576748Y-33853188D01*
X69501655Y-33811735D01*
X69392789Y-33751638D01*
X69387920Y-33749914D01*
X69387916Y-33749912D01*
X69187087Y-33678795D01*
X69187083Y-33678794D01*
X69182212Y-33677069D01*
X69177119Y-33676162D01*
X69177116Y-33676161D01*
X68967373Y-33638800D01*
X68967367Y-33638799D01*
X68962284Y-33637894D01*
X68888452Y-33636992D01*
X68744081Y-33635228D01*
X68744079Y-33635228D01*
X68738911Y-33635165D01*
X68518091Y-33668955D01*
X68305756Y-33738357D01*
X68267947Y-33758039D01*
X68118799Y-33835681D01*
X68107607Y-33841507D01*
X68103474Y-33844610D01*
X68103471Y-33844612D01*
X67933100Y-33972530D01*
X67928965Y-33975635D01*
X67774629Y-34137138D01*
X67648743Y-34321680D01*
X67628324Y-34365669D01*
X67575163Y-34480196D01*
X67554688Y-34524305D01*
X67494989Y-34739570D01*
X67471251Y-34961695D01*
X67471548Y-34966848D01*
X67471548Y-34966851D01*
X67476685Y-35055941D01*
X67484110Y-35184715D01*
X67485247Y-35189761D01*
X67485248Y-35189767D01*
X67497807Y-35245492D01*
X67533222Y-35402639D01*
X67617266Y-35609616D01*
X67659312Y-35678229D01*
X67731291Y-35795688D01*
X67733987Y-35800088D01*
X67880250Y-35968938D01*
X68052126Y-36111632D01*
X68245000Y-36224338D01*
X68249825Y-36226180D01*
X68249826Y-36226181D01*
X68322612Y-36253975D01*
X68453692Y-36304030D01*
X68458760Y-36305061D01*
X68458763Y-36305062D01*
X68566017Y-36326883D01*
X68672597Y-36348567D01*
X68677772Y-36348757D01*
X68677774Y-36348757D01*
X68890673Y-36356564D01*
X68890677Y-36356564D01*
X68895837Y-36356753D01*
X68900957Y-36356097D01*
X68900959Y-36356097D01*
X69112288Y-36329025D01*
X69112289Y-36329025D01*
X69117416Y-36328368D01*
X69122366Y-36326883D01*
X69326429Y-36265661D01*
X69326434Y-36265659D01*
X69331384Y-36264174D01*
X69531994Y-36165896D01*
X69713860Y-36036173D01*
X69730880Y-36019213D01*
X69868435Y-35882137D01*
X69872096Y-35878489D01*
X69900424Y-35839067D01*
X70002453Y-35697077D01*
X70003776Y-35698028D01*
X70050645Y-35654857D01*
X70120580Y-35642625D01*
X70186026Y-35670144D01*
X70213875Y-35701994D01*
X70225977Y-35721742D01*
X70273987Y-35800088D01*
X70420250Y-35968938D01*
X70592126Y-36111632D01*
X70785000Y-36224338D01*
X70789825Y-36226180D01*
X70789826Y-36226181D01*
X70862612Y-36253975D01*
X70993692Y-36304030D01*
X70998760Y-36305061D01*
X70998763Y-36305062D01*
X71106017Y-36326883D01*
X71212597Y-36348567D01*
X71217772Y-36348757D01*
X71217774Y-36348757D01*
X71430673Y-36356564D01*
X71430677Y-36356564D01*
X71435837Y-36356753D01*
X71440957Y-36356097D01*
X71440959Y-36356097D01*
X71652288Y-36329025D01*
X71652289Y-36329025D01*
X71657416Y-36328368D01*
X71662366Y-36326883D01*
X71866429Y-36265661D01*
X71866434Y-36265659D01*
X71871384Y-36264174D01*
X72071994Y-36165896D01*
X72253860Y-36036173D01*
X72270880Y-36019213D01*
X72408435Y-35882137D01*
X72412096Y-35878489D01*
X72440424Y-35839067D01*
X72542453Y-35697077D01*
X72543776Y-35698028D01*
X72590645Y-35654857D01*
X72660580Y-35642625D01*
X72726026Y-35670144D01*
X72753875Y-35701994D01*
X72765977Y-35721742D01*
X72813987Y-35800088D01*
X72960250Y-35968938D01*
X73132126Y-36111632D01*
X73325000Y-36224338D01*
X73329825Y-36226180D01*
X73329826Y-36226181D01*
X73402612Y-36253975D01*
X73533692Y-36304030D01*
X73538760Y-36305061D01*
X73538763Y-36305062D01*
X73646017Y-36326883D01*
X73752597Y-36348567D01*
X73757772Y-36348757D01*
X73757774Y-36348757D01*
X73970673Y-36356564D01*
X73970677Y-36356564D01*
X73975837Y-36356753D01*
X73980957Y-36356097D01*
X73980959Y-36356097D01*
X74192288Y-36329025D01*
X74192289Y-36329025D01*
X74197416Y-36328368D01*
X74202366Y-36326883D01*
X74406429Y-36265661D01*
X74406434Y-36265659D01*
X74411384Y-36264174D01*
X74611994Y-36165896D01*
X74793860Y-36036173D01*
X74810880Y-36019213D01*
X74948435Y-35882137D01*
X74952096Y-35878489D01*
X74980424Y-35839067D01*
X75082453Y-35697077D01*
X75083776Y-35698028D01*
X75130645Y-35654857D01*
X75200580Y-35642625D01*
X75266026Y-35670144D01*
X75293875Y-35701994D01*
X75305977Y-35721742D01*
X75353987Y-35800088D01*
X75500250Y-35968938D01*
X75672126Y-36111632D01*
X75715184Y-36136793D01*
X75802741Y-36187957D01*
X75851464Y-36239596D01*
X75864535Y-36309379D01*
X75837803Y-36375151D01*
X75828265Y-36385840D01*
X71217389Y-40996716D01*
X71155077Y-41030742D01*
X71128294Y-41033621D01*
X62027480Y-41033621D01*
X61959359Y-41013619D01*
X61912866Y-40959963D01*
X61902762Y-40889689D01*
X61932256Y-40825109D01*
X61974229Y-40793427D01*
X61982348Y-40789641D01*
X61982354Y-40789638D01*
X61986936Y-40787501D01*
X62187707Y-40651056D01*
X62364081Y-40484268D01*
X62372456Y-40473314D01*
X62508447Y-40295446D01*
X62508450Y-40295442D01*
X62511520Y-40291426D01*
X62554510Y-40211251D01*
X62623839Y-40081952D01*
X62626231Y-40077491D01*
X62705262Y-39847969D01*
X62730511Y-39701791D01*
X62745904Y-39612674D01*
X62745905Y-39612668D01*
X62746579Y-39608764D01*
X62747338Y-39592057D01*
X62747836Y-39581094D01*
X62747836Y-39581075D01*
X62747900Y-39579675D01*
X62747900Y-34281231D01*
X62767902Y-34213110D01*
X62784805Y-34192136D01*
X62919536Y-34057405D01*
X62981848Y-34023379D01*
X63008631Y-34020500D01*
X66269984Y-34020500D01*
X66273502Y-34020549D01*
X66368150Y-34023193D01*
X66368153Y-34023193D01*
X66373205Y-34023334D01*
X66451098Y-34012941D01*
X66457639Y-34012242D01*
X66486332Y-34009933D01*
X66530923Y-34006346D01*
X66530927Y-34006345D01*
X66535965Y-34005940D01*
X66567878Y-33998101D01*
X66581258Y-33995574D01*
X66613820Y-33991229D01*
X66618661Y-33989768D01*
X66618663Y-33989767D01*
X66689029Y-33968522D01*
X66695392Y-33966781D01*
X66771706Y-33948037D01*
X66801952Y-33935199D01*
X66814763Y-33930561D01*
X66841362Y-33922530D01*
X66846208Y-33921067D01*
X66850756Y-33918849D01*
X66850763Y-33918846D01*
X66916818Y-33886629D01*
X66922820Y-33883893D01*
X66985937Y-33857101D01*
X66995156Y-33853188D01*
X67022956Y-33835681D01*
X67034860Y-33829055D01*
X67064388Y-33814654D01*
X67128600Y-33769357D01*
X67134086Y-33765699D01*
X67196286Y-33726529D01*
X67196287Y-33726528D01*
X67200567Y-33723833D01*
X67204356Y-33720492D01*
X67204362Y-33720488D01*
X67225217Y-33702102D01*
X67235912Y-33693656D01*
X67243147Y-33688552D01*
X67262747Y-33674726D01*
X67269067Y-33668955D01*
X67283187Y-33656062D01*
X67283195Y-33656054D01*
X67284250Y-33655091D01*
X67323966Y-33615375D01*
X67329736Y-33609956D01*
X67378858Y-33566650D01*
X67378861Y-33566647D01*
X67382655Y-33563302D01*
X67385871Y-33559387D01*
X67409178Y-33531013D01*
X67417448Y-33521893D01*
X73896885Y-27042457D01*
X73899407Y-27040003D01*
X73968205Y-26974944D01*
X73971881Y-26971468D01*
X74019612Y-26909039D01*
X74023754Y-26903907D01*
X74071387Y-26847938D01*
X74071389Y-26847935D01*
X74074670Y-26844080D01*
X74077290Y-26839754D01*
X74077295Y-26839747D01*
X74091691Y-26815976D01*
X74099363Y-26804729D01*
X74119320Y-26778626D01*
X74156447Y-26709384D01*
X74159710Y-26703663D01*
X74197802Y-26640766D01*
X74197803Y-26640765D01*
X74200420Y-26636443D01*
X74212734Y-26605966D01*
X74218503Y-26593650D01*
X74234031Y-26564691D01*
X74259623Y-26490367D01*
X74261918Y-26484229D01*
X74263660Y-26479919D01*
X74291355Y-26411371D01*
X74298632Y-26379339D01*
X74302363Y-26366241D01*
X74313062Y-26335169D01*
X74326443Y-26257700D01*
X74327726Y-26251282D01*
X74344015Y-26179586D01*
X74344015Y-26179585D01*
X74345135Y-26174656D01*
X74347199Y-26141847D01*
X74348785Y-26128347D01*
X74354379Y-26095964D01*
X74354979Y-26082749D01*
X74355636Y-26068294D01*
X74355636Y-26068275D01*
X74355700Y-26066875D01*
X74355700Y-26010693D01*
X74355949Y-26002781D01*
X74360060Y-25937442D01*
X74360378Y-25932388D01*
X74356301Y-25890809D01*
X74355700Y-25878513D01*
X74355700Y-25872399D01*
X74353216Y-25841526D01*
X74341546Y-25696476D01*
X74341545Y-25696471D01*
X74341140Y-25691435D01*
X74283237Y-25455694D01*
X74188388Y-25232244D01*
X74084170Y-25066749D01*
X74061728Y-25031112D01*
X74061726Y-25031109D01*
X74059033Y-25026833D01*
X73970007Y-24925852D01*
X73901850Y-24848542D01*
X73901847Y-24848539D01*
X73898502Y-24844745D01*
X73823488Y-24783128D01*
X73714828Y-24693874D01*
X73714825Y-24693872D01*
X73710922Y-24690666D01*
X73572244Y-24609953D01*
X73505490Y-24571101D01*
X73505488Y-24571100D01*
X73501122Y-24568559D01*
X73478775Y-24559981D01*
X73279222Y-24483380D01*
X73279218Y-24483379D01*
X73274498Y-24481567D01*
X73269548Y-24480533D01*
X73269545Y-24480532D01*
X73041831Y-24432960D01*
X73041827Y-24432960D01*
X73036880Y-24431926D01*
X72794383Y-24420914D01*
X72789363Y-24421495D01*
X72789359Y-24421495D01*
X72558271Y-24448233D01*
X72558267Y-24448234D01*
X72553244Y-24448815D01*
X72548380Y-24450191D01*
X72548377Y-24450192D01*
X72441158Y-24480532D01*
X72319668Y-24514910D01*
X72315092Y-24517044D01*
X72315086Y-24517046D01*
X72104246Y-24615362D01*
X72104242Y-24615364D01*
X72099664Y-24617499D01*
X71898893Y-24753944D01*
X71722519Y-24920732D01*
X71719441Y-24924758D01*
X71719440Y-24924759D01*
X71632103Y-25038991D01*
X71621102Y-25051557D01*
X65706064Y-30966595D01*
X65643752Y-31000621D01*
X65616969Y-31003500D01*
X62355616Y-31003500D01*
X62352098Y-31003451D01*
X62257450Y-31000807D01*
X62257447Y-31000807D01*
X62252395Y-31000666D01*
X62174502Y-31011059D01*
X62167961Y-31011758D01*
X62139268Y-31014067D01*
X62094677Y-31017654D01*
X62094673Y-31017655D01*
X62089635Y-31018060D01*
X62057722Y-31025899D01*
X62044342Y-31028426D01*
X62011780Y-31032771D01*
X62006939Y-31034232D01*
X62006937Y-31034233D01*
X61936571Y-31055478D01*
X61930210Y-31057219D01*
X61853894Y-31075963D01*
X61842883Y-31080637D01*
X61823649Y-31088801D01*
X61810839Y-31093438D01*
X61779392Y-31102933D01*
X61774844Y-31105151D01*
X61774837Y-31105154D01*
X61708782Y-31137371D01*
X61702780Y-31140107D01*
X61666496Y-31155509D01*
X61630444Y-31170812D01*
X61611108Y-31182989D01*
X61602644Y-31188319D01*
X61590740Y-31194945D01*
X61561212Y-31209346D01*
X61508456Y-31246562D01*
X61497003Y-31254641D01*
X61491514Y-31258301D01*
X61463644Y-31275852D01*
X61425033Y-31300167D01*
X61421244Y-31303508D01*
X61421238Y-31303512D01*
X61400383Y-31321898D01*
X61389688Y-31330344D01*
X61362853Y-31349274D01*
X61359929Y-31351944D01*
X61347470Y-31363321D01*
X61341350Y-31368909D01*
X61301634Y-31408625D01*
X61295864Y-31414044D01*
X61246742Y-31457350D01*
X61246739Y-31457353D01*
X61242945Y-31460698D01*
X61239735Y-31464606D01*
X61239734Y-31464607D01*
X61216421Y-31492989D01*
X61208151Y-31502108D01*
X60189734Y-32520525D01*
X60187212Y-32522979D01*
X60114719Y-32591532D01*
X60072453Y-32646814D01*
X60066992Y-32653957D01*
X60062848Y-32659092D01*
X60031603Y-32695805D01*
X60011930Y-32718920D01*
X60009311Y-32723245D01*
X60009307Y-32723250D01*
X59994909Y-32747024D01*
X59987237Y-32758271D01*
X59967280Y-32784374D01*
X59964890Y-32788832D01*
X59964889Y-32788833D01*
X59930161Y-32853601D01*
X59926896Y-32859326D01*
X59886179Y-32926558D01*
X59873873Y-32957017D01*
X59868093Y-32969358D01*
X59852569Y-32998309D01*
X59850923Y-33003090D01*
X59850921Y-33003094D01*
X59826988Y-33072601D01*
X59824678Y-33078779D01*
X59809121Y-33117284D01*
X59795245Y-33151629D01*
X59788921Y-33179466D01*
X59787968Y-33183660D01*
X59784237Y-33196759D01*
X59773538Y-33227831D01*
X59760157Y-33305300D01*
X59758877Y-33311704D01*
X59741465Y-33388344D01*
X59739401Y-33421153D01*
X59737815Y-33434653D01*
X59732221Y-33467036D01*
X59732041Y-33470993D01*
X59732041Y-33470996D01*
X59731098Y-33491770D01*
X59730900Y-33496125D01*
X59730900Y-33552308D01*
X59730651Y-33560222D01*
X59728822Y-33589284D01*
X59704581Y-33656014D01*
X59648111Y-33699045D01*
X59577341Y-33704715D01*
X59514740Y-33671224D01*
X59487524Y-33631616D01*
X59401354Y-33433440D01*
X59361906Y-33372462D01*
X59282822Y-33250217D01*
X59282820Y-33250214D01*
X59280014Y-33245877D01*
X59129670Y-33080651D01*
X59125619Y-33077452D01*
X59125615Y-33077448D01*
X58958414Y-32945400D01*
X58958410Y-32945398D01*
X58954359Y-32942198D01*
X58949831Y-32939698D01*
X58833988Y-32875750D01*
X58758789Y-32834238D01*
X58753920Y-32832514D01*
X58753916Y-32832512D01*
X58553087Y-32761395D01*
X58553083Y-32761394D01*
X58548212Y-32759669D01*
X58543119Y-32758762D01*
X58543116Y-32758761D01*
X58333373Y-32721400D01*
X58333367Y-32721399D01*
X58328284Y-32720494D01*
X58254452Y-32719592D01*
X58110081Y-32717828D01*
X58110079Y-32717828D01*
X58104911Y-32717765D01*
X57884091Y-32751555D01*
X57671756Y-32820957D01*
X57641443Y-32836737D01*
X57497975Y-32911422D01*
X57473607Y-32924107D01*
X57469474Y-32927210D01*
X57469471Y-32927212D01*
X57374779Y-32998309D01*
X57294965Y-33058235D01*
X57238536Y-33117284D01*
X57183729Y-33174637D01*
X57140629Y-33219738D01*
X57033201Y-33377221D01*
X56978293Y-33422221D01*
X56907768Y-33430392D01*
X56844021Y-33399138D01*
X56823324Y-33374654D01*
X56742822Y-33250217D01*
X56742820Y-33250214D01*
X56740014Y-33245877D01*
X56589670Y-33080651D01*
X56585619Y-33077452D01*
X56585615Y-33077448D01*
X56418414Y-32945400D01*
X56418410Y-32945398D01*
X56414359Y-32942198D01*
X56409831Y-32939698D01*
X56293988Y-32875750D01*
X56218789Y-32834238D01*
X56213920Y-32832514D01*
X56213916Y-32832512D01*
X56013087Y-32761395D01*
X56013083Y-32761394D01*
X56008212Y-32759669D01*
X56003119Y-32758762D01*
X56003116Y-32758761D01*
X55793373Y-32721400D01*
X55793367Y-32721399D01*
X55788284Y-32720494D01*
X55714452Y-32719592D01*
X55570081Y-32717828D01*
X55570079Y-32717828D01*
X55564911Y-32717765D01*
X55344091Y-32751555D01*
X55131756Y-32820957D01*
X55101443Y-32836737D01*
X54957975Y-32911422D01*
X54933607Y-32924107D01*
X54929474Y-32927210D01*
X54929471Y-32927212D01*
X54834779Y-32998309D01*
X54754965Y-33058235D01*
X54698537Y-33117284D01*
X54674283Y-33142664D01*
X54612759Y-33178094D01*
X54541846Y-33174637D01*
X54484060Y-33133391D01*
X54465207Y-33099843D01*
X54423767Y-32989303D01*
X54420615Y-32980895D01*
X54333261Y-32864339D01*
X54216705Y-32776985D01*
X54080316Y-32725855D01*
X54018134Y-32719100D01*
X52221866Y-32719100D01*
X52159684Y-32725855D01*
X52023295Y-32776985D01*
X51906739Y-32864339D01*
X51819385Y-32980895D01*
X51816233Y-32989303D01*
X51774919Y-33099507D01*
X51732277Y-33156271D01*
X51665716Y-33180971D01*
X51596367Y-33165763D01*
X51563743Y-33140076D01*
X51513151Y-33084475D01*
X51513142Y-33084466D01*
X51509670Y-33080651D01*
X51505619Y-33077452D01*
X51505615Y-33077448D01*
X51338414Y-32945400D01*
X51338410Y-32945398D01*
X51334359Y-32942198D01*
X51329831Y-32939698D01*
X51213988Y-32875750D01*
X51138789Y-32834238D01*
X51133920Y-32832514D01*
X51133916Y-32832512D01*
X50933087Y-32761395D01*
X50933083Y-32761394D01*
X50928212Y-32759669D01*
X50923119Y-32758762D01*
X50923116Y-32758761D01*
X50713373Y-32721400D01*
X50713367Y-32721399D01*
X50708284Y-32720494D01*
X50634452Y-32719592D01*
X50490081Y-32717828D01*
X50490079Y-32717828D01*
X50484911Y-32717765D01*
X50264091Y-32751555D01*
X50051756Y-32820957D01*
X50021443Y-32836737D01*
X49877975Y-32911422D01*
X49853607Y-32924107D01*
X49849474Y-32927210D01*
X49849471Y-32927212D01*
X49754779Y-32998309D01*
X49674965Y-33058235D01*
X49618536Y-33117284D01*
X49563729Y-33174637D01*
X49520629Y-33219738D01*
X49413201Y-33377221D01*
X49358293Y-33422221D01*
X49287768Y-33430392D01*
X49224021Y-33399138D01*
X49203324Y-33374654D01*
X49122822Y-33250217D01*
X49122820Y-33250214D01*
X49120014Y-33245877D01*
X48969670Y-33080651D01*
X48965619Y-33077452D01*
X48965615Y-33077448D01*
X48798414Y-32945400D01*
X48798410Y-32945398D01*
X48794359Y-32942198D01*
X48789831Y-32939698D01*
X48673988Y-32875750D01*
X48598789Y-32834238D01*
X48593920Y-32832514D01*
X48593916Y-32832512D01*
X48393087Y-32761395D01*
X48393083Y-32761394D01*
X48388212Y-32759669D01*
X48383119Y-32758762D01*
X48383116Y-32758761D01*
X48173373Y-32721400D01*
X48173367Y-32721399D01*
X48168284Y-32720494D01*
X48094452Y-32719592D01*
X47950081Y-32717828D01*
X47950079Y-32717828D01*
X47944911Y-32717765D01*
X47724091Y-32751555D01*
X47511756Y-32820957D01*
X47481443Y-32836737D01*
X47337975Y-32911422D01*
X47313607Y-32924107D01*
X47309474Y-32927210D01*
X47309471Y-32927212D01*
X47214779Y-32998309D01*
X47134965Y-33058235D01*
X47078536Y-33117284D01*
X47023729Y-33174637D01*
X46980629Y-33219738D01*
X46873201Y-33377221D01*
X46818293Y-33422221D01*
X46747768Y-33430392D01*
X46684021Y-33399138D01*
X46663324Y-33374654D01*
X46582822Y-33250217D01*
X46582820Y-33250214D01*
X46580014Y-33245877D01*
X46429670Y-33080651D01*
X46425619Y-33077452D01*
X46425615Y-33077448D01*
X46258414Y-32945400D01*
X46258410Y-32945398D01*
X46254359Y-32942198D01*
X46249835Y-32939701D01*
X46249831Y-32939698D01*
X46198608Y-32911422D01*
X46148636Y-32860990D01*
X46133500Y-32801113D01*
X46133500Y-31776594D01*
X46153502Y-31708473D01*
X46170405Y-31687499D01*
X46583580Y-31274324D01*
X46645892Y-31240298D01*
X46716707Y-31245363D01*
X46766311Y-31279108D01*
X46886747Y-31412866D01*
X46947974Y-31457350D01*
X47020278Y-31509882D01*
X47041248Y-31525118D01*
X47047276Y-31527802D01*
X47047278Y-31527803D01*
X47209681Y-31600109D01*
X47215712Y-31602794D01*
X47309113Y-31622647D01*
X47396056Y-31641128D01*
X47396061Y-31641128D01*
X47402513Y-31642500D01*
X47593487Y-31642500D01*
X47599939Y-31641128D01*
X47599944Y-31641128D01*
X47686887Y-31622647D01*
X47780288Y-31602794D01*
X47786319Y-31600109D01*
X47948722Y-31527803D01*
X47948724Y-31527802D01*
X47954752Y-31525118D01*
X47975723Y-31509882D01*
X48098669Y-31420556D01*
X48109253Y-31412866D01*
X48113668Y-31407963D01*
X48118580Y-31403540D01*
X48119705Y-31404789D01*
X48173014Y-31371949D01*
X48206200Y-31367500D01*
X51615800Y-31367500D01*
X51683921Y-31387502D01*
X51703147Y-31403843D01*
X51703420Y-31403540D01*
X51708332Y-31407963D01*
X51712747Y-31412866D01*
X51723331Y-31420556D01*
X51846278Y-31509882D01*
X51867248Y-31525118D01*
X51873276Y-31527802D01*
X51873278Y-31527803D01*
X52035681Y-31600109D01*
X52041712Y-31602794D01*
X52135113Y-31622647D01*
X52222056Y-31641128D01*
X52222061Y-31641128D01*
X52228513Y-31642500D01*
X52419487Y-31642500D01*
X52425939Y-31641128D01*
X52425944Y-31641128D01*
X52512887Y-31622647D01*
X52606288Y-31602794D01*
X52612319Y-31600109D01*
X52774722Y-31527803D01*
X52774724Y-31527802D01*
X52780752Y-31525118D01*
X52801723Y-31509882D01*
X52874026Y-31457350D01*
X52935253Y-31412866D01*
X52939675Y-31407955D01*
X53058621Y-31275852D01*
X53058622Y-31275851D01*
X53063040Y-31270944D01*
X53140159Y-31137371D01*
X53155223Y-31111279D01*
X53155224Y-31111278D01*
X53158527Y-31105556D01*
X53217542Y-30923928D01*
X53219223Y-30907939D01*
X53236814Y-30740565D01*
X53237504Y-30734000D01*
X53230037Y-30662959D01*
X53218232Y-30550635D01*
X53218232Y-30550633D01*
X53217542Y-30544072D01*
X53158527Y-30362444D01*
X53152227Y-30351531D01*
X53105154Y-30270000D01*
X53063040Y-30197056D01*
X53025898Y-30155805D01*
X52939675Y-30060045D01*
X52939674Y-30060044D01*
X52935253Y-30055134D01*
X52780752Y-29942882D01*
X52774724Y-29940198D01*
X52774722Y-29940197D01*
X52612319Y-29867891D01*
X52612318Y-29867891D01*
X52606288Y-29865206D01*
X52544529Y-29852079D01*
X52482057Y-29818351D01*
X52450894Y-29767768D01*
X52444431Y-29747875D01*
X52396527Y-29600444D01*
X52346790Y-29514298D01*
X52330053Y-29445305D01*
X52346790Y-29388302D01*
X52396527Y-29302156D01*
X52455542Y-29120528D01*
X52475504Y-28930600D01*
X52468955Y-28868289D01*
X52456232Y-28747235D01*
X52456232Y-28747233D01*
X52455542Y-28740672D01*
X52396527Y-28559044D01*
X52301040Y-28393656D01*
X52173253Y-28251734D01*
X52018752Y-28139482D01*
X52012724Y-28136798D01*
X52012722Y-28136797D01*
X51850319Y-28064491D01*
X51850318Y-28064491D01*
X51844288Y-28061806D01*
X51750888Y-28041953D01*
X51663944Y-28023472D01*
X51663939Y-28023472D01*
X51657487Y-28022100D01*
X51466513Y-28022100D01*
X51460061Y-28023472D01*
X51460056Y-28023472D01*
X51373113Y-28041953D01*
X51279712Y-28061806D01*
X51273682Y-28064491D01*
X51273681Y-28064491D01*
X51111278Y-28136797D01*
X51111276Y-28136798D01*
X51105248Y-28139482D01*
X51099907Y-28143362D01*
X51099906Y-28143363D01*
X51042970Y-28184730D01*
X50950747Y-28251734D01*
X50946332Y-28256637D01*
X50941420Y-28261060D01*
X50940295Y-28259811D01*
X50886986Y-28292651D01*
X50853800Y-28297100D01*
X49577800Y-28297100D01*
X49509679Y-28277098D01*
X49490453Y-28260757D01*
X49490180Y-28261060D01*
X49485268Y-28256637D01*
X49480853Y-28251734D01*
X49388630Y-28184730D01*
X49331694Y-28143363D01*
X49331693Y-28143362D01*
X49326352Y-28139482D01*
X49320324Y-28136798D01*
X49320322Y-28136797D01*
X49157919Y-28064491D01*
X49157918Y-28064491D01*
X49151888Y-28061806D01*
X49058488Y-28041953D01*
X48971544Y-28023472D01*
X48971539Y-28023472D01*
X48965087Y-28022100D01*
X48774113Y-28022100D01*
X48767661Y-28023472D01*
X48767656Y-28023472D01*
X48680713Y-28041953D01*
X48587312Y-28061806D01*
X48581282Y-28064491D01*
X48581281Y-28064491D01*
X48418878Y-28136797D01*
X48418876Y-28136798D01*
X48412848Y-28139482D01*
X48258347Y-28251734D01*
X48130560Y-28393656D01*
X48035073Y-28559044D01*
X47976058Y-28740672D01*
X47975368Y-28747233D01*
X47975368Y-28747235D01*
X47962645Y-28868289D01*
X47956096Y-28930600D01*
X47976058Y-29120528D01*
X47993291Y-29173566D01*
X47995319Y-29244530D01*
X47958657Y-29305329D01*
X47894945Y-29336654D01*
X47873458Y-29338500D01*
X47068767Y-29338500D01*
X47057584Y-29337973D01*
X47050091Y-29336298D01*
X47042165Y-29336547D01*
X47042164Y-29336547D01*
X46982014Y-29338438D01*
X46978055Y-29338500D01*
X46950144Y-29338500D01*
X46946210Y-29338997D01*
X46946209Y-29338997D01*
X46946144Y-29339005D01*
X46934307Y-29339938D01*
X46902490Y-29340938D01*
X46898029Y-29341078D01*
X46890110Y-29341327D01*
X46872454Y-29346456D01*
X46870658Y-29346978D01*
X46851306Y-29350986D01*
X46844235Y-29351880D01*
X46831203Y-29353526D01*
X46823834Y-29356443D01*
X46823832Y-29356444D01*
X46790097Y-29369800D01*
X46778869Y-29373645D01*
X46736407Y-29385982D01*
X46729585Y-29390016D01*
X46729579Y-29390019D01*
X46718968Y-29396294D01*
X46701218Y-29404990D01*
X46689756Y-29409528D01*
X46689751Y-29409531D01*
X46682383Y-29412448D01*
X46675968Y-29417109D01*
X46646625Y-29438427D01*
X46636707Y-29444943D01*
X46618019Y-29455995D01*
X46598637Y-29467458D01*
X46584313Y-29481782D01*
X46569281Y-29494621D01*
X46552893Y-29506528D01*
X46524712Y-29540593D01*
X46516722Y-29549373D01*
X45107747Y-30958348D01*
X45099461Y-30965888D01*
X45092982Y-30970000D01*
X45087557Y-30975777D01*
X45046357Y-31019651D01*
X45043602Y-31022493D01*
X45023865Y-31042230D01*
X45021385Y-31045427D01*
X45013682Y-31054447D01*
X44983414Y-31086679D01*
X44979595Y-31093625D01*
X44979593Y-31093628D01*
X44973652Y-31104434D01*
X44962801Y-31120953D01*
X44950386Y-31136959D01*
X44947241Y-31144228D01*
X44947238Y-31144232D01*
X44932826Y-31177537D01*
X44927609Y-31188187D01*
X44906305Y-31226940D01*
X44904334Y-31234615D01*
X44904334Y-31234616D01*
X44901267Y-31246562D01*
X44894863Y-31265266D01*
X44886819Y-31283855D01*
X44885580Y-31291678D01*
X44885577Y-31291688D01*
X44879901Y-31327524D01*
X44877495Y-31339144D01*
X44874315Y-31351530D01*
X44866500Y-31381970D01*
X44866500Y-31402224D01*
X44864949Y-31421934D01*
X44861780Y-31441943D01*
X44865378Y-31480000D01*
X44865941Y-31485961D01*
X44866500Y-31497819D01*
X44866500Y-32799292D01*
X44846498Y-32867413D01*
X44798683Y-32911053D01*
X44773607Y-32924107D01*
X44769474Y-32927210D01*
X44769471Y-32927212D01*
X44674779Y-32998309D01*
X44594965Y-33058235D01*
X44538536Y-33117284D01*
X44483729Y-33174637D01*
X44440629Y-33219738D01*
X44333201Y-33377221D01*
X44278293Y-33422221D01*
X44207768Y-33430392D01*
X44144021Y-33399138D01*
X44123324Y-33374654D01*
X44042822Y-33250217D01*
X44042820Y-33250214D01*
X44040014Y-33245877D01*
X43889670Y-33080651D01*
X43885619Y-33077452D01*
X43885615Y-33077448D01*
X43718414Y-32945400D01*
X43718410Y-32945398D01*
X43714359Y-32942198D01*
X43709831Y-32939698D01*
X43593988Y-32875750D01*
X43518789Y-32834238D01*
X43513920Y-32832514D01*
X43513916Y-32832512D01*
X43313087Y-32761395D01*
X43313083Y-32761394D01*
X43308212Y-32759669D01*
X43303119Y-32758762D01*
X43303116Y-32758761D01*
X43093373Y-32721400D01*
X43093367Y-32721399D01*
X43088284Y-32720494D01*
X43014452Y-32719592D01*
X42870081Y-32717828D01*
X42870079Y-32717828D01*
X42864911Y-32717765D01*
X42644091Y-32751555D01*
X42431756Y-32820957D01*
X42401443Y-32836737D01*
X42257975Y-32911422D01*
X42233607Y-32924107D01*
X42229474Y-32927210D01*
X42229471Y-32927212D01*
X42134779Y-32998309D01*
X42054965Y-33058235D01*
X41998537Y-33117284D01*
X41974283Y-33142664D01*
X41912759Y-33178094D01*
X41841846Y-33174637D01*
X41784060Y-33133391D01*
X41765207Y-33099843D01*
X41723767Y-32989303D01*
X41720615Y-32980895D01*
X41633261Y-32864339D01*
X41516705Y-32776985D01*
X41380316Y-32725855D01*
X41318134Y-32719100D01*
X39521866Y-32719100D01*
X39459684Y-32725855D01*
X39323295Y-32776985D01*
X39206739Y-32864339D01*
X39119385Y-32980895D01*
X39116233Y-32989303D01*
X39074919Y-33099507D01*
X39032277Y-33156271D01*
X38965716Y-33180971D01*
X38896367Y-33165763D01*
X38863743Y-33140076D01*
X38813151Y-33084475D01*
X38813142Y-33084466D01*
X38809670Y-33080651D01*
X38805619Y-33077452D01*
X38805615Y-33077448D01*
X38638414Y-32945400D01*
X38638410Y-32945398D01*
X38634359Y-32942198D01*
X38629831Y-32939698D01*
X38513988Y-32875750D01*
X38438789Y-32834238D01*
X38433920Y-32832514D01*
X38433916Y-32832512D01*
X38233087Y-32761395D01*
X38233083Y-32761394D01*
X38228212Y-32759669D01*
X38223119Y-32758762D01*
X38223116Y-32758761D01*
X38013373Y-32721400D01*
X38013367Y-32721399D01*
X38008284Y-32720494D01*
X37934452Y-32719592D01*
X37790081Y-32717828D01*
X37790079Y-32717828D01*
X37784911Y-32717765D01*
X37564091Y-32751555D01*
X37351756Y-32820957D01*
X37321443Y-32836737D01*
X37177975Y-32911422D01*
X37153607Y-32924107D01*
X37149474Y-32927210D01*
X37149471Y-32927212D01*
X37054779Y-32998309D01*
X36974965Y-33058235D01*
X36918536Y-33117284D01*
X36863729Y-33174637D01*
X36820629Y-33219738D01*
X36713201Y-33377221D01*
X36658293Y-33422221D01*
X36587768Y-33430392D01*
X36524021Y-33399138D01*
X36503324Y-33374654D01*
X36422822Y-33250217D01*
X36422820Y-33250214D01*
X36420014Y-33245877D01*
X36269670Y-33080651D01*
X36265619Y-33077452D01*
X36265615Y-33077448D01*
X36098414Y-32945400D01*
X36098410Y-32945398D01*
X36094359Y-32942198D01*
X36089831Y-32939698D01*
X35973988Y-32875750D01*
X35898789Y-32834238D01*
X35893920Y-32832514D01*
X35893916Y-32832512D01*
X35693087Y-32761395D01*
X35693083Y-32761394D01*
X35688212Y-32759669D01*
X35683119Y-32758762D01*
X35683116Y-32758761D01*
X35473373Y-32721400D01*
X35473367Y-32721399D01*
X35468284Y-32720494D01*
X35394452Y-32719592D01*
X35250081Y-32717828D01*
X35250079Y-32717828D01*
X35244911Y-32717765D01*
X35024091Y-32751555D01*
X34811756Y-32820957D01*
X34781443Y-32836737D01*
X34637975Y-32911422D01*
X34613607Y-32924107D01*
X34609474Y-32927210D01*
X34609471Y-32927212D01*
X34514779Y-32998309D01*
X34434965Y-33058235D01*
X34378536Y-33117284D01*
X34323729Y-33174637D01*
X34280629Y-33219738D01*
X34173201Y-33377221D01*
X34118293Y-33422221D01*
X34047768Y-33430392D01*
X33984021Y-33399138D01*
X33963324Y-33374654D01*
X33882822Y-33250217D01*
X33882820Y-33250214D01*
X33880014Y-33245877D01*
X33729670Y-33080651D01*
X33725619Y-33077452D01*
X33725615Y-33077448D01*
X33558414Y-32945400D01*
X33558410Y-32945398D01*
X33554359Y-32942198D01*
X33549831Y-32939698D01*
X33433988Y-32875750D01*
X33358789Y-32834238D01*
X33353920Y-32832514D01*
X33353916Y-32832512D01*
X33153087Y-32761395D01*
X33153083Y-32761394D01*
X33148212Y-32759669D01*
X33143119Y-32758762D01*
X33143116Y-32758761D01*
X32933373Y-32721400D01*
X32933367Y-32721399D01*
X32928284Y-32720494D01*
X32854452Y-32719592D01*
X32710081Y-32717828D01*
X32710079Y-32717828D01*
X32704911Y-32717765D01*
X32484091Y-32751555D01*
X32271756Y-32820957D01*
X32241443Y-32836737D01*
X32097975Y-32911422D01*
X32073607Y-32924107D01*
X32069474Y-32927210D01*
X32069471Y-32927212D01*
X31974779Y-32998309D01*
X31894965Y-33058235D01*
X31838536Y-33117284D01*
X31783729Y-33174637D01*
X31740629Y-33219738D01*
X31633201Y-33377221D01*
X31578293Y-33422221D01*
X31507768Y-33430392D01*
X31444021Y-33399138D01*
X31423324Y-33374654D01*
X31342822Y-33250217D01*
X31342820Y-33250214D01*
X31340014Y-33245877D01*
X31189670Y-33080651D01*
X31185619Y-33077452D01*
X31185615Y-33077448D01*
X31018414Y-32945400D01*
X31018410Y-32945398D01*
X31014359Y-32942198D01*
X31009831Y-32939698D01*
X30893988Y-32875750D01*
X30818789Y-32834238D01*
X30813920Y-32832514D01*
X30813916Y-32832512D01*
X30613087Y-32761395D01*
X30613083Y-32761394D01*
X30608212Y-32759669D01*
X30603119Y-32758762D01*
X30603116Y-32758761D01*
X30393373Y-32721400D01*
X30393367Y-32721399D01*
X30388284Y-32720494D01*
X30314452Y-32719592D01*
X30170081Y-32717828D01*
X30170079Y-32717828D01*
X30164911Y-32717765D01*
X29944091Y-32751555D01*
X29731756Y-32820957D01*
X29701443Y-32836737D01*
X29557975Y-32911422D01*
X29533607Y-32924107D01*
X29529474Y-32927210D01*
X29529471Y-32927212D01*
X29434779Y-32998309D01*
X29354965Y-33058235D01*
X29298537Y-33117284D01*
X29274283Y-33142664D01*
X29212759Y-33178094D01*
X29141846Y-33174637D01*
X29084060Y-33133391D01*
X29065207Y-33099843D01*
X29023767Y-32989303D01*
X29020615Y-32980895D01*
X28933261Y-32864339D01*
X28816705Y-32776985D01*
X28680316Y-32725855D01*
X28618134Y-32719100D01*
X26821866Y-32719100D01*
X26759684Y-32725855D01*
X26623295Y-32776985D01*
X26506739Y-32864339D01*
X26419385Y-32980895D01*
X26416233Y-32989303D01*
X26374919Y-33099507D01*
X26332277Y-33156271D01*
X26265716Y-33180971D01*
X26196367Y-33165763D01*
X26163743Y-33140076D01*
X26113151Y-33084475D01*
X26113142Y-33084466D01*
X26109670Y-33080651D01*
X26105619Y-33077452D01*
X26105615Y-33077448D01*
X25938414Y-32945400D01*
X25938410Y-32945398D01*
X25934359Y-32942198D01*
X25929831Y-32939698D01*
X25813988Y-32875750D01*
X25738789Y-32834238D01*
X25733920Y-32832514D01*
X25733916Y-32832512D01*
X25533087Y-32761395D01*
X25533083Y-32761394D01*
X25528212Y-32759669D01*
X25523119Y-32758762D01*
X25523116Y-32758761D01*
X25313373Y-32721400D01*
X25313367Y-32721399D01*
X25308284Y-32720494D01*
X25234452Y-32719592D01*
X25090081Y-32717828D01*
X25090079Y-32717828D01*
X25084911Y-32717765D01*
X24864091Y-32751555D01*
X24651756Y-32820957D01*
X24621443Y-32836737D01*
X24477975Y-32911422D01*
X24453607Y-32924107D01*
X24449474Y-32927210D01*
X24449471Y-32927212D01*
X24354779Y-32998309D01*
X24274965Y-33058235D01*
X24218536Y-33117284D01*
X24163729Y-33174637D01*
X24120629Y-33219738D01*
X24013201Y-33377221D01*
X23958293Y-33422221D01*
X23887768Y-33430392D01*
X23824021Y-33399138D01*
X23803324Y-33374654D01*
X23722822Y-33250217D01*
X23722820Y-33250214D01*
X23720014Y-33245877D01*
X23569670Y-33080651D01*
X23565619Y-33077452D01*
X23565615Y-33077448D01*
X23398414Y-32945400D01*
X23398410Y-32945398D01*
X23394359Y-32942198D01*
X23389831Y-32939698D01*
X23273988Y-32875750D01*
X23198789Y-32834238D01*
X23193920Y-32832514D01*
X23193916Y-32832512D01*
X22993087Y-32761395D01*
X22993083Y-32761394D01*
X22988212Y-32759669D01*
X22983119Y-32758762D01*
X22983116Y-32758761D01*
X22773373Y-32721400D01*
X22773367Y-32721399D01*
X22768284Y-32720494D01*
X22694452Y-32719592D01*
X22550081Y-32717828D01*
X22550079Y-32717828D01*
X22544911Y-32717765D01*
X22324091Y-32751555D01*
X22111756Y-32820957D01*
X22081443Y-32836737D01*
X21937975Y-32911422D01*
X21913607Y-32924107D01*
X21909474Y-32927210D01*
X21909471Y-32927212D01*
X21814779Y-32998309D01*
X21734965Y-33058235D01*
X21678536Y-33117284D01*
X21623729Y-33174637D01*
X21580629Y-33219738D01*
X21473201Y-33377221D01*
X21418293Y-33422221D01*
X21347768Y-33430392D01*
X21284021Y-33399138D01*
X21263324Y-33374654D01*
X21182822Y-33250217D01*
X21182820Y-33250214D01*
X21180014Y-33245877D01*
X21029670Y-33080651D01*
X21025619Y-33077452D01*
X21025615Y-33077448D01*
X20858414Y-32945400D01*
X20858410Y-32945398D01*
X20854359Y-32942198D01*
X20849831Y-32939698D01*
X20733988Y-32875750D01*
X20658789Y-32834238D01*
X20653920Y-32832514D01*
X20653916Y-32832512D01*
X20453087Y-32761395D01*
X20453083Y-32761394D01*
X20448212Y-32759669D01*
X20443119Y-32758762D01*
X20443116Y-32758761D01*
X20233373Y-32721400D01*
X20233367Y-32721399D01*
X20228284Y-32720494D01*
X20154452Y-32719592D01*
X20010081Y-32717828D01*
X20010079Y-32717828D01*
X20004911Y-32717765D01*
X19784091Y-32751555D01*
X19571756Y-32820957D01*
X19541443Y-32836737D01*
X19397975Y-32911422D01*
X19373607Y-32924107D01*
X19369474Y-32927210D01*
X19369471Y-32927212D01*
X19274779Y-32998309D01*
X19194965Y-33058235D01*
X19138536Y-33117284D01*
X19083729Y-33174637D01*
X19040629Y-33219738D01*
X18933201Y-33377221D01*
X18878293Y-33422221D01*
X18807768Y-33430392D01*
X18744021Y-33399138D01*
X18723324Y-33374654D01*
X18642822Y-33250217D01*
X18642820Y-33250214D01*
X18640014Y-33245877D01*
X18489670Y-33080651D01*
X18485619Y-33077452D01*
X18485615Y-33077448D01*
X18318414Y-32945400D01*
X18318410Y-32945398D01*
X18314359Y-32942198D01*
X18309831Y-32939698D01*
X18193988Y-32875750D01*
X18118789Y-32834238D01*
X18113920Y-32832514D01*
X18113916Y-32832512D01*
X17913087Y-32761395D01*
X17913083Y-32761394D01*
X17908212Y-32759669D01*
X17903119Y-32758762D01*
X17903116Y-32758761D01*
X17693373Y-32721400D01*
X17693367Y-32721399D01*
X17688284Y-32720494D01*
X17614452Y-32719592D01*
X17470081Y-32717828D01*
X17470079Y-32717828D01*
X17464911Y-32717765D01*
X17244091Y-32751555D01*
X17031756Y-32820957D01*
X17001443Y-32836737D01*
X16857975Y-32911422D01*
X16833607Y-32924107D01*
X16829474Y-32927210D01*
X16829471Y-32927212D01*
X16734779Y-32998309D01*
X16654965Y-33058235D01*
X16598536Y-33117284D01*
X16543729Y-33174637D01*
X16500629Y-33219738D01*
X16497720Y-33224003D01*
X16497714Y-33224011D01*
X16412556Y-33348849D01*
X16374743Y-33404280D01*
X16347423Y-33463136D01*
X16285382Y-33596793D01*
X16280688Y-33606905D01*
X16220989Y-33822170D01*
X16197251Y-34044295D01*
X16197548Y-34049448D01*
X16197548Y-34049451D01*
X16206331Y-34201770D01*
X16210110Y-34267315D01*
X16211247Y-34272361D01*
X16211248Y-34272367D01*
X16228933Y-34350840D01*
X16259222Y-34485239D01*
X16343266Y-34692216D01*
X16380685Y-34753278D01*
X16457291Y-34878288D01*
X16459987Y-34882688D01*
X16606250Y-35051538D01*
X16778126Y-35194232D01*
X16863125Y-35243901D01*
X16864070Y-35244453D01*
X16912794Y-35296091D01*
X16926500Y-35353241D01*
X16926500Y-36785233D01*
X16925973Y-36796416D01*
X16924298Y-36803909D01*
X16924547Y-36811835D01*
X16924547Y-36811836D01*
X16926438Y-36871986D01*
X16926500Y-36875945D01*
X16926500Y-36903856D01*
X16926997Y-36907790D01*
X16926997Y-36907791D01*
X16927005Y-36907856D01*
X16927938Y-36919693D01*
X16929327Y-36963889D01*
X16932991Y-36976500D01*
X16934978Y-36983339D01*
X16938987Y-37002700D01*
X16941526Y-37022797D01*
X16944445Y-37030168D01*
X16944445Y-37030170D01*
X16957804Y-37063912D01*
X16961649Y-37075142D01*
X16973982Y-37117593D01*
X16978015Y-37124412D01*
X16978017Y-37124417D01*
X16984293Y-37135028D01*
X16992988Y-37152776D01*
X17000448Y-37171617D01*
X17005110Y-37178033D01*
X17005110Y-37178034D01*
X17026436Y-37207387D01*
X17032952Y-37217307D01*
X17055458Y-37255362D01*
X17069779Y-37269683D01*
X17082619Y-37284716D01*
X17094528Y-37301107D01*
X17128605Y-37329298D01*
X17137384Y-37337288D01*
X27436348Y-47636253D01*
X27443888Y-47644539D01*
X27448000Y-47651018D01*
X27453777Y-47656443D01*
X27497651Y-47697643D01*
X27500493Y-47700398D01*
X27520230Y-47720135D01*
X27523427Y-47722615D01*
X27532447Y-47730318D01*
X27564679Y-47760586D01*
X27571625Y-47764405D01*
X27571628Y-47764407D01*
X27582434Y-47770348D01*
X27598953Y-47781199D01*
X27614959Y-47793614D01*
X27622228Y-47796759D01*
X27622232Y-47796762D01*
X27655537Y-47811174D01*
X27666187Y-47816391D01*
X27704940Y-47837695D01*
X27712615Y-47839666D01*
X27712616Y-47839666D01*
X27724562Y-47842733D01*
X27743267Y-47849137D01*
X27761855Y-47857181D01*
X27769678Y-47858420D01*
X27769688Y-47858423D01*
X27805524Y-47864099D01*
X27817144Y-47866505D01*
X27852289Y-47875528D01*
X27859970Y-47877500D01*
X27880224Y-47877500D01*
X27899934Y-47879051D01*
X27919943Y-47882220D01*
X27927835Y-47881474D01*
X27963961Y-47878059D01*
X27975819Y-47877500D01*
X38407800Y-47877500D01*
X38475921Y-47897502D01*
X38495147Y-47913843D01*
X38495420Y-47913540D01*
X38500332Y-47917963D01*
X38504747Y-47922866D01*
X38659248Y-48035118D01*
X38665276Y-48037802D01*
X38665278Y-48037803D01*
X38827681Y-48110109D01*
X38833712Y-48112794D01*
X38927112Y-48132647D01*
X39014056Y-48151128D01*
X39014061Y-48151128D01*
X39020513Y-48152500D01*
X39211487Y-48152500D01*
X39217939Y-48151128D01*
X39217944Y-48151128D01*
X39304888Y-48132647D01*
X39398288Y-48112794D01*
X39404319Y-48110109D01*
X39566722Y-48037803D01*
X39566724Y-48037802D01*
X39572752Y-48035118D01*
X39727253Y-47922866D01*
X39763851Y-47882220D01*
X39850621Y-47785852D01*
X39850622Y-47785851D01*
X39855040Y-47780944D01*
X39950527Y-47615556D01*
X40009542Y-47433928D01*
X40021175Y-47323251D01*
X40028814Y-47250565D01*
X40029504Y-47244000D01*
X40017615Y-47130882D01*
X40010232Y-47060635D01*
X40010232Y-47060633D01*
X40009542Y-47054072D01*
X39950527Y-46872444D01*
X39945075Y-46863000D01*
X39858341Y-46712774D01*
X39855040Y-46707056D01*
X39829325Y-46678496D01*
X39731675Y-46570045D01*
X39731674Y-46570044D01*
X39727253Y-46565134D01*
X39616738Y-46484840D01*
X39578094Y-46456763D01*
X39578093Y-46456762D01*
X39572752Y-46452882D01*
X39566724Y-46450198D01*
X39566722Y-46450197D01*
X39404319Y-46377891D01*
X39404318Y-46377891D01*
X39398288Y-46375206D01*
X39304887Y-46355353D01*
X39217944Y-46336872D01*
X39217939Y-46336872D01*
X39211487Y-46335500D01*
X39020513Y-46335500D01*
X39014061Y-46336872D01*
X39014056Y-46336872D01*
X38927113Y-46355353D01*
X38833712Y-46375206D01*
X38827682Y-46377891D01*
X38827681Y-46377891D01*
X38665278Y-46450197D01*
X38665276Y-46450198D01*
X38659248Y-46452882D01*
X38653907Y-46456762D01*
X38653906Y-46456763D01*
X38579093Y-46511118D01*
X38504747Y-46565134D01*
X38500332Y-46570037D01*
X38495420Y-46574460D01*
X38494295Y-46573211D01*
X38440986Y-46606051D01*
X38407800Y-46610500D01*
X37279419Y-46610500D01*
X37211298Y-46590498D01*
X37164805Y-46536842D01*
X37154701Y-46466568D01*
X37184195Y-46401988D01*
X37187255Y-46398868D01*
X37187253Y-46398866D01*
X37310621Y-46261852D01*
X37310622Y-46261851D01*
X37315040Y-46256944D01*
X37373314Y-46156010D01*
X37407223Y-46097279D01*
X37407224Y-46097278D01*
X37410527Y-46091556D01*
X37469542Y-45909928D01*
X37471180Y-45894349D01*
X37488814Y-45726565D01*
X37489504Y-45720000D01*
X37469542Y-45530072D01*
X37410527Y-45348444D01*
X37315040Y-45183056D01*
X37231919Y-45090740D01*
X37191675Y-45046045D01*
X37191674Y-45046044D01*
X37187253Y-45041134D01*
X37032752Y-44928882D01*
X37026726Y-44926199D01*
X37026719Y-44926195D01*
X36877499Y-44859759D01*
X36839652Y-44833747D01*
X33470405Y-41464500D01*
X33436379Y-41402188D01*
X33433500Y-41375405D01*
X33433500Y-35358027D01*
X33453502Y-35289906D01*
X33494618Y-35250150D01*
X33497994Y-35248496D01*
X33679860Y-35118773D01*
X33838096Y-34961089D01*
X33885392Y-34895270D01*
X33968453Y-34779677D01*
X33969776Y-34780628D01*
X34016645Y-34737457D01*
X34086580Y-34725225D01*
X34152026Y-34752744D01*
X34179875Y-34784594D01*
X34239987Y-34882688D01*
X34386250Y-35051538D01*
X34558126Y-35194232D01*
X34643125Y-35243901D01*
X34644070Y-35244453D01*
X34692794Y-35296091D01*
X34706500Y-35353241D01*
X34706500Y-39579233D01*
X34705973Y-39590416D01*
X34704298Y-39597909D01*
X34704547Y-39605835D01*
X34704547Y-39605836D01*
X34706438Y-39665986D01*
X34706500Y-39669945D01*
X34706500Y-39697856D01*
X34706997Y-39701790D01*
X34706997Y-39701791D01*
X34707005Y-39701856D01*
X34707938Y-39713693D01*
X34709327Y-39757889D01*
X34714978Y-39777339D01*
X34718987Y-39796700D01*
X34721526Y-39816797D01*
X34724445Y-39824168D01*
X34724445Y-39824170D01*
X34737804Y-39857912D01*
X34741649Y-39869142D01*
X34753982Y-39911593D01*
X34758015Y-39918412D01*
X34758017Y-39918417D01*
X34764293Y-39929028D01*
X34772988Y-39946776D01*
X34780448Y-39965617D01*
X34785110Y-39972033D01*
X34785110Y-39972034D01*
X34806436Y-40001387D01*
X34812952Y-40011307D01*
X34820361Y-40023834D01*
X34835458Y-40049362D01*
X34849779Y-40063683D01*
X34862619Y-40078716D01*
X34874528Y-40095107D01*
X34887138Y-40105539D01*
X34908605Y-40123298D01*
X34917384Y-40131288D01*
X44229500Y-49443405D01*
X44263526Y-49505717D01*
X44258461Y-49576532D01*
X44215914Y-49633368D01*
X44149394Y-49658179D01*
X44140405Y-49658500D01*
X31904368Y-49658500D01*
X31893185Y-49657973D01*
X31885692Y-49656298D01*
X31877766Y-49656547D01*
X31877765Y-49656547D01*
X31817602Y-49658438D01*
X31813644Y-49658500D01*
X31785744Y-49658500D01*
X31781754Y-49659004D01*
X31769920Y-49659936D01*
X31725711Y-49661326D01*
X31718097Y-49663538D01*
X31718092Y-49663539D01*
X31706259Y-49666977D01*
X31686896Y-49670988D01*
X31666803Y-49673526D01*
X31659436Y-49676443D01*
X31659431Y-49676444D01*
X31625692Y-49689802D01*
X31614465Y-49693646D01*
X31572007Y-49705982D01*
X31565181Y-49710019D01*
X31554572Y-49716293D01*
X31536824Y-49724988D01*
X31517983Y-49732448D01*
X31511567Y-49737110D01*
X31511566Y-49737110D01*
X31482213Y-49758436D01*
X31472293Y-49764952D01*
X31441065Y-49783420D01*
X31441062Y-49783422D01*
X31434238Y-49787458D01*
X31419917Y-49801779D01*
X31404884Y-49814619D01*
X31388493Y-49826528D01*
X31383443Y-49832632D01*
X31383438Y-49832637D01*
X31360307Y-49860598D01*
X31352317Y-49869379D01*
X30717344Y-50504351D01*
X30655032Y-50538376D01*
X30606153Y-50539302D01*
X30393373Y-50501400D01*
X30393367Y-50501399D01*
X30388284Y-50500494D01*
X30314452Y-50499592D01*
X30170081Y-50497828D01*
X30170079Y-50497828D01*
X30164911Y-50497765D01*
X29944091Y-50531555D01*
X29731756Y-50600957D01*
X29701443Y-50616737D01*
X29551653Y-50694713D01*
X29533607Y-50704107D01*
X29529474Y-50707210D01*
X29529471Y-50707212D01*
X29359100Y-50835130D01*
X29354965Y-50838235D01*
X29298537Y-50897284D01*
X29274283Y-50922664D01*
X29212759Y-50958094D01*
X29141846Y-50954637D01*
X29084060Y-50913391D01*
X29065207Y-50879843D01*
X29023767Y-50769303D01*
X29020615Y-50760895D01*
X28933261Y-50644339D01*
X28816705Y-50556985D01*
X28680316Y-50505855D01*
X28618134Y-50499100D01*
X26821866Y-50499100D01*
X26759684Y-50505855D01*
X26623295Y-50556985D01*
X26506739Y-50644339D01*
X26419385Y-50760895D01*
X26416233Y-50769303D01*
X26374919Y-50879507D01*
X26332277Y-50936271D01*
X26265716Y-50960971D01*
X26196367Y-50945763D01*
X26163743Y-50920076D01*
X26113151Y-50864475D01*
X26113142Y-50864466D01*
X26109670Y-50860651D01*
X26105619Y-50857452D01*
X26105615Y-50857448D01*
X25938414Y-50725400D01*
X25938410Y-50725398D01*
X25934359Y-50722198D01*
X25738789Y-50614238D01*
X25733920Y-50612514D01*
X25733916Y-50612512D01*
X25533087Y-50541395D01*
X25533083Y-50541394D01*
X25528212Y-50539669D01*
X25523119Y-50538762D01*
X25523116Y-50538761D01*
X25313373Y-50501400D01*
X25313367Y-50501399D01*
X25308284Y-50500494D01*
X25234452Y-50499592D01*
X25090081Y-50497828D01*
X25090079Y-50497828D01*
X25084911Y-50497765D01*
X24864091Y-50531555D01*
X24651756Y-50600957D01*
X24621443Y-50616737D01*
X24471653Y-50694713D01*
X24453607Y-50704107D01*
X24449474Y-50707210D01*
X24449471Y-50707212D01*
X24279100Y-50835130D01*
X24274965Y-50838235D01*
X24245495Y-50869074D01*
X24163729Y-50954637D01*
X24120629Y-50999738D01*
X24013201Y-51157221D01*
X23958293Y-51202221D01*
X23887768Y-51210392D01*
X23824021Y-51179138D01*
X23803324Y-51154654D01*
X23722822Y-51030217D01*
X23722820Y-51030214D01*
X23720014Y-51025877D01*
X23569670Y-50860651D01*
X23565619Y-50857452D01*
X23565615Y-50857448D01*
X23398414Y-50725400D01*
X23398410Y-50725398D01*
X23394359Y-50722198D01*
X23198789Y-50614238D01*
X23193920Y-50612514D01*
X23193916Y-50612512D01*
X22993087Y-50541395D01*
X22993083Y-50541394D01*
X22988212Y-50539669D01*
X22983119Y-50538762D01*
X22983116Y-50538761D01*
X22773373Y-50501400D01*
X22773367Y-50501399D01*
X22768284Y-50500494D01*
X22694452Y-50499592D01*
X22550081Y-50497828D01*
X22550079Y-50497828D01*
X22544911Y-50497765D01*
X22324091Y-50531555D01*
X22111756Y-50600957D01*
X22081443Y-50616737D01*
X21931653Y-50694713D01*
X21913607Y-50704107D01*
X21909474Y-50707210D01*
X21909471Y-50707212D01*
X21739100Y-50835130D01*
X21734965Y-50838235D01*
X21705495Y-50869074D01*
X21623729Y-50954637D01*
X21580629Y-50999738D01*
X21473201Y-51157221D01*
X21418293Y-51202221D01*
X21347768Y-51210392D01*
X21284021Y-51179138D01*
X21263324Y-51154654D01*
X21182822Y-51030217D01*
X21182820Y-51030214D01*
X21180014Y-51025877D01*
X21029670Y-50860651D01*
X21025619Y-50857452D01*
X21025615Y-50857448D01*
X20858414Y-50725400D01*
X20858410Y-50725398D01*
X20854359Y-50722198D01*
X20658789Y-50614238D01*
X20653920Y-50612514D01*
X20653916Y-50612512D01*
X20453087Y-50541395D01*
X20453083Y-50541394D01*
X20448212Y-50539669D01*
X20443119Y-50538762D01*
X20443116Y-50538761D01*
X20233373Y-50501400D01*
X20233367Y-50501399D01*
X20228284Y-50500494D01*
X20154452Y-50499592D01*
X20010081Y-50497828D01*
X20010079Y-50497828D01*
X20004911Y-50497765D01*
X19784091Y-50531555D01*
X19571756Y-50600957D01*
X19541443Y-50616737D01*
X19391653Y-50694713D01*
X19373607Y-50704107D01*
X19369474Y-50707210D01*
X19369471Y-50707212D01*
X19199100Y-50835130D01*
X19194965Y-50838235D01*
X19165495Y-50869074D01*
X19083729Y-50954637D01*
X19040629Y-50999738D01*
X18933201Y-51157221D01*
X18878293Y-51202221D01*
X18807768Y-51210392D01*
X18744021Y-51179138D01*
X18723324Y-51154654D01*
X18642822Y-51030217D01*
X18642820Y-51030214D01*
X18640014Y-51025877D01*
X18489670Y-50860651D01*
X18485619Y-50857452D01*
X18485615Y-50857448D01*
X18318414Y-50725400D01*
X18318410Y-50725398D01*
X18314359Y-50722198D01*
X18118789Y-50614238D01*
X18113920Y-50612514D01*
X18113916Y-50612512D01*
X17913087Y-50541395D01*
X17913083Y-50541394D01*
X17908212Y-50539669D01*
X17903119Y-50538762D01*
X17903116Y-50538761D01*
X17693373Y-50501400D01*
X17693367Y-50501399D01*
X17688284Y-50500494D01*
X17614452Y-50499592D01*
X17470081Y-50497828D01*
X17470079Y-50497828D01*
X17464911Y-50497765D01*
X17244091Y-50531555D01*
X17031756Y-50600957D01*
X17001443Y-50616737D01*
X16851653Y-50694713D01*
X16833607Y-50704107D01*
X16829474Y-50707210D01*
X16829471Y-50707212D01*
X16659100Y-50835130D01*
X16654965Y-50838235D01*
X16598537Y-50897284D01*
X16574283Y-50922664D01*
X16512759Y-50958094D01*
X16441846Y-50954637D01*
X16384060Y-50913391D01*
X16365207Y-50879843D01*
X16323767Y-50769303D01*
X16320615Y-50760895D01*
X16233261Y-50644339D01*
X16116705Y-50556985D01*
X15980316Y-50505855D01*
X15918134Y-50499100D01*
X14121866Y-50499100D01*
X14059684Y-50505855D01*
X13923295Y-50556985D01*
X13806739Y-50644339D01*
X13719385Y-50760895D01*
X13716233Y-50769303D01*
X13674919Y-50879507D01*
X13632277Y-50936271D01*
X13565716Y-50960971D01*
X13496367Y-50945763D01*
X13463743Y-50920076D01*
X13413151Y-50864475D01*
X13413142Y-50864466D01*
X13409670Y-50860651D01*
X13405619Y-50857452D01*
X13405615Y-50857448D01*
X13238414Y-50725400D01*
X13238410Y-50725398D01*
X13234359Y-50722198D01*
X13038789Y-50614238D01*
X13033920Y-50612514D01*
X13033916Y-50612512D01*
X12833087Y-50541395D01*
X12833083Y-50541394D01*
X12828212Y-50539669D01*
X12823119Y-50538762D01*
X12823116Y-50538761D01*
X12613373Y-50501400D01*
X12613367Y-50501399D01*
X12608284Y-50500494D01*
X12534452Y-50499592D01*
X12390081Y-50497828D01*
X12390079Y-50497828D01*
X12384911Y-50497765D01*
X12164091Y-50531555D01*
X11951756Y-50600957D01*
X11921443Y-50616737D01*
X11771653Y-50694713D01*
X11753607Y-50704107D01*
X11749474Y-50707210D01*
X11749471Y-50707212D01*
X11579100Y-50835130D01*
X11574965Y-50838235D01*
X11545495Y-50869074D01*
X11463729Y-50954637D01*
X11420629Y-50999738D01*
X11313201Y-51157221D01*
X11258293Y-51202221D01*
X11187768Y-51210392D01*
X11124021Y-51179138D01*
X11103324Y-51154654D01*
X11022822Y-51030217D01*
X11022820Y-51030214D01*
X11020014Y-51025877D01*
X10869670Y-50860651D01*
X10865619Y-50857452D01*
X10865615Y-50857448D01*
X10698414Y-50725400D01*
X10698410Y-50725398D01*
X10694359Y-50722198D01*
X10498789Y-50614238D01*
X10493920Y-50612514D01*
X10493916Y-50612512D01*
X10293087Y-50541395D01*
X10293083Y-50541394D01*
X10288212Y-50539669D01*
X10283119Y-50538762D01*
X10283116Y-50538761D01*
X10073373Y-50501400D01*
X10073367Y-50501399D01*
X10068284Y-50500494D01*
X9994452Y-50499592D01*
X9850081Y-50497828D01*
X9850079Y-50497828D01*
X9844911Y-50497765D01*
X9624091Y-50531555D01*
X9411756Y-50600957D01*
X9381443Y-50616737D01*
X9231653Y-50694713D01*
X9213607Y-50704107D01*
X9209474Y-50707210D01*
X9209471Y-50707212D01*
X9039100Y-50835130D01*
X9034965Y-50838235D01*
X9005495Y-50869074D01*
X8923729Y-50954637D01*
X8880629Y-50999738D01*
X8754743Y-51184280D01*
X8660688Y-51386905D01*
X8600989Y-51602170D01*
X8577251Y-51824295D01*
X8577548Y-51829448D01*
X8577548Y-51829451D01*
X8583011Y-51924190D01*
X8590110Y-52047315D01*
X8591247Y-52052361D01*
X8591248Y-52052367D01*
X8611119Y-52140539D01*
X8639222Y-52265239D01*
X8723266Y-52472216D01*
X8760685Y-52533278D01*
X8837291Y-52658288D01*
X8839987Y-52662688D01*
X8986250Y-52831538D01*
X9158126Y-52974232D01*
X9351000Y-53086938D01*
X9559692Y-53166630D01*
X9564760Y-53167661D01*
X9564763Y-53167662D01*
X9672017Y-53189483D01*
X9778597Y-53211167D01*
X9783772Y-53211357D01*
X9783774Y-53211357D01*
X9996673Y-53219164D01*
X9996677Y-53219164D01*
X10001837Y-53219353D01*
X10006957Y-53218697D01*
X10006959Y-53218697D01*
X10218288Y-53191625D01*
X10218289Y-53191625D01*
X10223416Y-53190968D01*
X10228366Y-53189483D01*
X10432429Y-53128261D01*
X10432434Y-53128259D01*
X10437384Y-53126774D01*
X10637994Y-53028496D01*
X10819860Y-52898773D01*
X10978096Y-52741089D01*
X11037594Y-52658289D01*
X11108453Y-52559677D01*
X11109776Y-52560628D01*
X11156645Y-52517457D01*
X11226580Y-52505225D01*
X11292026Y-52532744D01*
X11319875Y-52564594D01*
X11379987Y-52662688D01*
X11526250Y-52831538D01*
X11698126Y-52974232D01*
X11891000Y-53086938D01*
X12099692Y-53166630D01*
X12104760Y-53167661D01*
X12104763Y-53167662D01*
X12212017Y-53189483D01*
X12318597Y-53211167D01*
X12323772Y-53211357D01*
X12323774Y-53211357D01*
X12536673Y-53219164D01*
X12536677Y-53219164D01*
X12541837Y-53219353D01*
X12546957Y-53218697D01*
X12546959Y-53218697D01*
X12758288Y-53191625D01*
X12758289Y-53191625D01*
X12763416Y-53190968D01*
X12768366Y-53189483D01*
X12972429Y-53128261D01*
X12972434Y-53128259D01*
X12977384Y-53126774D01*
X13177994Y-53028496D01*
X13359860Y-52898773D01*
X13468091Y-52790919D01*
X13530462Y-52757004D01*
X13601268Y-52762192D01*
X13658030Y-52804838D01*
X13675012Y-52835941D01*
X13697201Y-52895129D01*
X13719385Y-52954305D01*
X13806739Y-53070861D01*
X13923295Y-53158215D01*
X14059684Y-53209345D01*
X14121866Y-53216100D01*
X15918134Y-53216100D01*
X15980316Y-53209345D01*
X16116705Y-53158215D01*
X16233261Y-53070861D01*
X16320615Y-52954305D01*
X16334325Y-52917734D01*
X16364598Y-52836982D01*
X16407240Y-52780218D01*
X16473802Y-52755518D01*
X16543150Y-52770726D01*
X16577817Y-52798714D01*
X16606250Y-52831538D01*
X16778126Y-52974232D01*
X16971000Y-53086938D01*
X17179692Y-53166630D01*
X17184760Y-53167661D01*
X17184763Y-53167662D01*
X17292017Y-53189483D01*
X17398597Y-53211167D01*
X17403772Y-53211357D01*
X17403774Y-53211357D01*
X17616673Y-53219164D01*
X17616677Y-53219164D01*
X17621837Y-53219353D01*
X17626957Y-53218697D01*
X17626959Y-53218697D01*
X17838288Y-53191625D01*
X17838289Y-53191625D01*
X17843416Y-53190968D01*
X17848366Y-53189483D01*
X18052429Y-53128261D01*
X18052434Y-53128259D01*
X18057384Y-53126774D01*
X18257994Y-53028496D01*
X18439860Y-52898773D01*
X18598096Y-52741089D01*
X18657594Y-52658289D01*
X18728453Y-52559677D01*
X18729776Y-52560628D01*
X18776645Y-52517457D01*
X18846580Y-52505225D01*
X18912026Y-52532744D01*
X18939875Y-52564594D01*
X18999987Y-52662688D01*
X19146250Y-52831538D01*
X19318126Y-52974232D01*
X19511000Y-53086938D01*
X19719692Y-53166630D01*
X19724760Y-53167661D01*
X19724763Y-53167662D01*
X19832017Y-53189483D01*
X19938597Y-53211167D01*
X19943772Y-53211357D01*
X19943774Y-53211357D01*
X20156673Y-53219164D01*
X20156677Y-53219164D01*
X20161837Y-53219353D01*
X20166957Y-53218697D01*
X20166959Y-53218697D01*
X20378288Y-53191625D01*
X20378289Y-53191625D01*
X20383416Y-53190968D01*
X20388366Y-53189483D01*
X20592429Y-53128261D01*
X20592434Y-53128259D01*
X20597384Y-53126774D01*
X20797994Y-53028496D01*
X20979860Y-52898773D01*
X21138096Y-52741089D01*
X21197594Y-52658289D01*
X21268453Y-52559677D01*
X21269776Y-52560628D01*
X21316645Y-52517457D01*
X21386580Y-52505225D01*
X21452026Y-52532744D01*
X21479875Y-52564594D01*
X21539987Y-52662688D01*
X21686250Y-52831538D01*
X21858126Y-52974232D01*
X22051000Y-53086938D01*
X22259692Y-53166630D01*
X22264760Y-53167661D01*
X22264763Y-53167662D01*
X22372017Y-53189483D01*
X22478597Y-53211167D01*
X22483772Y-53211357D01*
X22483774Y-53211357D01*
X22696673Y-53219164D01*
X22696677Y-53219164D01*
X22701837Y-53219353D01*
X22706957Y-53218697D01*
X22706959Y-53218697D01*
X22918288Y-53191625D01*
X22918289Y-53191625D01*
X22923416Y-53190968D01*
X22928366Y-53189483D01*
X23132429Y-53128261D01*
X23132434Y-53128259D01*
X23137384Y-53126774D01*
X23337994Y-53028496D01*
X23519860Y-52898773D01*
X23678096Y-52741089D01*
X23737594Y-52658289D01*
X23808453Y-52559677D01*
X23809776Y-52560628D01*
X23856645Y-52517457D01*
X23926580Y-52505225D01*
X23992026Y-52532744D01*
X24019875Y-52564594D01*
X24079987Y-52662688D01*
X24226250Y-52831538D01*
X24398126Y-52974232D01*
X24591000Y-53086938D01*
X24799692Y-53166630D01*
X24804760Y-53167661D01*
X24804763Y-53167662D01*
X24912017Y-53189483D01*
X25018597Y-53211167D01*
X25023772Y-53211357D01*
X25023774Y-53211357D01*
X25236673Y-53219164D01*
X25236677Y-53219164D01*
X25241837Y-53219353D01*
X25246957Y-53218697D01*
X25246959Y-53218697D01*
X25458288Y-53191625D01*
X25458289Y-53191625D01*
X25463416Y-53190968D01*
X25468366Y-53189483D01*
X25672429Y-53128261D01*
X25672434Y-53128259D01*
X25677384Y-53126774D01*
X25877994Y-53028496D01*
X26059860Y-52898773D01*
X26168091Y-52790919D01*
X26230462Y-52757004D01*
X26301268Y-52762192D01*
X26358030Y-52804838D01*
X26375012Y-52835941D01*
X26397201Y-52895129D01*
X26419385Y-52954305D01*
X26506739Y-53070861D01*
X26623295Y-53158215D01*
X26759684Y-53209345D01*
X26821866Y-53216100D01*
X28618134Y-53216100D01*
X28680316Y-53209345D01*
X28816705Y-53158215D01*
X28933261Y-53070861D01*
X29020615Y-52954305D01*
X29034325Y-52917734D01*
X29064598Y-52836982D01*
X29107240Y-52780218D01*
X29173802Y-52755518D01*
X29243150Y-52770726D01*
X29277817Y-52798714D01*
X29306250Y-52831538D01*
X29478126Y-52974232D01*
X29671000Y-53086938D01*
X29879692Y-53166630D01*
X29884760Y-53167661D01*
X29884763Y-53167662D01*
X29992017Y-53189483D01*
X30098597Y-53211167D01*
X30103772Y-53211357D01*
X30103774Y-53211357D01*
X30316673Y-53219164D01*
X30316677Y-53219164D01*
X30321837Y-53219353D01*
X30326957Y-53218697D01*
X30326959Y-53218697D01*
X30538288Y-53191625D01*
X30538289Y-53191625D01*
X30543416Y-53190968D01*
X30548366Y-53189483D01*
X30752429Y-53128261D01*
X30752434Y-53128259D01*
X30757384Y-53126774D01*
X30957994Y-53028496D01*
X31139860Y-52898773D01*
X31298096Y-52741089D01*
X31357594Y-52658289D01*
X31428453Y-52559677D01*
X31429776Y-52560628D01*
X31476645Y-52517457D01*
X31546580Y-52505225D01*
X31612026Y-52532744D01*
X31639875Y-52564594D01*
X31699987Y-52662688D01*
X31846250Y-52831538D01*
X32018126Y-52974232D01*
X32211000Y-53086938D01*
X32419692Y-53166630D01*
X32424760Y-53167661D01*
X32424763Y-53167662D01*
X32532017Y-53189483D01*
X32638597Y-53211167D01*
X32643772Y-53211357D01*
X32643774Y-53211357D01*
X32856673Y-53219164D01*
X32856677Y-53219164D01*
X32861837Y-53219353D01*
X32866957Y-53218697D01*
X32866959Y-53218697D01*
X33078288Y-53191625D01*
X33078289Y-53191625D01*
X33083416Y-53190968D01*
X33088366Y-53189483D01*
X33292429Y-53128261D01*
X33292434Y-53128259D01*
X33297384Y-53126774D01*
X33497994Y-53028496D01*
X33679860Y-52898773D01*
X33838096Y-52741089D01*
X33897594Y-52658289D01*
X33968453Y-52559677D01*
X33969776Y-52560628D01*
X34016645Y-52517457D01*
X34086580Y-52505225D01*
X34152026Y-52532744D01*
X34179875Y-52564594D01*
X34239987Y-52662688D01*
X34386250Y-52831538D01*
X34558126Y-52974232D01*
X34751000Y-53086938D01*
X34959692Y-53166630D01*
X34964760Y-53167661D01*
X34964763Y-53167662D01*
X35072017Y-53189483D01*
X35178597Y-53211167D01*
X35183772Y-53211357D01*
X35183774Y-53211357D01*
X35396673Y-53219164D01*
X35396677Y-53219164D01*
X35401837Y-53219353D01*
X35406957Y-53218697D01*
X35406959Y-53218697D01*
X35618288Y-53191625D01*
X35618289Y-53191625D01*
X35623416Y-53190968D01*
X35628366Y-53189483D01*
X35832429Y-53128261D01*
X35832434Y-53128259D01*
X35837384Y-53126774D01*
X36037994Y-53028496D01*
X36219860Y-52898773D01*
X36378096Y-52741089D01*
X36437594Y-52658289D01*
X36508453Y-52559677D01*
X36509776Y-52560628D01*
X36556645Y-52517457D01*
X36626580Y-52505225D01*
X36692026Y-52532744D01*
X36719875Y-52564594D01*
X36779987Y-52662688D01*
X36926250Y-52831538D01*
X37098126Y-52974232D01*
X37291000Y-53086938D01*
X37499692Y-53166630D01*
X37504760Y-53167661D01*
X37504763Y-53167662D01*
X37612017Y-53189483D01*
X37718597Y-53211167D01*
X37723772Y-53211357D01*
X37723774Y-53211357D01*
X37936673Y-53219164D01*
X37936677Y-53219164D01*
X37941837Y-53219353D01*
X37946957Y-53218697D01*
X37946959Y-53218697D01*
X38158288Y-53191625D01*
X38158289Y-53191625D01*
X38163416Y-53190968D01*
X38168366Y-53189483D01*
X38372429Y-53128261D01*
X38372434Y-53128259D01*
X38377384Y-53126774D01*
X38577994Y-53028496D01*
X38759860Y-52898773D01*
X38868091Y-52790919D01*
X38930462Y-52757004D01*
X39001268Y-52762192D01*
X39058030Y-52804838D01*
X39075012Y-52835941D01*
X39097201Y-52895129D01*
X39119385Y-52954305D01*
X39206739Y-53070861D01*
X39323295Y-53158215D01*
X39459684Y-53209345D01*
X39521866Y-53216100D01*
X41318134Y-53216100D01*
X41380316Y-53209345D01*
X41516705Y-53158215D01*
X41633261Y-53070861D01*
X41720615Y-52954305D01*
X41734325Y-52917734D01*
X41764598Y-52836982D01*
X41807240Y-52780218D01*
X41873802Y-52755518D01*
X41943150Y-52770726D01*
X41977817Y-52798714D01*
X42006250Y-52831538D01*
X42178126Y-52974232D01*
X42371000Y-53086938D01*
X42579692Y-53166630D01*
X42584760Y-53167661D01*
X42584763Y-53167662D01*
X42692017Y-53189483D01*
X42798597Y-53211167D01*
X42803772Y-53211357D01*
X42803774Y-53211357D01*
X43016673Y-53219164D01*
X43016677Y-53219164D01*
X43021837Y-53219353D01*
X43026957Y-53218697D01*
X43026959Y-53218697D01*
X43238288Y-53191625D01*
X43238289Y-53191625D01*
X43243416Y-53190968D01*
X43248366Y-53189483D01*
X43452429Y-53128261D01*
X43452434Y-53128259D01*
X43457384Y-53126774D01*
X43657994Y-53028496D01*
X43839860Y-52898773D01*
X43998096Y-52741089D01*
X44057594Y-52658289D01*
X44128453Y-52559677D01*
X44129776Y-52560628D01*
X44176645Y-52517457D01*
X44246580Y-52505225D01*
X44312026Y-52532744D01*
X44339875Y-52564594D01*
X44399987Y-52662688D01*
X44546250Y-52831538D01*
X44718126Y-52974232D01*
X44911000Y-53086938D01*
X45119692Y-53166630D01*
X45124760Y-53167661D01*
X45124763Y-53167662D01*
X45232017Y-53189483D01*
X45338597Y-53211167D01*
X45343772Y-53211357D01*
X45343774Y-53211357D01*
X45556673Y-53219164D01*
X45556677Y-53219164D01*
X45561837Y-53219353D01*
X45566957Y-53218697D01*
X45566959Y-53218697D01*
X45778288Y-53191625D01*
X45778289Y-53191625D01*
X45783416Y-53190968D01*
X45788366Y-53189483D01*
X45992429Y-53128261D01*
X45992434Y-53128259D01*
X45997384Y-53126774D01*
X46197994Y-53028496D01*
X46379860Y-52898773D01*
X46538096Y-52741089D01*
X46597594Y-52658289D01*
X46668453Y-52559677D01*
X46669776Y-52560628D01*
X46716645Y-52517457D01*
X46786580Y-52505225D01*
X46852026Y-52532744D01*
X46879875Y-52564594D01*
X46939987Y-52662688D01*
X47086250Y-52831538D01*
X47258126Y-52974232D01*
X47451000Y-53086938D01*
X47659692Y-53166630D01*
X47664760Y-53167661D01*
X47664763Y-53167662D01*
X47772017Y-53189483D01*
X47878597Y-53211167D01*
X47883772Y-53211357D01*
X47883774Y-53211357D01*
X48096673Y-53219164D01*
X48096677Y-53219164D01*
X48101837Y-53219353D01*
X48106957Y-53218697D01*
X48106959Y-53218697D01*
X48318288Y-53191625D01*
X48318289Y-53191625D01*
X48323416Y-53190968D01*
X48328366Y-53189483D01*
X48532429Y-53128261D01*
X48532434Y-53128259D01*
X48537384Y-53126774D01*
X48737994Y-53028496D01*
X48919860Y-52898773D01*
X49078096Y-52741089D01*
X49137594Y-52658289D01*
X49208453Y-52559677D01*
X49209776Y-52560628D01*
X49256645Y-52517457D01*
X49326580Y-52505225D01*
X49392026Y-52532744D01*
X49419875Y-52564594D01*
X49479987Y-52662688D01*
X49626250Y-52831538D01*
X49798126Y-52974232D01*
X49991000Y-53086938D01*
X50199692Y-53166630D01*
X50204760Y-53167661D01*
X50204763Y-53167662D01*
X50312017Y-53189483D01*
X50418597Y-53211167D01*
X50423772Y-53211357D01*
X50423774Y-53211357D01*
X50636673Y-53219164D01*
X50636677Y-53219164D01*
X50641837Y-53219353D01*
X50646957Y-53218697D01*
X50646959Y-53218697D01*
X50858288Y-53191625D01*
X50858289Y-53191625D01*
X50863416Y-53190968D01*
X50868366Y-53189483D01*
X51072429Y-53128261D01*
X51072434Y-53128259D01*
X51077384Y-53126774D01*
X51277994Y-53028496D01*
X51459860Y-52898773D01*
X51568091Y-52790919D01*
X51630462Y-52757004D01*
X51701268Y-52762192D01*
X51758030Y-52804838D01*
X51775012Y-52835941D01*
X51797201Y-52895129D01*
X51819385Y-52954305D01*
X51906739Y-53070861D01*
X52023295Y-53158215D01*
X52159684Y-53209345D01*
X52221866Y-53216100D01*
X54018134Y-53216100D01*
X54080316Y-53209345D01*
X54216705Y-53158215D01*
X54333261Y-53070861D01*
X54420615Y-52954305D01*
X54434325Y-52917734D01*
X54464598Y-52836982D01*
X54507240Y-52780218D01*
X54573802Y-52755518D01*
X54643150Y-52770726D01*
X54677817Y-52798714D01*
X54706250Y-52831538D01*
X54878126Y-52974232D01*
X55071000Y-53086938D01*
X55279692Y-53166630D01*
X55284760Y-53167661D01*
X55284763Y-53167662D01*
X55392017Y-53189483D01*
X55498597Y-53211167D01*
X55503772Y-53211357D01*
X55503774Y-53211357D01*
X55716673Y-53219164D01*
X55716677Y-53219164D01*
X55721837Y-53219353D01*
X55726957Y-53218697D01*
X55726959Y-53218697D01*
X55938288Y-53191625D01*
X55938289Y-53191625D01*
X55943416Y-53190968D01*
X55948366Y-53189483D01*
X56152429Y-53128261D01*
X56152434Y-53128259D01*
X56157384Y-53126774D01*
X56357994Y-53028496D01*
X56539860Y-52898773D01*
X56698096Y-52741089D01*
X56757594Y-52658289D01*
X56828453Y-52559677D01*
X56829776Y-52560628D01*
X56876645Y-52517457D01*
X56946580Y-52505225D01*
X57012026Y-52532744D01*
X57039875Y-52564594D01*
X57099987Y-52662688D01*
X57246250Y-52831538D01*
X57418126Y-52974232D01*
X57611000Y-53086938D01*
X57819692Y-53166630D01*
X57824760Y-53167661D01*
X57824763Y-53167662D01*
X57932017Y-53189483D01*
X58038597Y-53211167D01*
X58043772Y-53211357D01*
X58043774Y-53211357D01*
X58256673Y-53219164D01*
X58256677Y-53219164D01*
X58261837Y-53219353D01*
X58266957Y-53218697D01*
X58266959Y-53218697D01*
X58478288Y-53191625D01*
X58478289Y-53191625D01*
X58483416Y-53190968D01*
X58488366Y-53189483D01*
X58692429Y-53128261D01*
X58692434Y-53128259D01*
X58697384Y-53126774D01*
X58897994Y-53028496D01*
X59079860Y-52898773D01*
X59238096Y-52741089D01*
X59297594Y-52658289D01*
X59315979Y-52632703D01*
X92890743Y-52632703D01*
X92891302Y-52636947D01*
X92891302Y-52636951D01*
X92895204Y-52666590D01*
X92928268Y-52917734D01*
X92929401Y-52921874D01*
X92929401Y-52921876D01*
X92942820Y-52970927D01*
X93004129Y-53195036D01*
X93116923Y-53459476D01*
X93264561Y-53706161D01*
X93444313Y-53930528D01*
X93652851Y-54128423D01*
X93886317Y-54296186D01*
X93890112Y-54298195D01*
X93890113Y-54298196D01*
X93911869Y-54309715D01*
X94140392Y-54430712D01*
X94410373Y-54529511D01*
X94691264Y-54590755D01*
X94719841Y-54593004D01*
X94914282Y-54608307D01*
X94914291Y-54608307D01*
X94916739Y-54608500D01*
X95072271Y-54608500D01*
X95074407Y-54608354D01*
X95074418Y-54608354D01*
X95282548Y-54594165D01*
X95282554Y-54594164D01*
X95286825Y-54593873D01*
X95291020Y-54593004D01*
X95291022Y-54593004D01*
X95427584Y-54564723D01*
X95568342Y-54535574D01*
X95839343Y-54439607D01*
X96094812Y-54307750D01*
X96098313Y-54305289D01*
X96098317Y-54305287D01*
X96212417Y-54225096D01*
X96330023Y-54142441D01*
X96540622Y-53946740D01*
X96722713Y-53724268D01*
X96872927Y-53479142D01*
X96988483Y-53215898D01*
X97004915Y-53158215D01*
X97056580Y-52976842D01*
X97067244Y-52939406D01*
X97107751Y-52654784D01*
X97107845Y-52636951D01*
X97109235Y-52371583D01*
X97109235Y-52371576D01*
X97109257Y-52367297D01*
X97106359Y-52345280D01*
X97072292Y-52086522D01*
X97071732Y-52082266D01*
X96995871Y-51804964D01*
X96985295Y-51780170D01*
X96884763Y-51544476D01*
X96884761Y-51544472D01*
X96883077Y-51540524D01*
X96735439Y-51293839D01*
X96555687Y-51069472D01*
X96355860Y-50879843D01*
X96350258Y-50874527D01*
X96350255Y-50874525D01*
X96347149Y-50871577D01*
X96113683Y-50703814D01*
X96109725Y-50701718D01*
X96001354Y-50644339D01*
X95859608Y-50569288D01*
X95724617Y-50519888D01*
X95593658Y-50471964D01*
X95593656Y-50471963D01*
X95589627Y-50470489D01*
X95308736Y-50409245D01*
X95277685Y-50406801D01*
X95085718Y-50391693D01*
X95085709Y-50391693D01*
X95083261Y-50391500D01*
X94927729Y-50391500D01*
X94925593Y-50391646D01*
X94925582Y-50391646D01*
X94717452Y-50405835D01*
X94717446Y-50405836D01*
X94713175Y-50406127D01*
X94708980Y-50406996D01*
X94708978Y-50406996D01*
X94572417Y-50435276D01*
X94431658Y-50464426D01*
X94160657Y-50560393D01*
X93905188Y-50692250D01*
X93901687Y-50694711D01*
X93901683Y-50694713D01*
X93843040Y-50735928D01*
X93669977Y-50857559D01*
X93654892Y-50871577D01*
X93488846Y-51025877D01*
X93459378Y-51053260D01*
X93277287Y-51275732D01*
X93127073Y-51520858D01*
X93125347Y-51524791D01*
X93125346Y-51524792D01*
X93079188Y-51629942D01*
X93011517Y-51784102D01*
X92932756Y-52060594D01*
X92892249Y-52345216D01*
X92892227Y-52349505D01*
X92892226Y-52349512D01*
X92890765Y-52628417D01*
X92890743Y-52632703D01*
X59315979Y-52632703D01*
X59365435Y-52563877D01*
X59368453Y-52559677D01*
X59389320Y-52517457D01*
X59465136Y-52364053D01*
X59465137Y-52364051D01*
X59467430Y-52359411D01*
X59532370Y-52145669D01*
X59561529Y-51924190D01*
X59563156Y-51857600D01*
X59544852Y-51634961D01*
X59490431Y-51418302D01*
X59401354Y-51213440D01*
X59340866Y-51119940D01*
X59320659Y-51051880D01*
X59340455Y-50983699D01*
X59393970Y-50937045D01*
X59446658Y-50925500D01*
X67931313Y-50925500D01*
X67999434Y-50945502D01*
X68040431Y-50988498D01*
X68094960Y-51082944D01*
X68099378Y-51087851D01*
X68099379Y-51087852D01*
X68212459Y-51213440D01*
X68222747Y-51224866D01*
X68377248Y-51337118D01*
X68383276Y-51339802D01*
X68383278Y-51339803D01*
X68489072Y-51386905D01*
X68551712Y-51414794D01*
X68645113Y-51434647D01*
X68732056Y-51453128D01*
X68732061Y-51453128D01*
X68738513Y-51454500D01*
X68929487Y-51454500D01*
X68935939Y-51453128D01*
X68935944Y-51453128D01*
X69022888Y-51434647D01*
X69116288Y-51414794D01*
X69178928Y-51386905D01*
X69284722Y-51339803D01*
X69284724Y-51339802D01*
X69290752Y-51337118D01*
X69445253Y-51224866D01*
X69455541Y-51213440D01*
X69568621Y-51087852D01*
X69568622Y-51087851D01*
X69573040Y-51082944D01*
X69668527Y-50917556D01*
X69727542Y-50735928D01*
X69730887Y-50704107D01*
X69746814Y-50552565D01*
X69747504Y-50546000D01*
X69742715Y-50500431D01*
X69728232Y-50362635D01*
X69728232Y-50362633D01*
X69727542Y-50356072D01*
X69668527Y-50174444D01*
X69624681Y-50098500D01*
X69607943Y-50029504D01*
X69631164Y-49962413D01*
X69686971Y-49918526D01*
X69733800Y-49909500D01*
X78915233Y-49909500D01*
X78926416Y-49910027D01*
X78933909Y-49911702D01*
X78941835Y-49911453D01*
X78941836Y-49911453D01*
X79001986Y-49909562D01*
X79005945Y-49909500D01*
X79033856Y-49909500D01*
X79037791Y-49909003D01*
X79037856Y-49908995D01*
X79049693Y-49908062D01*
X79081951Y-49907048D01*
X79085970Y-49906922D01*
X79093889Y-49906673D01*
X79113343Y-49901021D01*
X79132700Y-49897013D01*
X79144930Y-49895468D01*
X79144931Y-49895468D01*
X79152797Y-49894474D01*
X79160168Y-49891555D01*
X79160170Y-49891555D01*
X79193912Y-49878196D01*
X79205142Y-49874351D01*
X79239983Y-49864229D01*
X79239984Y-49864229D01*
X79247593Y-49862018D01*
X79254412Y-49857985D01*
X79254417Y-49857983D01*
X79265028Y-49851707D01*
X79282776Y-49843012D01*
X79301617Y-49835552D01*
X79337387Y-49809564D01*
X79347307Y-49803048D01*
X79378535Y-49784580D01*
X79378538Y-49784578D01*
X79385362Y-49780542D01*
X79399683Y-49766221D01*
X79414717Y-49753380D01*
X79424694Y-49746131D01*
X79431107Y-49741472D01*
X79459298Y-49707395D01*
X79467288Y-49698616D01*
X80468499Y-48697405D01*
X80530811Y-48663379D01*
X80557594Y-48660500D01*
X80613487Y-48660500D01*
X80619939Y-48659128D01*
X80619944Y-48659128D01*
X80706888Y-48640647D01*
X80800288Y-48620794D01*
X80806319Y-48618109D01*
X80968722Y-48545803D01*
X80968724Y-48545802D01*
X80974752Y-48543118D01*
X81129253Y-48430866D01*
X81257040Y-48288944D01*
X81352527Y-48123556D01*
X81411542Y-47941928D01*
X81413138Y-47926749D01*
X81421295Y-47849137D01*
X81428907Y-47776706D01*
X81455920Y-47711050D01*
X81465122Y-47700782D01*
X88596500Y-40569405D01*
X88658812Y-40535379D01*
X88685595Y-40532500D01*
X88741487Y-40532500D01*
X88747939Y-40531128D01*
X88747944Y-40531128D01*
X88834888Y-40512647D01*
X88928288Y-40492794D01*
X89037098Y-40444349D01*
X89096722Y-40417803D01*
X89096724Y-40417802D01*
X89102752Y-40415118D01*
X89153611Y-40378167D01*
X89193608Y-40349107D01*
X89257253Y-40302866D01*
X89261675Y-40297955D01*
X89380621Y-40165852D01*
X89380622Y-40165851D01*
X89385040Y-40160944D01*
X89475669Y-40003970D01*
X89477223Y-40001279D01*
X89477224Y-40001278D01*
X89480527Y-39995556D01*
X89517891Y-39880563D01*
X89557963Y-39821958D01*
X89623360Y-39794321D01*
X89637723Y-39793500D01*
X94576996Y-39793500D01*
X94645117Y-39813502D01*
X94680209Y-39847229D01*
X94768133Y-39972797D01*
X94773023Y-39979781D01*
X94930219Y-40136977D01*
X94934727Y-40140134D01*
X94934730Y-40140136D01*
X94987435Y-40177040D01*
X95112323Y-40264488D01*
X95117305Y-40266811D01*
X95117310Y-40266814D01*
X95222373Y-40315805D01*
X95275658Y-40362722D01*
X95295119Y-40430999D01*
X95274577Y-40498959D01*
X95222373Y-40544195D01*
X95117311Y-40593186D01*
X95117306Y-40593189D01*
X95112324Y-40595512D01*
X95107817Y-40598668D01*
X95107815Y-40598669D01*
X94934730Y-40719864D01*
X94934727Y-40719866D01*
X94930219Y-40723023D01*
X94773023Y-40880219D01*
X94769866Y-40884727D01*
X94769864Y-40884730D01*
X94656508Y-41046620D01*
X94645512Y-41062324D01*
X94643189Y-41067306D01*
X94643186Y-41067311D01*
X94564250Y-41236590D01*
X94551560Y-41263804D01*
X94550138Y-41269112D01*
X94550137Y-41269114D01*
X94538890Y-41311089D01*
X94494022Y-41478537D01*
X94474647Y-41700000D01*
X94494022Y-41921463D01*
X94514428Y-41997617D01*
X94549125Y-42127107D01*
X94551560Y-42136196D01*
X94553882Y-42141177D01*
X94553883Y-42141178D01*
X94643186Y-42332689D01*
X94643189Y-42332694D01*
X94645512Y-42337676D01*
X94648668Y-42342183D01*
X94648669Y-42342185D01*
X94681489Y-42389056D01*
X94773023Y-42519781D01*
X94930219Y-42676977D01*
X94934727Y-42680134D01*
X94934730Y-42680136D01*
X94945854Y-42687925D01*
X95112323Y-42804488D01*
X95117305Y-42806811D01*
X95117310Y-42806814D01*
X95222373Y-42855805D01*
X95275658Y-42902722D01*
X95295119Y-42970999D01*
X95274577Y-43038959D01*
X95222373Y-43084195D01*
X95117311Y-43133186D01*
X95117306Y-43133189D01*
X95112324Y-43135512D01*
X95107817Y-43138668D01*
X95107815Y-43138669D01*
X94934730Y-43259864D01*
X94934727Y-43259866D01*
X94930219Y-43263023D01*
X94773023Y-43420219D01*
X94769866Y-43424727D01*
X94769864Y-43424730D01*
X94673397Y-43562500D01*
X94645512Y-43602324D01*
X94643189Y-43607306D01*
X94643186Y-43607311D01*
X94593792Y-43713237D01*
X94551560Y-43803804D01*
X94550138Y-43809112D01*
X94550137Y-43809114D01*
X94535881Y-43862317D01*
X94494022Y-44018537D01*
X94474647Y-44240000D01*
X94494022Y-44461463D01*
X94495446Y-44466776D01*
X94545979Y-44655366D01*
X94551560Y-44676196D01*
X94553882Y-44681177D01*
X94553883Y-44681178D01*
X94643186Y-44872689D01*
X94643189Y-44872694D01*
X94645512Y-44877676D01*
X94648668Y-44882183D01*
X94648669Y-44882185D01*
X94760501Y-45041897D01*
X94773023Y-45059781D01*
X94930219Y-45216977D01*
X94934727Y-45220134D01*
X94934730Y-45220136D01*
X94987816Y-45257307D01*
X95112323Y-45344488D01*
X95117305Y-45346811D01*
X95117310Y-45346814D01*
X95308822Y-45436117D01*
X95313804Y-45438440D01*
X95319112Y-45439862D01*
X95319114Y-45439863D01*
X95382160Y-45456756D01*
X95528537Y-45495978D01*
X95750000Y-45515353D01*
X95971463Y-45495978D01*
X96117840Y-45456756D01*
X96180886Y-45439863D01*
X96180888Y-45439862D01*
X96186196Y-45438440D01*
X96191178Y-45436117D01*
X96382690Y-45346814D01*
X96382695Y-45346811D01*
X96387677Y-45344488D01*
X96512184Y-45257307D01*
X96565270Y-45220136D01*
X96565273Y-45220134D01*
X96569781Y-45216977D01*
X96726977Y-45059781D01*
X96739500Y-45041897D01*
X96851331Y-44882185D01*
X96851332Y-44882183D01*
X96854488Y-44877676D01*
X96856811Y-44872694D01*
X96856814Y-44872689D01*
X96946117Y-44681178D01*
X96946118Y-44681177D01*
X96948440Y-44676196D01*
X96954022Y-44655366D01*
X97004554Y-44466776D01*
X97005978Y-44461463D01*
X97025353Y-44240000D01*
X97005978Y-44018537D01*
X96964119Y-43862317D01*
X96949863Y-43809114D01*
X96949862Y-43809112D01*
X96948440Y-43803804D01*
X96906208Y-43713237D01*
X96856814Y-43607311D01*
X96856811Y-43607306D01*
X96854488Y-43602324D01*
X96826603Y-43562500D01*
X96730136Y-43424730D01*
X96730134Y-43424727D01*
X96726977Y-43420219D01*
X96569781Y-43263023D01*
X96565273Y-43259866D01*
X96565270Y-43259864D01*
X96471039Y-43193883D01*
X96387677Y-43135512D01*
X96382695Y-43133189D01*
X96382690Y-43133186D01*
X96277627Y-43084195D01*
X96224342Y-43037278D01*
X96204881Y-42969001D01*
X96225423Y-42901041D01*
X96277627Y-42855805D01*
X96382690Y-42806814D01*
X96382695Y-42806811D01*
X96387677Y-42804488D01*
X96554146Y-42687925D01*
X96565270Y-42680136D01*
X96565273Y-42680134D01*
X96569781Y-42676977D01*
X96726977Y-42519781D01*
X96818512Y-42389056D01*
X96851331Y-42342185D01*
X96851332Y-42342183D01*
X96854488Y-42337676D01*
X96856811Y-42332694D01*
X96856814Y-42332689D01*
X96946117Y-42141178D01*
X96946118Y-42141177D01*
X96948440Y-42136196D01*
X96950876Y-42127107D01*
X96985572Y-41997617D01*
X97005978Y-41921463D01*
X97025353Y-41700000D01*
X97005978Y-41478537D01*
X96995514Y-41439484D01*
X96997204Y-41368507D01*
X97028126Y-41317778D01*
X97276905Y-41068999D01*
X97339217Y-41034973D01*
X97410032Y-41040038D01*
X97466868Y-41082585D01*
X97491679Y-41149105D01*
X97492000Y-41158094D01*
X97492000Y-54866000D01*
X97471998Y-54934121D01*
X97418342Y-54980614D01*
X97366000Y-54992000D01*
X634000Y-54992000D01*
X565879Y-54971998D01*
X519386Y-54918342D01*
X508000Y-54866000D01*
X508000Y-52632703D01*
X890743Y-52632703D01*
X891302Y-52636947D01*
X891302Y-52636951D01*
X895204Y-52666590D01*
X928268Y-52917734D01*
X929401Y-52921874D01*
X929401Y-52921876D01*
X942820Y-52970927D01*
X1004129Y-53195036D01*
X1116923Y-53459476D01*
X1264561Y-53706161D01*
X1444313Y-53930528D01*
X1652851Y-54128423D01*
X1886317Y-54296186D01*
X1890112Y-54298195D01*
X1890113Y-54298196D01*
X1911869Y-54309715D01*
X2140392Y-54430712D01*
X2410373Y-54529511D01*
X2691264Y-54590755D01*
X2719841Y-54593004D01*
X2914282Y-54608307D01*
X2914291Y-54608307D01*
X2916739Y-54608500D01*
X3072271Y-54608500D01*
X3074407Y-54608354D01*
X3074418Y-54608354D01*
X3282548Y-54594165D01*
X3282554Y-54594164D01*
X3286825Y-54593873D01*
X3291020Y-54593004D01*
X3291022Y-54593004D01*
X3427583Y-54564724D01*
X3568342Y-54535574D01*
X3839343Y-54439607D01*
X4094812Y-54307750D01*
X4098313Y-54305289D01*
X4098317Y-54305287D01*
X4212418Y-54225095D01*
X4330023Y-54142441D01*
X4540622Y-53946740D01*
X4722713Y-53724268D01*
X4872927Y-53479142D01*
X4988483Y-53215898D01*
X5004915Y-53158215D01*
X5056580Y-52976842D01*
X5067244Y-52939406D01*
X5107751Y-52654784D01*
X5107845Y-52636951D01*
X5109235Y-52371583D01*
X5109235Y-52371576D01*
X5109257Y-52367297D01*
X5106359Y-52345280D01*
X5072292Y-52086522D01*
X5071732Y-52082266D01*
X4995871Y-51804964D01*
X4985295Y-51780170D01*
X4884763Y-51544476D01*
X4884761Y-51544472D01*
X4883077Y-51540524D01*
X4735439Y-51293839D01*
X4555687Y-51069472D01*
X4355860Y-50879843D01*
X4350258Y-50874527D01*
X4350255Y-50874525D01*
X4347149Y-50871577D01*
X4113683Y-50703814D01*
X4109725Y-50701718D01*
X4001354Y-50644339D01*
X3859608Y-50569288D01*
X3724617Y-50519888D01*
X3593658Y-50471964D01*
X3593656Y-50471963D01*
X3589627Y-50470489D01*
X3308736Y-50409245D01*
X3277685Y-50406801D01*
X3085718Y-50391693D01*
X3085709Y-50391693D01*
X3083261Y-50391500D01*
X2927729Y-50391500D01*
X2925593Y-50391646D01*
X2925582Y-50391646D01*
X2717452Y-50405835D01*
X2717446Y-50405836D01*
X2713175Y-50406127D01*
X2708980Y-50406996D01*
X2708978Y-50406996D01*
X2572416Y-50435277D01*
X2431658Y-50464426D01*
X2160657Y-50560393D01*
X1905188Y-50692250D01*
X1901687Y-50694711D01*
X1901683Y-50694713D01*
X1843040Y-50735928D01*
X1669977Y-50857559D01*
X1654892Y-50871577D01*
X1488846Y-51025877D01*
X1459378Y-51053260D01*
X1277287Y-51275732D01*
X1127073Y-51520858D01*
X1125347Y-51524791D01*
X1125346Y-51524792D01*
X1079188Y-51629942D01*
X1011517Y-51784102D01*
X932756Y-52060594D01*
X892249Y-52345216D01*
X892227Y-52349505D01*
X892226Y-52349512D01*
X890765Y-52628417D01*
X890743Y-52632703D01*
X508000Y-52632703D01*
X508000Y-45474295D01*
X8807251Y-45474295D01*
X8807548Y-45479448D01*
X8807548Y-45479451D01*
X8813011Y-45574190D01*
X8820110Y-45697315D01*
X8821247Y-45702361D01*
X8821248Y-45702367D01*
X8835971Y-45767694D01*
X8869222Y-45915239D01*
X8907461Y-46009411D01*
X8934404Y-46075763D01*
X8953266Y-46122216D01*
X9069987Y-46312688D01*
X9216250Y-46481538D01*
X9388126Y-46624232D01*
X9581000Y-46736938D01*
X9789692Y-46816630D01*
X9794760Y-46817661D01*
X9794763Y-46817662D01*
X9896163Y-46838292D01*
X10008597Y-46861167D01*
X10013772Y-46861357D01*
X10013774Y-46861357D01*
X10226673Y-46869164D01*
X10226677Y-46869164D01*
X10231837Y-46869353D01*
X10236957Y-46868697D01*
X10236959Y-46868697D01*
X10448288Y-46841625D01*
X10448289Y-46841625D01*
X10453416Y-46840968D01*
X10458366Y-46839483D01*
X10662429Y-46778261D01*
X10662434Y-46778259D01*
X10667384Y-46776774D01*
X10867994Y-46678496D01*
X11049860Y-46548773D01*
X11208096Y-46391089D01*
X11251460Y-46330742D01*
X11335435Y-46213877D01*
X11338453Y-46209677D01*
X11340944Y-46204638D01*
X11435136Y-46014053D01*
X11435137Y-46014051D01*
X11437430Y-46009411D01*
X11475494Y-45884129D01*
X11500865Y-45800623D01*
X11500865Y-45800621D01*
X11502370Y-45795669D01*
X11531529Y-45574190D01*
X11532607Y-45530072D01*
X11533074Y-45510965D01*
X11533074Y-45510961D01*
X11533156Y-45507600D01*
X11514852Y-45284961D01*
X11460431Y-45068302D01*
X11371354Y-44863440D01*
X11295129Y-44745614D01*
X11252822Y-44680217D01*
X11252820Y-44680214D01*
X11250014Y-44675877D01*
X11241146Y-44666131D01*
X11102798Y-44514088D01*
X11071746Y-44450242D01*
X11080141Y-44379743D01*
X11125317Y-44324975D01*
X11151761Y-44311306D01*
X11258297Y-44271367D01*
X11266705Y-44268215D01*
X11383261Y-44180861D01*
X11470615Y-44064305D01*
X11521745Y-43927916D01*
X11528500Y-43865734D01*
X11528500Y-42069466D01*
X11521745Y-42007284D01*
X11470615Y-41870895D01*
X11383261Y-41754339D01*
X11266705Y-41666985D01*
X11254132Y-41662272D01*
X11148203Y-41622560D01*
X11091439Y-41579918D01*
X11066739Y-41513356D01*
X11081947Y-41444008D01*
X11103493Y-41415327D01*
X11143555Y-41375405D01*
X11208096Y-41311089D01*
X11245654Y-41258822D01*
X11335435Y-41133877D01*
X11338453Y-41129677D01*
X11361064Y-41083928D01*
X11435136Y-40934053D01*
X11435137Y-40934051D01*
X11437430Y-40929411D01*
X11469900Y-40822540D01*
X11500865Y-40720623D01*
X11500865Y-40720621D01*
X11502370Y-40715669D01*
X11531529Y-40494190D01*
X11531629Y-40490109D01*
X11533074Y-40430965D01*
X11533074Y-40430961D01*
X11533156Y-40427600D01*
X11514852Y-40204961D01*
X11460431Y-39988302D01*
X11371354Y-39783440D01*
X11262578Y-39615298D01*
X11252822Y-39600217D01*
X11252820Y-39600214D01*
X11250014Y-39595877D01*
X11099670Y-39430651D01*
X11095619Y-39427452D01*
X11095615Y-39427448D01*
X10928414Y-39295400D01*
X10928410Y-39295398D01*
X10924359Y-39292198D01*
X10918023Y-39288700D01*
X10841977Y-39246721D01*
X10728789Y-39184238D01*
X10723920Y-39182514D01*
X10723916Y-39182512D01*
X10523087Y-39111395D01*
X10523083Y-39111394D01*
X10518212Y-39109669D01*
X10513119Y-39108762D01*
X10513116Y-39108761D01*
X10303373Y-39071400D01*
X10303367Y-39071399D01*
X10298284Y-39070494D01*
X10224452Y-39069592D01*
X10080081Y-39067828D01*
X10080079Y-39067828D01*
X10074911Y-39067765D01*
X9854091Y-39101555D01*
X9641756Y-39170957D01*
X9586426Y-39199760D01*
X9505342Y-39241970D01*
X9443607Y-39274107D01*
X9439474Y-39277210D01*
X9439471Y-39277212D01*
X9269100Y-39405130D01*
X9264965Y-39408235D01*
X9243544Y-39430651D01*
X9117358Y-39562697D01*
X9110629Y-39569738D01*
X9107715Y-39574010D01*
X9107714Y-39574011D01*
X9095404Y-39592057D01*
X8984743Y-39754280D01*
X8955724Y-39816797D01*
X8893032Y-39951856D01*
X8890688Y-39956905D01*
X8830989Y-40172170D01*
X8807251Y-40394295D01*
X8807548Y-40399448D01*
X8807548Y-40399451D01*
X8816118Y-40548075D01*
X8820110Y-40617315D01*
X8821247Y-40622361D01*
X8821248Y-40622367D01*
X8841974Y-40714334D01*
X8869222Y-40835239D01*
X8918333Y-40956185D01*
X8934791Y-40996716D01*
X8953266Y-41042216D01*
X9069987Y-41232688D01*
X9216250Y-41401538D01*
X9220230Y-41404842D01*
X9224981Y-41408787D01*
X9264616Y-41467690D01*
X9266113Y-41538671D01*
X9228997Y-41599193D01*
X9188724Y-41623712D01*
X9073295Y-41666985D01*
X8956739Y-41754339D01*
X8869385Y-41870895D01*
X8818255Y-42007284D01*
X8811500Y-42069466D01*
X8811500Y-43865734D01*
X8818255Y-43927916D01*
X8869385Y-44064305D01*
X8956739Y-44180861D01*
X9073295Y-44268215D01*
X9081704Y-44271367D01*
X9081705Y-44271368D01*
X9190451Y-44312135D01*
X9247216Y-44354776D01*
X9271916Y-44421338D01*
X9256709Y-44490687D01*
X9237316Y-44517168D01*
X9110629Y-44649738D01*
X9107715Y-44654010D01*
X9107714Y-44654011D01*
X9089838Y-44680217D01*
X8984743Y-44834280D01*
X8890688Y-45036905D01*
X8830989Y-45252170D01*
X8807251Y-45474295D01*
X508000Y-45474295D01*
X508000Y-39624000D01*
X3404496Y-39624000D01*
X3405186Y-39630565D01*
X3421254Y-39783440D01*
X3424458Y-39813928D01*
X3483473Y-39995556D01*
X3486776Y-40001278D01*
X3486777Y-40001279D01*
X3488331Y-40003970D01*
X3578960Y-40160944D01*
X3583378Y-40165851D01*
X3583379Y-40165852D01*
X3702325Y-40297955D01*
X3706747Y-40302866D01*
X3770392Y-40349107D01*
X3810390Y-40378167D01*
X3861248Y-40415118D01*
X3867276Y-40417802D01*
X3867278Y-40417803D01*
X3926902Y-40444349D01*
X4035712Y-40492794D01*
X4129112Y-40512647D01*
X4216056Y-40531128D01*
X4216061Y-40531128D01*
X4222513Y-40532500D01*
X4413487Y-40532500D01*
X4419939Y-40531128D01*
X4419944Y-40531128D01*
X4506888Y-40512647D01*
X4600288Y-40492794D01*
X4709098Y-40444349D01*
X4768722Y-40417803D01*
X4768724Y-40417802D01*
X4774752Y-40415118D01*
X4825611Y-40378167D01*
X4865608Y-40349107D01*
X4929253Y-40302866D01*
X4933675Y-40297955D01*
X5052621Y-40165852D01*
X5052622Y-40165851D01*
X5057040Y-40160944D01*
X5147669Y-40003970D01*
X5149223Y-40001279D01*
X5149224Y-40001278D01*
X5152527Y-39995556D01*
X5211542Y-39813928D01*
X5214747Y-39783440D01*
X5230814Y-39630565D01*
X5231504Y-39624000D01*
X5223148Y-39544499D01*
X5212232Y-39440635D01*
X5212232Y-39440633D01*
X5211542Y-39434072D01*
X5152527Y-39252444D01*
X5057040Y-39087056D01*
X4983863Y-39005785D01*
X4953147Y-38941779D01*
X4951500Y-38921476D01*
X4951500Y-34044295D01*
X8577251Y-34044295D01*
X8577548Y-34049448D01*
X8577548Y-34049451D01*
X8586331Y-34201770D01*
X8590110Y-34267315D01*
X8591247Y-34272361D01*
X8591248Y-34272367D01*
X8608933Y-34350840D01*
X8639222Y-34485239D01*
X8723266Y-34692216D01*
X8760685Y-34753278D01*
X8837291Y-34878288D01*
X8839987Y-34882688D01*
X8986250Y-35051538D01*
X9158126Y-35194232D01*
X9351000Y-35306938D01*
X9559692Y-35386630D01*
X9564760Y-35387661D01*
X9564763Y-35387662D01*
X9613591Y-35397596D01*
X9778597Y-35431167D01*
X9783772Y-35431357D01*
X9783774Y-35431357D01*
X9996673Y-35439164D01*
X9996677Y-35439164D01*
X10001837Y-35439353D01*
X10006957Y-35438697D01*
X10006959Y-35438697D01*
X10218288Y-35411625D01*
X10218289Y-35411625D01*
X10223416Y-35410968D01*
X10228366Y-35409483D01*
X10432429Y-35348261D01*
X10432434Y-35348259D01*
X10437384Y-35346774D01*
X10637994Y-35248496D01*
X10819860Y-35118773D01*
X10978096Y-34961089D01*
X11025392Y-34895270D01*
X11108453Y-34779677D01*
X11109776Y-34780628D01*
X11156645Y-34737457D01*
X11226580Y-34725225D01*
X11292026Y-34752744D01*
X11319875Y-34784594D01*
X11379987Y-34882688D01*
X11526250Y-35051538D01*
X11698126Y-35194232D01*
X11891000Y-35306938D01*
X12099692Y-35386630D01*
X12104760Y-35387661D01*
X12104763Y-35387662D01*
X12153591Y-35397596D01*
X12318597Y-35431167D01*
X12323772Y-35431357D01*
X12323774Y-35431357D01*
X12536673Y-35439164D01*
X12536677Y-35439164D01*
X12541837Y-35439353D01*
X12546957Y-35438697D01*
X12546959Y-35438697D01*
X12758288Y-35411625D01*
X12758289Y-35411625D01*
X12763416Y-35410968D01*
X12768366Y-35409483D01*
X12972429Y-35348261D01*
X12972434Y-35348259D01*
X12977384Y-35346774D01*
X13177994Y-35248496D01*
X13359860Y-35118773D01*
X13518096Y-34961089D01*
X13565392Y-34895270D01*
X13645435Y-34783877D01*
X13648453Y-34779677D01*
X13669320Y-34737457D01*
X13745136Y-34584053D01*
X13745137Y-34584051D01*
X13747430Y-34579411D01*
X13812370Y-34365669D01*
X13841529Y-34144190D01*
X13842437Y-34107041D01*
X13843074Y-34080965D01*
X13843074Y-34080961D01*
X13843156Y-34077600D01*
X13824852Y-33854961D01*
X13770431Y-33638302D01*
X13681354Y-33433440D01*
X13641906Y-33372462D01*
X13562822Y-33250217D01*
X13562820Y-33250214D01*
X13560014Y-33245877D01*
X13409670Y-33080651D01*
X13405619Y-33077452D01*
X13405615Y-33077448D01*
X13238414Y-32945400D01*
X13238410Y-32945398D01*
X13234359Y-32942198D01*
X13229831Y-32939698D01*
X13113988Y-32875750D01*
X13038789Y-32834238D01*
X13033920Y-32832514D01*
X13033916Y-32832512D01*
X12833087Y-32761395D01*
X12833083Y-32761394D01*
X12828212Y-32759669D01*
X12823119Y-32758762D01*
X12823116Y-32758761D01*
X12613373Y-32721400D01*
X12613367Y-32721399D01*
X12608284Y-32720494D01*
X12534452Y-32719592D01*
X12390081Y-32717828D01*
X12390079Y-32717828D01*
X12384911Y-32717765D01*
X12164091Y-32751555D01*
X11951756Y-32820957D01*
X11921443Y-32836737D01*
X11777975Y-32911422D01*
X11753607Y-32924107D01*
X11749474Y-32927210D01*
X11749471Y-32927212D01*
X11654779Y-32998309D01*
X11574965Y-33058235D01*
X11518536Y-33117284D01*
X11463729Y-33174637D01*
X11420629Y-33219738D01*
X11313201Y-33377221D01*
X11258293Y-33422221D01*
X11187768Y-33430392D01*
X11124021Y-33399138D01*
X11103324Y-33374654D01*
X11022822Y-33250217D01*
X11022820Y-33250214D01*
X11020014Y-33245877D01*
X10869670Y-33080651D01*
X10865619Y-33077452D01*
X10865615Y-33077448D01*
X10698414Y-32945400D01*
X10698410Y-32945398D01*
X10694359Y-32942198D01*
X10689831Y-32939698D01*
X10573988Y-32875750D01*
X10498789Y-32834238D01*
X10493920Y-32832514D01*
X10493916Y-32832512D01*
X10293087Y-32761395D01*
X10293083Y-32761394D01*
X10288212Y-32759669D01*
X10283119Y-32758762D01*
X10283116Y-32758761D01*
X10073373Y-32721400D01*
X10073367Y-32721399D01*
X10068284Y-32720494D01*
X9994452Y-32719592D01*
X9850081Y-32717828D01*
X9850079Y-32717828D01*
X9844911Y-32717765D01*
X9624091Y-32751555D01*
X9411756Y-32820957D01*
X9381443Y-32836737D01*
X9237975Y-32911422D01*
X9213607Y-32924107D01*
X9209474Y-32927210D01*
X9209471Y-32927212D01*
X9114779Y-32998309D01*
X9034965Y-33058235D01*
X8978536Y-33117284D01*
X8923729Y-33174637D01*
X8880629Y-33219738D01*
X8877720Y-33224003D01*
X8877714Y-33224011D01*
X8792556Y-33348849D01*
X8754743Y-33404280D01*
X8727423Y-33463136D01*
X8665382Y-33596793D01*
X8660688Y-33606905D01*
X8600989Y-33822170D01*
X8577251Y-34044295D01*
X4951500Y-34044295D01*
X4951500Y-31302594D01*
X4971502Y-31234473D01*
X4988405Y-31213499D01*
X10385499Y-25816405D01*
X10447811Y-25782379D01*
X10474594Y-25779500D01*
X16250274Y-25779500D01*
X16318395Y-25799502D01*
X16357707Y-25839665D01*
X16425987Y-25951088D01*
X16572250Y-26119938D01*
X16576230Y-26123242D01*
X16580981Y-26127187D01*
X16620616Y-26186090D01*
X16622113Y-26257071D01*
X16584997Y-26317593D01*
X16544725Y-26342112D01*
X16463172Y-26372685D01*
X16429295Y-26385385D01*
X16312739Y-26472739D01*
X16225385Y-26589295D01*
X16174255Y-26725684D01*
X16167500Y-26787866D01*
X16167500Y-28584134D01*
X16174255Y-28646316D01*
X16225385Y-28782705D01*
X16312739Y-28899261D01*
X16429295Y-28986615D01*
X16565684Y-29037745D01*
X16627866Y-29044500D01*
X18424134Y-29044500D01*
X18486316Y-29037745D01*
X18622705Y-28986615D01*
X18739261Y-28899261D01*
X18826615Y-28782705D01*
X18877745Y-28646316D01*
X18884500Y-28584134D01*
X18884500Y-26787866D01*
X18877745Y-26725684D01*
X18826615Y-26589295D01*
X18739261Y-26472739D01*
X18622705Y-26385385D01*
X18588828Y-26372685D01*
X18504203Y-26340960D01*
X18447439Y-26298318D01*
X18422739Y-26231756D01*
X18437947Y-26162408D01*
X18459493Y-26133727D01*
X18477251Y-26116031D01*
X18564096Y-26029489D01*
X18580444Y-26006739D01*
X18691435Y-25852277D01*
X18694453Y-25848077D01*
X18698611Y-25839665D01*
X18791136Y-25652453D01*
X18791137Y-25652451D01*
X18793430Y-25647811D01*
X18851800Y-25455694D01*
X18856865Y-25439023D01*
X18856865Y-25439021D01*
X18858370Y-25434069D01*
X18887529Y-25212590D01*
X18888081Y-25190000D01*
X18889074Y-25149365D01*
X18889074Y-25149361D01*
X18889156Y-25146000D01*
X18870852Y-24923361D01*
X18816431Y-24706702D01*
X18727354Y-24501840D01*
X18678041Y-24425613D01*
X18608822Y-24318617D01*
X18608820Y-24318614D01*
X18606014Y-24314277D01*
X18455670Y-24149051D01*
X18451619Y-24145852D01*
X18451615Y-24145848D01*
X18284414Y-24013800D01*
X18284410Y-24013798D01*
X18280359Y-24010598D01*
X18084789Y-23902638D01*
X18079920Y-23900914D01*
X18079916Y-23900912D01*
X17879087Y-23829795D01*
X17879083Y-23829794D01*
X17874212Y-23828069D01*
X17869119Y-23827162D01*
X17869116Y-23827161D01*
X17659373Y-23789800D01*
X17659367Y-23789799D01*
X17654284Y-23788894D01*
X17580452Y-23787992D01*
X17436081Y-23786228D01*
X17436079Y-23786228D01*
X17430911Y-23786165D01*
X17210091Y-23819955D01*
X16997756Y-23889357D01*
X16799607Y-23992507D01*
X16795474Y-23995610D01*
X16795471Y-23995612D01*
X16625100Y-24123530D01*
X16620965Y-24126635D01*
X16587358Y-24161803D01*
X16479667Y-24274495D01*
X16466629Y-24288138D01*
X16463715Y-24292410D01*
X16463714Y-24292411D01*
X16351095Y-24457504D01*
X16296184Y-24502507D01*
X16247007Y-24512500D01*
X10238768Y-24512500D01*
X10227585Y-24511973D01*
X10220092Y-24510298D01*
X10212166Y-24510547D01*
X10212165Y-24510547D01*
X10152002Y-24512438D01*
X10148044Y-24512500D01*
X10120144Y-24512500D01*
X10116154Y-24513004D01*
X10104320Y-24513936D01*
X10060111Y-24515326D01*
X10052495Y-24517539D01*
X10052493Y-24517539D01*
X10040652Y-24520979D01*
X10021293Y-24524988D01*
X10019983Y-24525154D01*
X10001203Y-24527526D01*
X9993837Y-24530442D01*
X9993831Y-24530444D01*
X9960098Y-24543800D01*
X9948868Y-24547645D01*
X9928715Y-24553500D01*
X9906407Y-24559981D01*
X9899584Y-24564016D01*
X9888966Y-24570295D01*
X9871213Y-24578992D01*
X9863568Y-24582019D01*
X9852383Y-24586448D01*
X9827875Y-24604254D01*
X9816612Y-24612437D01*
X9806695Y-24618951D01*
X9768638Y-24641458D01*
X9754317Y-24655779D01*
X9739284Y-24668619D01*
X9722893Y-24680528D01*
X9717842Y-24686634D01*
X9694702Y-24714605D01*
X9686712Y-24723384D01*
X3925747Y-30484348D01*
X3917461Y-30491888D01*
X3910982Y-30496000D01*
X3905557Y-30501777D01*
X3864357Y-30545651D01*
X3861602Y-30548493D01*
X3841865Y-30568230D01*
X3839385Y-30571427D01*
X3831682Y-30580447D01*
X3801414Y-30612679D01*
X3797595Y-30619625D01*
X3797593Y-30619628D01*
X3791652Y-30630434D01*
X3780801Y-30646953D01*
X3768386Y-30662959D01*
X3765241Y-30670228D01*
X3765238Y-30670232D01*
X3750826Y-30703537D01*
X3745609Y-30714187D01*
X3724305Y-30752940D01*
X3722334Y-30760615D01*
X3722334Y-30760616D01*
X3719267Y-30772562D01*
X3712863Y-30791266D01*
X3704819Y-30809855D01*
X3703580Y-30817678D01*
X3703577Y-30817688D01*
X3697901Y-30853524D01*
X3695495Y-30865144D01*
X3692521Y-30876729D01*
X3684500Y-30907970D01*
X3684500Y-30928224D01*
X3682949Y-30947934D01*
X3679780Y-30967943D01*
X3682937Y-31001335D01*
X3683941Y-31011961D01*
X3684500Y-31023819D01*
X3684500Y-38921476D01*
X3664498Y-38989597D01*
X3652142Y-39005779D01*
X3578960Y-39087056D01*
X3483473Y-39252444D01*
X3424458Y-39434072D01*
X3423768Y-39440633D01*
X3423768Y-39440635D01*
X3412852Y-39544499D01*
X3404496Y-39624000D01*
X508000Y-39624000D01*
X508000Y-14732000D01*
X6706496Y-14732000D01*
X6707186Y-14738565D01*
X6721477Y-14874533D01*
X6726458Y-14921928D01*
X6785473Y-15103556D01*
X6880960Y-15268944D01*
X6885378Y-15273851D01*
X6885379Y-15273852D01*
X6967799Y-15365389D01*
X7008747Y-15410866D01*
X7163248Y-15523118D01*
X7169276Y-15525802D01*
X7169278Y-15525803D01*
X7331681Y-15598109D01*
X7337712Y-15600794D01*
X7431113Y-15620647D01*
X7518056Y-15639128D01*
X7518061Y-15639128D01*
X7524513Y-15640500D01*
X7715487Y-15640500D01*
X7721939Y-15639128D01*
X7721944Y-15639128D01*
X7808887Y-15620647D01*
X7902288Y-15600794D01*
X7908319Y-15598109D01*
X8070722Y-15525803D01*
X8070724Y-15525802D01*
X8076752Y-15523118D01*
X8129589Y-15484730D01*
X8216067Y-15421899D01*
X8231253Y-15410866D01*
X8235668Y-15405963D01*
X8240580Y-15401540D01*
X8241705Y-15402789D01*
X8295014Y-15369949D01*
X8328200Y-15365500D01*
X10607406Y-15365500D01*
X10675527Y-15385502D01*
X10696501Y-15402405D01*
X16768348Y-21474253D01*
X16775888Y-21482539D01*
X16780000Y-21489018D01*
X16785777Y-21494443D01*
X16829651Y-21535643D01*
X16832493Y-21538398D01*
X16852230Y-21558135D01*
X16855427Y-21560615D01*
X16864447Y-21568318D01*
X16896679Y-21598586D01*
X16903625Y-21602405D01*
X16903628Y-21602407D01*
X16914434Y-21608348D01*
X16930953Y-21619199D01*
X16946959Y-21631614D01*
X16954228Y-21634759D01*
X16954232Y-21634762D01*
X16987537Y-21649174D01*
X16998187Y-21654391D01*
X17036940Y-21675695D01*
X17044615Y-21677666D01*
X17044616Y-21677666D01*
X17056562Y-21680733D01*
X17075267Y-21687137D01*
X17093855Y-21695181D01*
X17101678Y-21696420D01*
X17101688Y-21696423D01*
X17137524Y-21702099D01*
X17149144Y-21704505D01*
X17184024Y-21713460D01*
X17191970Y-21715500D01*
X17212224Y-21715500D01*
X17231934Y-21717051D01*
X17251943Y-21720220D01*
X17259835Y-21719474D01*
X17295961Y-21716059D01*
X17307819Y-21715500D01*
X30025800Y-21715500D01*
X30093921Y-21735502D01*
X30113147Y-21751843D01*
X30113420Y-21751540D01*
X30118332Y-21755963D01*
X30122747Y-21760866D01*
X30144329Y-21776546D01*
X30176133Y-21799653D01*
X30277248Y-21873118D01*
X30283276Y-21875802D01*
X30283278Y-21875803D01*
X30425678Y-21939203D01*
X30451712Y-21950794D01*
X30538009Y-21969137D01*
X30632056Y-21989128D01*
X30632061Y-21989128D01*
X30638513Y-21990500D01*
X30829487Y-21990500D01*
X30835939Y-21989128D01*
X30835944Y-21989128D01*
X30929991Y-21969137D01*
X31016288Y-21950794D01*
X31042322Y-21939203D01*
X31184722Y-21875803D01*
X31184724Y-21875802D01*
X31190752Y-21873118D01*
X31345253Y-21760866D01*
X31349675Y-21755955D01*
X31468621Y-21623852D01*
X31468622Y-21623851D01*
X31473040Y-21618944D01*
X31568527Y-21453556D01*
X31627542Y-21271928D01*
X31647504Y-21082000D01*
X31627542Y-20892072D01*
X31568527Y-20710444D01*
X31563686Y-20702058D01*
X31476341Y-20550774D01*
X31473040Y-20545056D01*
X31383400Y-20445500D01*
X31349675Y-20408045D01*
X31349674Y-20408044D01*
X31345253Y-20403134D01*
X31190752Y-20290882D01*
X31184724Y-20288198D01*
X31184722Y-20288197D01*
X31022319Y-20215891D01*
X31022318Y-20215891D01*
X31016288Y-20213206D01*
X30922888Y-20193353D01*
X30835944Y-20174872D01*
X30835939Y-20174872D01*
X30829487Y-20173500D01*
X30638513Y-20173500D01*
X30632061Y-20174872D01*
X30632056Y-20174872D01*
X30545112Y-20193353D01*
X30451712Y-20213206D01*
X30445682Y-20215891D01*
X30445681Y-20215891D01*
X30283278Y-20288197D01*
X30283276Y-20288198D01*
X30277248Y-20290882D01*
X30271907Y-20294762D01*
X30271906Y-20294763D01*
X30161687Y-20374842D01*
X30122747Y-20403134D01*
X30118332Y-20408037D01*
X30113420Y-20412460D01*
X30112295Y-20411211D01*
X30058986Y-20444051D01*
X30025800Y-20448500D01*
X28182395Y-20448500D01*
X28114274Y-20428498D01*
X28067781Y-20374842D01*
X28057677Y-20304568D01*
X28062563Y-20283562D01*
X28069502Y-20262208D01*
X28069503Y-20262203D01*
X28071542Y-20255928D01*
X28076177Y-20211834D01*
X28090814Y-20072565D01*
X28091504Y-20066000D01*
X28077107Y-19929022D01*
X28072232Y-19882635D01*
X28072232Y-19882633D01*
X28071542Y-19876072D01*
X28012527Y-19694444D01*
X27917040Y-19529056D01*
X27911847Y-19523288D01*
X27793675Y-19392045D01*
X27793674Y-19392044D01*
X27789253Y-19387134D01*
X27634752Y-19274882D01*
X27628724Y-19272198D01*
X27628722Y-19272197D01*
X27466319Y-19199891D01*
X27466318Y-19199891D01*
X27460288Y-19197206D01*
X27350078Y-19173780D01*
X27279944Y-19158872D01*
X27279939Y-19158872D01*
X27273487Y-19157500D01*
X27082513Y-19157500D01*
X27076053Y-19158873D01*
X27076054Y-19158873D01*
X27002348Y-19174539D01*
X26956446Y-19175741D01*
X26951894Y-19175020D01*
X26951884Y-19175020D01*
X26944057Y-19173780D01*
X26936165Y-19174526D01*
X26900039Y-19177941D01*
X26888181Y-19178500D01*
X22095744Y-19178500D01*
X22027623Y-19158498D01*
X21981130Y-19104842D01*
X21971026Y-19034568D01*
X21984908Y-18992572D01*
X22013266Y-18940124D01*
X22013267Y-18940122D01*
X22016198Y-18934701D01*
X22074682Y-18745768D01*
X22082593Y-18670500D01*
X22094711Y-18555204D01*
X22094711Y-18555202D01*
X22095355Y-18549075D01*
X22083217Y-18415702D01*
X22077989Y-18358251D01*
X22077988Y-18358248D01*
X22077430Y-18352112D01*
X22073734Y-18339552D01*
X22033821Y-18203940D01*
X22021590Y-18162381D01*
X21929960Y-17987110D01*
X21806032Y-17832975D01*
X21654526Y-17705846D01*
X21649128Y-17702879D01*
X21649123Y-17702875D01*
X21486608Y-17613533D01*
X21486609Y-17613533D01*
X21481213Y-17610567D01*
X21475346Y-17608706D01*
X21475344Y-17608705D01*
X21298564Y-17552627D01*
X21298563Y-17552627D01*
X21292694Y-17550765D01*
X21138773Y-17533500D01*
X20281924Y-17533500D01*
X20213803Y-17513498D01*
X20192829Y-17496595D01*
X18790855Y-16094621D01*
X18781753Y-16084478D01*
X18761897Y-16059782D01*
X18758032Y-16054975D01*
X18719578Y-16022708D01*
X18715931Y-16019528D01*
X18714119Y-16017885D01*
X18711925Y-16015691D01*
X18678651Y-15988358D01*
X18677853Y-15987696D01*
X18606526Y-15927846D01*
X18601856Y-15925278D01*
X18597739Y-15921897D01*
X18515914Y-15878023D01*
X18514755Y-15877394D01*
X18438619Y-15835538D01*
X18438611Y-15835535D01*
X18433213Y-15832567D01*
X18428131Y-15830955D01*
X18423437Y-15828438D01*
X18334469Y-15801238D01*
X18333441Y-15800918D01*
X18244694Y-15772765D01*
X18239398Y-15772171D01*
X18234302Y-15770613D01*
X18141743Y-15761210D01*
X18140607Y-15761089D01*
X18106992Y-15757319D01*
X18094270Y-15755892D01*
X18094266Y-15755892D01*
X18090773Y-15755500D01*
X18087246Y-15755500D01*
X18086261Y-15755445D01*
X18080581Y-15754998D01*
X18051175Y-15752011D01*
X18043663Y-15751248D01*
X18043661Y-15751248D01*
X18037538Y-15750626D01*
X17995259Y-15754623D01*
X17991891Y-15754941D01*
X17980033Y-15755500D01*
X16206231Y-15755500D01*
X16203175Y-15755800D01*
X16203168Y-15755800D01*
X16147915Y-15761218D01*
X16059167Y-15769920D01*
X16053266Y-15771702D01*
X16053264Y-15771702D01*
X15987949Y-15791422D01*
X15869831Y-15827084D01*
X15695204Y-15919934D01*
X15612174Y-15987652D01*
X15546713Y-16041040D01*
X15546710Y-16041043D01*
X15541938Y-16044935D01*
X15538011Y-16049682D01*
X15538009Y-16049684D01*
X15419799Y-16192575D01*
X15419797Y-16192579D01*
X15415870Y-16197325D01*
X15321802Y-16371299D01*
X15320671Y-16370688D01*
X15280046Y-16420560D01*
X15212566Y-16442626D01*
X15143868Y-16424706D01*
X15119637Y-16405779D01*
X13640057Y-14926199D01*
X13606031Y-14863887D01*
X13603842Y-14823934D01*
X13612814Y-14738565D01*
X13613504Y-14732000D01*
X13593542Y-14542072D01*
X13534527Y-14360444D01*
X13510717Y-14319203D01*
X13468267Y-14245679D01*
X13439040Y-14195056D01*
X13424798Y-14179238D01*
X13315675Y-14058045D01*
X13315674Y-14058044D01*
X13311253Y-14053134D01*
X13156752Y-13940882D01*
X13150724Y-13938198D01*
X13150722Y-13938197D01*
X12988319Y-13865891D01*
X12988318Y-13865891D01*
X12982288Y-13863206D01*
X12888887Y-13843353D01*
X12801944Y-13824872D01*
X12801939Y-13824872D01*
X12795487Y-13823500D01*
X12604513Y-13823500D01*
X12598061Y-13824872D01*
X12598056Y-13824872D01*
X12511112Y-13843353D01*
X12417712Y-13863206D01*
X12411682Y-13865891D01*
X12411681Y-13865891D01*
X12249278Y-13938197D01*
X12249276Y-13938198D01*
X12243248Y-13940882D01*
X12088747Y-14053134D01*
X12084326Y-14058044D01*
X12084325Y-14058045D01*
X11975203Y-14179238D01*
X11960960Y-14195056D01*
X11931733Y-14245679D01*
X11889284Y-14319203D01*
X11865473Y-14360444D01*
X11830507Y-14468060D01*
X11826226Y-14481234D01*
X11786153Y-14539840D01*
X11720756Y-14567477D01*
X11650799Y-14555370D01*
X11617298Y-14531393D01*
X11425652Y-14339747D01*
X11418112Y-14331461D01*
X11414000Y-14324982D01*
X11400783Y-14312570D01*
X11364349Y-14278357D01*
X11361507Y-14275602D01*
X11341770Y-14255865D01*
X11338573Y-14253385D01*
X11329551Y-14245680D01*
X11310856Y-14228124D01*
X11297321Y-14215414D01*
X11290375Y-14211595D01*
X11290372Y-14211593D01*
X11279566Y-14205652D01*
X11263047Y-14194801D01*
X11257048Y-14190148D01*
X11247041Y-14182386D01*
X11239772Y-14179241D01*
X11239768Y-14179238D01*
X11206463Y-14164826D01*
X11195813Y-14159609D01*
X11157060Y-14138305D01*
X11137437Y-14133267D01*
X11118734Y-14126863D01*
X11107420Y-14121967D01*
X11107419Y-14121967D01*
X11100145Y-14118819D01*
X11092322Y-14117580D01*
X11092312Y-14117577D01*
X11056476Y-14111901D01*
X11044856Y-14109495D01*
X11009711Y-14100472D01*
X11009710Y-14100472D01*
X11002030Y-14098500D01*
X10981776Y-14098500D01*
X10962065Y-14096949D01*
X10949886Y-14095020D01*
X10942057Y-14093780D01*
X10934165Y-14094526D01*
X10898039Y-14097941D01*
X10886181Y-14098500D01*
X8328200Y-14098500D01*
X8260079Y-14078498D01*
X8240853Y-14062157D01*
X8240580Y-14062460D01*
X8235668Y-14058037D01*
X8231253Y-14053134D01*
X8076752Y-13940882D01*
X8070724Y-13938198D01*
X8070722Y-13938197D01*
X7908319Y-13865891D01*
X7908318Y-13865891D01*
X7902288Y-13863206D01*
X7808887Y-13843353D01*
X7721944Y-13824872D01*
X7721939Y-13824872D01*
X7715487Y-13823500D01*
X7524513Y-13823500D01*
X7518061Y-13824872D01*
X7518056Y-13824872D01*
X7431112Y-13843353D01*
X7337712Y-13863206D01*
X7331682Y-13865891D01*
X7331681Y-13865891D01*
X7169278Y-13938197D01*
X7169276Y-13938198D01*
X7163248Y-13940882D01*
X7008747Y-14053134D01*
X7004326Y-14058044D01*
X7004325Y-14058045D01*
X6895203Y-14179238D01*
X6880960Y-14195056D01*
X6851733Y-14245679D01*
X6809284Y-14319203D01*
X6785473Y-14360444D01*
X6726458Y-14542072D01*
X6706496Y-14732000D01*
X508000Y-14732000D01*
X508000Y-5724134D01*
X7531500Y-5724134D01*
X7538255Y-5786316D01*
X7589385Y-5922705D01*
X7676739Y-6039261D01*
X7793295Y-6126615D01*
X7929684Y-6177745D01*
X7991866Y-6184500D01*
X9788134Y-6184500D01*
X9850316Y-6177745D01*
X9986705Y-6126615D01*
X10103261Y-6039261D01*
X10190615Y-5922705D01*
X10212799Y-5863529D01*
X10234598Y-5805382D01*
X10277240Y-5748618D01*
X10343802Y-5723918D01*
X10413150Y-5739126D01*
X10447817Y-5767114D01*
X10476250Y-5799938D01*
X10648126Y-5942632D01*
X10841000Y-6055338D01*
X11049692Y-6135030D01*
X11054760Y-6136061D01*
X11054763Y-6136062D01*
X11162017Y-6157883D01*
X11268597Y-6179567D01*
X11273772Y-6179757D01*
X11273774Y-6179757D01*
X11486673Y-6187564D01*
X11486677Y-6187564D01*
X11491837Y-6187753D01*
X11496957Y-6187097D01*
X11496959Y-6187097D01*
X11708288Y-6160025D01*
X11708289Y-6160025D01*
X11713416Y-6159368D01*
X11718366Y-6157883D01*
X11922429Y-6096661D01*
X11922434Y-6096659D01*
X11927384Y-6095174D01*
X12127994Y-5996896D01*
X12309860Y-5867173D01*
X12468096Y-5709489D01*
X12598453Y-5528077D01*
X12599776Y-5529028D01*
X12646645Y-5485857D01*
X12716580Y-5473625D01*
X12782026Y-5501144D01*
X12809875Y-5532994D01*
X12869987Y-5631088D01*
X13016250Y-5799938D01*
X13188126Y-5942632D01*
X13381000Y-6055338D01*
X13589692Y-6135030D01*
X13594760Y-6136061D01*
X13594763Y-6136062D01*
X13702017Y-6157883D01*
X13808597Y-6179567D01*
X13813772Y-6179757D01*
X13813774Y-6179757D01*
X14026673Y-6187564D01*
X14026677Y-6187564D01*
X14031837Y-6187753D01*
X14036957Y-6187097D01*
X14036959Y-6187097D01*
X14248288Y-6160025D01*
X14248289Y-6160025D01*
X14253416Y-6159368D01*
X14258366Y-6157883D01*
X14462429Y-6096661D01*
X14462434Y-6096659D01*
X14467384Y-6095174D01*
X14667994Y-5996896D01*
X14849860Y-5867173D01*
X14993400Y-5724134D01*
X19681166Y-5724134D01*
X19687921Y-5786316D01*
X19739051Y-5922705D01*
X19826405Y-6039261D01*
X19942961Y-6126615D01*
X20079350Y-6177745D01*
X20141532Y-6184500D01*
X20280166Y-6184500D01*
X20348287Y-6204502D01*
X20394780Y-6258158D01*
X20406166Y-6310500D01*
X20406166Y-12298492D01*
X20386164Y-12366613D01*
X20373806Y-12382798D01*
X20342960Y-12417056D01*
X20339659Y-12422774D01*
X20339657Y-12422777D01*
X20303965Y-12484598D01*
X20247473Y-12582444D01*
X20188458Y-12764072D01*
X20168496Y-12954000D01*
X20169186Y-12960565D01*
X20178062Y-13045011D01*
X20188458Y-13143928D01*
X20247473Y-13325556D01*
X20342960Y-13490944D01*
X20470747Y-13632866D01*
X20625248Y-13745118D01*
X20631276Y-13747802D01*
X20631278Y-13747803D01*
X20793681Y-13820109D01*
X20799712Y-13822794D01*
X20881850Y-13840253D01*
X20980056Y-13861128D01*
X20980061Y-13861128D01*
X20986513Y-13862500D01*
X21042406Y-13862500D01*
X21110527Y-13882502D01*
X21131501Y-13899405D01*
X21302854Y-14070758D01*
X21310398Y-14079048D01*
X21314511Y-14085529D01*
X21320288Y-14090954D01*
X21364178Y-14132169D01*
X21367020Y-14134924D01*
X21386741Y-14154645D01*
X21389936Y-14157123D01*
X21398958Y-14164829D01*
X21431190Y-14195097D01*
X21438139Y-14198917D01*
X21448943Y-14204857D01*
X21465467Y-14215710D01*
X21481470Y-14228124D01*
X21522054Y-14245687D01*
X21532684Y-14250894D01*
X21571451Y-14272206D01*
X21579128Y-14274177D01*
X21579133Y-14274179D01*
X21591069Y-14277243D01*
X21609777Y-14283648D01*
X21628366Y-14291692D01*
X21636194Y-14292932D01*
X21636201Y-14292934D01*
X21672035Y-14298610D01*
X21683655Y-14301016D01*
X21718800Y-14310039D01*
X21726481Y-14312011D01*
X21746735Y-14312011D01*
X21766445Y-14313562D01*
X21786454Y-14316731D01*
X21794346Y-14315985D01*
X21830472Y-14312570D01*
X21842330Y-14312011D01*
X26571917Y-14312011D01*
X26640038Y-14332013D01*
X26661012Y-14348916D01*
X36580343Y-24268247D01*
X36587887Y-24276537D01*
X36592000Y-24283018D01*
X36597777Y-24288443D01*
X36641667Y-24329658D01*
X36644509Y-24332413D01*
X36664230Y-24352134D01*
X36667425Y-24354612D01*
X36676447Y-24362318D01*
X36708679Y-24392586D01*
X36715628Y-24396406D01*
X36726432Y-24402346D01*
X36742956Y-24413199D01*
X36758959Y-24425613D01*
X36799543Y-24443176D01*
X36810173Y-24448383D01*
X36848940Y-24469695D01*
X36856617Y-24471666D01*
X36856622Y-24471668D01*
X36868558Y-24474732D01*
X36887266Y-24481137D01*
X36905855Y-24489181D01*
X36913683Y-24490421D01*
X36913690Y-24490423D01*
X36949524Y-24496099D01*
X36961144Y-24498505D01*
X36996289Y-24507528D01*
X37003970Y-24509500D01*
X37024224Y-24509500D01*
X37043934Y-24511051D01*
X37063943Y-24514220D01*
X37071835Y-24513474D01*
X37107961Y-24510059D01*
X37119819Y-24509500D01*
X38407800Y-24509500D01*
X38475921Y-24529502D01*
X38495147Y-24545843D01*
X38495420Y-24545540D01*
X38500332Y-24549963D01*
X38504747Y-24554866D01*
X38510086Y-24558745D01*
X38590954Y-24617499D01*
X38659248Y-24667118D01*
X38665276Y-24669802D01*
X38665278Y-24669803D01*
X38827681Y-24742109D01*
X38833712Y-24744794D01*
X38927113Y-24764647D01*
X39014056Y-24783128D01*
X39014061Y-24783128D01*
X39020513Y-24784500D01*
X39211487Y-24784500D01*
X39217939Y-24783128D01*
X39217944Y-24783128D01*
X39304888Y-24764647D01*
X39398288Y-24744794D01*
X39404319Y-24742109D01*
X39566722Y-24669803D01*
X39566724Y-24669802D01*
X39572752Y-24667118D01*
X39676940Y-24591421D01*
X39743806Y-24567563D01*
X39812958Y-24583643D01*
X39825056Y-24591418D01*
X39929248Y-24667118D01*
X39935276Y-24669802D01*
X39935278Y-24669803D01*
X40097681Y-24742109D01*
X40103712Y-24744794D01*
X40197113Y-24764647D01*
X40284056Y-24783128D01*
X40284061Y-24783128D01*
X40290513Y-24784500D01*
X40481487Y-24784500D01*
X40487939Y-24783128D01*
X40487944Y-24783128D01*
X40574888Y-24764647D01*
X40668288Y-24744794D01*
X40674319Y-24742109D01*
X40836722Y-24669803D01*
X40836724Y-24669802D01*
X40842752Y-24667118D01*
X40888593Y-24633812D01*
X40955462Y-24609953D01*
X41024614Y-24626034D01*
X41074094Y-24676948D01*
X41074228Y-24677223D01*
X41075473Y-24681056D01*
X41078776Y-24686778D01*
X41078777Y-24686779D01*
X41109378Y-24739781D01*
X41170960Y-24846444D01*
X41175378Y-24851351D01*
X41175379Y-24851352D01*
X41234716Y-24917252D01*
X41298747Y-24988366D01*
X41351666Y-25026814D01*
X41406632Y-25066749D01*
X41453248Y-25100618D01*
X41459276Y-25103302D01*
X41459278Y-25103303D01*
X41621681Y-25175609D01*
X41627712Y-25178294D01*
X41721113Y-25198147D01*
X41808056Y-25216628D01*
X41808061Y-25216628D01*
X41814513Y-25218000D01*
X42005487Y-25218000D01*
X42011939Y-25216628D01*
X42011944Y-25216628D01*
X42178176Y-25181294D01*
X42248967Y-25186696D01*
X42305600Y-25229513D01*
X42324206Y-25265604D01*
X42345473Y-25331056D01*
X42440960Y-25496444D01*
X42445378Y-25501351D01*
X42445379Y-25501352D01*
X42564325Y-25633455D01*
X42568747Y-25638366D01*
X42723248Y-25750618D01*
X42729276Y-25753302D01*
X42729278Y-25753303D01*
X42891681Y-25825609D01*
X42897712Y-25828294D01*
X42968959Y-25843438D01*
X43078056Y-25866628D01*
X43078061Y-25866628D01*
X43084513Y-25868000D01*
X43275487Y-25868000D01*
X43281939Y-25866628D01*
X43281944Y-25866628D01*
X43448176Y-25831294D01*
X43518967Y-25836696D01*
X43575600Y-25879513D01*
X43594206Y-25915604D01*
X43615473Y-25981056D01*
X43618776Y-25986778D01*
X43618777Y-25986779D01*
X43628016Y-26002781D01*
X43710960Y-26146444D01*
X43715378Y-26151351D01*
X43715379Y-26151352D01*
X43753602Y-26193803D01*
X43838747Y-26288366D01*
X43892610Y-26327500D01*
X43982452Y-26392774D01*
X43993248Y-26400618D01*
X43999276Y-26403302D01*
X43999278Y-26403303D01*
X44161681Y-26475609D01*
X44167712Y-26478294D01*
X44261112Y-26498147D01*
X44348056Y-26516628D01*
X44348061Y-26516628D01*
X44354513Y-26518000D01*
X44428534Y-26518000D01*
X44496655Y-26538002D01*
X44543148Y-26591658D01*
X44553844Y-26657167D01*
X44553186Y-26663429D01*
X44553186Y-26663435D01*
X44552496Y-26670000D01*
X44553186Y-26676565D01*
X44571019Y-26846233D01*
X44572458Y-26859928D01*
X44631473Y-27041556D01*
X44634776Y-27047278D01*
X44634777Y-27047279D01*
X44643105Y-27061703D01*
X44726960Y-27206944D01*
X44731378Y-27211851D01*
X44731379Y-27211852D01*
X44850325Y-27343955D01*
X44854747Y-27348866D01*
X45009248Y-27461118D01*
X45015276Y-27463802D01*
X45015278Y-27463803D01*
X45177681Y-27536109D01*
X45183712Y-27538794D01*
X45277113Y-27558647D01*
X45364056Y-27577128D01*
X45364061Y-27577128D01*
X45370513Y-27578500D01*
X45561487Y-27578500D01*
X45567939Y-27577128D01*
X45567944Y-27577128D01*
X45654887Y-27558647D01*
X45748288Y-27538794D01*
X45754319Y-27536109D01*
X45916722Y-27463803D01*
X45916724Y-27463802D01*
X45922752Y-27461118D01*
X46077253Y-27348866D01*
X46081675Y-27343955D01*
X46200621Y-27211852D01*
X46200622Y-27211851D01*
X46205040Y-27206944D01*
X46288895Y-27061703D01*
X46297223Y-27047279D01*
X46297224Y-27047278D01*
X46300527Y-27041556D01*
X46338724Y-26924000D01*
X54204496Y-26924000D01*
X54205186Y-26930565D01*
X54222885Y-27098958D01*
X54224458Y-27113928D01*
X54283473Y-27295556D01*
X54378960Y-27460944D01*
X54506747Y-27602866D01*
X54661248Y-27715118D01*
X54667276Y-27717802D01*
X54667278Y-27717803D01*
X54829681Y-27790109D01*
X54835712Y-27792794D01*
X54929113Y-27812647D01*
X55016056Y-27831128D01*
X55016061Y-27831128D01*
X55022513Y-27832500D01*
X55213487Y-27832500D01*
X55219939Y-27831128D01*
X55219944Y-27831128D01*
X55306887Y-27812647D01*
X55400288Y-27792794D01*
X55406319Y-27790109D01*
X55568722Y-27717803D01*
X55568724Y-27717802D01*
X55574752Y-27715118D01*
X55729253Y-27602866D01*
X55857040Y-27460944D01*
X55952527Y-27295556D01*
X55997364Y-27157563D01*
X56037438Y-27098958D01*
X56102835Y-27071321D01*
X56117197Y-27070500D01*
X56229487Y-27070500D01*
X56235939Y-27069128D01*
X56235944Y-27069128D01*
X56322887Y-27050647D01*
X56416288Y-27030794D01*
X56541730Y-26974944D01*
X56584722Y-26955803D01*
X56584724Y-26955802D01*
X56590752Y-26953118D01*
X56603414Y-26943919D01*
X56669098Y-26896196D01*
X56745253Y-26840866D01*
X56789898Y-26791283D01*
X56868621Y-26703852D01*
X56868622Y-26703851D01*
X56873040Y-26698944D01*
X56968527Y-26533556D01*
X57022895Y-26366230D01*
X57062968Y-26307626D01*
X57116529Y-26281922D01*
X57178288Y-26268794D01*
X57184319Y-26266109D01*
X57346722Y-26193803D01*
X57346724Y-26193802D01*
X57352752Y-26191118D01*
X57359673Y-26186090D01*
X57429912Y-26135058D01*
X57507253Y-26078866D01*
X57568636Y-26010693D01*
X57630621Y-25941852D01*
X57630622Y-25941851D01*
X57635040Y-25936944D01*
X57730527Y-25771556D01*
X57789542Y-25589928D01*
X57799368Y-25496444D01*
X57808814Y-25406565D01*
X57809504Y-25400000D01*
X57808814Y-25393435D01*
X57808814Y-25386829D01*
X57810770Y-25386829D01*
X57821860Y-25326192D01*
X57870363Y-25274346D01*
X57908202Y-25259614D01*
X57933828Y-25254167D01*
X57933827Y-25254167D01*
X57940288Y-25252794D01*
X57946319Y-25250109D01*
X58108722Y-25177803D01*
X58108724Y-25177802D01*
X58114752Y-25175118D01*
X58269253Y-25062866D01*
X58290750Y-25038991D01*
X58392621Y-24925852D01*
X58392622Y-24925851D01*
X58397040Y-24920944D01*
X58492527Y-24755556D01*
X58551542Y-24573928D01*
X58553387Y-24556379D01*
X58570814Y-24390565D01*
X58571504Y-24384000D01*
X58570814Y-24377435D01*
X58570814Y-24370829D01*
X58572770Y-24370829D01*
X58583860Y-24310192D01*
X58632363Y-24258346D01*
X58670202Y-24243614D01*
X58695828Y-24238167D01*
X58695827Y-24238167D01*
X58702288Y-24236794D01*
X58708319Y-24234109D01*
X58870722Y-24161803D01*
X58870724Y-24161802D01*
X58876752Y-24159118D01*
X58925735Y-24123530D01*
X58932157Y-24118864D01*
X59031253Y-24046866D01*
X59159040Y-23904944D01*
X59254527Y-23739556D01*
X59299364Y-23601563D01*
X59339438Y-23542958D01*
X59404835Y-23515321D01*
X59419197Y-23514500D01*
X59531487Y-23514500D01*
X59537939Y-23513128D01*
X59537944Y-23513128D01*
X59631850Y-23493167D01*
X59718288Y-23474794D01*
X59724319Y-23472109D01*
X59886722Y-23399803D01*
X59886724Y-23399802D01*
X59892752Y-23397118D01*
X59898499Y-23392943D01*
X59979651Y-23333982D01*
X60047253Y-23284866D01*
X60053602Y-23277815D01*
X60170621Y-23147852D01*
X60170622Y-23147851D01*
X60175040Y-23142944D01*
X60270527Y-22977556D01*
X60329542Y-22795928D01*
X60340672Y-22690032D01*
X60367685Y-22624375D01*
X60425907Y-22583745D01*
X60491413Y-22580000D01*
X60495306Y-22581235D01*
X60501429Y-22581922D01*
X60501430Y-22581922D01*
X60517683Y-22583745D01*
X60649227Y-22598500D01*
X61496378Y-22598500D01*
X61564499Y-22618502D01*
X61610992Y-22672158D01*
X61621688Y-22711330D01*
X61637882Y-22865404D01*
X61641258Y-22897528D01*
X61700273Y-23079156D01*
X61795760Y-23244544D01*
X61800178Y-23249451D01*
X61800179Y-23249452D01*
X61919125Y-23381555D01*
X61923547Y-23386466D01*
X61945440Y-23402372D01*
X62070408Y-23493167D01*
X62078048Y-23498718D01*
X62084076Y-23501402D01*
X62084078Y-23501403D01*
X62177413Y-23542958D01*
X62252512Y-23576394D01*
X62319012Y-23590529D01*
X62432856Y-23614728D01*
X62432861Y-23614728D01*
X62439313Y-23616100D01*
X62630287Y-23616100D01*
X62636739Y-23614728D01*
X62636744Y-23614728D01*
X62750588Y-23590529D01*
X62817088Y-23576394D01*
X62892187Y-23542958D01*
X62985522Y-23501403D01*
X62985524Y-23501402D01*
X62991552Y-23498718D01*
X62999193Y-23493167D01*
X63137138Y-23392943D01*
X63146053Y-23386466D01*
X63150468Y-23381563D01*
X63155380Y-23377140D01*
X63156505Y-23378389D01*
X63209814Y-23345549D01*
X63243000Y-23341100D01*
X64861850Y-23341100D01*
X64929971Y-23361102D01*
X64955486Y-23382790D01*
X65073147Y-23513466D01*
X65142788Y-23564063D01*
X65212522Y-23614728D01*
X65227648Y-23625718D01*
X65233676Y-23628402D01*
X65233678Y-23628403D01*
X65391203Y-23698537D01*
X65402112Y-23703394D01*
X65495512Y-23723247D01*
X65582456Y-23741728D01*
X65582461Y-23741728D01*
X65588913Y-23743100D01*
X65779887Y-23743100D01*
X65786339Y-23741728D01*
X65786344Y-23741728D01*
X65873288Y-23723247D01*
X65966688Y-23703394D01*
X65977597Y-23698537D01*
X66135122Y-23628403D01*
X66135124Y-23628402D01*
X66141152Y-23625718D01*
X66156279Y-23614728D01*
X66226012Y-23564063D01*
X66295653Y-23513466D01*
X66329238Y-23476166D01*
X66419021Y-23376452D01*
X66419022Y-23376451D01*
X66423440Y-23371544D01*
X66518927Y-23206156D01*
X66577942Y-23024528D01*
X66582278Y-22983279D01*
X66597214Y-22841165D01*
X66597904Y-22834600D01*
X66587716Y-22737669D01*
X66600488Y-22667833D01*
X66648990Y-22615986D01*
X66713026Y-22598500D01*
X73709769Y-22598500D01*
X73712825Y-22598200D01*
X73712832Y-22598200D01*
X73771340Y-22592463D01*
X73856833Y-22584080D01*
X73862734Y-22582298D01*
X73862736Y-22582298D01*
X73938355Y-22559467D01*
X74046169Y-22526916D01*
X74220796Y-22434066D01*
X74315316Y-22356977D01*
X74369287Y-22312960D01*
X74369290Y-22312957D01*
X74374062Y-22309065D01*
X74464470Y-22199781D01*
X74496201Y-22161425D01*
X74496203Y-22161421D01*
X74500130Y-22156675D01*
X74594198Y-21982701D01*
X74652682Y-21793768D01*
X74655732Y-21764749D01*
X74672711Y-21603204D01*
X74672711Y-21603202D01*
X74673355Y-21597075D01*
X74655430Y-21400112D01*
X74651123Y-21385475D01*
X74601330Y-21216294D01*
X74599590Y-21210381D01*
X74589196Y-21190498D01*
X74535906Y-21088565D01*
X74507960Y-21035110D01*
X74384032Y-20880975D01*
X74232526Y-20753846D01*
X74227128Y-20750879D01*
X74227123Y-20750875D01*
X74064608Y-20661533D01*
X74064609Y-20661533D01*
X74059213Y-20658567D01*
X74053346Y-20656706D01*
X74053344Y-20656705D01*
X73876564Y-20600627D01*
X73876563Y-20600627D01*
X73870694Y-20598765D01*
X73716773Y-20581500D01*
X60656231Y-20581500D01*
X60653175Y-20581800D01*
X60653168Y-20581800D01*
X60594660Y-20587537D01*
X60509167Y-20595920D01*
X60503266Y-20597702D01*
X60503264Y-20597702D01*
X60432043Y-20619205D01*
X60319831Y-20653084D01*
X60314392Y-20655976D01*
X60314387Y-20655978D01*
X60254652Y-20687739D01*
X60185115Y-20702058D01*
X60118874Y-20676510D01*
X60076962Y-20619205D01*
X60069500Y-20576487D01*
X60069500Y-20380595D01*
X60089502Y-20312474D01*
X60106405Y-20291499D01*
X60423501Y-19974404D01*
X60485813Y-19940379D01*
X60512596Y-19937500D01*
X78153233Y-19937500D01*
X78164416Y-19938027D01*
X78171909Y-19939702D01*
X78179835Y-19939453D01*
X78179836Y-19939453D01*
X78239986Y-19937562D01*
X78243945Y-19937500D01*
X78271856Y-19937500D01*
X78275791Y-19937003D01*
X78275856Y-19936995D01*
X78287693Y-19936062D01*
X78319951Y-19935048D01*
X78323970Y-19934922D01*
X78331889Y-19934673D01*
X78351343Y-19929021D01*
X78370700Y-19925013D01*
X78382930Y-19923468D01*
X78382931Y-19923468D01*
X78390797Y-19922474D01*
X78398168Y-19919555D01*
X78398170Y-19919555D01*
X78431912Y-19906196D01*
X78443142Y-19902351D01*
X78477983Y-19892229D01*
X78477984Y-19892229D01*
X78485593Y-19890018D01*
X78492412Y-19885985D01*
X78492417Y-19885983D01*
X78503028Y-19879707D01*
X78520776Y-19871012D01*
X78539617Y-19863552D01*
X78575387Y-19837564D01*
X78585307Y-19831048D01*
X78616535Y-19812580D01*
X78616538Y-19812578D01*
X78623362Y-19808542D01*
X78637683Y-19794221D01*
X78652717Y-19781380D01*
X78662694Y-19774131D01*
X78669107Y-19769472D01*
X78697298Y-19735395D01*
X78705288Y-19726616D01*
X84591652Y-13840253D01*
X84629499Y-13814241D01*
X84778719Y-13747805D01*
X84778726Y-13747801D01*
X84784752Y-13745118D01*
X84939253Y-13632866D01*
X85067040Y-13490944D01*
X85162527Y-13325556D01*
X85221542Y-13143928D01*
X85231939Y-13045011D01*
X85240814Y-12960565D01*
X85241504Y-12954000D01*
X85221542Y-12764072D01*
X85162527Y-12582444D01*
X85067040Y-12417056D01*
X84993863Y-12335785D01*
X84963147Y-12271779D01*
X84961500Y-12251476D01*
X84961500Y-12030134D01*
X94479500Y-12030134D01*
X94486255Y-12092316D01*
X94537385Y-12228705D01*
X94624739Y-12345261D01*
X94741295Y-12432615D01*
X94877684Y-12483745D01*
X94939866Y-12490500D01*
X96560134Y-12490500D01*
X96622316Y-12483745D01*
X96758705Y-12432615D01*
X96875261Y-12345261D01*
X96962615Y-12228705D01*
X97013745Y-12092316D01*
X97020500Y-12030134D01*
X97020500Y-10409866D01*
X97013745Y-10347684D01*
X96962615Y-10211295D01*
X96875261Y-10094739D01*
X96758705Y-10007385D01*
X96622316Y-9956255D01*
X96560134Y-9949500D01*
X94939866Y-9949500D01*
X94877684Y-9956255D01*
X94741295Y-10007385D01*
X94624739Y-10094739D01*
X94537385Y-10211295D01*
X94486255Y-10347684D01*
X94479500Y-10409866D01*
X94479500Y-12030134D01*
X84961500Y-12030134D01*
X84961500Y-6106427D01*
X84981502Y-6038306D01*
X85022618Y-5998550D01*
X85025994Y-5996896D01*
X85207860Y-5867173D01*
X85366096Y-5709489D01*
X85496453Y-5528077D01*
X85497776Y-5529028D01*
X85544645Y-5485857D01*
X85614580Y-5473625D01*
X85680026Y-5501144D01*
X85707875Y-5532994D01*
X85767987Y-5631088D01*
X85914250Y-5799938D01*
X86086126Y-5942632D01*
X86279000Y-6055338D01*
X86487692Y-6135030D01*
X86492760Y-6136061D01*
X86492763Y-6136062D01*
X86600017Y-6157883D01*
X86706597Y-6179567D01*
X86711772Y-6179757D01*
X86711774Y-6179757D01*
X86924673Y-6187564D01*
X86924677Y-6187564D01*
X86929837Y-6187753D01*
X86934957Y-6187097D01*
X86934959Y-6187097D01*
X87146288Y-6160025D01*
X87146289Y-6160025D01*
X87151416Y-6159368D01*
X87156366Y-6157883D01*
X87360429Y-6096661D01*
X87360434Y-6096659D01*
X87365384Y-6095174D01*
X87565994Y-5996896D01*
X87747860Y-5867173D01*
X87906096Y-5709489D01*
X88036453Y-5528077D01*
X88057320Y-5485857D01*
X88133136Y-5332453D01*
X88133137Y-5332451D01*
X88135430Y-5327811D01*
X88200370Y-5114069D01*
X88229529Y-4892590D01*
X88231156Y-4826000D01*
X88212852Y-4603361D01*
X88158431Y-4386702D01*
X88069354Y-4181840D01*
X87948014Y-3994277D01*
X87797670Y-3829051D01*
X87793619Y-3825852D01*
X87793615Y-3825848D01*
X87626414Y-3693800D01*
X87626410Y-3693798D01*
X87622359Y-3690598D01*
X87426789Y-3582638D01*
X87421920Y-3580914D01*
X87421916Y-3580912D01*
X87221087Y-3509795D01*
X87221083Y-3509794D01*
X87216212Y-3508069D01*
X87211119Y-3507162D01*
X87211116Y-3507161D01*
X87001373Y-3469800D01*
X87001367Y-3469799D01*
X86996284Y-3468894D01*
X86922452Y-3467992D01*
X86778081Y-3466228D01*
X86778079Y-3466228D01*
X86772911Y-3466165D01*
X86552091Y-3499955D01*
X86339756Y-3569357D01*
X86141607Y-3672507D01*
X86137474Y-3675610D01*
X86137471Y-3675612D01*
X85967100Y-3803530D01*
X85962965Y-3806635D01*
X85959393Y-3810373D01*
X85816907Y-3959476D01*
X85808629Y-3968138D01*
X85701201Y-4125621D01*
X85646293Y-4170621D01*
X85575768Y-4178792D01*
X85512021Y-4147538D01*
X85491324Y-4123054D01*
X85410822Y-3998617D01*
X85410820Y-3998614D01*
X85408014Y-3994277D01*
X85257670Y-3829051D01*
X85253619Y-3825852D01*
X85253615Y-3825848D01*
X85086414Y-3693800D01*
X85086410Y-3693798D01*
X85082359Y-3690598D01*
X84886789Y-3582638D01*
X84881920Y-3580914D01*
X84881916Y-3580912D01*
X84681087Y-3509795D01*
X84681083Y-3509794D01*
X84676212Y-3508069D01*
X84671119Y-3507162D01*
X84671116Y-3507161D01*
X84461373Y-3469800D01*
X84461367Y-3469799D01*
X84456284Y-3468894D01*
X84382452Y-3467992D01*
X84238081Y-3466228D01*
X84238079Y-3466228D01*
X84232911Y-3466165D01*
X84012091Y-3499955D01*
X83799756Y-3569357D01*
X83601607Y-3672507D01*
X83597474Y-3675610D01*
X83597471Y-3675612D01*
X83427100Y-3803530D01*
X83422965Y-3806635D01*
X83366537Y-3865684D01*
X83342283Y-3891064D01*
X83280759Y-3926494D01*
X83209846Y-3923037D01*
X83152060Y-3881791D01*
X83133207Y-3848243D01*
X83091767Y-3737703D01*
X83088615Y-3729295D01*
X83001261Y-3612739D01*
X82884705Y-3525385D01*
X82748316Y-3474255D01*
X82686134Y-3467500D01*
X80889866Y-3467500D01*
X80827684Y-3474255D01*
X80691295Y-3525385D01*
X80574739Y-3612739D01*
X80487385Y-3729295D01*
X80436255Y-3865684D01*
X80429500Y-3927866D01*
X80429500Y-5724134D01*
X80436255Y-5786316D01*
X80487385Y-5922705D01*
X80574739Y-6039261D01*
X80691295Y-6126615D01*
X80827684Y-6177745D01*
X80889866Y-6184500D01*
X81028500Y-6184500D01*
X81096621Y-6204502D01*
X81143114Y-6258158D01*
X81154500Y-6310500D01*
X81154500Y-11997476D01*
X81134498Y-12065597D01*
X81122142Y-12081779D01*
X81048960Y-12163056D01*
X81010436Y-12229782D01*
X80960069Y-12317020D01*
X80953473Y-12328444D01*
X80894458Y-12510072D01*
X80893768Y-12516633D01*
X80893768Y-12516635D01*
X80877093Y-12675293D01*
X80850080Y-12740950D01*
X80840878Y-12751218D01*
X76482500Y-17109595D01*
X76420188Y-17143621D01*
X76393405Y-17146500D01*
X69143594Y-17146500D01*
X69075473Y-17126498D01*
X69028980Y-17072842D01*
X69018876Y-17002568D01*
X69048370Y-16937988D01*
X69054499Y-16931405D01*
X72086499Y-13899405D01*
X72148811Y-13865379D01*
X72175594Y-13862500D01*
X72231487Y-13862500D01*
X72237939Y-13861128D01*
X72237944Y-13861128D01*
X72336150Y-13840253D01*
X72418288Y-13822794D01*
X72424319Y-13820109D01*
X72586722Y-13747803D01*
X72586724Y-13747802D01*
X72592752Y-13745118D01*
X72747253Y-13632866D01*
X72875040Y-13490944D01*
X72970527Y-13325556D01*
X73029542Y-13143928D01*
X73039939Y-13045011D01*
X73048814Y-12960565D01*
X73049504Y-12954000D01*
X73029542Y-12764072D01*
X72970527Y-12582444D01*
X72875040Y-12417056D01*
X72860798Y-12401238D01*
X72844194Y-12382798D01*
X72813476Y-12318791D01*
X72811830Y-12298488D01*
X72811830Y-6106427D01*
X72831832Y-6038306D01*
X72872948Y-5998550D01*
X72876324Y-5996896D01*
X73058190Y-5867173D01*
X73216426Y-5709489D01*
X73346783Y-5528077D01*
X73348106Y-5529028D01*
X73394975Y-5485857D01*
X73464910Y-5473625D01*
X73530356Y-5501144D01*
X73558205Y-5532994D01*
X73618317Y-5631088D01*
X73764580Y-5799938D01*
X73936456Y-5942632D01*
X74129330Y-6055338D01*
X74338022Y-6135030D01*
X74343090Y-6136061D01*
X74343093Y-6136062D01*
X74450347Y-6157883D01*
X74556927Y-6179567D01*
X74562102Y-6179757D01*
X74562104Y-6179757D01*
X74775003Y-6187564D01*
X74775007Y-6187564D01*
X74780167Y-6187753D01*
X74785287Y-6187097D01*
X74785289Y-6187097D01*
X74996618Y-6160025D01*
X74996619Y-6160025D01*
X75001746Y-6159368D01*
X75006696Y-6157883D01*
X75210759Y-6096661D01*
X75210764Y-6096659D01*
X75215714Y-6095174D01*
X75416324Y-5996896D01*
X75598190Y-5867173D01*
X75756426Y-5709489D01*
X75886783Y-5528077D01*
X75907650Y-5485857D01*
X75983466Y-5332453D01*
X75983467Y-5332451D01*
X75985760Y-5327811D01*
X76050700Y-5114069D01*
X76079859Y-4892590D01*
X76081486Y-4826000D01*
X76063182Y-4603361D01*
X76008761Y-4386702D01*
X75919684Y-4181840D01*
X75798344Y-3994277D01*
X75648000Y-3829051D01*
X75643949Y-3825852D01*
X75643945Y-3825848D01*
X75476744Y-3693800D01*
X75476740Y-3693798D01*
X75472689Y-3690598D01*
X75277119Y-3582638D01*
X75272250Y-3580914D01*
X75272246Y-3580912D01*
X75071417Y-3509795D01*
X75071413Y-3509794D01*
X75066542Y-3508069D01*
X75061449Y-3507162D01*
X75061446Y-3507161D01*
X74851703Y-3469800D01*
X74851697Y-3469799D01*
X74846614Y-3468894D01*
X74772782Y-3467992D01*
X74628411Y-3466228D01*
X74628409Y-3466228D01*
X74623241Y-3466165D01*
X74402421Y-3499955D01*
X74190086Y-3569357D01*
X73991937Y-3672507D01*
X73987804Y-3675610D01*
X73987801Y-3675612D01*
X73817430Y-3803530D01*
X73813295Y-3806635D01*
X73809723Y-3810373D01*
X73667237Y-3959476D01*
X73658959Y-3968138D01*
X73551531Y-4125621D01*
X73496623Y-4170621D01*
X73426098Y-4178792D01*
X73362351Y-4147538D01*
X73341654Y-4123054D01*
X73261152Y-3998617D01*
X73261150Y-3998614D01*
X73258344Y-3994277D01*
X73108000Y-3829051D01*
X73103949Y-3825852D01*
X73103945Y-3825848D01*
X72936744Y-3693800D01*
X72936740Y-3693798D01*
X72932689Y-3690598D01*
X72737119Y-3582638D01*
X72732250Y-3580914D01*
X72732246Y-3580912D01*
X72531417Y-3509795D01*
X72531413Y-3509794D01*
X72526542Y-3508069D01*
X72521449Y-3507162D01*
X72521446Y-3507161D01*
X72311703Y-3469800D01*
X72311697Y-3469799D01*
X72306614Y-3468894D01*
X72232782Y-3467992D01*
X72088411Y-3466228D01*
X72088409Y-3466228D01*
X72083241Y-3466165D01*
X71862421Y-3499955D01*
X71650086Y-3569357D01*
X71451937Y-3672507D01*
X71447804Y-3675610D01*
X71447801Y-3675612D01*
X71277430Y-3803530D01*
X71273295Y-3806635D01*
X71216867Y-3865684D01*
X71192613Y-3891064D01*
X71131089Y-3926494D01*
X71060176Y-3923037D01*
X71002390Y-3881791D01*
X70983537Y-3848243D01*
X70942097Y-3737703D01*
X70938945Y-3729295D01*
X70851591Y-3612739D01*
X70735035Y-3525385D01*
X70598646Y-3474255D01*
X70536464Y-3467500D01*
X68740196Y-3467500D01*
X68678014Y-3474255D01*
X68541625Y-3525385D01*
X68425069Y-3612739D01*
X68337715Y-3729295D01*
X68286585Y-3865684D01*
X68279830Y-3927866D01*
X68279830Y-5724134D01*
X68286585Y-5786316D01*
X68337715Y-5922705D01*
X68425069Y-6039261D01*
X68541625Y-6126615D01*
X68678014Y-6177745D01*
X68740196Y-6184500D01*
X68878830Y-6184500D01*
X68946951Y-6204502D01*
X68993444Y-6258158D01*
X69004830Y-6310500D01*
X69004830Y-12204463D01*
X68984828Y-12272584D01*
X68972466Y-12288773D01*
X68868368Y-12404386D01*
X68856960Y-12417056D01*
X68761473Y-12582444D01*
X68702458Y-12764072D01*
X68701768Y-12770633D01*
X68701768Y-12770635D01*
X68685093Y-12929292D01*
X68658080Y-12994949D01*
X68648878Y-13005217D01*
X66830500Y-14823595D01*
X66768188Y-14857621D01*
X66741405Y-14860500D01*
X59768767Y-14860500D01*
X59757584Y-14859973D01*
X59750091Y-14858298D01*
X59742165Y-14858547D01*
X59742164Y-14858547D01*
X59682001Y-14860438D01*
X59678043Y-14860500D01*
X59650144Y-14860500D01*
X59646154Y-14861004D01*
X59634320Y-14861936D01*
X59590111Y-14863326D01*
X59582497Y-14865538D01*
X59582492Y-14865539D01*
X59570659Y-14868977D01*
X59551296Y-14872988D01*
X59531203Y-14875526D01*
X59502897Y-14886733D01*
X59432197Y-14893212D01*
X59369217Y-14860439D01*
X59333953Y-14798820D01*
X59337602Y-14727917D01*
X59367419Y-14680486D01*
X60148500Y-13899405D01*
X60210812Y-13865379D01*
X60237595Y-13862500D01*
X60293487Y-13862500D01*
X60299939Y-13861128D01*
X60299944Y-13861128D01*
X60398150Y-13840253D01*
X60480288Y-13822794D01*
X60486319Y-13820109D01*
X60648722Y-13747803D01*
X60648724Y-13747802D01*
X60654752Y-13745118D01*
X60809253Y-13632866D01*
X60937040Y-13490944D01*
X61032527Y-13325556D01*
X61091542Y-13143928D01*
X61101939Y-13045011D01*
X61110814Y-12960565D01*
X61111504Y-12954000D01*
X61091542Y-12764072D01*
X61032527Y-12582444D01*
X60937040Y-12417056D01*
X60922798Y-12401238D01*
X60813675Y-12280045D01*
X60813674Y-12280044D01*
X60809253Y-12275134D01*
X60714103Y-12206003D01*
X60670749Y-12149780D01*
X60662164Y-12104067D01*
X60662164Y-6106427D01*
X60682166Y-6038306D01*
X60723282Y-5998550D01*
X60726658Y-5996896D01*
X60908524Y-5867173D01*
X61066760Y-5709489D01*
X61197117Y-5528077D01*
X61198440Y-5529028D01*
X61245309Y-5485857D01*
X61315244Y-5473625D01*
X61380690Y-5501144D01*
X61408539Y-5532994D01*
X61468651Y-5631088D01*
X61614914Y-5799938D01*
X61786790Y-5942632D01*
X61979664Y-6055338D01*
X62188356Y-6135030D01*
X62193424Y-6136061D01*
X62193427Y-6136062D01*
X62300681Y-6157883D01*
X62407261Y-6179567D01*
X62412436Y-6179757D01*
X62412438Y-6179757D01*
X62625337Y-6187564D01*
X62625341Y-6187564D01*
X62630501Y-6187753D01*
X62635621Y-6187097D01*
X62635623Y-6187097D01*
X62846952Y-6160025D01*
X62846953Y-6160025D01*
X62852080Y-6159368D01*
X62857030Y-6157883D01*
X63061093Y-6096661D01*
X63061098Y-6096659D01*
X63066048Y-6095174D01*
X63266658Y-5996896D01*
X63448524Y-5867173D01*
X63606760Y-5709489D01*
X63737117Y-5528077D01*
X63757984Y-5485857D01*
X63833800Y-5332453D01*
X63833801Y-5332451D01*
X63836094Y-5327811D01*
X63901034Y-5114069D01*
X63930193Y-4892590D01*
X63931820Y-4826000D01*
X63913516Y-4603361D01*
X63859095Y-4386702D01*
X63770018Y-4181840D01*
X63648678Y-3994277D01*
X63498334Y-3829051D01*
X63494283Y-3825852D01*
X63494279Y-3825848D01*
X63327078Y-3693800D01*
X63327074Y-3693798D01*
X63323023Y-3690598D01*
X63127453Y-3582638D01*
X63122584Y-3580914D01*
X63122580Y-3580912D01*
X62921751Y-3509795D01*
X62921747Y-3509794D01*
X62916876Y-3508069D01*
X62911783Y-3507162D01*
X62911780Y-3507161D01*
X62702037Y-3469800D01*
X62702031Y-3469799D01*
X62696948Y-3468894D01*
X62623116Y-3467992D01*
X62478745Y-3466228D01*
X62478743Y-3466228D01*
X62473575Y-3466165D01*
X62252755Y-3499955D01*
X62040420Y-3569357D01*
X61842271Y-3672507D01*
X61838138Y-3675610D01*
X61838135Y-3675612D01*
X61667764Y-3803530D01*
X61663629Y-3806635D01*
X61660057Y-3810373D01*
X61517571Y-3959476D01*
X61509293Y-3968138D01*
X61401865Y-4125621D01*
X61346957Y-4170621D01*
X61276432Y-4178792D01*
X61212685Y-4147538D01*
X61191988Y-4123054D01*
X61111486Y-3998617D01*
X61111484Y-3998614D01*
X61108678Y-3994277D01*
X60958334Y-3829051D01*
X60954283Y-3825852D01*
X60954279Y-3825848D01*
X60787078Y-3693800D01*
X60787074Y-3693798D01*
X60783023Y-3690598D01*
X60587453Y-3582638D01*
X60582584Y-3580914D01*
X60582580Y-3580912D01*
X60381751Y-3509795D01*
X60381747Y-3509794D01*
X60376876Y-3508069D01*
X60371783Y-3507162D01*
X60371780Y-3507161D01*
X60162037Y-3469800D01*
X60162031Y-3469799D01*
X60156948Y-3468894D01*
X60083116Y-3467992D01*
X59938745Y-3466228D01*
X59938743Y-3466228D01*
X59933575Y-3466165D01*
X59712755Y-3499955D01*
X59500420Y-3569357D01*
X59302271Y-3672507D01*
X59298138Y-3675610D01*
X59298135Y-3675612D01*
X59127764Y-3803530D01*
X59123629Y-3806635D01*
X59067201Y-3865684D01*
X59042947Y-3891064D01*
X58981423Y-3926494D01*
X58910510Y-3923037D01*
X58852724Y-3881791D01*
X58833871Y-3848243D01*
X58792431Y-3737703D01*
X58789279Y-3729295D01*
X58701925Y-3612739D01*
X58585369Y-3525385D01*
X58448980Y-3474255D01*
X58386798Y-3467500D01*
X56590530Y-3467500D01*
X56528348Y-3474255D01*
X56391959Y-3525385D01*
X56275403Y-3612739D01*
X56188049Y-3729295D01*
X56136919Y-3865684D01*
X56130164Y-3927866D01*
X56130164Y-5724134D01*
X56136919Y-5786316D01*
X56188049Y-5922705D01*
X56275403Y-6039261D01*
X56391959Y-6126615D01*
X56528348Y-6177745D01*
X56590530Y-6184500D01*
X56729164Y-6184500D01*
X56797285Y-6204502D01*
X56843778Y-6258158D01*
X56855164Y-6310500D01*
X56855164Y-12493793D01*
X56838282Y-12556794D01*
X56835423Y-12561747D01*
X56823473Y-12582444D01*
X56764458Y-12764072D01*
X56763768Y-12770633D01*
X56763768Y-12770635D01*
X56747093Y-12929292D01*
X56720080Y-12994949D01*
X56710878Y-13005217D01*
X54725747Y-14990348D01*
X54717461Y-14997888D01*
X54710982Y-15002000D01*
X54705557Y-15007777D01*
X54664357Y-15051651D01*
X54661602Y-15054493D01*
X54641865Y-15074230D01*
X54639385Y-15077427D01*
X54631682Y-15086447D01*
X54601414Y-15118679D01*
X54597595Y-15125625D01*
X54597593Y-15125628D01*
X54591652Y-15136434D01*
X54580801Y-15152953D01*
X54568386Y-15168959D01*
X54565241Y-15176228D01*
X54565238Y-15176232D01*
X54550826Y-15209537D01*
X54545609Y-15220187D01*
X54524305Y-15258940D01*
X54522334Y-15266615D01*
X54522334Y-15266616D01*
X54519267Y-15278562D01*
X54512863Y-15297266D01*
X54504819Y-15315855D01*
X54503580Y-15323678D01*
X54503577Y-15323688D01*
X54497901Y-15359524D01*
X54495495Y-15371144D01*
X54484500Y-15413970D01*
X54484500Y-15434224D01*
X54482949Y-15453934D01*
X54479780Y-15473943D01*
X54480526Y-15481835D01*
X54483941Y-15517961D01*
X54484500Y-15529819D01*
X54484500Y-26221476D01*
X54464498Y-26289597D01*
X54452142Y-26305779D01*
X54378960Y-26387056D01*
X54283473Y-26552444D01*
X54224458Y-26734072D01*
X54223768Y-26740633D01*
X54223768Y-26740635D01*
X54212490Y-26847938D01*
X54204496Y-26924000D01*
X46338724Y-26924000D01*
X46359542Y-26859928D01*
X46360982Y-26846233D01*
X46378814Y-26676565D01*
X46379504Y-26670000D01*
X46364503Y-26527271D01*
X46360232Y-26486635D01*
X46360232Y-26486633D01*
X46359542Y-26480072D01*
X46300527Y-26298444D01*
X46294709Y-26288366D01*
X46236321Y-26187237D01*
X46205040Y-26133056D01*
X46131863Y-26051785D01*
X46101147Y-25987779D01*
X46099500Y-25967476D01*
X46099500Y-22176763D01*
X46100027Y-22165579D01*
X46101701Y-22158091D01*
X46099562Y-22090032D01*
X46099500Y-22086075D01*
X46099500Y-22058144D01*
X46098994Y-22054138D01*
X46098061Y-22042292D01*
X46097157Y-22013500D01*
X46096673Y-21998110D01*
X46091022Y-21978658D01*
X46087014Y-21959306D01*
X46085468Y-21947068D01*
X46085467Y-21947066D01*
X46084474Y-21939203D01*
X46068194Y-21898086D01*
X46064359Y-21886885D01*
X46052018Y-21844406D01*
X46047985Y-21837587D01*
X46047983Y-21837582D01*
X46041707Y-21826971D01*
X46033010Y-21809221D01*
X46025552Y-21790383D01*
X45999571Y-21754623D01*
X45993053Y-21744701D01*
X45974578Y-21713460D01*
X45974574Y-21713455D01*
X45970542Y-21706637D01*
X45956218Y-21692313D01*
X45943376Y-21677278D01*
X45942226Y-21675695D01*
X45931472Y-21660893D01*
X45897406Y-21632711D01*
X45888627Y-21624722D01*
X45628405Y-21364500D01*
X45594379Y-21302188D01*
X45591500Y-21275405D01*
X45591500Y-14556763D01*
X45592027Y-14545579D01*
X45593701Y-14538091D01*
X45591562Y-14470032D01*
X45591500Y-14466075D01*
X45591500Y-14438144D01*
X45590994Y-14434138D01*
X45590061Y-14422292D01*
X45588922Y-14386037D01*
X45588673Y-14378110D01*
X45583022Y-14358658D01*
X45579014Y-14339306D01*
X45577468Y-14327068D01*
X45577467Y-14327066D01*
X45576474Y-14319203D01*
X45560194Y-14278086D01*
X45556359Y-14266885D01*
X45544018Y-14224406D01*
X45539985Y-14217587D01*
X45539983Y-14217582D01*
X45533707Y-14206971D01*
X45525010Y-14189221D01*
X45517552Y-14170383D01*
X45510561Y-14160760D01*
X45491572Y-14134625D01*
X45485053Y-14124701D01*
X45466578Y-14093460D01*
X45466574Y-14093455D01*
X45462542Y-14086637D01*
X45448218Y-14072313D01*
X45435376Y-14057278D01*
X45423472Y-14040893D01*
X45389406Y-14012711D01*
X45380627Y-14004722D01*
X44419000Y-13043095D01*
X44384974Y-12980783D01*
X44390039Y-12909968D01*
X44419000Y-12864905D01*
X48271245Y-9012659D01*
X48279535Y-9005115D01*
X48286016Y-9001002D01*
X48332657Y-8951334D01*
X48335411Y-8948493D01*
X48355132Y-8928772D01*
X48357610Y-8925577D01*
X48365316Y-8916555D01*
X48390156Y-8890103D01*
X48395584Y-8884323D01*
X48405344Y-8866570D01*
X48416197Y-8850047D01*
X48423751Y-8840308D01*
X48428611Y-8834043D01*
X48446174Y-8793459D01*
X48451381Y-8782829D01*
X48472693Y-8744062D01*
X48474664Y-8736385D01*
X48474666Y-8736380D01*
X48477730Y-8724444D01*
X48484136Y-8705732D01*
X48489032Y-8694419D01*
X48492179Y-8687147D01*
X48499095Y-8643483D01*
X48501502Y-8631862D01*
X48510526Y-8596713D01*
X48510526Y-8596712D01*
X48512498Y-8589032D01*
X48512498Y-8568771D01*
X48514049Y-8549060D01*
X48515977Y-8536887D01*
X48517217Y-8529059D01*
X48513057Y-8485048D01*
X48512498Y-8473191D01*
X48512498Y-6106427D01*
X48532500Y-6038306D01*
X48573616Y-5998550D01*
X48576992Y-5996896D01*
X48758858Y-5867173D01*
X48917094Y-5709489D01*
X49047451Y-5528077D01*
X49048774Y-5529028D01*
X49095643Y-5485857D01*
X49165578Y-5473625D01*
X49231024Y-5501144D01*
X49258873Y-5532994D01*
X49318985Y-5631088D01*
X49465248Y-5799938D01*
X49637124Y-5942632D01*
X49829998Y-6055338D01*
X50038690Y-6135030D01*
X50043758Y-6136061D01*
X50043761Y-6136062D01*
X50151015Y-6157883D01*
X50257595Y-6179567D01*
X50262770Y-6179757D01*
X50262772Y-6179757D01*
X50475671Y-6187564D01*
X50475675Y-6187564D01*
X50480835Y-6187753D01*
X50485955Y-6187097D01*
X50485957Y-6187097D01*
X50697286Y-6160025D01*
X50697287Y-6160025D01*
X50702414Y-6159368D01*
X50707364Y-6157883D01*
X50911427Y-6096661D01*
X50911432Y-6096659D01*
X50916382Y-6095174D01*
X51116992Y-5996896D01*
X51298858Y-5867173D01*
X51457094Y-5709489D01*
X51587451Y-5528077D01*
X51608318Y-5485857D01*
X51684134Y-5332453D01*
X51684135Y-5332451D01*
X51686428Y-5327811D01*
X51751368Y-5114069D01*
X51780527Y-4892590D01*
X51782154Y-4826000D01*
X51763850Y-4603361D01*
X51709429Y-4386702D01*
X51620352Y-4181840D01*
X51499012Y-3994277D01*
X51348668Y-3829051D01*
X51344617Y-3825852D01*
X51344613Y-3825848D01*
X51177412Y-3693800D01*
X51177408Y-3693798D01*
X51173357Y-3690598D01*
X50977787Y-3582638D01*
X50972918Y-3580914D01*
X50972914Y-3580912D01*
X50772085Y-3509795D01*
X50772081Y-3509794D01*
X50767210Y-3508069D01*
X50762117Y-3507162D01*
X50762114Y-3507161D01*
X50552371Y-3469800D01*
X50552365Y-3469799D01*
X50547282Y-3468894D01*
X50473450Y-3467992D01*
X50329079Y-3466228D01*
X50329077Y-3466228D01*
X50323909Y-3466165D01*
X50103089Y-3499955D01*
X49890754Y-3569357D01*
X49692605Y-3672507D01*
X49688472Y-3675610D01*
X49688469Y-3675612D01*
X49518098Y-3803530D01*
X49513963Y-3806635D01*
X49510391Y-3810373D01*
X49367905Y-3959476D01*
X49359627Y-3968138D01*
X49252199Y-4125621D01*
X49197291Y-4170621D01*
X49126766Y-4178792D01*
X49063019Y-4147538D01*
X49042322Y-4123054D01*
X48961820Y-3998617D01*
X48961818Y-3998614D01*
X48959012Y-3994277D01*
X48808668Y-3829051D01*
X48804617Y-3825852D01*
X48804613Y-3825848D01*
X48637412Y-3693800D01*
X48637408Y-3693798D01*
X48633357Y-3690598D01*
X48437787Y-3582638D01*
X48432918Y-3580914D01*
X48432914Y-3580912D01*
X48232085Y-3509795D01*
X48232081Y-3509794D01*
X48227210Y-3508069D01*
X48222117Y-3507162D01*
X48222114Y-3507161D01*
X48012371Y-3469800D01*
X48012365Y-3469799D01*
X48007282Y-3468894D01*
X47933450Y-3467992D01*
X47789079Y-3466228D01*
X47789077Y-3466228D01*
X47783909Y-3466165D01*
X47563089Y-3499955D01*
X47350754Y-3569357D01*
X47152605Y-3672507D01*
X47148472Y-3675610D01*
X47148469Y-3675612D01*
X46978098Y-3803530D01*
X46973963Y-3806635D01*
X46917535Y-3865684D01*
X46893281Y-3891064D01*
X46831757Y-3926494D01*
X46760844Y-3923037D01*
X46703058Y-3881791D01*
X46684205Y-3848243D01*
X46642765Y-3737703D01*
X46639613Y-3729295D01*
X46552259Y-3612739D01*
X46435703Y-3525385D01*
X46299314Y-3474255D01*
X46237132Y-3467500D01*
X44440864Y-3467500D01*
X44378682Y-3474255D01*
X44242293Y-3525385D01*
X44125737Y-3612739D01*
X44038383Y-3729295D01*
X43987253Y-3865684D01*
X43980498Y-3927866D01*
X43980498Y-5724134D01*
X43987253Y-5786316D01*
X44038383Y-5922705D01*
X44125737Y-6039261D01*
X44242293Y-6126615D01*
X44378682Y-6177745D01*
X44440864Y-6184500D01*
X44579498Y-6184500D01*
X44647619Y-6204502D01*
X44694112Y-6258158D01*
X44705498Y-6310500D01*
X44705498Y-8194407D01*
X44685496Y-8262528D01*
X44668593Y-8283502D01*
X40943500Y-12008595D01*
X40881188Y-12042621D01*
X40854405Y-12045500D01*
X40798513Y-12045500D01*
X40792061Y-12046872D01*
X40792056Y-12046872D01*
X40705112Y-12065353D01*
X40611712Y-12085206D01*
X40605682Y-12087891D01*
X40605681Y-12087891D01*
X40443278Y-12160197D01*
X40443276Y-12160198D01*
X40437248Y-12162882D01*
X40282747Y-12275134D01*
X40278326Y-12280044D01*
X40278325Y-12280045D01*
X40169203Y-12401238D01*
X40154960Y-12417056D01*
X40059473Y-12582444D01*
X40000458Y-12764072D01*
X39980496Y-12954000D01*
X39981186Y-12960565D01*
X39990062Y-13045011D01*
X40000458Y-13143928D01*
X40059473Y-13325556D01*
X40154960Y-13490944D01*
X40228137Y-13572215D01*
X40258853Y-13636221D01*
X40260500Y-13656524D01*
X40260500Y-18971233D01*
X40259973Y-18982416D01*
X40258298Y-18989909D01*
X40258547Y-18997835D01*
X40258547Y-18997836D01*
X40260438Y-19057986D01*
X40260500Y-19061945D01*
X40260500Y-19089856D01*
X40260997Y-19093790D01*
X40260997Y-19093791D01*
X40261005Y-19093856D01*
X40261938Y-19105693D01*
X40263327Y-19149889D01*
X40268978Y-19169339D01*
X40272987Y-19188700D01*
X40275526Y-19208797D01*
X40278445Y-19216168D01*
X40278445Y-19216170D01*
X40291804Y-19249912D01*
X40295649Y-19261142D01*
X40300768Y-19278763D01*
X40307982Y-19303593D01*
X40312015Y-19310412D01*
X40312017Y-19310417D01*
X40318293Y-19321028D01*
X40326988Y-19338776D01*
X40334448Y-19357617D01*
X40339110Y-19364033D01*
X40339110Y-19364034D01*
X40360436Y-19393387D01*
X40366952Y-19403307D01*
X40389458Y-19441362D01*
X40403779Y-19455683D01*
X40416619Y-19470716D01*
X40428528Y-19487107D01*
X40456690Y-19510405D01*
X40462605Y-19515298D01*
X40471384Y-19523288D01*
X41943501Y-20995405D01*
X41977527Y-21057717D01*
X41972462Y-21128532D01*
X41929915Y-21185368D01*
X41863395Y-21210179D01*
X41854406Y-21210500D01*
X37652595Y-21210500D01*
X37584474Y-21190498D01*
X37563500Y-21173595D01*
X36484405Y-20094500D01*
X36450379Y-20032188D01*
X36447500Y-20005405D01*
X36447500Y-13656524D01*
X36467502Y-13588403D01*
X36479858Y-13572221D01*
X36553040Y-13490944D01*
X36648527Y-13325556D01*
X36707542Y-13143928D01*
X36717939Y-13045011D01*
X36726814Y-12960565D01*
X36727504Y-12954000D01*
X36707542Y-12764072D01*
X36648527Y-12582444D01*
X36553040Y-12417056D01*
X36538798Y-12401238D01*
X36429675Y-12280045D01*
X36429674Y-12280044D01*
X36425253Y-12275134D01*
X36419908Y-12271251D01*
X36419904Y-12271247D01*
X36414769Y-12267516D01*
X36371416Y-12211293D01*
X36362832Y-12165582D01*
X36362832Y-6106427D01*
X36382834Y-6038306D01*
X36423950Y-5998550D01*
X36427326Y-5996896D01*
X36609192Y-5867173D01*
X36767428Y-5709489D01*
X36897785Y-5528077D01*
X36899108Y-5529028D01*
X36945977Y-5485857D01*
X37015912Y-5473625D01*
X37081358Y-5501144D01*
X37109207Y-5532994D01*
X37169319Y-5631088D01*
X37315582Y-5799938D01*
X37487458Y-5942632D01*
X37680332Y-6055338D01*
X37889024Y-6135030D01*
X37894092Y-6136061D01*
X37894095Y-6136062D01*
X38001349Y-6157883D01*
X38107929Y-6179567D01*
X38113104Y-6179757D01*
X38113106Y-6179757D01*
X38326005Y-6187564D01*
X38326009Y-6187564D01*
X38331169Y-6187753D01*
X38336289Y-6187097D01*
X38336291Y-6187097D01*
X38547620Y-6160025D01*
X38547621Y-6160025D01*
X38552748Y-6159368D01*
X38557698Y-6157883D01*
X38761761Y-6096661D01*
X38761766Y-6096659D01*
X38766716Y-6095174D01*
X38967326Y-5996896D01*
X39149192Y-5867173D01*
X39307428Y-5709489D01*
X39437785Y-5528077D01*
X39458652Y-5485857D01*
X39534468Y-5332453D01*
X39534469Y-5332451D01*
X39536762Y-5327811D01*
X39601702Y-5114069D01*
X39630861Y-4892590D01*
X39632488Y-4826000D01*
X39614184Y-4603361D01*
X39559763Y-4386702D01*
X39470686Y-4181840D01*
X39349346Y-3994277D01*
X39199002Y-3829051D01*
X39194951Y-3825852D01*
X39194947Y-3825848D01*
X39027746Y-3693800D01*
X39027742Y-3693798D01*
X39023691Y-3690598D01*
X38828121Y-3582638D01*
X38823252Y-3580914D01*
X38823248Y-3580912D01*
X38622419Y-3509795D01*
X38622415Y-3509794D01*
X38617544Y-3508069D01*
X38612451Y-3507162D01*
X38612448Y-3507161D01*
X38402705Y-3469800D01*
X38402699Y-3469799D01*
X38397616Y-3468894D01*
X38323784Y-3467992D01*
X38179413Y-3466228D01*
X38179411Y-3466228D01*
X38174243Y-3466165D01*
X37953423Y-3499955D01*
X37741088Y-3569357D01*
X37542939Y-3672507D01*
X37538806Y-3675610D01*
X37538803Y-3675612D01*
X37368432Y-3803530D01*
X37364297Y-3806635D01*
X37360725Y-3810373D01*
X37218239Y-3959476D01*
X37209961Y-3968138D01*
X37102533Y-4125621D01*
X37047625Y-4170621D01*
X36977100Y-4178792D01*
X36913353Y-4147538D01*
X36892656Y-4123054D01*
X36812154Y-3998617D01*
X36812152Y-3998614D01*
X36809346Y-3994277D01*
X36659002Y-3829051D01*
X36654951Y-3825852D01*
X36654947Y-3825848D01*
X36487746Y-3693800D01*
X36487742Y-3693798D01*
X36483691Y-3690598D01*
X36288121Y-3582638D01*
X36283252Y-3580914D01*
X36283248Y-3580912D01*
X36082419Y-3509795D01*
X36082415Y-3509794D01*
X36077544Y-3508069D01*
X36072451Y-3507162D01*
X36072448Y-3507161D01*
X35862705Y-3469800D01*
X35862699Y-3469799D01*
X35857616Y-3468894D01*
X35783784Y-3467992D01*
X35639413Y-3466228D01*
X35639411Y-3466228D01*
X35634243Y-3466165D01*
X35413423Y-3499955D01*
X35201088Y-3569357D01*
X35002939Y-3672507D01*
X34998806Y-3675610D01*
X34998803Y-3675612D01*
X34828432Y-3803530D01*
X34824297Y-3806635D01*
X34767869Y-3865684D01*
X34743615Y-3891064D01*
X34682091Y-3926494D01*
X34611178Y-3923037D01*
X34553392Y-3881791D01*
X34534539Y-3848243D01*
X34493099Y-3737703D01*
X34489947Y-3729295D01*
X34402593Y-3612739D01*
X34286037Y-3525385D01*
X34149648Y-3474255D01*
X34087466Y-3467500D01*
X32291198Y-3467500D01*
X32229016Y-3474255D01*
X32092627Y-3525385D01*
X31976071Y-3612739D01*
X31888717Y-3729295D01*
X31837587Y-3865684D01*
X31830832Y-3927866D01*
X31830832Y-5724134D01*
X31837587Y-5786316D01*
X31888717Y-5922705D01*
X31976071Y-6039261D01*
X32092627Y-6126615D01*
X32229016Y-6177745D01*
X32291198Y-6184500D01*
X32429832Y-6184500D01*
X32497953Y-6204502D01*
X32544446Y-6258158D01*
X32555832Y-6310500D01*
X32555832Y-12094563D01*
X32536089Y-12161802D01*
X32534960Y-12163056D01*
X32496436Y-12229782D01*
X32446069Y-12317020D01*
X32439473Y-12328444D01*
X32380458Y-12510072D01*
X32379768Y-12516633D01*
X32379768Y-12516635D01*
X32375683Y-12555502D01*
X32360496Y-12700000D01*
X32380458Y-12889928D01*
X32439473Y-13071556D01*
X32534960Y-13236944D01*
X32608137Y-13318215D01*
X32638853Y-13382221D01*
X32640500Y-13402524D01*
X32640500Y-17470405D01*
X32620498Y-17538526D01*
X32566842Y-17585019D01*
X32496568Y-17595123D01*
X32431988Y-17565629D01*
X32425405Y-17559500D01*
X27427652Y-12561747D01*
X27420112Y-12553461D01*
X27416000Y-12546982D01*
X27366348Y-12500356D01*
X27363507Y-12497602D01*
X27343770Y-12477865D01*
X27340573Y-12475385D01*
X27331551Y-12467680D01*
X27305100Y-12442841D01*
X27299321Y-12437414D01*
X27292375Y-12433595D01*
X27292372Y-12433593D01*
X27281566Y-12427652D01*
X27265047Y-12416801D01*
X27264583Y-12416441D01*
X27249041Y-12404386D01*
X27241772Y-12401241D01*
X27241768Y-12401238D01*
X27208463Y-12386826D01*
X27197813Y-12381609D01*
X27159060Y-12360305D01*
X27139437Y-12355267D01*
X27120734Y-12348863D01*
X27109420Y-12343967D01*
X27109419Y-12343967D01*
X27102145Y-12340819D01*
X27094322Y-12339580D01*
X27094312Y-12339577D01*
X27058476Y-12333901D01*
X27046856Y-12331495D01*
X27011711Y-12322472D01*
X27011710Y-12322472D01*
X27004030Y-12320500D01*
X26983776Y-12320500D01*
X26964065Y-12318949D01*
X26963068Y-12318791D01*
X26944057Y-12315780D01*
X26936165Y-12316526D01*
X26900039Y-12319941D01*
X26888181Y-12320500D01*
X24339166Y-12320500D01*
X24271045Y-12300498D01*
X24224552Y-12246842D01*
X24213166Y-12194500D01*
X24213166Y-6106427D01*
X24233168Y-6038306D01*
X24274284Y-5998550D01*
X24277660Y-5996896D01*
X24459526Y-5867173D01*
X24617762Y-5709489D01*
X24748119Y-5528077D01*
X24749442Y-5529028D01*
X24796311Y-5485857D01*
X24866246Y-5473625D01*
X24931692Y-5501144D01*
X24959541Y-5532994D01*
X25019653Y-5631088D01*
X25165916Y-5799938D01*
X25337792Y-5942632D01*
X25530666Y-6055338D01*
X25739358Y-6135030D01*
X25744426Y-6136061D01*
X25744429Y-6136062D01*
X25851683Y-6157883D01*
X25958263Y-6179567D01*
X25963438Y-6179757D01*
X25963440Y-6179757D01*
X26176339Y-6187564D01*
X26176343Y-6187564D01*
X26181503Y-6187753D01*
X26186623Y-6187097D01*
X26186625Y-6187097D01*
X26397954Y-6160025D01*
X26397955Y-6160025D01*
X26403082Y-6159368D01*
X26408032Y-6157883D01*
X26612095Y-6096661D01*
X26612100Y-6096659D01*
X26617050Y-6095174D01*
X26817660Y-5996896D01*
X26999526Y-5867173D01*
X27157762Y-5709489D01*
X27288119Y-5528077D01*
X27308986Y-5485857D01*
X27384802Y-5332453D01*
X27384803Y-5332451D01*
X27387096Y-5327811D01*
X27452036Y-5114069D01*
X27481195Y-4892590D01*
X27482822Y-4826000D01*
X27464518Y-4603361D01*
X27410097Y-4386702D01*
X27321020Y-4181840D01*
X27199680Y-3994277D01*
X27049336Y-3829051D01*
X27045285Y-3825852D01*
X27045281Y-3825848D01*
X26878080Y-3693800D01*
X26878076Y-3693798D01*
X26874025Y-3690598D01*
X26678455Y-3582638D01*
X26673586Y-3580914D01*
X26673582Y-3580912D01*
X26472753Y-3509795D01*
X26472749Y-3509794D01*
X26467878Y-3508069D01*
X26462785Y-3507162D01*
X26462782Y-3507161D01*
X26253039Y-3469800D01*
X26253033Y-3469799D01*
X26247950Y-3468894D01*
X26174118Y-3467992D01*
X26029747Y-3466228D01*
X26029745Y-3466228D01*
X26024577Y-3466165D01*
X25803757Y-3499955D01*
X25591422Y-3569357D01*
X25393273Y-3672507D01*
X25389140Y-3675610D01*
X25389137Y-3675612D01*
X25218766Y-3803530D01*
X25214631Y-3806635D01*
X25211059Y-3810373D01*
X25068573Y-3959476D01*
X25060295Y-3968138D01*
X24952867Y-4125621D01*
X24897959Y-4170621D01*
X24827434Y-4178792D01*
X24763687Y-4147538D01*
X24742990Y-4123054D01*
X24662488Y-3998617D01*
X24662486Y-3998614D01*
X24659680Y-3994277D01*
X24509336Y-3829051D01*
X24505285Y-3825852D01*
X24505281Y-3825848D01*
X24338080Y-3693800D01*
X24338076Y-3693798D01*
X24334025Y-3690598D01*
X24138455Y-3582638D01*
X24133586Y-3580914D01*
X24133582Y-3580912D01*
X23932753Y-3509795D01*
X23932749Y-3509794D01*
X23927878Y-3508069D01*
X23922785Y-3507162D01*
X23922782Y-3507161D01*
X23713039Y-3469800D01*
X23713033Y-3469799D01*
X23707950Y-3468894D01*
X23634118Y-3467992D01*
X23489747Y-3466228D01*
X23489745Y-3466228D01*
X23484577Y-3466165D01*
X23263757Y-3499955D01*
X23051422Y-3569357D01*
X22853273Y-3672507D01*
X22849140Y-3675610D01*
X22849137Y-3675612D01*
X22678766Y-3803530D01*
X22674631Y-3806635D01*
X22618203Y-3865684D01*
X22593949Y-3891064D01*
X22532425Y-3926494D01*
X22461512Y-3923037D01*
X22403726Y-3881791D01*
X22384873Y-3848243D01*
X22343433Y-3737703D01*
X22340281Y-3729295D01*
X22252927Y-3612739D01*
X22136371Y-3525385D01*
X21999982Y-3474255D01*
X21937800Y-3467500D01*
X20141532Y-3467500D01*
X20079350Y-3474255D01*
X19942961Y-3525385D01*
X19826405Y-3612739D01*
X19739051Y-3729295D01*
X19687921Y-3865684D01*
X19681166Y-3927866D01*
X19681166Y-5724134D01*
X14993400Y-5724134D01*
X15008096Y-5709489D01*
X15138453Y-5528077D01*
X15159320Y-5485857D01*
X15235136Y-5332453D01*
X15235137Y-5332451D01*
X15237430Y-5327811D01*
X15302370Y-5114069D01*
X15331529Y-4892590D01*
X15333156Y-4826000D01*
X15314852Y-4603361D01*
X15260431Y-4386702D01*
X15171354Y-4181840D01*
X15050014Y-3994277D01*
X14899670Y-3829051D01*
X14895619Y-3825852D01*
X14895615Y-3825848D01*
X14728414Y-3693800D01*
X14728410Y-3693798D01*
X14724359Y-3690598D01*
X14528789Y-3582638D01*
X14523920Y-3580914D01*
X14523916Y-3580912D01*
X14323087Y-3509795D01*
X14323083Y-3509794D01*
X14318212Y-3508069D01*
X14313119Y-3507162D01*
X14313116Y-3507161D01*
X14103373Y-3469800D01*
X14103367Y-3469799D01*
X14098284Y-3468894D01*
X14024452Y-3467992D01*
X13880081Y-3466228D01*
X13880079Y-3466228D01*
X13874911Y-3466165D01*
X13654091Y-3499955D01*
X13441756Y-3569357D01*
X13243607Y-3672507D01*
X13239474Y-3675610D01*
X13239471Y-3675612D01*
X13069100Y-3803530D01*
X13064965Y-3806635D01*
X13061393Y-3810373D01*
X12918907Y-3959476D01*
X12910629Y-3968138D01*
X12803201Y-4125621D01*
X12748293Y-4170621D01*
X12677768Y-4178792D01*
X12614021Y-4147538D01*
X12593324Y-4123054D01*
X12512822Y-3998617D01*
X12512820Y-3998614D01*
X12510014Y-3994277D01*
X12359670Y-3829051D01*
X12355619Y-3825852D01*
X12355615Y-3825848D01*
X12188414Y-3693800D01*
X12188410Y-3693798D01*
X12184359Y-3690598D01*
X11988789Y-3582638D01*
X11983920Y-3580914D01*
X11983916Y-3580912D01*
X11783087Y-3509795D01*
X11783083Y-3509794D01*
X11778212Y-3508069D01*
X11773119Y-3507162D01*
X11773116Y-3507161D01*
X11563373Y-3469800D01*
X11563367Y-3469799D01*
X11558284Y-3468894D01*
X11484452Y-3467992D01*
X11340081Y-3466228D01*
X11340079Y-3466228D01*
X11334911Y-3466165D01*
X11114091Y-3499955D01*
X10901756Y-3569357D01*
X10703607Y-3672507D01*
X10699474Y-3675610D01*
X10699471Y-3675612D01*
X10529100Y-3803530D01*
X10524965Y-3806635D01*
X10468537Y-3865684D01*
X10444283Y-3891064D01*
X10382759Y-3926494D01*
X10311846Y-3923037D01*
X10254060Y-3881791D01*
X10235207Y-3848243D01*
X10193767Y-3737703D01*
X10190615Y-3729295D01*
X10103261Y-3612739D01*
X9986705Y-3525385D01*
X9850316Y-3474255D01*
X9788134Y-3467500D01*
X7991866Y-3467500D01*
X7929684Y-3474255D01*
X7793295Y-3525385D01*
X7676739Y-3612739D01*
X7589385Y-3729295D01*
X7538255Y-3865684D01*
X7531500Y-3927866D01*
X7531500Y-5724134D01*
X508000Y-5724134D01*
X508000Y-3132703D01*
X890743Y-3132703D01*
X928268Y-3417734D01*
X929401Y-3421874D01*
X929401Y-3421876D01*
X942264Y-3468894D01*
X1004129Y-3695036D01*
X1005813Y-3698984D01*
X1104898Y-3931283D01*
X1116923Y-3959476D01*
X1191473Y-4084040D01*
X1243291Y-4170621D01*
X1264561Y-4206161D01*
X1444313Y-4430528D01*
X1461397Y-4446740D01*
X1631880Y-4608522D01*
X1652851Y-4628423D01*
X1886317Y-4796186D01*
X1890112Y-4798195D01*
X1890113Y-4798196D01*
X1911869Y-4809715D01*
X2140392Y-4930712D01*
X2410373Y-5029511D01*
X2691264Y-5090755D01*
X2719841Y-5093004D01*
X2914282Y-5108307D01*
X2914291Y-5108307D01*
X2916739Y-5108500D01*
X3072271Y-5108500D01*
X3074407Y-5108354D01*
X3074418Y-5108354D01*
X3282548Y-5094165D01*
X3282554Y-5094164D01*
X3286825Y-5093873D01*
X3291020Y-5093004D01*
X3291022Y-5093004D01*
X3427584Y-5064723D01*
X3568342Y-5035574D01*
X3839343Y-4939607D01*
X4059453Y-4826000D01*
X4091005Y-4809715D01*
X4091006Y-4809715D01*
X4094812Y-4807750D01*
X4098313Y-4805289D01*
X4098317Y-4805287D01*
X4212417Y-4725096D01*
X4330023Y-4642441D01*
X4540622Y-4446740D01*
X4722713Y-4224268D01*
X4872927Y-3979142D01*
X4877758Y-3968138D01*
X4986757Y-3719830D01*
X4988483Y-3715898D01*
X5067244Y-3439406D01*
X5107751Y-3154784D01*
X5107845Y-3136951D01*
X5107867Y-3132703D01*
X92890743Y-3132703D01*
X92928268Y-3417734D01*
X92929401Y-3421874D01*
X92929401Y-3421876D01*
X92942264Y-3468894D01*
X93004129Y-3695036D01*
X93005813Y-3698984D01*
X93104898Y-3931283D01*
X93116923Y-3959476D01*
X93191473Y-4084040D01*
X93243291Y-4170621D01*
X93264561Y-4206161D01*
X93444313Y-4430528D01*
X93461397Y-4446740D01*
X93631880Y-4608522D01*
X93652851Y-4628423D01*
X93886317Y-4796186D01*
X93890112Y-4798195D01*
X93890113Y-4798196D01*
X93911869Y-4809715D01*
X94140392Y-4930712D01*
X94410373Y-5029511D01*
X94691264Y-5090755D01*
X94719841Y-5093004D01*
X94914282Y-5108307D01*
X94914291Y-5108307D01*
X94916739Y-5108500D01*
X95072271Y-5108500D01*
X95074407Y-5108354D01*
X95074418Y-5108354D01*
X95282548Y-5094165D01*
X95282554Y-5094164D01*
X95286825Y-5093873D01*
X95291020Y-5093004D01*
X95291022Y-5093004D01*
X95427584Y-5064723D01*
X95568342Y-5035574D01*
X95839343Y-4939607D01*
X96059453Y-4826000D01*
X96091005Y-4809715D01*
X96091006Y-4809715D01*
X96094812Y-4807750D01*
X96098313Y-4805289D01*
X96098317Y-4805287D01*
X96212417Y-4725096D01*
X96330023Y-4642441D01*
X96540622Y-4446740D01*
X96722713Y-4224268D01*
X96872927Y-3979142D01*
X96877758Y-3968138D01*
X96986757Y-3719830D01*
X96988483Y-3715898D01*
X97067244Y-3439406D01*
X97107751Y-3154784D01*
X97107845Y-3136951D01*
X97109235Y-2871583D01*
X97109235Y-2871576D01*
X97109257Y-2867297D01*
X97071732Y-2582266D01*
X96995871Y-2304964D01*
X96883077Y-2040524D01*
X96735439Y-1793839D01*
X96555687Y-1569472D01*
X96347149Y-1371577D01*
X96113683Y-1203814D01*
X96091843Y-1192250D01*
X96068654Y-1179972D01*
X95859608Y-1069288D01*
X95589627Y-970489D01*
X95308736Y-909245D01*
X95277685Y-906801D01*
X95085718Y-891693D01*
X95085709Y-891693D01*
X95083261Y-891500D01*
X94927729Y-891500D01*
X94925593Y-891646D01*
X94925582Y-891646D01*
X94717452Y-905835D01*
X94717446Y-905836D01*
X94713175Y-906127D01*
X94708980Y-906996D01*
X94708978Y-906996D01*
X94572416Y-935277D01*
X94431658Y-964426D01*
X94160657Y-1060393D01*
X93905188Y-1192250D01*
X93901687Y-1194711D01*
X93901683Y-1194713D01*
X93891594Y-1201804D01*
X93669977Y-1357559D01*
X93459378Y-1553260D01*
X93277287Y-1775732D01*
X93127073Y-2020858D01*
X93011517Y-2284102D01*
X92932756Y-2560594D01*
X92892249Y-2845216D01*
X92892227Y-2849505D01*
X92892226Y-2849512D01*
X92890765Y-3128417D01*
X92890743Y-3132703D01*
X5107867Y-3132703D01*
X5109235Y-2871583D01*
X5109235Y-2871576D01*
X5109257Y-2867297D01*
X5071732Y-2582266D01*
X4995871Y-2304964D01*
X4883077Y-2040524D01*
X4735439Y-1793839D01*
X4555687Y-1569472D01*
X4347149Y-1371577D01*
X4113683Y-1203814D01*
X4091843Y-1192250D01*
X4068654Y-1179972D01*
X3859608Y-1069288D01*
X3589627Y-970489D01*
X3308736Y-909245D01*
X3277685Y-906801D01*
X3085718Y-891693D01*
X3085709Y-891693D01*
X3083261Y-891500D01*
X2927729Y-891500D01*
X2925593Y-891646D01*
X2925582Y-891646D01*
X2717452Y-905835D01*
X2717446Y-905836D01*
X2713175Y-906127D01*
X2708980Y-906996D01*
X2708978Y-906996D01*
X2572416Y-935277D01*
X2431658Y-964426D01*
X2160657Y-1060393D01*
X1905188Y-1192250D01*
X1901687Y-1194711D01*
X1901683Y-1194713D01*
X1891594Y-1201804D01*
X1669977Y-1357559D01*
X1459378Y-1553260D01*
X1277287Y-1775732D01*
X1127073Y-2020858D01*
X1011517Y-2284102D01*
X932756Y-2560594D01*
X892249Y-2845216D01*
X892227Y-2849505D01*
X892226Y-2849512D01*
X890765Y-3128417D01*
X890743Y-3132703D01*
X508000Y-3132703D01*
X508000Y-634000D01*
X528002Y-565879D01*
X581658Y-519386D01*
X634000Y-508000D01*
X97366000Y-508000D01*
X97434121Y-528002D01*
G37*
%TD.AperFunction*%
%TA.AperFunction,Conductor*%
G36*
X84405903Y-28862167D02*
G01*
X84462739Y-28904714D01*
X84487550Y-28971234D01*
X84479882Y-29016304D01*
X84482178Y-29016971D01*
X84479967Y-29024581D01*
X84476819Y-29031855D01*
X84475580Y-29039678D01*
X84475577Y-29039688D01*
X84469901Y-29075524D01*
X84467495Y-29087144D01*
X84456500Y-29129970D01*
X84456500Y-29150224D01*
X84454949Y-29169934D01*
X84451780Y-29189943D01*
X84452526Y-29197835D01*
X84455941Y-29233961D01*
X84456500Y-29245819D01*
X84456500Y-33467406D01*
X84436498Y-33535527D01*
X84419595Y-33556501D01*
X74450500Y-43525595D01*
X74388188Y-43559621D01*
X74361405Y-43562500D01*
X73287604Y-43562500D01*
X73219483Y-43542498D01*
X73172990Y-43488842D01*
X73162886Y-43418568D01*
X73192380Y-43353988D01*
X73198509Y-43347405D01*
X80560758Y-35985156D01*
X80569048Y-35977612D01*
X80575529Y-35973499D01*
X80622170Y-35923831D01*
X80624924Y-35920990D01*
X80644645Y-35901269D01*
X80647123Y-35898074D01*
X80654829Y-35889052D01*
X80679669Y-35862600D01*
X80685097Y-35856820D01*
X80694857Y-35839067D01*
X80705710Y-35822544D01*
X80713264Y-35812805D01*
X80718124Y-35806540D01*
X80735687Y-35765956D01*
X80740894Y-35755326D01*
X80762206Y-35716559D01*
X80764177Y-35708882D01*
X80764179Y-35708877D01*
X80767243Y-35696941D01*
X80773649Y-35678229D01*
X80778544Y-35666918D01*
X80781692Y-35659644D01*
X80782932Y-35651816D01*
X80782934Y-35651809D01*
X80788610Y-35615975D01*
X80791016Y-35604355D01*
X80800039Y-35569210D01*
X80800039Y-35569209D01*
X80802011Y-35561529D01*
X80802011Y-35541275D01*
X80803562Y-35521564D01*
X80805491Y-35509385D01*
X80806731Y-35501556D01*
X80802570Y-35457537D01*
X80802011Y-35445680D01*
X80802011Y-34446083D01*
X80822013Y-34377962D01*
X80838916Y-34356988D01*
X82264656Y-32931249D01*
X83704253Y-31491652D01*
X83712539Y-31484112D01*
X83719018Y-31480000D01*
X83765644Y-31430348D01*
X83768398Y-31427507D01*
X83788135Y-31407770D01*
X83790615Y-31404573D01*
X83798320Y-31395551D01*
X83803628Y-31389899D01*
X83828586Y-31363321D01*
X83832405Y-31356375D01*
X83832407Y-31356372D01*
X83838348Y-31345566D01*
X83849199Y-31329047D01*
X83856758Y-31319301D01*
X83861614Y-31313041D01*
X83864759Y-31305772D01*
X83864762Y-31305768D01*
X83879174Y-31272463D01*
X83884391Y-31261813D01*
X83905695Y-31223060D01*
X83910733Y-31203437D01*
X83917137Y-31184734D01*
X83922033Y-31173420D01*
X83922033Y-31173419D01*
X83925181Y-31166145D01*
X83926420Y-31158322D01*
X83926423Y-31158312D01*
X83932099Y-31122476D01*
X83934505Y-31110856D01*
X83943528Y-31075711D01*
X83943528Y-31075710D01*
X83945500Y-31068030D01*
X83945500Y-31047776D01*
X83947051Y-31028065D01*
X83948158Y-31021079D01*
X83950220Y-31008057D01*
X83946059Y-30964038D01*
X83945500Y-30952181D01*
X83945500Y-29270594D01*
X83965502Y-29202473D01*
X83982405Y-29181499D01*
X84272776Y-28891128D01*
X84335088Y-28857102D01*
X84405903Y-28862167D01*
G37*
%TD.AperFunction*%
%TD*%
M02*
