%TF.GenerationSoftware,KiCad,Pcbnew,(6.0.1)*%
%TF.CreationDate,2022-11-17T20:37:07-05:00*%
%TF.ProjectId,ThermixelGrid,54686572-6d69-4786-956c-477269642e6b,rev?*%
%TF.SameCoordinates,Original*%
%TF.FileFunction,Copper,L2,Inr*%
%TF.FilePolarity,Positive*%
%FSLAX46Y46*%
G04 Gerber Fmt 4.6, Leading zero omitted, Abs format (unit mm)*
G04 Created by KiCad (PCBNEW (6.0.1)) date 2022-11-17 20:37:07*
%MOMM*%
%LPD*%
G01*
G04 APERTURE LIST*
%TA.AperFunction,ViaPad*%
%ADD10C,0.800000*%
%TD*%
%TA.AperFunction,Conductor*%
%ADD11C,0.250000*%
%TD*%
G04 APERTURE END LIST*
D10*
%TO.N,GND*%
X15646400Y-17932400D03*
X7213600Y-35356800D03*
X31902400Y-21793200D03*
X8839200Y-16510000D03*
X31800800Y-35763200D03*
X15785500Y-14376400D03*
X23825200Y-34544000D03*
X32207200Y-27736800D03*
X15900400Y-26314400D03*
X14782800Y-8940800D03*
X23520400Y-18034000D03*
X7518400Y-10566400D03*
X32207200Y-2692400D03*
X29819600Y-3810000D03*
X15900400Y-29921200D03*
X14579600Y-20980400D03*
X14122400Y-3403600D03*
X7366000Y-26162000D03*
%TO.N,+5V*%
X20828000Y-4470400D03*
X4267200Y-3200400D03*
X20472400Y-35560000D03*
X35814000Y-20878800D03*
X4572000Y-20269200D03*
%TO.N,SCL*%
X33934400Y-18135600D03*
X17678400Y-4876800D03*
X26582446Y-15452372D03*
X15138400Y-32562800D03*
X17526000Y-35102800D03*
X6096000Y-16916400D03*
X23167109Y-28167389D03*
X32105600Y-24739600D03*
%TO.N,SDA*%
X14579600Y-36474400D03*
X31750000Y-17424400D03*
X6959600Y-20066000D03*
X34950400Y-16205200D03*
X15900400Y-4978400D03*
X23317200Y-29616400D03*
X16205200Y-33985200D03*
X26441829Y-16626289D03*
X4419600Y-16154400D03*
%TO.N,Net-(R1-Pad2)*%
X4013200Y-4572000D03*
X17576800Y-15456500D03*
%TO.N,Net-(R2-Pad2)*%
X11988800Y-4927600D03*
X16306800Y-12039600D03*
%TO.N,Net-(R3-Pad2)*%
X17087280Y-11415216D03*
X19305230Y-4959862D03*
%TO.N,Net-(R4-Pad2)*%
X27889200Y-4724400D03*
X17859869Y-12582631D03*
%TO.N,Net-(R5-Pad2)*%
X36017200Y-4470400D03*
X21844000Y-13411200D03*
%TO.N,Net-(R6-Pad2)*%
X4114800Y-12750800D03*
X20878800Y-12395200D03*
%TO.N,Net-(R7-Pad2)*%
X11125200Y-12026300D03*
X22504400Y-8229600D03*
%TO.N,Net-(R8-Pad2)*%
X20675600Y-10906500D03*
%TO.N,Net-(R9-Pad2)*%
X28092400Y-12750800D03*
%TO.N,Net-(R10-Pad2)*%
X36017200Y-12801600D03*
X26466800Y-11074400D03*
%TO.N,Net-(R11-Pad2)*%
X22762699Y-11688299D03*
X7061200Y-22352000D03*
%TO.N,Net-(R12-Pad2)*%
X23487199Y-12852400D03*
X12547600Y-20523200D03*
%TO.N,Net-(R13-Pad2)*%
X20574000Y-20777200D03*
X26873200Y-12903200D03*
%TO.N,Net-(R14-Pad2)*%
X20624800Y-27533600D03*
X28498800Y-20726400D03*
%TO.N,Net-(R15-Pad2)*%
X35229139Y-19390062D03*
X22098000Y-24739600D03*
%TO.N,Net-(R16-Pad2)*%
X4267200Y-28702000D03*
X17424400Y-26162000D03*
%TO.N,Net-(R17-Pad2)*%
X10972800Y-27533600D03*
X17119600Y-24993600D03*
%TO.N,Net-(R18-Pad2)*%
X16002000Y-24028400D03*
X20980400Y-29108400D03*
%TO.N,Net-(R19-Pad2)*%
X23063200Y-26212800D03*
X26822400Y-27940000D03*
%TO.N,Net-(R20-Pad2)*%
X16662400Y-23215600D03*
X35915600Y-28448000D03*
%TO.N,Net-(R21-Pad2)*%
X4165600Y-36017200D03*
X16611600Y-21945600D03*
%TO.N,Net-(R22-Pad2)*%
X12547600Y-36525200D03*
X27533600Y-23524500D03*
%TO.N,Net-(R23-Pad2)*%
X23266400Y-23215600D03*
X18694400Y-35102800D03*
%TO.N,Net-(R24-Pad2)*%
X27940000Y-36576000D03*
X30073600Y-24638000D03*
X26416000Y-23571200D03*
%TO.N,Net-(R25-Pad2)*%
X35814000Y-36474400D03*
X30022800Y-23571200D03*
%TD*%
D11*
%TO.N,SCL*%
X33934400Y-22910800D02*
X33934400Y-18135600D01*
X32105600Y-24739600D02*
X33934400Y-22910800D01*
%TO.N,SDA*%
X4419600Y-17526000D02*
X6959600Y-20066000D01*
X31750000Y-17424400D02*
X32969200Y-16205200D01*
X4419600Y-16154400D02*
X4419600Y-17526000D01*
X32969200Y-16205200D02*
X34950400Y-16205200D01*
%TO.N,Net-(R1-Pad2)*%
X17576800Y-15036800D02*
X7112000Y-4572000D01*
X17576800Y-15456500D02*
X17576800Y-15036800D01*
X7112000Y-4572000D02*
X4013200Y-4572000D01*
%TO.N,Net-(R2-Pad2)*%
X11988800Y-4927600D02*
X12141200Y-4775200D01*
X16306800Y-8636000D02*
X16306800Y-12039600D01*
X12446000Y-4775200D02*
X16306800Y-8636000D01*
X12141200Y-4775200D02*
X12446000Y-4775200D01*
%TO.N,Net-(R3-Pad2)*%
X17119600Y-11382896D02*
X17119600Y-7145492D01*
X17119600Y-7145492D02*
X19305230Y-4959862D01*
X17087280Y-11415216D02*
X17119600Y-11382896D01*
%TO.N,Net-(R4-Pad2)*%
X17830800Y-8178800D02*
X17830800Y-12598400D01*
X27889200Y-4724400D02*
X22910800Y-4724400D01*
X17830800Y-12598400D02*
X17844100Y-12598400D01*
X19456400Y-8178800D02*
X17830800Y-8178800D01*
X22910800Y-4724400D02*
X19456400Y-8178800D01*
X17844100Y-12598400D02*
X17859869Y-12582631D01*
%TO.N,Net-(R5-Pad2)*%
X22047200Y-7010400D02*
X30904311Y-7010400D01*
X33444311Y-4470400D02*
X36017200Y-4470400D01*
X21844000Y-13411200D02*
X21640800Y-13208000D01*
X21640800Y-13208000D02*
X21640800Y-7416800D01*
X21640800Y-7416800D02*
X22047200Y-7010400D01*
X30904311Y-7010400D02*
X33444311Y-4470400D01*
%TO.N,Net-(R6-Pad2)*%
X20878800Y-12395200D02*
X20624800Y-12649200D01*
X17170400Y-16865600D02*
X13055600Y-12750800D01*
X19659600Y-16865600D02*
X17170400Y-16865600D01*
X13055600Y-12750800D02*
X4114800Y-12750800D01*
X20624800Y-12649200D02*
X20624800Y-15900400D01*
X20624800Y-15900400D02*
X19659600Y-16865600D01*
%TO.N,Net-(R10-Pad2)*%
X36017200Y-12801600D02*
X34290000Y-11074400D01*
X34290000Y-11074400D02*
X26466800Y-11074400D01*
%TO.N,Net-(R11-Pad2)*%
X22762699Y-15540501D02*
X22762699Y-11688299D01*
X12903200Y-19456400D02*
X18846800Y-19456400D01*
X11684000Y-18237200D02*
X12903200Y-19456400D01*
X18846800Y-19456400D02*
X22762699Y-15540501D01*
X7061200Y-22352000D02*
X11176000Y-18237200D01*
X11176000Y-18237200D02*
X11684000Y-18237200D01*
%TO.N,Net-(R12-Pad2)*%
X23487199Y-15451718D02*
X23487199Y-12852400D01*
X13004800Y-20066000D02*
X18872917Y-20066000D01*
X18872917Y-20066000D02*
X23487199Y-15451718D01*
X12547600Y-20523200D02*
X13004800Y-20066000D01*
%TO.N,Net-(R13-Pad2)*%
X20574000Y-20777200D02*
X23520400Y-20777200D01*
X28092400Y-16205200D02*
X28092400Y-14122400D01*
X23520400Y-20777200D02*
X28092400Y-16205200D01*
X28092400Y-14122400D02*
X26873200Y-12903200D01*
%TO.N,Net-(R14-Pad2)*%
X24282400Y-20726400D02*
X20624800Y-24384000D01*
X20624800Y-24384000D02*
X20624800Y-27533600D01*
X28498800Y-20726400D02*
X24282400Y-20726400D01*
%TO.N,Net-(R16-Pad2)*%
X4267200Y-28702000D02*
X16611600Y-28702000D01*
X16611600Y-28702000D02*
X17424400Y-27889200D01*
X17424400Y-27889200D02*
X17424400Y-26162000D01*
%TO.N,Net-(R17-Pad2)*%
X10972800Y-27533600D02*
X16256000Y-27533600D01*
X16699889Y-27089711D02*
X16699889Y-25413311D01*
X16699889Y-25413311D02*
X17119600Y-24993600D01*
X16256000Y-27533600D02*
X16699889Y-27089711D01*
%TO.N,Net-(R18-Pad2)*%
X18897600Y-25746986D02*
X18897600Y-27025600D01*
X17179014Y-24028400D02*
X18897600Y-25746986D01*
X16002000Y-24028400D02*
X17179014Y-24028400D01*
X18897600Y-27025600D02*
X20980400Y-29108400D01*
%TO.N,Net-(R19-Pad2)*%
X24790400Y-27940000D02*
X23063200Y-26212800D01*
X26822400Y-27940000D02*
X24790400Y-27940000D01*
%TO.N,Net-(R21-Pad2)*%
X3542689Y-28401897D02*
X9998986Y-21945600D01*
X9998986Y-21945600D02*
X16611600Y-21945600D01*
X4165600Y-36017200D02*
X3542689Y-35394289D01*
X3542689Y-35394289D02*
X3542689Y-28401897D01*
%TO.N,Net-(R22-Pad2)*%
X26916320Y-28912880D02*
X26895329Y-28891889D01*
X27546911Y-27639897D02*
X27546911Y-28282289D01*
X19701786Y-32207200D02*
X16865600Y-32207200D01*
X27533600Y-27626586D02*
X27546911Y-27639897D01*
X26895329Y-28891889D02*
X23017097Y-28891889D01*
X23017097Y-28891889D02*
X19701786Y-32207200D01*
X16865600Y-32207200D02*
X12547600Y-36525200D01*
X27546911Y-28282289D02*
X26916320Y-28912880D01*
X27533600Y-23524500D02*
X27533600Y-27626586D01*
%TO.N,Net-(R23-Pad2)*%
X18694400Y-35102800D02*
X19220204Y-35102800D01*
X19220204Y-35102800D02*
X24960604Y-29362400D01*
X24960604Y-29362400D02*
X27990800Y-29362400D01*
X28905200Y-23368000D02*
X27076400Y-21539200D01*
X27990800Y-29362400D02*
X28905200Y-28448000D01*
X23266400Y-22656800D02*
X23266400Y-23215600D01*
X24384000Y-21539200D02*
X23266400Y-22656800D01*
X28905200Y-28448000D02*
X28905200Y-23368000D01*
X27076400Y-21539200D02*
X24384000Y-21539200D01*
%TO.N,Net-(R24-Pad2)*%
X27940000Y-36576000D02*
X27940000Y-33974711D01*
X27940000Y-33974711D02*
X30073600Y-31841111D01*
X30073600Y-31841111D02*
X30073600Y-24638000D01*
%TO.N,Net-(R25-Pad2)*%
X35814000Y-36474400D02*
X35814000Y-33728711D01*
X31242000Y-23571200D02*
X30022800Y-23571200D01*
X31242000Y-29156711D02*
X31242000Y-23571200D01*
X35814000Y-33728711D02*
X31242000Y-29156711D01*
%TD*%
%TA.AperFunction,Conductor*%
%TO.N,GND*%
G36*
X39434121Y-528002D02*
G01*
X39480614Y-581658D01*
X39492000Y-634000D01*
X39492000Y-39366000D01*
X39471998Y-39434121D01*
X39418342Y-39480614D01*
X39366000Y-39492000D01*
X634000Y-39492000D01*
X565879Y-39471998D01*
X519386Y-39418342D01*
X508000Y-39366000D01*
X508000Y-28381840D01*
X2904469Y-28381840D01*
X2905215Y-28389732D01*
X2908630Y-28425858D01*
X2909189Y-28437716D01*
X2909189Y-35315522D01*
X2908662Y-35326705D01*
X2906987Y-35334198D01*
X2907236Y-35342124D01*
X2907236Y-35342125D01*
X2909127Y-35402275D01*
X2909189Y-35406234D01*
X2909189Y-35434145D01*
X2909686Y-35438079D01*
X2909686Y-35438080D01*
X2909694Y-35438145D01*
X2910627Y-35449982D01*
X2912016Y-35494178D01*
X2917667Y-35513628D01*
X2921676Y-35532989D01*
X2924215Y-35553086D01*
X2927134Y-35560457D01*
X2927134Y-35560459D01*
X2940493Y-35594201D01*
X2944338Y-35605431D01*
X2952671Y-35634115D01*
X2956671Y-35647882D01*
X2960704Y-35654701D01*
X2960706Y-35654706D01*
X2966982Y-35665317D01*
X2975677Y-35683065D01*
X2983137Y-35701906D01*
X2987799Y-35708322D01*
X2987799Y-35708323D01*
X3009125Y-35737676D01*
X3015641Y-35747596D01*
X3032886Y-35776755D01*
X3038147Y-35785651D01*
X3052468Y-35799972D01*
X3065308Y-35815005D01*
X3077217Y-35831396D01*
X3107184Y-35856187D01*
X3111294Y-35859587D01*
X3120073Y-35867577D01*
X3218478Y-35965982D01*
X3252504Y-36028294D01*
X3254692Y-36041903D01*
X3272058Y-36207128D01*
X3331073Y-36388756D01*
X3426560Y-36554144D01*
X3554347Y-36696066D01*
X3708848Y-36808318D01*
X3714876Y-36811002D01*
X3714878Y-36811003D01*
X3877281Y-36883309D01*
X3883312Y-36885994D01*
X3976713Y-36905847D01*
X4063656Y-36924328D01*
X4063661Y-36924328D01*
X4070113Y-36925700D01*
X4261087Y-36925700D01*
X4267539Y-36924328D01*
X4267544Y-36924328D01*
X4354487Y-36905847D01*
X4447888Y-36885994D01*
X4453919Y-36883309D01*
X4616322Y-36811003D01*
X4616324Y-36811002D01*
X4622352Y-36808318D01*
X4776853Y-36696066D01*
X4904640Y-36554144D01*
X5000127Y-36388756D01*
X5059142Y-36207128D01*
X5079104Y-36017200D01*
X5074311Y-35971594D01*
X5059832Y-35833835D01*
X5059832Y-35833833D01*
X5059142Y-35827272D01*
X5000127Y-35645644D01*
X4904640Y-35480256D01*
X4837991Y-35406234D01*
X4781275Y-35343245D01*
X4781274Y-35343244D01*
X4776853Y-35338334D01*
X4622352Y-35226082D01*
X4616324Y-35223398D01*
X4616322Y-35223397D01*
X4453919Y-35151091D01*
X4453918Y-35151091D01*
X4447888Y-35148406D01*
X4319509Y-35121118D01*
X4275992Y-35111868D01*
X4213518Y-35078139D01*
X4179197Y-35015990D01*
X4176189Y-34988621D01*
X4176189Y-32000000D01*
X6386526Y-32000000D01*
X6406391Y-32252403D01*
X6407545Y-32257210D01*
X6407546Y-32257216D01*
X6435313Y-32372872D01*
X6465495Y-32498591D01*
X6467388Y-32503162D01*
X6467389Y-32503164D01*
X6555458Y-32715780D01*
X6562384Y-32732502D01*
X6694672Y-32948376D01*
X6859102Y-33140898D01*
X7051624Y-33305328D01*
X7267498Y-33437616D01*
X7272068Y-33439509D01*
X7272072Y-33439511D01*
X7487662Y-33528811D01*
X7501409Y-33534505D01*
X7574852Y-33552137D01*
X7742784Y-33592454D01*
X7742790Y-33592455D01*
X7747597Y-33593609D01*
X7847416Y-33601465D01*
X7934345Y-33608307D01*
X7934352Y-33608307D01*
X7936801Y-33608500D01*
X8063199Y-33608500D01*
X8065648Y-33608307D01*
X8065655Y-33608307D01*
X8152584Y-33601465D01*
X8252403Y-33593609D01*
X8257210Y-33592455D01*
X8257216Y-33592454D01*
X8425148Y-33552137D01*
X8498591Y-33534505D01*
X8512338Y-33528811D01*
X8727928Y-33439511D01*
X8727932Y-33439509D01*
X8732502Y-33437616D01*
X8948376Y-33305328D01*
X9140898Y-33140898D01*
X9305328Y-32948376D01*
X9437616Y-32732502D01*
X9444543Y-32715780D01*
X9532611Y-32503164D01*
X9532612Y-32503162D01*
X9534505Y-32498591D01*
X9564687Y-32372872D01*
X9592454Y-32257216D01*
X9592455Y-32257210D01*
X9593609Y-32252403D01*
X9613474Y-32000000D01*
X9593609Y-31747597D01*
X9589343Y-31729824D01*
X9551726Y-31573141D01*
X9534505Y-31501409D01*
X9437616Y-31267498D01*
X9305328Y-31051624D01*
X9140898Y-30859102D01*
X8948376Y-30694672D01*
X8732502Y-30562384D01*
X8727932Y-30560491D01*
X8727928Y-30560489D01*
X8503164Y-30467389D01*
X8503162Y-30467388D01*
X8498591Y-30465495D01*
X8374831Y-30435783D01*
X8257216Y-30407546D01*
X8257210Y-30407545D01*
X8252403Y-30406391D01*
X8152584Y-30398535D01*
X8065655Y-30391693D01*
X8065648Y-30391693D01*
X8063199Y-30391500D01*
X7936801Y-30391500D01*
X7934352Y-30391693D01*
X7934345Y-30391693D01*
X7847416Y-30398535D01*
X7747597Y-30406391D01*
X7742790Y-30407545D01*
X7742784Y-30407546D01*
X7625169Y-30435783D01*
X7501409Y-30465495D01*
X7496838Y-30467388D01*
X7496836Y-30467389D01*
X7272072Y-30560489D01*
X7272068Y-30560491D01*
X7267498Y-30562384D01*
X7051624Y-30694672D01*
X6859102Y-30859102D01*
X6694672Y-31051624D01*
X6562384Y-31267498D01*
X6465495Y-31501409D01*
X6448274Y-31573141D01*
X6410658Y-31729824D01*
X6406391Y-31747597D01*
X6386526Y-32000000D01*
X4176189Y-32000000D01*
X4176189Y-29736500D01*
X4196191Y-29668379D01*
X4249847Y-29621886D01*
X4302189Y-29610500D01*
X4362687Y-29610500D01*
X4369139Y-29609128D01*
X4369144Y-29609128D01*
X4456087Y-29590647D01*
X4549488Y-29570794D01*
X4555519Y-29568109D01*
X4717922Y-29495803D01*
X4717924Y-29495802D01*
X4723952Y-29493118D01*
X4750719Y-29473671D01*
X4873114Y-29384745D01*
X4878453Y-29380866D01*
X4882868Y-29375963D01*
X4887780Y-29371540D01*
X4888905Y-29372789D01*
X4942214Y-29339949D01*
X4975400Y-29335500D01*
X16532833Y-29335500D01*
X16544016Y-29336027D01*
X16551509Y-29337702D01*
X16559435Y-29337453D01*
X16559436Y-29337453D01*
X16619586Y-29335562D01*
X16623545Y-29335500D01*
X16651456Y-29335500D01*
X16655391Y-29335003D01*
X16655456Y-29334995D01*
X16667293Y-29334062D01*
X16699551Y-29333048D01*
X16703570Y-29332922D01*
X16711489Y-29332673D01*
X16730943Y-29327021D01*
X16750300Y-29323013D01*
X16762530Y-29321468D01*
X16762531Y-29321468D01*
X16770397Y-29320474D01*
X16777768Y-29317555D01*
X16777770Y-29317555D01*
X16811512Y-29304196D01*
X16822742Y-29300351D01*
X16857583Y-29290229D01*
X16857584Y-29290229D01*
X16865193Y-29288018D01*
X16872012Y-29283985D01*
X16872017Y-29283983D01*
X16882628Y-29277707D01*
X16900376Y-29269012D01*
X16919217Y-29261552D01*
X16954987Y-29235564D01*
X16964907Y-29229048D01*
X16996135Y-29210580D01*
X16996138Y-29210578D01*
X17002962Y-29206542D01*
X17017283Y-29192221D01*
X17032317Y-29179380D01*
X17042294Y-29172131D01*
X17048707Y-29167472D01*
X17053758Y-29161367D01*
X17053763Y-29161362D01*
X17076899Y-29133396D01*
X17084887Y-29124618D01*
X17816653Y-28392852D01*
X17824939Y-28385312D01*
X17831418Y-28381200D01*
X17878044Y-28331548D01*
X17880798Y-28328707D01*
X17900535Y-28308970D01*
X17903015Y-28305773D01*
X17910720Y-28296751D01*
X17935559Y-28270300D01*
X17940986Y-28264521D01*
X17944805Y-28257575D01*
X17944807Y-28257572D01*
X17950748Y-28246766D01*
X17961599Y-28230247D01*
X17969158Y-28220501D01*
X17974014Y-28214241D01*
X17977159Y-28206972D01*
X17977162Y-28206968D01*
X17991574Y-28173663D01*
X17996791Y-28163013D01*
X18018095Y-28124260D01*
X18023133Y-28104637D01*
X18029537Y-28085934D01*
X18034433Y-28074620D01*
X18034433Y-28074619D01*
X18037581Y-28067345D01*
X18038820Y-28059522D01*
X18038823Y-28059512D01*
X18044499Y-28023676D01*
X18046905Y-28012056D01*
X18055928Y-27976911D01*
X18055928Y-27976910D01*
X18057900Y-27969230D01*
X18057900Y-27948976D01*
X18059451Y-27929265D01*
X18061380Y-27917086D01*
X18062620Y-27909257D01*
X18058459Y-27865238D01*
X18057900Y-27853381D01*
X18057900Y-27291334D01*
X18077902Y-27223213D01*
X18131558Y-27176720D01*
X18201832Y-27166616D01*
X18266412Y-27196110D01*
X18304897Y-27256183D01*
X18308682Y-27269211D01*
X18311582Y-27279193D01*
X18315615Y-27286012D01*
X18315617Y-27286017D01*
X18321893Y-27296628D01*
X18330588Y-27314376D01*
X18338048Y-27333217D01*
X18342710Y-27339633D01*
X18342710Y-27339634D01*
X18364036Y-27368987D01*
X18370552Y-27378907D01*
X18393058Y-27416962D01*
X18407379Y-27431283D01*
X18420219Y-27446316D01*
X18432128Y-27462707D01*
X18463334Y-27488523D01*
X18466205Y-27490898D01*
X18474984Y-27498888D01*
X20033278Y-29057183D01*
X20067304Y-29119495D01*
X20069493Y-29133106D01*
X20073105Y-29167472D01*
X20084691Y-29277707D01*
X20086858Y-29298328D01*
X20145873Y-29479956D01*
X20241360Y-29645344D01*
X20245778Y-29650251D01*
X20245779Y-29650252D01*
X20297137Y-29707291D01*
X20369147Y-29787266D01*
X20523648Y-29899518D01*
X20529676Y-29902202D01*
X20529678Y-29902203D01*
X20661180Y-29960751D01*
X20698112Y-29977194D01*
X20704567Y-29978566D01*
X20704570Y-29978567D01*
X20720101Y-29981868D01*
X20749686Y-29988156D01*
X20812159Y-30021884D01*
X20846480Y-30084033D01*
X20841753Y-30154872D01*
X20812584Y-30200498D01*
X19976008Y-31037073D01*
X19476286Y-31536795D01*
X19413974Y-31570821D01*
X19387191Y-31573700D01*
X16944367Y-31573700D01*
X16933184Y-31573173D01*
X16925691Y-31571498D01*
X16917765Y-31571747D01*
X16917764Y-31571747D01*
X16857614Y-31573638D01*
X16853655Y-31573700D01*
X16825744Y-31573700D01*
X16821810Y-31574197D01*
X16821809Y-31574197D01*
X16821744Y-31574205D01*
X16809907Y-31575138D01*
X16778090Y-31576138D01*
X16773629Y-31576278D01*
X16765710Y-31576527D01*
X16748054Y-31581656D01*
X16746258Y-31582178D01*
X16726906Y-31586186D01*
X16719835Y-31587080D01*
X16706803Y-31588726D01*
X16699434Y-31591643D01*
X16699432Y-31591644D01*
X16665697Y-31605000D01*
X16654469Y-31608845D01*
X16612007Y-31621182D01*
X16605185Y-31625216D01*
X16605179Y-31625219D01*
X16594568Y-31631494D01*
X16576818Y-31640190D01*
X16565356Y-31644728D01*
X16565351Y-31644731D01*
X16557983Y-31647648D01*
X16546939Y-31655672D01*
X16522225Y-31673627D01*
X16512307Y-31680143D01*
X16493619Y-31691195D01*
X16474237Y-31702658D01*
X16459913Y-31716982D01*
X16444881Y-31729821D01*
X16428493Y-31741728D01*
X16405934Y-31768997D01*
X16400312Y-31775793D01*
X16392322Y-31784573D01*
X16093695Y-32083200D01*
X16031383Y-32117226D01*
X15960568Y-32112161D01*
X15903732Y-32069614D01*
X15895484Y-32057109D01*
X15889359Y-32046500D01*
X15880742Y-32031574D01*
X15880739Y-32031569D01*
X15877440Y-32025856D01*
X15749653Y-31883934D01*
X15607106Y-31780367D01*
X15600494Y-31775563D01*
X15600493Y-31775562D01*
X15595152Y-31771682D01*
X15589124Y-31768998D01*
X15589122Y-31768997D01*
X15426719Y-31696691D01*
X15426718Y-31696691D01*
X15420688Y-31694006D01*
X15324813Y-31673627D01*
X15240344Y-31655672D01*
X15240339Y-31655672D01*
X15233887Y-31654300D01*
X15042913Y-31654300D01*
X15036461Y-31655672D01*
X15036456Y-31655672D01*
X14951987Y-31673627D01*
X14856112Y-31694006D01*
X14850082Y-31696691D01*
X14850081Y-31696691D01*
X14687678Y-31768997D01*
X14687676Y-31768998D01*
X14681648Y-31771682D01*
X14676307Y-31775562D01*
X14676306Y-31775563D01*
X14669694Y-31780367D01*
X14527147Y-31883934D01*
X14399360Y-32025856D01*
X14303873Y-32191244D01*
X14244858Y-32372872D01*
X14244168Y-32379433D01*
X14244168Y-32379435D01*
X14231164Y-32503164D01*
X14224896Y-32562800D01*
X14225586Y-32569365D01*
X14243601Y-32740764D01*
X14244858Y-32752728D01*
X14303873Y-32934356D01*
X14307176Y-32940078D01*
X14307177Y-32940079D01*
X14311967Y-32948376D01*
X14399360Y-33099744D01*
X14403778Y-33104651D01*
X14403779Y-33104652D01*
X14522725Y-33236755D01*
X14527147Y-33241666D01*
X14629472Y-33316010D01*
X14644154Y-33326677D01*
X14687507Y-33382900D01*
X14693582Y-33453636D01*
X14659187Y-33517708D01*
X12597100Y-35579795D01*
X12534788Y-35613821D01*
X12508005Y-35616700D01*
X12452113Y-35616700D01*
X12445661Y-35618072D01*
X12445656Y-35618072D01*
X12370601Y-35634026D01*
X12265312Y-35656406D01*
X12259282Y-35659091D01*
X12259281Y-35659091D01*
X12096878Y-35731397D01*
X12096876Y-35731398D01*
X12090848Y-35734082D01*
X12085507Y-35737962D01*
X12085506Y-35737963D01*
X12069038Y-35749928D01*
X11936347Y-35846334D01*
X11931926Y-35851244D01*
X11931925Y-35851245D01*
X11823563Y-35971594D01*
X11808560Y-35988256D01*
X11713073Y-36153644D01*
X11654058Y-36335272D01*
X11653368Y-36341833D01*
X11653368Y-36341835D01*
X11640125Y-36467835D01*
X11634096Y-36525200D01*
X11634786Y-36531765D01*
X11652463Y-36699949D01*
X11654058Y-36715128D01*
X11713073Y-36896756D01*
X11808560Y-37062144D01*
X11812978Y-37067051D01*
X11812979Y-37067052D01*
X11894103Y-37157149D01*
X11936347Y-37204066D01*
X12090848Y-37316318D01*
X12096876Y-37319002D01*
X12096878Y-37319003D01*
X12240394Y-37382900D01*
X12265312Y-37393994D01*
X12358713Y-37413847D01*
X12445656Y-37432328D01*
X12445661Y-37432328D01*
X12452113Y-37433700D01*
X12643087Y-37433700D01*
X12649539Y-37432328D01*
X12649544Y-37432328D01*
X12736487Y-37413847D01*
X12829888Y-37393994D01*
X12854806Y-37382900D01*
X12998322Y-37319003D01*
X12998324Y-37319002D01*
X13004352Y-37316318D01*
X13158853Y-37204066D01*
X13201097Y-37157149D01*
X13282221Y-37067052D01*
X13282222Y-37067051D01*
X13286640Y-37062144D01*
X13382127Y-36896756D01*
X13441142Y-36715128D01*
X13443075Y-36696737D01*
X13470090Y-36631081D01*
X13528312Y-36590452D01*
X13599257Y-36587751D01*
X13660401Y-36623834D01*
X13688217Y-36670972D01*
X13745073Y-36845956D01*
X13840560Y-37011344D01*
X13844978Y-37016251D01*
X13844979Y-37016252D01*
X13926892Y-37107226D01*
X13968347Y-37153266D01*
X14122848Y-37265518D01*
X14128876Y-37268202D01*
X14128878Y-37268203D01*
X14291281Y-37340509D01*
X14297312Y-37343194D01*
X14390713Y-37363047D01*
X14477656Y-37381528D01*
X14477661Y-37381528D01*
X14484113Y-37382900D01*
X14675087Y-37382900D01*
X14681539Y-37381528D01*
X14681544Y-37381528D01*
X14768487Y-37363047D01*
X14861888Y-37343194D01*
X14867919Y-37340509D01*
X15030322Y-37268203D01*
X15030324Y-37268202D01*
X15036352Y-37265518D01*
X15190853Y-37153266D01*
X15232308Y-37107226D01*
X15314221Y-37016252D01*
X15314222Y-37016251D01*
X15318640Y-37011344D01*
X15414127Y-36845956D01*
X15473142Y-36664328D01*
X15476637Y-36631081D01*
X15492414Y-36480965D01*
X15493104Y-36474400D01*
X15488311Y-36428794D01*
X15473832Y-36291035D01*
X15473832Y-36291033D01*
X15473142Y-36284472D01*
X15414127Y-36102844D01*
X15318640Y-35937456D01*
X15244514Y-35855130D01*
X15195275Y-35800445D01*
X15195274Y-35800444D01*
X15190853Y-35795534D01*
X15059730Y-35700267D01*
X15041694Y-35687163D01*
X15041693Y-35687162D01*
X15036352Y-35683282D01*
X15030324Y-35680598D01*
X15030322Y-35680597D01*
X14867919Y-35608291D01*
X14867918Y-35608291D01*
X14861888Y-35605606D01*
X14760926Y-35584146D01*
X14677526Y-35566418D01*
X14615052Y-35532689D01*
X14580731Y-35470540D01*
X14585459Y-35399701D01*
X14614628Y-35354076D01*
X15362987Y-34605717D01*
X15425299Y-34571691D01*
X15496114Y-34576756D01*
X15545718Y-34610502D01*
X15582633Y-34651500D01*
X15593947Y-34664066D01*
X15693043Y-34736064D01*
X15734518Y-34766197D01*
X15748448Y-34776318D01*
X15754476Y-34779002D01*
X15754478Y-34779003D01*
X15916881Y-34851309D01*
X15922912Y-34853994D01*
X16016312Y-34873847D01*
X16103256Y-34892328D01*
X16103261Y-34892328D01*
X16109713Y-34893700D01*
X16300687Y-34893700D01*
X16307139Y-34892328D01*
X16307144Y-34892328D01*
X16472466Y-34857187D01*
X16543257Y-34862589D01*
X16599889Y-34905406D01*
X16624383Y-34972043D01*
X16623973Y-34993602D01*
X16612496Y-35102800D01*
X16613186Y-35109365D01*
X16617572Y-35151091D01*
X16632458Y-35292728D01*
X16691473Y-35474356D01*
X16786960Y-35639744D01*
X16791378Y-35644651D01*
X16791379Y-35644652D01*
X16871902Y-35734082D01*
X16914747Y-35781666D01*
X17069248Y-35893918D01*
X17075276Y-35896602D01*
X17075278Y-35896603D01*
X17231107Y-35965982D01*
X17243712Y-35971594D01*
X17337112Y-35991447D01*
X17424056Y-36009928D01*
X17424061Y-36009928D01*
X17430513Y-36011300D01*
X17621487Y-36011300D01*
X17627939Y-36009928D01*
X17627944Y-36009928D01*
X17714888Y-35991447D01*
X17808288Y-35971594D01*
X17820893Y-35965982D01*
X17976722Y-35896603D01*
X17976724Y-35896602D01*
X17982752Y-35893918D01*
X18030005Y-35859587D01*
X18036139Y-35855130D01*
X18103007Y-35831271D01*
X18172158Y-35847352D01*
X18184261Y-35855130D01*
X18190396Y-35859587D01*
X18237648Y-35893918D01*
X18243676Y-35896602D01*
X18243678Y-35896603D01*
X18399507Y-35965982D01*
X18412112Y-35971594D01*
X18505512Y-35991447D01*
X18592456Y-36009928D01*
X18592461Y-36009928D01*
X18598913Y-36011300D01*
X18789887Y-36011300D01*
X18796339Y-36009928D01*
X18796344Y-36009928D01*
X18883288Y-35991447D01*
X18976688Y-35971594D01*
X18989293Y-35965982D01*
X19145122Y-35896603D01*
X19145124Y-35896602D01*
X19151152Y-35893918D01*
X19193203Y-35863366D01*
X19300309Y-35785549D01*
X19300311Y-35785547D01*
X19305653Y-35781666D01*
X19310071Y-35776759D01*
X19310078Y-35776753D01*
X19330072Y-35754547D01*
X19380162Y-35724203D01*
X19379002Y-35721274D01*
X19420116Y-35704996D01*
X19431335Y-35701154D01*
X19434388Y-35700267D01*
X19505383Y-35700463D01*
X19565003Y-35739012D01*
X19589384Y-35782324D01*
X19601949Y-35820994D01*
X19637873Y-35931556D01*
X19641176Y-35937278D01*
X19641177Y-35937279D01*
X19657749Y-35965982D01*
X19733360Y-36096944D01*
X19861147Y-36238866D01*
X20015648Y-36351118D01*
X20021676Y-36353802D01*
X20021678Y-36353803D01*
X20184081Y-36426109D01*
X20190112Y-36428794D01*
X20283513Y-36448647D01*
X20370456Y-36467128D01*
X20370461Y-36467128D01*
X20376913Y-36468500D01*
X20567887Y-36468500D01*
X20574339Y-36467128D01*
X20574344Y-36467128D01*
X20661287Y-36448647D01*
X20754688Y-36428794D01*
X20760719Y-36426109D01*
X20923122Y-36353803D01*
X20923124Y-36353802D01*
X20929152Y-36351118D01*
X21083653Y-36238866D01*
X21211440Y-36096944D01*
X21287051Y-35965982D01*
X21303623Y-35937279D01*
X21303624Y-35937278D01*
X21306927Y-35931556D01*
X21365942Y-35749928D01*
X21367090Y-35739012D01*
X21385214Y-35566565D01*
X21385904Y-35560000D01*
X21376903Y-35474356D01*
X21366632Y-35376635D01*
X21366632Y-35376633D01*
X21365942Y-35370072D01*
X21306927Y-35188444D01*
X21211440Y-35023056D01*
X21094968Y-34893700D01*
X21088075Y-34886045D01*
X21088074Y-34886044D01*
X21083653Y-34881134D01*
X20984557Y-34809136D01*
X20934494Y-34772763D01*
X20934493Y-34772762D01*
X20929152Y-34768882D01*
X20923124Y-34766198D01*
X20923122Y-34766197D01*
X20765110Y-34695846D01*
X20711014Y-34649866D01*
X20690365Y-34581939D01*
X20709717Y-34513631D01*
X20727264Y-34491644D01*
X25186103Y-30032805D01*
X25248415Y-29998779D01*
X25275198Y-29995900D01*
X27912033Y-29995900D01*
X27923216Y-29996427D01*
X27930709Y-29998102D01*
X27938635Y-29997853D01*
X27938636Y-29997853D01*
X27998786Y-29995962D01*
X28002745Y-29995900D01*
X28030656Y-29995900D01*
X28034591Y-29995403D01*
X28034656Y-29995395D01*
X28046493Y-29994462D01*
X28078751Y-29993448D01*
X28082770Y-29993322D01*
X28090689Y-29993073D01*
X28110143Y-29987421D01*
X28129500Y-29983413D01*
X28141730Y-29981868D01*
X28141731Y-29981868D01*
X28149597Y-29980874D01*
X28156968Y-29977955D01*
X28156970Y-29977955D01*
X28190712Y-29964596D01*
X28201942Y-29960751D01*
X28236783Y-29950629D01*
X28236784Y-29950629D01*
X28244393Y-29948418D01*
X28251212Y-29944385D01*
X28251217Y-29944383D01*
X28261828Y-29938107D01*
X28279576Y-29929412D01*
X28298417Y-29921952D01*
X28334187Y-29895964D01*
X28344107Y-29889448D01*
X28375335Y-29870980D01*
X28375338Y-29870978D01*
X28382162Y-29866942D01*
X28396483Y-29852621D01*
X28411517Y-29839780D01*
X28421494Y-29832531D01*
X28427907Y-29827872D01*
X28432958Y-29821767D01*
X28432963Y-29821762D01*
X28456099Y-29793796D01*
X28464087Y-29785018D01*
X29225005Y-29024100D01*
X29287317Y-28990074D01*
X29358132Y-28995139D01*
X29414968Y-29037686D01*
X29439779Y-29104206D01*
X29440100Y-29113195D01*
X29440100Y-31526517D01*
X29420098Y-31594638D01*
X29403195Y-31615612D01*
X28462571Y-32556235D01*
X27547747Y-33471059D01*
X27539461Y-33478599D01*
X27532982Y-33482711D01*
X27527557Y-33488488D01*
X27486357Y-33532362D01*
X27483602Y-33535204D01*
X27463865Y-33554941D01*
X27461385Y-33558138D01*
X27453682Y-33567158D01*
X27423414Y-33599390D01*
X27419595Y-33606336D01*
X27419593Y-33606339D01*
X27413652Y-33617145D01*
X27402801Y-33633664D01*
X27390386Y-33649670D01*
X27387241Y-33656939D01*
X27387238Y-33656943D01*
X27372826Y-33690248D01*
X27367609Y-33700898D01*
X27346305Y-33739651D01*
X27344334Y-33747326D01*
X27344334Y-33747327D01*
X27341267Y-33759273D01*
X27334863Y-33777977D01*
X27326819Y-33796566D01*
X27325580Y-33804389D01*
X27325577Y-33804399D01*
X27319901Y-33840235D01*
X27317495Y-33851855D01*
X27306500Y-33894681D01*
X27306500Y-33914935D01*
X27304949Y-33934645D01*
X27301780Y-33954654D01*
X27302526Y-33962546D01*
X27305941Y-33998672D01*
X27306500Y-34010530D01*
X27306500Y-35873476D01*
X27286498Y-35941597D01*
X27274142Y-35957779D01*
X27200960Y-36039056D01*
X27105473Y-36204444D01*
X27046458Y-36386072D01*
X27045768Y-36392633D01*
X27045768Y-36392635D01*
X27037174Y-36474400D01*
X27026496Y-36576000D01*
X27027186Y-36582565D01*
X27041779Y-36721406D01*
X27046458Y-36765928D01*
X27105473Y-36947556D01*
X27200960Y-37112944D01*
X27205378Y-37117851D01*
X27205379Y-37117852D01*
X27286503Y-37207949D01*
X27328747Y-37254866D01*
X27347104Y-37268203D01*
X27450320Y-37343194D01*
X27483248Y-37367118D01*
X27489276Y-37369802D01*
X27489278Y-37369803D01*
X27632794Y-37433700D01*
X27657712Y-37444794D01*
X27751113Y-37464647D01*
X27838056Y-37483128D01*
X27838061Y-37483128D01*
X27844513Y-37484500D01*
X28035487Y-37484500D01*
X28041939Y-37483128D01*
X28041944Y-37483128D01*
X28128887Y-37464647D01*
X28222288Y-37444794D01*
X28247206Y-37433700D01*
X28390722Y-37369803D01*
X28390724Y-37369802D01*
X28396752Y-37367118D01*
X28429681Y-37343194D01*
X28532896Y-37268203D01*
X28551253Y-37254866D01*
X28593497Y-37207949D01*
X28674621Y-37117852D01*
X28674622Y-37117851D01*
X28679040Y-37112944D01*
X28774527Y-36947556D01*
X28833542Y-36765928D01*
X28838222Y-36721406D01*
X28852814Y-36582565D01*
X28853504Y-36576000D01*
X28842826Y-36474400D01*
X28834232Y-36392635D01*
X28834232Y-36392633D01*
X28833542Y-36386072D01*
X28774527Y-36204444D01*
X28679040Y-36039056D01*
X28605863Y-35957785D01*
X28575147Y-35893779D01*
X28573500Y-35873476D01*
X28573500Y-34289305D01*
X28593502Y-34221184D01*
X28610405Y-34200210D01*
X30287204Y-32523411D01*
X30349516Y-32489385D01*
X30420331Y-32494450D01*
X30477167Y-32536997D01*
X30492706Y-32564285D01*
X30528751Y-32651305D01*
X30555458Y-32715780D01*
X30562384Y-32732502D01*
X30694672Y-32948376D01*
X30859102Y-33140898D01*
X31051624Y-33305328D01*
X31267498Y-33437616D01*
X31272068Y-33439509D01*
X31272072Y-33439511D01*
X31487662Y-33528811D01*
X31501409Y-33534505D01*
X31574852Y-33552137D01*
X31742784Y-33592454D01*
X31742790Y-33592455D01*
X31747597Y-33593609D01*
X31847416Y-33601465D01*
X31934345Y-33608307D01*
X31934352Y-33608307D01*
X31936801Y-33608500D01*
X32063199Y-33608500D01*
X32065648Y-33608307D01*
X32065655Y-33608307D01*
X32152584Y-33601465D01*
X32252403Y-33593609D01*
X32257210Y-33592455D01*
X32257216Y-33592454D01*
X32425148Y-33552137D01*
X32498591Y-33534505D01*
X32512338Y-33528811D01*
X32727928Y-33439511D01*
X32727932Y-33439509D01*
X32732502Y-33437616D01*
X32948376Y-33305328D01*
X33140898Y-33140898D01*
X33305328Y-32948376D01*
X33437616Y-32732502D01*
X33444543Y-32715780D01*
X33471249Y-32651305D01*
X33507293Y-32564287D01*
X33551840Y-32509007D01*
X33619203Y-32486586D01*
X33687995Y-32504144D01*
X33712796Y-32523411D01*
X35143595Y-33954210D01*
X35177621Y-34016522D01*
X35180500Y-34043305D01*
X35180500Y-35771876D01*
X35160498Y-35839997D01*
X35148142Y-35856179D01*
X35074960Y-35937456D01*
X34979473Y-36102844D01*
X34920458Y-36284472D01*
X34919768Y-36291033D01*
X34919768Y-36291035D01*
X34905289Y-36428794D01*
X34900496Y-36474400D01*
X34901186Y-36480965D01*
X34916964Y-36631081D01*
X34920458Y-36664328D01*
X34979473Y-36845956D01*
X35074960Y-37011344D01*
X35079378Y-37016251D01*
X35079379Y-37016252D01*
X35161292Y-37107226D01*
X35202747Y-37153266D01*
X35357248Y-37265518D01*
X35363276Y-37268202D01*
X35363278Y-37268203D01*
X35525681Y-37340509D01*
X35531712Y-37343194D01*
X35625113Y-37363047D01*
X35712056Y-37381528D01*
X35712061Y-37381528D01*
X35718513Y-37382900D01*
X35909487Y-37382900D01*
X35915939Y-37381528D01*
X35915944Y-37381528D01*
X36002887Y-37363047D01*
X36096288Y-37343194D01*
X36102319Y-37340509D01*
X36264722Y-37268203D01*
X36264724Y-37268202D01*
X36270752Y-37265518D01*
X36425253Y-37153266D01*
X36466708Y-37107226D01*
X36548621Y-37016252D01*
X36548622Y-37016251D01*
X36553040Y-37011344D01*
X36648527Y-36845956D01*
X36707542Y-36664328D01*
X36711037Y-36631081D01*
X36726814Y-36480965D01*
X36727504Y-36474400D01*
X36722711Y-36428794D01*
X36708232Y-36291035D01*
X36708232Y-36291033D01*
X36707542Y-36284472D01*
X36648527Y-36102844D01*
X36553040Y-35937456D01*
X36479863Y-35856185D01*
X36449147Y-35792179D01*
X36447500Y-35771876D01*
X36447500Y-33807474D01*
X36448027Y-33796290D01*
X36449701Y-33788802D01*
X36447562Y-33720743D01*
X36447500Y-33716786D01*
X36447500Y-33688855D01*
X36446994Y-33684849D01*
X36446061Y-33673003D01*
X36445557Y-33656943D01*
X36444673Y-33628821D01*
X36439022Y-33609369D01*
X36435014Y-33590017D01*
X36433468Y-33577779D01*
X36433467Y-33577777D01*
X36432474Y-33569914D01*
X36416194Y-33528797D01*
X36412359Y-33517596D01*
X36400018Y-33475117D01*
X36395985Y-33468298D01*
X36395983Y-33468293D01*
X36389707Y-33457682D01*
X36381010Y-33439932D01*
X36373552Y-33421094D01*
X36347571Y-33385334D01*
X36341053Y-33375412D01*
X36322578Y-33344171D01*
X36322574Y-33344166D01*
X36318542Y-33337348D01*
X36304218Y-33323024D01*
X36291376Y-33307989D01*
X36287110Y-33302117D01*
X36279472Y-33291604D01*
X36245406Y-33263422D01*
X36236627Y-33255433D01*
X31912405Y-28931211D01*
X31878379Y-28868899D01*
X31875500Y-28842116D01*
X31875500Y-28448000D01*
X35002096Y-28448000D01*
X35002786Y-28454565D01*
X35015673Y-28577174D01*
X35022058Y-28637928D01*
X35081073Y-28819556D01*
X35176560Y-28984944D01*
X35180978Y-28989851D01*
X35180979Y-28989852D01*
X35299925Y-29121955D01*
X35304347Y-29126866D01*
X35458848Y-29239118D01*
X35464876Y-29241802D01*
X35464878Y-29241803D01*
X35591836Y-29298328D01*
X35633312Y-29316794D01*
X35718978Y-29335003D01*
X35813656Y-29355128D01*
X35813661Y-29355128D01*
X35820113Y-29356500D01*
X36011087Y-29356500D01*
X36017539Y-29355128D01*
X36017544Y-29355128D01*
X36112222Y-29335003D01*
X36197888Y-29316794D01*
X36239364Y-29298328D01*
X36366322Y-29241803D01*
X36366324Y-29241802D01*
X36372352Y-29239118D01*
X36526853Y-29126866D01*
X36531275Y-29121955D01*
X36650221Y-28989852D01*
X36650222Y-28989851D01*
X36654640Y-28984944D01*
X36750127Y-28819556D01*
X36809142Y-28637928D01*
X36815528Y-28577174D01*
X36828414Y-28454565D01*
X36829104Y-28448000D01*
X36820233Y-28363595D01*
X36809832Y-28264635D01*
X36809832Y-28264633D01*
X36809142Y-28258072D01*
X36750127Y-28076444D01*
X36654640Y-27911056D01*
X36526853Y-27769134D01*
X36372352Y-27656882D01*
X36366324Y-27654198D01*
X36366322Y-27654197D01*
X36203919Y-27581891D01*
X36203918Y-27581891D01*
X36197888Y-27579206D01*
X36104487Y-27559353D01*
X36017544Y-27540872D01*
X36017539Y-27540872D01*
X36011087Y-27539500D01*
X35820113Y-27539500D01*
X35813661Y-27540872D01*
X35813656Y-27540872D01*
X35726713Y-27559353D01*
X35633312Y-27579206D01*
X35627282Y-27581891D01*
X35627281Y-27581891D01*
X35464878Y-27654197D01*
X35464876Y-27654198D01*
X35458848Y-27656882D01*
X35304347Y-27769134D01*
X35176560Y-27911056D01*
X35081073Y-28076444D01*
X35022058Y-28258072D01*
X35021368Y-28264633D01*
X35021368Y-28264635D01*
X35010967Y-28363595D01*
X35002096Y-28448000D01*
X31875500Y-28448000D01*
X31875500Y-25773195D01*
X31895502Y-25705074D01*
X31949158Y-25658581D01*
X32010113Y-25648629D01*
X32010113Y-25648100D01*
X32201087Y-25648100D01*
X32207539Y-25646728D01*
X32207544Y-25646728D01*
X32297353Y-25627638D01*
X32387888Y-25608394D01*
X32395592Y-25604964D01*
X32556322Y-25533403D01*
X32556324Y-25533402D01*
X32562352Y-25530718D01*
X32716853Y-25418466D01*
X32721275Y-25413555D01*
X32840221Y-25281452D01*
X32840222Y-25281451D01*
X32844640Y-25276544D01*
X32940127Y-25111156D01*
X32999142Y-24929528D01*
X33002541Y-24897194D01*
X33016507Y-24764307D01*
X33043520Y-24698650D01*
X33052722Y-24688382D01*
X33678617Y-24062488D01*
X34326653Y-23414452D01*
X34334939Y-23406912D01*
X34341418Y-23402800D01*
X34388044Y-23353148D01*
X34390798Y-23350307D01*
X34410535Y-23330570D01*
X34413015Y-23327373D01*
X34420720Y-23318351D01*
X34438587Y-23299325D01*
X34450986Y-23286121D01*
X34454805Y-23279175D01*
X34454807Y-23279172D01*
X34460748Y-23268366D01*
X34471599Y-23251847D01*
X34471959Y-23251383D01*
X34484014Y-23235841D01*
X34487159Y-23228572D01*
X34487162Y-23228568D01*
X34501574Y-23195263D01*
X34506791Y-23184613D01*
X34528095Y-23145860D01*
X34533133Y-23126237D01*
X34539537Y-23107534D01*
X34544433Y-23096220D01*
X34544433Y-23096219D01*
X34547581Y-23088945D01*
X34548820Y-23081122D01*
X34548823Y-23081112D01*
X34554499Y-23045276D01*
X34556905Y-23033656D01*
X34565928Y-22998511D01*
X34565928Y-22998510D01*
X34567900Y-22990830D01*
X34567900Y-22970576D01*
X34569451Y-22950865D01*
X34571380Y-22938686D01*
X34572620Y-22930857D01*
X34568459Y-22886838D01*
X34567900Y-22874981D01*
X34567900Y-20279900D01*
X34587902Y-20211779D01*
X34641558Y-20165286D01*
X34711832Y-20155182D01*
X34760732Y-20175031D01*
X34761328Y-20173998D01*
X34767046Y-20177299D01*
X34772387Y-20181180D01*
X34778415Y-20183864D01*
X34778417Y-20183865D01*
X34940822Y-20256172D01*
X34940824Y-20256173D01*
X34946851Y-20258856D01*
X34948843Y-20259280D01*
X35006051Y-20298397D01*
X35033689Y-20363794D01*
X35021582Y-20433750D01*
X35017643Y-20441132D01*
X34979473Y-20507244D01*
X34920458Y-20688872D01*
X34919768Y-20695433D01*
X34919768Y-20695435D01*
X34903183Y-20853237D01*
X34900496Y-20878800D01*
X34901186Y-20885365D01*
X34909780Y-20967128D01*
X34920458Y-21068728D01*
X34979473Y-21250356D01*
X34982776Y-21256078D01*
X34982777Y-21256079D01*
X34988929Y-21266734D01*
X35074960Y-21415744D01*
X35079378Y-21420651D01*
X35079379Y-21420652D01*
X35169015Y-21520203D01*
X35202747Y-21557666D01*
X35296518Y-21625795D01*
X35324320Y-21645994D01*
X35357248Y-21669918D01*
X35363276Y-21672602D01*
X35363278Y-21672603D01*
X35525681Y-21744909D01*
X35531712Y-21747594D01*
X35625112Y-21767447D01*
X35712056Y-21785928D01*
X35712061Y-21785928D01*
X35718513Y-21787300D01*
X35909487Y-21787300D01*
X35915939Y-21785928D01*
X35915944Y-21785928D01*
X36002888Y-21767447D01*
X36096288Y-21747594D01*
X36102319Y-21744909D01*
X36264722Y-21672603D01*
X36264724Y-21672602D01*
X36270752Y-21669918D01*
X36303681Y-21645994D01*
X36331482Y-21625795D01*
X36425253Y-21557666D01*
X36458985Y-21520203D01*
X36548621Y-21420652D01*
X36548622Y-21420651D01*
X36553040Y-21415744D01*
X36639071Y-21266734D01*
X36645223Y-21256079D01*
X36645224Y-21256078D01*
X36648527Y-21250356D01*
X36707542Y-21068728D01*
X36718221Y-20967128D01*
X36726814Y-20885365D01*
X36727504Y-20878800D01*
X36724817Y-20853237D01*
X36708232Y-20695435D01*
X36708232Y-20695433D01*
X36707542Y-20688872D01*
X36648527Y-20507244D01*
X36553040Y-20341856D01*
X36513910Y-20298397D01*
X36429675Y-20204845D01*
X36429674Y-20204844D01*
X36425253Y-20199934D01*
X36270752Y-20087682D01*
X36264724Y-20084998D01*
X36264722Y-20084997D01*
X36102317Y-20012690D01*
X36102315Y-20012689D01*
X36096288Y-20010006D01*
X36094296Y-20009582D01*
X36037088Y-19970465D01*
X36009450Y-19905068D01*
X36021557Y-19835112D01*
X36025496Y-19827730D01*
X36063666Y-19761618D01*
X36122681Y-19579990D01*
X36127434Y-19534774D01*
X36141953Y-19396627D01*
X36142643Y-19390062D01*
X36122681Y-19200134D01*
X36063666Y-19018506D01*
X35968179Y-18853118D01*
X35954679Y-18838124D01*
X35844814Y-18716107D01*
X35844813Y-18716106D01*
X35840392Y-18711196D01*
X35685891Y-18598944D01*
X35679863Y-18596260D01*
X35679861Y-18596259D01*
X35517458Y-18523953D01*
X35517457Y-18523953D01*
X35511427Y-18521268D01*
X35415467Y-18500871D01*
X35331083Y-18482934D01*
X35331078Y-18482934D01*
X35324626Y-18481562D01*
X35133652Y-18481562D01*
X35127200Y-18482934D01*
X35127195Y-18482934D01*
X34964272Y-18517565D01*
X34893481Y-18512163D01*
X34836849Y-18469346D01*
X34812355Y-18402709D01*
X34818242Y-18355382D01*
X34825902Y-18331806D01*
X34827942Y-18325528D01*
X34831341Y-18293194D01*
X34847214Y-18142165D01*
X34847904Y-18135600D01*
X34833135Y-17995077D01*
X34828632Y-17952235D01*
X34828632Y-17952233D01*
X34827942Y-17945672D01*
X34768927Y-17764044D01*
X34759075Y-17746979D01*
X34717362Y-17674731D01*
X34673440Y-17598656D01*
X34652825Y-17575760D01*
X34550075Y-17461645D01*
X34550074Y-17461644D01*
X34545653Y-17456734D01*
X34430654Y-17373182D01*
X34396494Y-17348363D01*
X34396493Y-17348362D01*
X34391152Y-17344482D01*
X34385124Y-17341798D01*
X34385122Y-17341797D01*
X34222719Y-17269491D01*
X34222718Y-17269491D01*
X34216688Y-17266806D01*
X34095446Y-17241035D01*
X34036344Y-17228472D01*
X34036339Y-17228472D01*
X34029887Y-17227100D01*
X33838913Y-17227100D01*
X33832461Y-17228472D01*
X33832456Y-17228472D01*
X33773354Y-17241035D01*
X33652112Y-17266806D01*
X33646082Y-17269491D01*
X33646081Y-17269491D01*
X33483678Y-17341797D01*
X33483676Y-17341798D01*
X33477648Y-17344482D01*
X33472307Y-17348362D01*
X33472306Y-17348363D01*
X33438146Y-17373182D01*
X33323147Y-17456734D01*
X33318726Y-17461644D01*
X33318725Y-17461645D01*
X33215976Y-17575760D01*
X33195360Y-17598656D01*
X33151438Y-17674731D01*
X33109726Y-17746979D01*
X33099873Y-17764044D01*
X33040858Y-17945672D01*
X33040168Y-17952233D01*
X33040168Y-17952235D01*
X33035665Y-17995077D01*
X33020896Y-18135600D01*
X33021586Y-18142165D01*
X33037460Y-18293194D01*
X33040858Y-18325528D01*
X33099873Y-18507156D01*
X33103176Y-18512878D01*
X33103177Y-18512879D01*
X33109571Y-18523953D01*
X33195360Y-18672544D01*
X33268537Y-18753815D01*
X33299253Y-18817821D01*
X33300900Y-18838124D01*
X33300900Y-22596206D01*
X33280898Y-22664327D01*
X33263995Y-22685301D01*
X32155100Y-23794195D01*
X32092788Y-23828221D01*
X32066005Y-23831100D01*
X32010113Y-23831100D01*
X32010113Y-23830482D01*
X31944829Y-23818541D01*
X31892984Y-23770038D01*
X31875500Y-23706005D01*
X31875500Y-23642993D01*
X31877732Y-23619384D01*
X31877790Y-23619081D01*
X31877790Y-23619077D01*
X31879275Y-23611294D01*
X31875749Y-23555249D01*
X31875500Y-23547338D01*
X31875500Y-23531344D01*
X31873494Y-23515470D01*
X31872751Y-23507602D01*
X31872328Y-23500868D01*
X31869225Y-23451550D01*
X31866679Y-23443713D01*
X31861506Y-23420569D01*
X31861468Y-23420265D01*
X31861467Y-23420260D01*
X31860474Y-23412403D01*
X31857558Y-23405038D01*
X31857557Y-23405034D01*
X31839801Y-23360189D01*
X31837129Y-23352770D01*
X31819764Y-23299325D01*
X31815514Y-23292628D01*
X31815350Y-23292369D01*
X31804585Y-23271242D01*
X31804471Y-23270954D01*
X31804468Y-23270949D01*
X31801552Y-23263583D01*
X31796896Y-23257175D01*
X31796893Y-23257169D01*
X31768542Y-23218148D01*
X31764092Y-23211601D01*
X31762464Y-23209035D01*
X31734000Y-23164182D01*
X31727993Y-23158541D01*
X31712312Y-23140754D01*
X31712134Y-23140509D01*
X31712132Y-23140507D01*
X31707472Y-23134093D01*
X31701362Y-23129038D01*
X31664204Y-23098297D01*
X31658270Y-23093066D01*
X31623102Y-23060042D01*
X31623099Y-23060040D01*
X31617321Y-23054614D01*
X31610097Y-23050642D01*
X31590494Y-23037319D01*
X31590254Y-23037120D01*
X31590247Y-23037116D01*
X31584144Y-23032067D01*
X31533324Y-23008153D01*
X31526292Y-23004571D01*
X31477060Y-22977505D01*
X31469385Y-22975535D01*
X31469379Y-22975532D01*
X31469081Y-22975456D01*
X31446772Y-22967424D01*
X31446497Y-22967294D01*
X31446489Y-22967291D01*
X31439318Y-22963917D01*
X31384151Y-22953394D01*
X31376442Y-22951671D01*
X31342449Y-22942943D01*
X31329707Y-22939671D01*
X31329706Y-22939671D01*
X31322030Y-22937700D01*
X31313793Y-22937700D01*
X31290184Y-22935468D01*
X31289881Y-22935410D01*
X31289877Y-22935410D01*
X31282094Y-22933925D01*
X31226049Y-22937451D01*
X31218138Y-22937700D01*
X30731000Y-22937700D01*
X30662879Y-22917698D01*
X30643653Y-22901357D01*
X30643380Y-22901660D01*
X30638468Y-22897237D01*
X30634053Y-22892334D01*
X30576238Y-22850329D01*
X30484894Y-22783963D01*
X30484893Y-22783962D01*
X30479552Y-22780082D01*
X30473524Y-22777398D01*
X30473522Y-22777397D01*
X30311119Y-22705091D01*
X30311118Y-22705091D01*
X30305088Y-22702406D01*
X30193354Y-22678656D01*
X30124744Y-22664072D01*
X30124739Y-22664072D01*
X30118287Y-22662700D01*
X29927313Y-22662700D01*
X29920861Y-22664072D01*
X29920856Y-22664072D01*
X29852246Y-22678656D01*
X29740512Y-22702406D01*
X29734482Y-22705091D01*
X29734481Y-22705091D01*
X29572078Y-22777397D01*
X29572076Y-22777398D01*
X29566048Y-22780082D01*
X29448732Y-22865317D01*
X29381868Y-22889174D01*
X29312716Y-22873094D01*
X29285579Y-22852475D01*
X28278275Y-21845170D01*
X28244249Y-21782858D01*
X28249314Y-21712042D01*
X28291861Y-21655207D01*
X28358381Y-21630396D01*
X28393569Y-21632829D01*
X28403313Y-21634900D01*
X28594287Y-21634900D01*
X28600739Y-21633528D01*
X28600744Y-21633528D01*
X28687688Y-21615047D01*
X28781088Y-21595194D01*
X28787119Y-21592509D01*
X28949522Y-21520203D01*
X28949524Y-21520202D01*
X28955552Y-21517518D01*
X29110053Y-21405266D01*
X29127357Y-21386048D01*
X29233421Y-21268252D01*
X29233422Y-21268251D01*
X29237840Y-21263344D01*
X29333327Y-21097956D01*
X29392342Y-20916328D01*
X29412304Y-20726400D01*
X29409563Y-20700321D01*
X29393032Y-20543035D01*
X29393032Y-20543033D01*
X29392342Y-20536472D01*
X29333327Y-20354844D01*
X29325829Y-20341856D01*
X29277601Y-20258324D01*
X29237840Y-20189456D01*
X29155794Y-20098334D01*
X29114475Y-20052445D01*
X29114474Y-20052444D01*
X29110053Y-20047534D01*
X28955552Y-19935282D01*
X28949524Y-19932598D01*
X28949522Y-19932597D01*
X28787119Y-19860291D01*
X28787118Y-19860291D01*
X28781088Y-19857606D01*
X28675263Y-19835112D01*
X28600744Y-19819272D01*
X28600739Y-19819272D01*
X28594287Y-19817900D01*
X28403313Y-19817900D01*
X28396861Y-19819272D01*
X28396856Y-19819272D01*
X28322337Y-19835112D01*
X28216512Y-19857606D01*
X28210482Y-19860291D01*
X28210481Y-19860291D01*
X28048078Y-19932597D01*
X28048076Y-19932598D01*
X28042048Y-19935282D01*
X28036707Y-19939162D01*
X28036706Y-19939163D01*
X27966786Y-19989963D01*
X27887547Y-20047534D01*
X27883132Y-20052437D01*
X27878220Y-20056860D01*
X27877095Y-20055611D01*
X27823786Y-20088451D01*
X27790600Y-20092900D01*
X25404794Y-20092900D01*
X25336673Y-20072898D01*
X25290180Y-20019242D01*
X25280076Y-19948968D01*
X25309570Y-19884388D01*
X25315699Y-19877805D01*
X27769104Y-17424400D01*
X30836496Y-17424400D01*
X30837186Y-17430965D01*
X30855136Y-17601747D01*
X30856458Y-17614328D01*
X30915473Y-17795956D01*
X30918776Y-17801678D01*
X30918777Y-17801679D01*
X30921159Y-17805805D01*
X31010960Y-17961344D01*
X31138747Y-18103266D01*
X31293248Y-18215518D01*
X31299276Y-18218202D01*
X31299278Y-18218203D01*
X31461681Y-18290509D01*
X31467712Y-18293194D01*
X31561112Y-18313047D01*
X31648056Y-18331528D01*
X31648061Y-18331528D01*
X31654513Y-18332900D01*
X31845487Y-18332900D01*
X31851939Y-18331528D01*
X31851944Y-18331528D01*
X31938888Y-18313047D01*
X32032288Y-18293194D01*
X32038319Y-18290509D01*
X32200722Y-18218203D01*
X32200724Y-18218202D01*
X32206752Y-18215518D01*
X32361253Y-18103266D01*
X32489040Y-17961344D01*
X32578841Y-17805805D01*
X32581223Y-17801679D01*
X32581224Y-17801678D01*
X32584527Y-17795956D01*
X32643542Y-17614328D01*
X32644891Y-17601498D01*
X32655287Y-17502580D01*
X32660907Y-17449106D01*
X32687920Y-17383450D01*
X32697122Y-17373182D01*
X33194699Y-16875605D01*
X33257011Y-16841579D01*
X33283794Y-16838700D01*
X34242200Y-16838700D01*
X34310321Y-16858702D01*
X34329547Y-16875043D01*
X34329820Y-16874740D01*
X34334732Y-16879163D01*
X34339147Y-16884066D01*
X34493648Y-16996318D01*
X34499676Y-16999002D01*
X34499678Y-16999003D01*
X34662081Y-17071309D01*
X34668112Y-17073994D01*
X34761512Y-17093847D01*
X34848456Y-17112328D01*
X34848461Y-17112328D01*
X34854913Y-17113700D01*
X35045887Y-17113700D01*
X35052339Y-17112328D01*
X35052344Y-17112328D01*
X35139288Y-17093847D01*
X35232688Y-17073994D01*
X35238719Y-17071309D01*
X35401122Y-16999003D01*
X35401124Y-16999002D01*
X35407152Y-16996318D01*
X35561653Y-16884066D01*
X35586092Y-16856924D01*
X35685021Y-16747052D01*
X35685022Y-16747051D01*
X35689440Y-16742144D01*
X35784927Y-16576756D01*
X35843942Y-16395128D01*
X35845181Y-16383345D01*
X35863214Y-16211765D01*
X35863904Y-16205200D01*
X35861386Y-16181246D01*
X35844632Y-16021835D01*
X35844632Y-16021833D01*
X35843942Y-16015272D01*
X35784927Y-15833644D01*
X35779318Y-15823928D01*
X35747714Y-15769190D01*
X35689440Y-15668256D01*
X35673281Y-15650309D01*
X35566075Y-15531245D01*
X35566074Y-15531244D01*
X35561653Y-15526334D01*
X35407152Y-15414082D01*
X35401124Y-15411398D01*
X35401122Y-15411397D01*
X35238719Y-15339091D01*
X35238718Y-15339091D01*
X35232688Y-15336406D01*
X35131986Y-15315001D01*
X35052344Y-15298072D01*
X35052339Y-15298072D01*
X35045887Y-15296700D01*
X34854913Y-15296700D01*
X34848461Y-15298072D01*
X34848456Y-15298072D01*
X34768814Y-15315001D01*
X34668112Y-15336406D01*
X34662082Y-15339091D01*
X34662081Y-15339091D01*
X34499678Y-15411397D01*
X34499676Y-15411398D01*
X34493648Y-15414082D01*
X34488307Y-15417962D01*
X34488306Y-15417963D01*
X34386702Y-15491783D01*
X34339147Y-15526334D01*
X34334732Y-15531237D01*
X34329820Y-15535660D01*
X34328695Y-15534411D01*
X34275386Y-15567251D01*
X34242200Y-15571700D01*
X33047967Y-15571700D01*
X33036784Y-15571173D01*
X33029291Y-15569498D01*
X33021365Y-15569747D01*
X33021364Y-15569747D01*
X32961214Y-15571638D01*
X32957255Y-15571700D01*
X32929344Y-15571700D01*
X32925410Y-15572197D01*
X32925409Y-15572197D01*
X32925344Y-15572205D01*
X32913507Y-15573138D01*
X32881690Y-15574138D01*
X32877229Y-15574278D01*
X32869310Y-15574527D01*
X32851654Y-15579656D01*
X32849858Y-15580178D01*
X32830506Y-15584186D01*
X32823435Y-15585080D01*
X32810403Y-15586726D01*
X32803034Y-15589643D01*
X32803032Y-15589644D01*
X32769297Y-15603000D01*
X32758069Y-15606845D01*
X32715607Y-15619182D01*
X32708785Y-15623216D01*
X32708779Y-15623219D01*
X32698168Y-15629494D01*
X32680418Y-15638190D01*
X32668956Y-15642728D01*
X32668951Y-15642731D01*
X32661583Y-15645648D01*
X32650189Y-15653926D01*
X32625825Y-15671627D01*
X32615907Y-15678143D01*
X32614296Y-15679096D01*
X32577837Y-15700658D01*
X32563513Y-15714982D01*
X32548481Y-15727821D01*
X32532093Y-15739728D01*
X32503912Y-15773793D01*
X32495922Y-15782573D01*
X31799500Y-16478995D01*
X31737188Y-16513021D01*
X31710405Y-16515900D01*
X31654513Y-16515900D01*
X31648061Y-16517272D01*
X31648056Y-16517272D01*
X31587044Y-16530241D01*
X31467712Y-16555606D01*
X31461682Y-16558291D01*
X31461681Y-16558291D01*
X31299278Y-16630597D01*
X31299276Y-16630598D01*
X31293248Y-16633282D01*
X31138747Y-16745534D01*
X31134326Y-16750444D01*
X31134325Y-16750445D01*
X31022410Y-16874740D01*
X31010960Y-16887456D01*
X30915473Y-17052844D01*
X30856458Y-17234472D01*
X30855768Y-17241033D01*
X30855768Y-17241035D01*
X30844924Y-17344208D01*
X30836496Y-17424400D01*
X27769104Y-17424400D01*
X28484647Y-16708857D01*
X28492937Y-16701313D01*
X28499418Y-16697200D01*
X28546059Y-16647532D01*
X28548813Y-16644691D01*
X28568534Y-16624970D01*
X28571012Y-16621775D01*
X28578718Y-16612753D01*
X28603558Y-16586301D01*
X28608986Y-16580521D01*
X28618746Y-16562768D01*
X28629599Y-16546245D01*
X28637153Y-16536506D01*
X28642013Y-16530241D01*
X28659576Y-16489657D01*
X28664783Y-16479027D01*
X28686095Y-16440260D01*
X28688066Y-16432583D01*
X28688068Y-16432578D01*
X28691132Y-16420642D01*
X28697538Y-16401930D01*
X28702434Y-16390617D01*
X28705581Y-16383345D01*
X28706975Y-16374548D01*
X28712497Y-16339681D01*
X28714904Y-16328060D01*
X28723928Y-16292911D01*
X28723928Y-16292910D01*
X28725900Y-16285230D01*
X28725900Y-16264969D01*
X28727451Y-16245258D01*
X28728675Y-16237534D01*
X28730619Y-16225257D01*
X28726459Y-16181246D01*
X28725900Y-16169389D01*
X28725900Y-14201167D01*
X28726427Y-14189984D01*
X28728102Y-14182491D01*
X28725962Y-14114414D01*
X28725900Y-14110455D01*
X28725900Y-14082544D01*
X28725395Y-14078544D01*
X28724462Y-14066701D01*
X28723322Y-14030429D01*
X28723073Y-14022510D01*
X28717422Y-14003058D01*
X28713414Y-13983706D01*
X28711867Y-13971463D01*
X28710874Y-13963603D01*
X28707956Y-13956232D01*
X28694600Y-13922497D01*
X28690755Y-13911270D01*
X28690121Y-13909087D01*
X28678418Y-13868807D01*
X28674384Y-13861985D01*
X28674381Y-13861979D01*
X28668106Y-13851368D01*
X28659410Y-13833618D01*
X28654872Y-13822156D01*
X28654869Y-13822151D01*
X28651952Y-13814783D01*
X28625973Y-13779025D01*
X28619457Y-13769107D01*
X28600975Y-13737857D01*
X28596942Y-13731037D01*
X28582618Y-13716713D01*
X28569777Y-13701679D01*
X28560741Y-13689242D01*
X28536882Y-13622374D01*
X28552963Y-13553223D01*
X28588614Y-13513247D01*
X28671816Y-13452797D01*
X28698309Y-13433549D01*
X28698311Y-13433547D01*
X28703653Y-13429666D01*
X28726491Y-13404302D01*
X28827021Y-13292652D01*
X28827022Y-13292651D01*
X28831440Y-13287744D01*
X28926927Y-13122356D01*
X28985942Y-12940728D01*
X28989341Y-12908394D01*
X29005214Y-12757365D01*
X29005904Y-12750800D01*
X29005214Y-12744235D01*
X28986632Y-12567435D01*
X28986632Y-12567433D01*
X28985942Y-12560872D01*
X28926927Y-12379244D01*
X28919429Y-12366256D01*
X28846327Y-12239641D01*
X28831440Y-12213856D01*
X28817198Y-12198038D01*
X28708075Y-12076845D01*
X28708074Y-12076844D01*
X28703653Y-12071934D01*
X28585776Y-11986291D01*
X28554494Y-11963563D01*
X28554493Y-11963562D01*
X28549152Y-11959682D01*
X28537023Y-11954282D01*
X28525176Y-11949007D01*
X28471080Y-11903028D01*
X28450430Y-11835101D01*
X28469782Y-11766792D01*
X28522992Y-11719790D01*
X28576424Y-11707900D01*
X33975406Y-11707900D01*
X34043527Y-11727902D01*
X34064501Y-11744805D01*
X35070078Y-12750382D01*
X35104104Y-12812694D01*
X35106292Y-12826303D01*
X35108345Y-12845835D01*
X35119094Y-12948100D01*
X35123658Y-12991528D01*
X35182673Y-13173156D01*
X35278160Y-13338544D01*
X35282578Y-13343451D01*
X35282579Y-13343452D01*
X35363699Y-13433545D01*
X35405947Y-13480466D01*
X35560448Y-13592718D01*
X35566476Y-13595402D01*
X35566478Y-13595403D01*
X35709994Y-13659300D01*
X35734912Y-13670394D01*
X35823584Y-13689242D01*
X35915256Y-13708728D01*
X35915261Y-13708728D01*
X35921713Y-13710100D01*
X36112687Y-13710100D01*
X36119139Y-13708728D01*
X36119144Y-13708728D01*
X36210816Y-13689242D01*
X36299488Y-13670394D01*
X36324406Y-13659300D01*
X36467922Y-13595403D01*
X36467924Y-13595402D01*
X36473952Y-13592718D01*
X36628453Y-13480466D01*
X36670701Y-13433545D01*
X36751821Y-13343452D01*
X36751822Y-13343451D01*
X36756240Y-13338544D01*
X36851727Y-13173156D01*
X36910742Y-12991528D01*
X36915307Y-12948100D01*
X36930014Y-12808165D01*
X36930704Y-12801600D01*
X36921966Y-12718466D01*
X36911432Y-12618235D01*
X36911432Y-12618233D01*
X36910742Y-12611672D01*
X36851727Y-12430044D01*
X36827820Y-12388635D01*
X36806843Y-12352302D01*
X36756240Y-12264656D01*
X36733717Y-12239641D01*
X36632875Y-12127645D01*
X36632874Y-12127644D01*
X36628453Y-12122734D01*
X36510576Y-12037091D01*
X36479294Y-12014363D01*
X36479293Y-12014362D01*
X36473952Y-12010482D01*
X36467924Y-12007798D01*
X36467922Y-12007797D01*
X36305519Y-11935491D01*
X36305518Y-11935491D01*
X36299488Y-11932806D01*
X36206088Y-11912953D01*
X36119144Y-11894472D01*
X36119139Y-11894472D01*
X36112687Y-11893100D01*
X36056794Y-11893100D01*
X35988673Y-11873098D01*
X35967699Y-11856195D01*
X35395284Y-11283779D01*
X34793652Y-10682147D01*
X34786112Y-10673861D01*
X34782000Y-10667382D01*
X34732348Y-10620756D01*
X34729507Y-10618002D01*
X34709770Y-10598265D01*
X34706573Y-10595785D01*
X34697551Y-10588080D01*
X34671100Y-10563241D01*
X34665321Y-10557814D01*
X34658375Y-10553995D01*
X34658372Y-10553993D01*
X34647566Y-10548052D01*
X34631047Y-10537201D01*
X34625048Y-10532548D01*
X34615041Y-10524786D01*
X34607772Y-10521641D01*
X34607768Y-10521638D01*
X34574463Y-10507226D01*
X34563813Y-10502009D01*
X34525060Y-10480705D01*
X34505437Y-10475667D01*
X34486734Y-10469263D01*
X34475420Y-10464367D01*
X34475419Y-10464367D01*
X34468145Y-10461219D01*
X34460322Y-10459980D01*
X34460312Y-10459977D01*
X34424476Y-10454301D01*
X34412856Y-10451895D01*
X34377711Y-10442872D01*
X34377710Y-10442872D01*
X34370030Y-10440900D01*
X34349776Y-10440900D01*
X34330065Y-10439349D01*
X34317886Y-10437420D01*
X34310057Y-10436180D01*
X34302165Y-10436926D01*
X34266039Y-10440341D01*
X34254181Y-10440900D01*
X27175000Y-10440900D01*
X27106879Y-10420898D01*
X27087653Y-10404557D01*
X27087380Y-10404860D01*
X27082468Y-10400437D01*
X27078053Y-10395534D01*
X27050168Y-10375274D01*
X26928894Y-10287163D01*
X26928893Y-10287162D01*
X26923552Y-10283282D01*
X26917524Y-10280598D01*
X26917522Y-10280597D01*
X26755119Y-10208291D01*
X26755118Y-10208291D01*
X26749088Y-10205606D01*
X26655688Y-10185753D01*
X26568744Y-10167272D01*
X26568739Y-10167272D01*
X26562287Y-10165900D01*
X26371313Y-10165900D01*
X26364861Y-10167272D01*
X26364856Y-10167272D01*
X26277912Y-10185753D01*
X26184512Y-10205606D01*
X26178482Y-10208291D01*
X26178481Y-10208291D01*
X26016078Y-10280597D01*
X26016076Y-10280598D01*
X26010048Y-10283282D01*
X25855547Y-10395534D01*
X25851126Y-10400444D01*
X25851125Y-10400445D01*
X25742003Y-10521638D01*
X25727760Y-10537456D01*
X25632273Y-10702844D01*
X25573258Y-10884472D01*
X25572568Y-10891033D01*
X25572568Y-10891035D01*
X25560532Y-11005550D01*
X25553296Y-11074400D01*
X25553986Y-11080965D01*
X25570603Y-11239063D01*
X25573258Y-11264328D01*
X25632273Y-11445956D01*
X25727760Y-11611344D01*
X25732178Y-11616251D01*
X25732179Y-11616252D01*
X25802962Y-11694864D01*
X25855547Y-11753266D01*
X25908441Y-11791696D01*
X26000053Y-11858256D01*
X26010048Y-11865518D01*
X26016076Y-11868202D01*
X26016078Y-11868203D01*
X26178481Y-11940509D01*
X26184512Y-11943194D01*
X26266975Y-11960722D01*
X26329448Y-11994450D01*
X26363770Y-12056600D01*
X26359042Y-12127439D01*
X26314840Y-12185904D01*
X26267293Y-12220449D01*
X26267288Y-12220454D01*
X26261947Y-12224334D01*
X26257526Y-12229244D01*
X26257525Y-12229245D01*
X26154396Y-12343782D01*
X26134160Y-12366256D01*
X26038673Y-12531644D01*
X25979658Y-12713272D01*
X25978968Y-12719833D01*
X25978968Y-12719835D01*
X25973427Y-12772559D01*
X25959696Y-12903200D01*
X25960386Y-12909765D01*
X25975226Y-13050956D01*
X25979658Y-13093128D01*
X26038673Y-13274756D01*
X26041976Y-13280478D01*
X26041977Y-13280479D01*
X26049005Y-13292652D01*
X26134160Y-13440144D01*
X26138578Y-13445051D01*
X26138579Y-13445052D01*
X26228215Y-13544603D01*
X26261947Y-13582066D01*
X26280304Y-13595403D01*
X26409462Y-13689242D01*
X26416448Y-13694318D01*
X26422476Y-13697002D01*
X26422478Y-13697003D01*
X26584881Y-13769309D01*
X26590912Y-13771994D01*
X26684312Y-13791847D01*
X26771256Y-13810328D01*
X26771261Y-13810328D01*
X26777713Y-13811700D01*
X26833606Y-13811700D01*
X26901727Y-13831702D01*
X26922701Y-13848605D01*
X27421995Y-14347899D01*
X27456021Y-14410211D01*
X27458900Y-14436994D01*
X27458900Y-14739801D01*
X27438898Y-14807922D01*
X27385242Y-14854415D01*
X27314968Y-14864519D01*
X27250388Y-14835025D01*
X27239271Y-14824119D01*
X27193699Y-14773506D01*
X27039198Y-14661254D01*
X27033170Y-14658570D01*
X27033168Y-14658569D01*
X26870765Y-14586263D01*
X26870764Y-14586263D01*
X26864734Y-14583578D01*
X26770331Y-14563512D01*
X26684390Y-14545244D01*
X26684385Y-14545244D01*
X26677933Y-14543872D01*
X26486959Y-14543872D01*
X26480507Y-14545244D01*
X26480502Y-14545244D01*
X26394561Y-14563512D01*
X26300158Y-14583578D01*
X26294128Y-14586263D01*
X26294127Y-14586263D01*
X26131724Y-14658569D01*
X26131722Y-14658570D01*
X26125694Y-14661254D01*
X25971193Y-14773506D01*
X25966775Y-14778413D01*
X25966771Y-14778417D01*
X25889245Y-14864519D01*
X25843406Y-14915428D01*
X25747919Y-15080816D01*
X25688904Y-15262444D01*
X25688214Y-15269005D01*
X25688214Y-15269007D01*
X25681130Y-15336406D01*
X25668942Y-15452372D01*
X25669632Y-15458937D01*
X25688089Y-15634541D01*
X25688904Y-15642300D01*
X25747919Y-15823928D01*
X25751222Y-15829650D01*
X25751223Y-15829651D01*
X25777884Y-15875829D01*
X25794622Y-15944824D01*
X25771402Y-16011916D01*
X25762402Y-16023138D01*
X25702789Y-16089345D01*
X25654663Y-16172701D01*
X25619801Y-16233085D01*
X25607302Y-16254733D01*
X25548287Y-16436361D01*
X25547597Y-16442922D01*
X25547597Y-16442924D01*
X25535915Y-16554078D01*
X25528325Y-16626289D01*
X25529015Y-16632854D01*
X25541018Y-16747052D01*
X25548287Y-16816217D01*
X25607302Y-16997845D01*
X25702789Y-17163233D01*
X25707207Y-17168140D01*
X25707208Y-17168141D01*
X25806164Y-17278043D01*
X25830576Y-17305155D01*
X25835918Y-17309036D01*
X25835920Y-17309038D01*
X25865269Y-17330361D01*
X25908623Y-17386583D01*
X25914698Y-17457320D01*
X25880303Y-17521392D01*
X23294900Y-20106795D01*
X23232588Y-20140821D01*
X23205805Y-20143700D01*
X21282200Y-20143700D01*
X21214079Y-20123698D01*
X21194853Y-20107357D01*
X21194580Y-20107660D01*
X21189668Y-20103237D01*
X21185253Y-20098334D01*
X21150376Y-20072994D01*
X21036094Y-19989963D01*
X21036093Y-19989962D01*
X21030752Y-19986082D01*
X21024724Y-19983398D01*
X21024722Y-19983397D01*
X20862319Y-19911091D01*
X20862318Y-19911091D01*
X20856288Y-19908406D01*
X20735046Y-19882635D01*
X20675944Y-19870072D01*
X20675939Y-19870072D01*
X20669487Y-19868700D01*
X20478513Y-19868700D01*
X20472061Y-19870072D01*
X20472056Y-19870072D01*
X20412954Y-19882635D01*
X20291712Y-19908406D01*
X20285685Y-19911089D01*
X20285677Y-19911092D01*
X20254307Y-19925059D01*
X20183940Y-19934493D01*
X20119643Y-19904386D01*
X20081830Y-19844297D01*
X20082507Y-19773303D01*
X20113964Y-19720857D01*
X23879446Y-15955375D01*
X23887736Y-15947831D01*
X23894217Y-15943718D01*
X23940858Y-15894050D01*
X23943612Y-15891209D01*
X23963333Y-15871488D01*
X23965811Y-15868293D01*
X23973517Y-15859271D01*
X23978660Y-15853794D01*
X24003785Y-15827039D01*
X24013545Y-15809286D01*
X24024398Y-15792763D01*
X24031952Y-15783024D01*
X24036812Y-15776759D01*
X24054375Y-15736175D01*
X24059582Y-15725545D01*
X24080894Y-15686778D01*
X24082865Y-15679101D01*
X24082867Y-15679096D01*
X24085931Y-15667160D01*
X24092337Y-15648448D01*
X24094813Y-15642728D01*
X24100380Y-15629863D01*
X24101620Y-15622035D01*
X24101622Y-15622028D01*
X24107298Y-15586194D01*
X24109704Y-15574574D01*
X24118727Y-15539429D01*
X24118727Y-15539428D01*
X24120699Y-15531748D01*
X24120699Y-15511494D01*
X24122250Y-15491783D01*
X24124179Y-15479604D01*
X24125419Y-15471775D01*
X24121258Y-15427756D01*
X24120699Y-15415899D01*
X24120699Y-13554924D01*
X24140701Y-13486803D01*
X24153057Y-13470621D01*
X24226239Y-13389344D01*
X24321726Y-13223956D01*
X24380741Y-13042328D01*
X24385421Y-12997806D01*
X24400013Y-12858965D01*
X24400703Y-12852400D01*
X24392936Y-12778500D01*
X24381431Y-12669035D01*
X24381431Y-12669033D01*
X24380741Y-12662472D01*
X24321726Y-12480844D01*
X24226239Y-12315456D01*
X24192036Y-12277469D01*
X24102874Y-12178445D01*
X24102873Y-12178444D01*
X24098452Y-12173534D01*
X23943951Y-12061282D01*
X23937923Y-12058598D01*
X23937921Y-12058597D01*
X23775518Y-11986291D01*
X23775517Y-11986291D01*
X23769487Y-11983606D01*
X23763032Y-11982234D01*
X23763029Y-11982233D01*
X23758855Y-11981346D01*
X23696382Y-11947618D01*
X23662060Y-11885469D01*
X23659741Y-11844929D01*
X23675513Y-11694864D01*
X23676203Y-11688299D01*
X23665793Y-11589249D01*
X23656931Y-11504934D01*
X23656931Y-11504932D01*
X23656241Y-11498371D01*
X23597226Y-11316743D01*
X23501739Y-11151355D01*
X23432449Y-11074400D01*
X23378374Y-11014344D01*
X23378373Y-11014343D01*
X23373952Y-11009433D01*
X23251098Y-10920174D01*
X23224793Y-10901062D01*
X23224792Y-10901061D01*
X23219451Y-10897181D01*
X23213423Y-10894497D01*
X23213421Y-10894496D01*
X23051018Y-10822190D01*
X23051017Y-10822190D01*
X23044987Y-10819505D01*
X22951586Y-10799652D01*
X22864643Y-10781171D01*
X22864638Y-10781171D01*
X22858186Y-10779799D01*
X22667212Y-10779799D01*
X22660760Y-10781171D01*
X22660755Y-10781171D01*
X22573811Y-10799652D01*
X22480411Y-10819505D01*
X22474384Y-10822188D01*
X22474376Y-10822191D01*
X22451548Y-10832355D01*
X22381181Y-10841789D01*
X22316884Y-10811682D01*
X22279071Y-10751593D01*
X22274300Y-10717248D01*
X22274300Y-9263195D01*
X22294302Y-9195074D01*
X22347958Y-9148581D01*
X22408913Y-9138629D01*
X22408913Y-9138100D01*
X22599887Y-9138100D01*
X22606339Y-9136728D01*
X22606344Y-9136728D01*
X22693288Y-9118247D01*
X22786688Y-9098394D01*
X22792719Y-9095709D01*
X22955122Y-9023403D01*
X22955124Y-9023402D01*
X22961152Y-9020718D01*
X23115653Y-8908466D01*
X23191989Y-8823686D01*
X23239021Y-8771452D01*
X23239022Y-8771451D01*
X23243440Y-8766544D01*
X23338927Y-8601156D01*
X23397942Y-8419528D01*
X23415002Y-8257216D01*
X23417214Y-8236165D01*
X23417904Y-8229600D01*
X23397942Y-8039672D01*
X23338927Y-7858044D01*
X23324410Y-7832900D01*
X23307672Y-7763905D01*
X23330892Y-7696813D01*
X23386699Y-7652926D01*
X23433529Y-7643900D01*
X30278246Y-7643900D01*
X30346367Y-7663902D01*
X30392860Y-7717558D01*
X30403858Y-7779784D01*
X30386526Y-8000000D01*
X30406391Y-8252403D01*
X30465495Y-8498591D01*
X30467388Y-8503162D01*
X30467389Y-8503164D01*
X30554043Y-8712364D01*
X30562384Y-8732502D01*
X30694672Y-8948376D01*
X30859102Y-9140898D01*
X31051624Y-9305328D01*
X31267498Y-9437616D01*
X31272068Y-9439509D01*
X31272072Y-9439511D01*
X31496836Y-9532611D01*
X31501409Y-9534505D01*
X31586032Y-9554821D01*
X31742784Y-9592454D01*
X31742790Y-9592455D01*
X31747597Y-9593609D01*
X31847416Y-9601465D01*
X31934345Y-9608307D01*
X31934352Y-9608307D01*
X31936801Y-9608500D01*
X32063199Y-9608500D01*
X32065648Y-9608307D01*
X32065655Y-9608307D01*
X32152584Y-9601465D01*
X32252403Y-9593609D01*
X32257210Y-9592455D01*
X32257216Y-9592454D01*
X32413968Y-9554821D01*
X32498591Y-9534505D01*
X32503164Y-9532611D01*
X32727928Y-9439511D01*
X32727932Y-9439509D01*
X32732502Y-9437616D01*
X32948376Y-9305328D01*
X33140898Y-9140898D01*
X33305328Y-8948376D01*
X33437616Y-8732502D01*
X33445958Y-8712364D01*
X33532611Y-8503164D01*
X33532612Y-8503162D01*
X33534505Y-8498591D01*
X33593609Y-8252403D01*
X33613474Y-8000000D01*
X33593609Y-7747597D01*
X33589342Y-7729820D01*
X33540240Y-7525298D01*
X33534505Y-7501409D01*
X33437616Y-7267498D01*
X33305328Y-7051624D01*
X33140898Y-6859102D01*
X32948376Y-6694672D01*
X32732502Y-6562384D01*
X32727932Y-6560491D01*
X32727928Y-6560489D01*
X32651305Y-6528751D01*
X32564287Y-6492707D01*
X32509007Y-6448160D01*
X32486586Y-6380797D01*
X32504144Y-6312005D01*
X32523411Y-6287204D01*
X33669810Y-5140805D01*
X33732122Y-5106779D01*
X33758905Y-5103900D01*
X35309000Y-5103900D01*
X35377121Y-5123902D01*
X35396347Y-5140243D01*
X35396620Y-5139940D01*
X35401532Y-5144363D01*
X35405947Y-5149266D01*
X35560448Y-5261518D01*
X35566476Y-5264202D01*
X35566478Y-5264203D01*
X35728881Y-5336509D01*
X35734912Y-5339194D01*
X35822267Y-5357762D01*
X35915256Y-5377528D01*
X35915261Y-5377528D01*
X35921713Y-5378900D01*
X36112687Y-5378900D01*
X36119139Y-5377528D01*
X36119144Y-5377528D01*
X36212133Y-5357762D01*
X36299488Y-5339194D01*
X36305519Y-5336509D01*
X36467922Y-5264203D01*
X36467924Y-5264202D01*
X36473952Y-5261518D01*
X36628453Y-5149266D01*
X36664759Y-5108944D01*
X36751821Y-5012252D01*
X36751822Y-5012251D01*
X36756240Y-5007344D01*
X36851727Y-4841956D01*
X36910742Y-4660328D01*
X36930704Y-4470400D01*
X36927146Y-4436548D01*
X36911432Y-4287035D01*
X36911432Y-4287033D01*
X36910742Y-4280472D01*
X36851727Y-4098844D01*
X36847972Y-4092339D01*
X36805687Y-4019100D01*
X36756240Y-3933456D01*
X36740082Y-3915510D01*
X36632875Y-3796445D01*
X36632874Y-3796444D01*
X36628453Y-3791534D01*
X36473952Y-3679282D01*
X36467924Y-3676598D01*
X36467922Y-3676597D01*
X36305519Y-3604291D01*
X36305518Y-3604291D01*
X36299488Y-3601606D01*
X36186921Y-3577679D01*
X36119144Y-3563272D01*
X36119139Y-3563272D01*
X36112687Y-3561900D01*
X35921713Y-3561900D01*
X35915261Y-3563272D01*
X35915256Y-3563272D01*
X35847479Y-3577679D01*
X35734912Y-3601606D01*
X35728882Y-3604291D01*
X35728881Y-3604291D01*
X35566478Y-3676597D01*
X35566476Y-3676598D01*
X35560448Y-3679282D01*
X35555107Y-3683162D01*
X35555106Y-3683163D01*
X35480533Y-3737344D01*
X35405947Y-3791534D01*
X35401532Y-3796437D01*
X35396620Y-3800860D01*
X35395495Y-3799611D01*
X35342186Y-3832451D01*
X35309000Y-3836900D01*
X33523074Y-3836900D01*
X33511890Y-3836373D01*
X33504402Y-3834699D01*
X33496479Y-3834948D01*
X33436344Y-3836838D01*
X33432386Y-3836900D01*
X33404455Y-3836900D01*
X33400540Y-3837395D01*
X33400536Y-3837395D01*
X33400478Y-3837403D01*
X33400449Y-3837406D01*
X33388607Y-3838339D01*
X33344421Y-3839727D01*
X33327055Y-3844772D01*
X33324969Y-3845378D01*
X33305617Y-3849386D01*
X33293379Y-3850932D01*
X33293377Y-3850933D01*
X33285514Y-3851926D01*
X33244397Y-3868206D01*
X33233196Y-3872041D01*
X33190717Y-3884382D01*
X33183898Y-3888415D01*
X33183893Y-3888417D01*
X33173282Y-3894693D01*
X33155532Y-3903390D01*
X33136694Y-3910848D01*
X33130278Y-3915509D01*
X33130277Y-3915510D01*
X33112332Y-3928548D01*
X33105817Y-3933282D01*
X33100936Y-3936828D01*
X33091012Y-3943347D01*
X33059771Y-3961822D01*
X33059766Y-3961826D01*
X33052948Y-3965858D01*
X33038624Y-3980182D01*
X33023592Y-3993021D01*
X33007204Y-4004928D01*
X32986340Y-4030148D01*
X32979023Y-4038993D01*
X32971033Y-4047773D01*
X30678811Y-6339995D01*
X30616499Y-6374021D01*
X30589716Y-6376900D01*
X22458394Y-6376900D01*
X22390273Y-6356898D01*
X22343780Y-6303242D01*
X22333676Y-6232968D01*
X22363170Y-6168388D01*
X22369299Y-6161805D01*
X23136299Y-5394805D01*
X23198611Y-5360779D01*
X23225394Y-5357900D01*
X27181000Y-5357900D01*
X27249121Y-5377902D01*
X27268347Y-5394243D01*
X27268620Y-5393940D01*
X27273532Y-5398363D01*
X27277947Y-5403266D01*
X27284503Y-5408029D01*
X27413449Y-5501714D01*
X27432448Y-5515518D01*
X27438476Y-5518202D01*
X27438478Y-5518203D01*
X27536276Y-5561745D01*
X27606912Y-5593194D01*
X27700312Y-5613047D01*
X27787256Y-5631528D01*
X27787261Y-5631528D01*
X27793713Y-5632900D01*
X27984687Y-5632900D01*
X27991139Y-5631528D01*
X27991144Y-5631528D01*
X28078088Y-5613047D01*
X28171488Y-5593194D01*
X28242124Y-5561745D01*
X28339922Y-5518203D01*
X28339924Y-5518202D01*
X28345952Y-5515518D01*
X28364952Y-5501714D01*
X28416504Y-5464259D01*
X28500453Y-5403266D01*
X28534185Y-5365803D01*
X28623821Y-5266252D01*
X28623822Y-5266251D01*
X28628240Y-5261344D01*
X28707648Y-5123806D01*
X28720423Y-5101679D01*
X28720424Y-5101678D01*
X28723727Y-5095956D01*
X28782742Y-4914328D01*
X28789752Y-4847637D01*
X28802014Y-4730965D01*
X28802704Y-4724400D01*
X28782742Y-4534472D01*
X28723727Y-4352844D01*
X28716229Y-4339856D01*
X28678318Y-4274194D01*
X28628240Y-4187456D01*
X28618346Y-4176467D01*
X28504875Y-4050445D01*
X28504874Y-4050444D01*
X28500453Y-4045534D01*
X28371579Y-3951901D01*
X28351294Y-3937163D01*
X28351293Y-3937162D01*
X28345952Y-3933282D01*
X28339924Y-3930598D01*
X28339922Y-3930597D01*
X28177519Y-3858291D01*
X28177518Y-3858291D01*
X28171488Y-3855606D01*
X28062553Y-3832451D01*
X27991144Y-3817272D01*
X27991139Y-3817272D01*
X27984687Y-3815900D01*
X27793713Y-3815900D01*
X27787261Y-3817272D01*
X27787256Y-3817272D01*
X27715847Y-3832451D01*
X27606912Y-3855606D01*
X27600882Y-3858291D01*
X27600881Y-3858291D01*
X27438478Y-3930597D01*
X27438476Y-3930598D01*
X27432448Y-3933282D01*
X27427107Y-3937162D01*
X27427106Y-3937163D01*
X27333836Y-4004928D01*
X27277947Y-4045534D01*
X27273532Y-4050437D01*
X27268620Y-4054860D01*
X27267495Y-4053611D01*
X27214186Y-4086451D01*
X27181000Y-4090900D01*
X22989563Y-4090900D01*
X22978379Y-4090373D01*
X22970891Y-4088699D01*
X22962968Y-4088948D01*
X22902833Y-4090838D01*
X22898875Y-4090900D01*
X22870944Y-4090900D01*
X22867029Y-4091395D01*
X22867025Y-4091395D01*
X22866967Y-4091403D01*
X22866938Y-4091406D01*
X22855096Y-4092339D01*
X22810910Y-4093727D01*
X22793899Y-4098669D01*
X22791458Y-4099378D01*
X22772106Y-4103386D01*
X22765035Y-4104280D01*
X22752003Y-4105926D01*
X22744634Y-4108843D01*
X22744632Y-4108844D01*
X22710897Y-4122200D01*
X22699669Y-4126045D01*
X22657207Y-4138382D01*
X22650385Y-4142416D01*
X22650379Y-4142419D01*
X22639768Y-4148694D01*
X22622018Y-4157390D01*
X22610556Y-4161928D01*
X22610551Y-4161931D01*
X22603183Y-4164848D01*
X22592480Y-4172624D01*
X22567425Y-4190827D01*
X22557507Y-4197343D01*
X22541637Y-4206729D01*
X22519437Y-4219858D01*
X22505113Y-4234182D01*
X22490081Y-4247021D01*
X22473693Y-4258928D01*
X22450441Y-4287035D01*
X22445512Y-4292993D01*
X22437522Y-4301773D01*
X21920619Y-4818676D01*
X21858307Y-4852702D01*
X21787492Y-4847637D01*
X21730656Y-4805090D01*
X21705845Y-4738570D01*
X21711690Y-4690648D01*
X21721542Y-4660328D01*
X21741504Y-4470400D01*
X21737946Y-4436548D01*
X21722232Y-4287035D01*
X21722232Y-4287033D01*
X21721542Y-4280472D01*
X21662527Y-4098844D01*
X21658772Y-4092339D01*
X21616487Y-4019100D01*
X21567040Y-3933456D01*
X21550882Y-3915510D01*
X21443675Y-3796445D01*
X21443674Y-3796444D01*
X21439253Y-3791534D01*
X21284752Y-3679282D01*
X21278724Y-3676598D01*
X21278722Y-3676597D01*
X21116319Y-3604291D01*
X21116318Y-3604291D01*
X21110288Y-3601606D01*
X20997721Y-3577679D01*
X20929944Y-3563272D01*
X20929939Y-3563272D01*
X20923487Y-3561900D01*
X20732513Y-3561900D01*
X20726061Y-3563272D01*
X20726056Y-3563272D01*
X20658279Y-3577679D01*
X20545712Y-3601606D01*
X20539682Y-3604291D01*
X20539681Y-3604291D01*
X20377278Y-3676597D01*
X20377276Y-3676598D01*
X20371248Y-3679282D01*
X20216747Y-3791534D01*
X20212326Y-3796444D01*
X20212325Y-3796445D01*
X20105119Y-3915510D01*
X20088960Y-3933456D01*
X20039513Y-4019100D01*
X19997229Y-4092339D01*
X19993473Y-4098844D01*
X19991431Y-4105129D01*
X19984479Y-4126525D01*
X19944406Y-4185131D01*
X19879009Y-4212768D01*
X19809053Y-4200661D01*
X19790586Y-4189526D01*
X19772612Y-4176467D01*
X19761982Y-4168744D01*
X19755954Y-4166060D01*
X19755952Y-4166059D01*
X19593549Y-4093753D01*
X19593548Y-4093753D01*
X19587518Y-4091068D01*
X19487931Y-4069900D01*
X19407174Y-4052734D01*
X19407169Y-4052734D01*
X19400717Y-4051362D01*
X19209743Y-4051362D01*
X19203291Y-4052734D01*
X19203286Y-4052734D01*
X19122529Y-4069900D01*
X19022942Y-4091068D01*
X19016912Y-4093753D01*
X19016911Y-4093753D01*
X18854508Y-4166059D01*
X18854506Y-4166060D01*
X18848478Y-4168744D01*
X18843137Y-4172624D01*
X18843136Y-4172625D01*
X18804847Y-4200444D01*
X18693977Y-4280996D01*
X18620818Y-4362248D01*
X18560373Y-4399486D01*
X18489389Y-4398134D01*
X18430405Y-4358620D01*
X18424892Y-4350723D01*
X18424624Y-4350918D01*
X18420741Y-4345574D01*
X18417440Y-4339856D01*
X18383237Y-4301869D01*
X18294075Y-4202845D01*
X18294074Y-4202844D01*
X18289653Y-4197934D01*
X18171776Y-4112291D01*
X18140494Y-4089563D01*
X18140493Y-4089562D01*
X18135152Y-4085682D01*
X18129124Y-4082998D01*
X18129122Y-4082997D01*
X17966719Y-4010691D01*
X17966718Y-4010691D01*
X17960688Y-4008006D01*
X17862785Y-3987196D01*
X17780344Y-3969672D01*
X17780339Y-3969672D01*
X17773887Y-3968300D01*
X17582913Y-3968300D01*
X17576461Y-3969672D01*
X17576456Y-3969672D01*
X17494015Y-3987196D01*
X17396112Y-4008006D01*
X17390082Y-4010691D01*
X17390081Y-4010691D01*
X17227678Y-4082997D01*
X17227676Y-4082998D01*
X17221648Y-4085682D01*
X17216307Y-4089562D01*
X17216306Y-4089563D01*
X17185024Y-4112291D01*
X17067147Y-4197934D01*
X17062726Y-4202844D01*
X17062725Y-4202845D01*
X16973564Y-4301869D01*
X16939360Y-4339856D01*
X16869189Y-4461396D01*
X16817808Y-4510388D01*
X16748094Y-4523825D01*
X16682183Y-4497438D01*
X16650952Y-4461396D01*
X16639440Y-4441456D01*
X16622749Y-4422918D01*
X16516075Y-4304445D01*
X16516074Y-4304444D01*
X16511653Y-4299534D01*
X16385704Y-4208026D01*
X16362494Y-4191163D01*
X16362493Y-4191162D01*
X16357152Y-4187282D01*
X16351124Y-4184598D01*
X16351122Y-4184597D01*
X16188719Y-4112291D01*
X16188718Y-4112291D01*
X16182688Y-4109606D01*
X16073753Y-4086451D01*
X16002344Y-4071272D01*
X16002339Y-4071272D01*
X15995887Y-4069900D01*
X15804913Y-4069900D01*
X15798461Y-4071272D01*
X15798456Y-4071272D01*
X15727047Y-4086451D01*
X15618112Y-4109606D01*
X15612082Y-4112291D01*
X15612081Y-4112291D01*
X15449678Y-4184597D01*
X15449676Y-4184598D01*
X15443648Y-4187282D01*
X15438307Y-4191162D01*
X15438306Y-4191163D01*
X15415096Y-4208026D01*
X15289147Y-4299534D01*
X15284726Y-4304444D01*
X15284725Y-4304445D01*
X15178052Y-4422918D01*
X15161360Y-4441456D01*
X15144649Y-4470400D01*
X15089781Y-4565435D01*
X15065873Y-4606844D01*
X15006858Y-4788472D01*
X15006168Y-4795033D01*
X15006168Y-4795035D01*
X15000635Y-4847679D01*
X14986896Y-4978400D01*
X14987586Y-4984965D01*
X15005263Y-5153149D01*
X15006858Y-5168328D01*
X15065873Y-5349956D01*
X15161360Y-5515344D01*
X15165778Y-5520251D01*
X15165779Y-5520252D01*
X15284725Y-5652355D01*
X15289147Y-5657266D01*
X15345891Y-5698493D01*
X15410720Y-5745594D01*
X15443648Y-5769518D01*
X15449676Y-5772202D01*
X15449678Y-5772203D01*
X15593194Y-5836100D01*
X15618112Y-5847194D01*
X15711244Y-5866990D01*
X15798456Y-5885528D01*
X15798461Y-5885528D01*
X15804913Y-5886900D01*
X15995887Y-5886900D01*
X16002339Y-5885528D01*
X16002344Y-5885528D01*
X16089556Y-5866990D01*
X16182688Y-5847194D01*
X16207606Y-5836100D01*
X16351122Y-5772203D01*
X16351124Y-5772202D01*
X16357152Y-5769518D01*
X16390081Y-5745594D01*
X16454909Y-5698493D01*
X16511653Y-5657266D01*
X16516075Y-5652355D01*
X16635021Y-5520252D01*
X16635022Y-5520251D01*
X16639440Y-5515344D01*
X16709612Y-5393803D01*
X16760992Y-5344812D01*
X16830706Y-5331375D01*
X16896617Y-5357762D01*
X16927847Y-5393803D01*
X16939360Y-5413744D01*
X16943778Y-5418651D01*
X16943779Y-5418652D01*
X17062725Y-5550755D01*
X17067147Y-5555666D01*
X17166243Y-5627664D01*
X17181472Y-5638728D01*
X17221648Y-5667918D01*
X17227674Y-5670601D01*
X17227681Y-5670605D01*
X17386032Y-5741106D01*
X17440128Y-5787086D01*
X17460778Y-5855013D01*
X17441426Y-5923321D01*
X17423879Y-5945308D01*
X16727347Y-6641840D01*
X16719061Y-6649380D01*
X16712582Y-6653492D01*
X16707157Y-6659269D01*
X16665957Y-6703143D01*
X16663202Y-6705985D01*
X16643465Y-6725722D01*
X16640985Y-6728919D01*
X16633282Y-6737939D01*
X16603014Y-6770171D01*
X16599195Y-6777117D01*
X16599193Y-6777120D01*
X16593252Y-6787926D01*
X16582401Y-6804445D01*
X16569986Y-6820451D01*
X16566841Y-6827720D01*
X16566838Y-6827724D01*
X16552426Y-6861029D01*
X16547209Y-6871679D01*
X16525905Y-6910432D01*
X16523934Y-6918107D01*
X16523934Y-6918108D01*
X16520867Y-6930054D01*
X16514463Y-6948758D01*
X16506419Y-6967347D01*
X16505180Y-6975170D01*
X16505177Y-6975180D01*
X16499501Y-7011016D01*
X16497095Y-7022636D01*
X16486100Y-7065462D01*
X16486100Y-7085716D01*
X16484549Y-7105426D01*
X16481380Y-7125435D01*
X16482126Y-7133327D01*
X16485541Y-7169453D01*
X16486100Y-7181311D01*
X16486100Y-7615206D01*
X16466098Y-7683327D01*
X16412442Y-7729820D01*
X16342168Y-7739924D01*
X16277588Y-7710430D01*
X16271005Y-7704301D01*
X12949652Y-4382947D01*
X12942112Y-4374661D01*
X12938000Y-4368182D01*
X12928360Y-4359129D01*
X12888349Y-4321557D01*
X12885507Y-4318802D01*
X12865770Y-4299065D01*
X12862573Y-4296585D01*
X12853551Y-4288880D01*
X12850381Y-4285903D01*
X12821321Y-4258614D01*
X12814375Y-4254795D01*
X12814372Y-4254793D01*
X12803566Y-4248852D01*
X12787047Y-4238001D01*
X12782123Y-4234182D01*
X12771041Y-4225586D01*
X12763772Y-4222441D01*
X12763768Y-4222438D01*
X12730463Y-4208026D01*
X12719813Y-4202809D01*
X12681060Y-4181505D01*
X12661437Y-4176467D01*
X12642734Y-4170063D01*
X12631420Y-4165167D01*
X12631419Y-4165167D01*
X12624145Y-4162019D01*
X12616322Y-4160780D01*
X12616312Y-4160777D01*
X12580476Y-4155101D01*
X12568856Y-4152695D01*
X12533711Y-4143672D01*
X12533710Y-4143672D01*
X12526030Y-4141700D01*
X12505776Y-4141700D01*
X12486065Y-4140149D01*
X12469469Y-4137520D01*
X12469463Y-4137519D01*
X12466057Y-4136980D01*
X12466094Y-4136748D01*
X12425018Y-4127339D01*
X12277123Y-4061492D01*
X12277115Y-4061489D01*
X12271088Y-4058806D01*
X12158154Y-4034801D01*
X12090744Y-4020472D01*
X12090739Y-4020472D01*
X12084287Y-4019100D01*
X11893313Y-4019100D01*
X11886861Y-4020472D01*
X11886856Y-4020472D01*
X11819446Y-4034801D01*
X11706512Y-4058806D01*
X11700482Y-4061491D01*
X11700481Y-4061491D01*
X11538078Y-4133797D01*
X11538076Y-4133798D01*
X11532048Y-4136482D01*
X11526707Y-4140362D01*
X11526706Y-4140363D01*
X11506421Y-4155101D01*
X11377547Y-4248734D01*
X11373126Y-4253644D01*
X11373125Y-4253645D01*
X11269996Y-4368182D01*
X11249760Y-4390656D01*
X11223264Y-4436548D01*
X11166728Y-4534472D01*
X11154273Y-4556044D01*
X11095258Y-4737672D01*
X11094568Y-4744233D01*
X11094568Y-4744235D01*
X11089919Y-4788472D01*
X11075296Y-4927600D01*
X11075986Y-4934165D01*
X11093826Y-5103900D01*
X11095258Y-5117528D01*
X11154273Y-5299156D01*
X11157576Y-5304878D01*
X11157577Y-5304879D01*
X11183283Y-5349403D01*
X11249760Y-5464544D01*
X11254178Y-5469451D01*
X11254179Y-5469452D01*
X11335303Y-5559549D01*
X11377547Y-5606466D01*
X11532048Y-5718718D01*
X11538076Y-5721402D01*
X11538078Y-5721403D01*
X11700479Y-5793708D01*
X11706512Y-5796394D01*
X11799913Y-5816247D01*
X11886856Y-5834728D01*
X11886861Y-5834728D01*
X11893313Y-5836100D01*
X12084287Y-5836100D01*
X12090739Y-5834728D01*
X12090744Y-5834728D01*
X12177687Y-5816247D01*
X12271088Y-5796394D01*
X12277115Y-5793711D01*
X12277123Y-5793708D01*
X12399699Y-5739134D01*
X12470066Y-5729700D01*
X12534363Y-5759807D01*
X12540042Y-5765146D01*
X15636395Y-8861500D01*
X15670421Y-8923812D01*
X15673300Y-8950595D01*
X15673300Y-11337076D01*
X15653298Y-11405197D01*
X15640942Y-11421379D01*
X15567760Y-11502656D01*
X15472273Y-11668044D01*
X15470231Y-11674329D01*
X15445484Y-11750492D01*
X15405411Y-11809098D01*
X15340014Y-11836735D01*
X15270057Y-11824628D01*
X15236556Y-11800651D01*
X7615652Y-4179747D01*
X7608112Y-4171461D01*
X7604000Y-4164982D01*
X7592490Y-4154173D01*
X7562536Y-4126045D01*
X7554348Y-4118356D01*
X7551507Y-4115602D01*
X7531770Y-4095865D01*
X7528573Y-4093385D01*
X7519551Y-4085680D01*
X7493100Y-4060841D01*
X7487321Y-4055414D01*
X7480375Y-4051595D01*
X7480372Y-4051593D01*
X7469566Y-4045652D01*
X7453047Y-4034801D01*
X7447048Y-4030148D01*
X7437041Y-4022386D01*
X7429772Y-4019241D01*
X7429768Y-4019238D01*
X7396463Y-4004826D01*
X7385813Y-3999609D01*
X7347060Y-3978305D01*
X7327437Y-3973267D01*
X7308734Y-3966863D01*
X7297420Y-3961967D01*
X7297419Y-3961967D01*
X7290145Y-3958819D01*
X7282322Y-3957580D01*
X7282312Y-3957577D01*
X7246476Y-3951901D01*
X7234856Y-3949495D01*
X7199711Y-3940472D01*
X7199710Y-3940472D01*
X7192030Y-3938500D01*
X7171776Y-3938500D01*
X7152065Y-3936949D01*
X7139886Y-3935020D01*
X7132057Y-3933780D01*
X7124165Y-3934526D01*
X7088039Y-3937941D01*
X7076181Y-3938500D01*
X5106527Y-3938500D01*
X5038406Y-3918498D01*
X4991913Y-3864842D01*
X4981809Y-3794568D01*
X5004046Y-3739781D01*
X5006240Y-3737344D01*
X5101727Y-3571956D01*
X5160742Y-3390328D01*
X5180704Y-3200400D01*
X5160742Y-3010472D01*
X5101727Y-2828844D01*
X5006240Y-2663456D01*
X4878453Y-2521534D01*
X4723952Y-2409282D01*
X4717924Y-2406598D01*
X4717922Y-2406597D01*
X4555519Y-2334291D01*
X4555518Y-2334291D01*
X4549488Y-2331606D01*
X4456088Y-2311753D01*
X4369144Y-2293272D01*
X4369139Y-2293272D01*
X4362687Y-2291900D01*
X4171713Y-2291900D01*
X4165261Y-2293272D01*
X4165256Y-2293272D01*
X4078312Y-2311753D01*
X3984912Y-2331606D01*
X3978882Y-2334291D01*
X3978881Y-2334291D01*
X3816478Y-2406597D01*
X3816476Y-2406598D01*
X3810448Y-2409282D01*
X3655947Y-2521534D01*
X3528160Y-2663456D01*
X3432673Y-2828844D01*
X3373658Y-3010472D01*
X3353696Y-3200400D01*
X3373658Y-3390328D01*
X3432673Y-3571956D01*
X3435976Y-3577678D01*
X3435977Y-3577679D01*
X3497503Y-3684244D01*
X3514241Y-3753239D01*
X3491021Y-3820331D01*
X3462447Y-3849178D01*
X3436264Y-3868201D01*
X3421035Y-3879266D01*
X3401947Y-3893134D01*
X3397526Y-3898044D01*
X3397525Y-3898045D01*
X3288403Y-4019238D01*
X3274160Y-4035056D01*
X3229568Y-4112291D01*
X3184977Y-4189526D01*
X3178673Y-4200444D01*
X3119658Y-4382072D01*
X3118968Y-4388633D01*
X3118968Y-4388635D01*
X3101975Y-4550321D01*
X3099696Y-4572000D01*
X3100386Y-4578565D01*
X3117618Y-4742515D01*
X3119658Y-4761928D01*
X3178673Y-4943556D01*
X3181976Y-4949278D01*
X3181977Y-4949279D01*
X3212200Y-5001626D01*
X3274160Y-5108944D01*
X3278578Y-5113851D01*
X3278579Y-5113852D01*
X3333282Y-5174606D01*
X3401947Y-5250866D01*
X3476289Y-5304879D01*
X3529682Y-5343671D01*
X3556448Y-5363118D01*
X3562476Y-5365802D01*
X3562478Y-5365803D01*
X3657320Y-5408029D01*
X3730912Y-5440794D01*
X3824312Y-5460647D01*
X3911256Y-5479128D01*
X3911261Y-5479128D01*
X3917713Y-5480500D01*
X4108687Y-5480500D01*
X4115139Y-5479128D01*
X4115144Y-5479128D01*
X4202088Y-5460647D01*
X4295488Y-5440794D01*
X4369080Y-5408029D01*
X4463922Y-5365803D01*
X4463924Y-5365802D01*
X4469952Y-5363118D01*
X4496719Y-5343671D01*
X4617901Y-5255626D01*
X4624453Y-5250866D01*
X4628868Y-5245963D01*
X4633780Y-5241540D01*
X4634905Y-5242789D01*
X4688214Y-5209949D01*
X4721400Y-5205500D01*
X6797406Y-5205500D01*
X6865527Y-5225502D01*
X6886501Y-5242405D01*
X7835125Y-6191029D01*
X7869151Y-6253341D01*
X7864086Y-6324156D01*
X7821539Y-6380992D01*
X7757413Y-6405172D01*
X7757422Y-6405228D01*
X7757151Y-6405271D01*
X7755920Y-6405735D01*
X7752542Y-6406001D01*
X7752532Y-6406003D01*
X7747597Y-6406391D01*
X7742790Y-6407545D01*
X7742784Y-6407546D01*
X7625169Y-6435783D01*
X7501409Y-6465495D01*
X7496838Y-6467388D01*
X7496836Y-6467389D01*
X7272072Y-6560489D01*
X7272068Y-6560491D01*
X7267498Y-6562384D01*
X7051624Y-6694672D01*
X6859102Y-6859102D01*
X6694672Y-7051624D01*
X6562384Y-7267498D01*
X6465495Y-7501409D01*
X6459760Y-7525298D01*
X6410659Y-7729820D01*
X6406391Y-7747597D01*
X6386526Y-8000000D01*
X6406391Y-8252403D01*
X6465495Y-8498591D01*
X6467388Y-8503162D01*
X6467389Y-8503164D01*
X6554043Y-8712364D01*
X6562384Y-8732502D01*
X6694672Y-8948376D01*
X6859102Y-9140898D01*
X7051624Y-9305328D01*
X7267498Y-9437616D01*
X7272068Y-9439509D01*
X7272072Y-9439511D01*
X7496836Y-9532611D01*
X7501409Y-9534505D01*
X7586032Y-9554821D01*
X7742784Y-9592454D01*
X7742790Y-9592455D01*
X7747597Y-9593609D01*
X7847416Y-9601465D01*
X7934345Y-9608307D01*
X7934352Y-9608307D01*
X7936801Y-9608500D01*
X8063199Y-9608500D01*
X8065648Y-9608307D01*
X8065655Y-9608307D01*
X8152584Y-9601465D01*
X8252403Y-9593609D01*
X8257210Y-9592455D01*
X8257216Y-9592454D01*
X8413968Y-9554821D01*
X8498591Y-9534505D01*
X8503164Y-9532611D01*
X8727928Y-9439511D01*
X8727932Y-9439509D01*
X8732502Y-9437616D01*
X8948376Y-9305328D01*
X9140898Y-9140898D01*
X9305328Y-8948376D01*
X9437616Y-8732502D01*
X9445958Y-8712364D01*
X9532611Y-8503164D01*
X9532612Y-8503162D01*
X9534505Y-8498591D01*
X9593609Y-8252403D01*
X9593997Y-8247468D01*
X9593999Y-8247458D01*
X9594265Y-8244080D01*
X9594725Y-8242872D01*
X9594772Y-8242578D01*
X9594834Y-8242588D01*
X9619552Y-8177739D01*
X9676692Y-8135602D01*
X9747542Y-8131045D01*
X9808971Y-8164875D01*
X16684430Y-15040334D01*
X16718456Y-15102646D01*
X16715168Y-15168364D01*
X16693829Y-15234039D01*
X16653755Y-15292644D01*
X16588358Y-15320281D01*
X16518401Y-15308174D01*
X16484901Y-15284197D01*
X15077121Y-13876416D01*
X13559252Y-12358547D01*
X13551712Y-12350261D01*
X13547600Y-12343782D01*
X13497948Y-12297156D01*
X13495107Y-12294402D01*
X13475370Y-12274665D01*
X13472173Y-12272185D01*
X13463151Y-12264480D01*
X13436700Y-12239641D01*
X13430921Y-12234214D01*
X13423975Y-12230395D01*
X13423972Y-12230393D01*
X13413166Y-12224452D01*
X13396647Y-12213601D01*
X13390648Y-12208948D01*
X13380641Y-12201186D01*
X13373372Y-12198041D01*
X13373368Y-12198038D01*
X13340063Y-12183626D01*
X13329413Y-12178409D01*
X13290660Y-12157105D01*
X13271037Y-12152067D01*
X13252334Y-12145663D01*
X13241020Y-12140767D01*
X13241019Y-12140767D01*
X13233745Y-12137619D01*
X13225922Y-12136380D01*
X13225912Y-12136377D01*
X13190076Y-12130701D01*
X13178456Y-12128295D01*
X13143311Y-12119272D01*
X13143310Y-12119272D01*
X13135630Y-12117300D01*
X13115376Y-12117300D01*
X13095665Y-12115749D01*
X13083486Y-12113820D01*
X13075657Y-12112580D01*
X13034178Y-12116501D01*
X13031639Y-12116741D01*
X13019781Y-12117300D01*
X12161720Y-12117300D01*
X12093599Y-12097298D01*
X12047106Y-12043642D01*
X12036410Y-12004471D01*
X12019432Y-11842935D01*
X12019432Y-11842933D01*
X12018742Y-11836372D01*
X11959727Y-11654744D01*
X11864240Y-11489356D01*
X11819504Y-11439671D01*
X11740875Y-11352345D01*
X11740874Y-11352344D01*
X11736453Y-11347434D01*
X11581952Y-11235182D01*
X11575924Y-11232498D01*
X11575922Y-11232497D01*
X11413519Y-11160191D01*
X11413518Y-11160191D01*
X11407488Y-11157506D01*
X11314088Y-11137653D01*
X11227144Y-11119172D01*
X11227139Y-11119172D01*
X11220687Y-11117800D01*
X11029713Y-11117800D01*
X11023261Y-11119172D01*
X11023256Y-11119172D01*
X10936312Y-11137653D01*
X10842912Y-11157506D01*
X10836882Y-11160191D01*
X10836881Y-11160191D01*
X10674478Y-11232497D01*
X10674476Y-11232498D01*
X10668448Y-11235182D01*
X10513947Y-11347434D01*
X10509526Y-11352344D01*
X10509525Y-11352345D01*
X10430897Y-11439671D01*
X10386160Y-11489356D01*
X10290673Y-11654744D01*
X10231658Y-11836372D01*
X10230968Y-11842933D01*
X10230968Y-11842935D01*
X10213990Y-12004471D01*
X10186977Y-12070127D01*
X10128755Y-12110757D01*
X10088680Y-12117300D01*
X4823000Y-12117300D01*
X4754879Y-12097298D01*
X4735653Y-12080957D01*
X4735380Y-12081260D01*
X4730468Y-12076837D01*
X4726053Y-12071934D01*
X4668238Y-12029929D01*
X4576894Y-11963563D01*
X4576893Y-11963562D01*
X4571552Y-11959682D01*
X4565524Y-11956998D01*
X4565522Y-11956997D01*
X4403119Y-11884691D01*
X4403118Y-11884691D01*
X4397088Y-11882006D01*
X4285354Y-11858256D01*
X4216744Y-11843672D01*
X4216739Y-11843672D01*
X4210287Y-11842300D01*
X4019313Y-11842300D01*
X4012861Y-11843672D01*
X4012856Y-11843672D01*
X3944246Y-11858256D01*
X3832512Y-11882006D01*
X3826482Y-11884691D01*
X3826481Y-11884691D01*
X3664078Y-11956997D01*
X3664076Y-11956998D01*
X3658048Y-11959682D01*
X3652707Y-11963562D01*
X3652706Y-11963563D01*
X3621424Y-11986291D01*
X3503547Y-12071934D01*
X3499126Y-12076844D01*
X3499125Y-12076845D01*
X3390003Y-12198038D01*
X3375760Y-12213856D01*
X3360873Y-12239641D01*
X3287772Y-12366256D01*
X3280273Y-12379244D01*
X3221258Y-12560872D01*
X3220568Y-12567433D01*
X3220568Y-12567435D01*
X3201986Y-12744235D01*
X3201296Y-12750800D01*
X3201986Y-12757365D01*
X3217860Y-12908394D01*
X3221258Y-12940728D01*
X3280273Y-13122356D01*
X3375760Y-13287744D01*
X3380178Y-13292651D01*
X3380179Y-13292652D01*
X3480709Y-13404302D01*
X3503547Y-13429666D01*
X3658048Y-13541918D01*
X3664076Y-13544602D01*
X3664078Y-13544603D01*
X3826481Y-13616909D01*
X3832512Y-13619594D01*
X3925912Y-13639447D01*
X4012856Y-13657928D01*
X4012861Y-13657928D01*
X4019313Y-13659300D01*
X4210287Y-13659300D01*
X4216739Y-13657928D01*
X4216744Y-13657928D01*
X4303688Y-13639447D01*
X4397088Y-13619594D01*
X4403119Y-13616909D01*
X4565522Y-13544603D01*
X4565524Y-13544602D01*
X4571552Y-13541918D01*
X4643343Y-13489759D01*
X4719501Y-13434426D01*
X4726053Y-13429666D01*
X4730468Y-13424763D01*
X4735380Y-13420340D01*
X4736505Y-13421589D01*
X4789814Y-13388749D01*
X4823000Y-13384300D01*
X12741006Y-13384300D01*
X12809127Y-13404302D01*
X12830101Y-13421205D01*
X14769492Y-15360597D01*
X16666748Y-17257853D01*
X16674288Y-17266139D01*
X16678400Y-17272618D01*
X16684177Y-17278043D01*
X16728051Y-17319243D01*
X16730893Y-17321998D01*
X16750630Y-17341735D01*
X16753827Y-17344215D01*
X16762847Y-17351918D01*
X16795079Y-17382186D01*
X16802025Y-17386005D01*
X16802028Y-17386007D01*
X16812834Y-17391948D01*
X16829353Y-17402799D01*
X16845359Y-17415214D01*
X16852628Y-17418359D01*
X16852632Y-17418362D01*
X16885937Y-17432774D01*
X16896587Y-17437991D01*
X16935340Y-17459295D01*
X16943015Y-17461266D01*
X16943016Y-17461266D01*
X16954962Y-17464333D01*
X16973666Y-17470737D01*
X16980828Y-17473836D01*
X16992255Y-17478781D01*
X17000078Y-17480020D01*
X17000088Y-17480023D01*
X17035924Y-17485699D01*
X17047544Y-17488105D01*
X17079359Y-17496273D01*
X17090370Y-17499100D01*
X17110624Y-17499100D01*
X17130334Y-17500651D01*
X17150343Y-17503820D01*
X17158235Y-17503074D01*
X17183867Y-17500651D01*
X17194362Y-17499659D01*
X17206219Y-17499100D01*
X19580833Y-17499100D01*
X19592021Y-17499628D01*
X19599509Y-17501302D01*
X19607427Y-17501053D01*
X19613866Y-17501662D01*
X19679801Y-17527988D01*
X19721035Y-17585783D01*
X19724478Y-17656696D01*
X19691098Y-17716197D01*
X18621300Y-18785995D01*
X18558988Y-18820021D01*
X18532205Y-18822900D01*
X13217795Y-18822900D01*
X13149674Y-18802898D01*
X13128700Y-18785995D01*
X12187652Y-17844947D01*
X12180112Y-17836661D01*
X12176000Y-17830182D01*
X12126348Y-17783556D01*
X12123507Y-17780802D01*
X12103770Y-17761065D01*
X12100573Y-17758585D01*
X12091551Y-17750880D01*
X12078122Y-17738269D01*
X12059321Y-17720614D01*
X12052375Y-17716795D01*
X12052372Y-17716793D01*
X12041566Y-17710852D01*
X12025047Y-17700001D01*
X12024583Y-17699641D01*
X12009041Y-17687586D01*
X12001772Y-17684441D01*
X12001768Y-17684438D01*
X11968463Y-17670026D01*
X11957813Y-17664809D01*
X11919060Y-17643505D01*
X11899437Y-17638467D01*
X11880734Y-17632063D01*
X11869420Y-17627167D01*
X11869419Y-17627167D01*
X11862145Y-17624019D01*
X11854322Y-17622780D01*
X11854312Y-17622777D01*
X11818476Y-17617101D01*
X11806856Y-17614695D01*
X11771711Y-17605672D01*
X11771710Y-17605672D01*
X11764030Y-17603700D01*
X11743776Y-17603700D01*
X11724065Y-17602149D01*
X11711886Y-17600220D01*
X11704057Y-17598980D01*
X11674786Y-17601747D01*
X11660039Y-17603141D01*
X11648181Y-17603700D01*
X11254767Y-17603700D01*
X11243584Y-17603173D01*
X11236091Y-17601498D01*
X11228165Y-17601747D01*
X11228164Y-17601747D01*
X11168001Y-17603638D01*
X11164043Y-17603700D01*
X11136144Y-17603700D01*
X11132154Y-17604204D01*
X11120320Y-17605136D01*
X11076111Y-17606526D01*
X11068497Y-17608738D01*
X11068492Y-17608739D01*
X11056659Y-17612177D01*
X11037296Y-17616188D01*
X11017203Y-17618726D01*
X11009836Y-17621643D01*
X11009831Y-17621644D01*
X10976092Y-17635002D01*
X10964865Y-17638846D01*
X10922407Y-17651182D01*
X10915581Y-17655219D01*
X10904972Y-17661493D01*
X10887224Y-17670188D01*
X10868383Y-17677648D01*
X10861967Y-17682310D01*
X10861966Y-17682310D01*
X10832613Y-17703636D01*
X10822693Y-17710152D01*
X10791465Y-17728620D01*
X10791462Y-17728622D01*
X10784638Y-17732658D01*
X10770317Y-17746979D01*
X10755284Y-17759819D01*
X10738893Y-17771728D01*
X10730217Y-17782216D01*
X10710702Y-17805805D01*
X10702712Y-17814584D01*
X8027767Y-20489528D01*
X7965457Y-20523553D01*
X7894642Y-20518488D01*
X7837806Y-20475941D01*
X7812995Y-20409421D01*
X7818841Y-20361496D01*
X7845353Y-20279900D01*
X7853142Y-20255928D01*
X7859528Y-20195174D01*
X7872414Y-20072565D01*
X7873104Y-20066000D01*
X7856823Y-19911091D01*
X7853832Y-19882635D01*
X7853832Y-19882633D01*
X7853142Y-19876072D01*
X7794127Y-19694444D01*
X7781685Y-19672893D01*
X7728047Y-19579990D01*
X7698640Y-19529056D01*
X7570853Y-19387134D01*
X7416352Y-19274882D01*
X7410324Y-19272198D01*
X7410322Y-19272197D01*
X7247919Y-19199891D01*
X7247918Y-19199891D01*
X7241888Y-19197206D01*
X7148488Y-19177353D01*
X7061544Y-19158872D01*
X7061539Y-19158872D01*
X7055087Y-19157500D01*
X6999195Y-19157500D01*
X6931074Y-19137498D01*
X6910100Y-19120595D01*
X5810963Y-18021458D01*
X5776937Y-17959146D01*
X5782002Y-17888331D01*
X5824549Y-17831495D01*
X5891069Y-17806684D01*
X5926255Y-17809116D01*
X5994056Y-17823528D01*
X5994061Y-17823528D01*
X6000513Y-17824900D01*
X6191487Y-17824900D01*
X6197939Y-17823528D01*
X6197944Y-17823528D01*
X6284887Y-17805047D01*
X6378288Y-17785194D01*
X6407961Y-17771983D01*
X6546722Y-17710203D01*
X6546724Y-17710202D01*
X6552752Y-17707518D01*
X6707253Y-17595266D01*
X6767830Y-17527988D01*
X6830621Y-17458252D01*
X6830622Y-17458251D01*
X6835040Y-17453344D01*
X6911689Y-17320584D01*
X6927223Y-17293679D01*
X6927224Y-17293678D01*
X6930527Y-17287956D01*
X6989542Y-17106328D01*
X6992941Y-17073994D01*
X7008814Y-16922965D01*
X7009504Y-16916400D01*
X7001640Y-16841579D01*
X6990232Y-16733035D01*
X6990232Y-16733033D01*
X6989542Y-16726472D01*
X6930527Y-16544844D01*
X6835040Y-16379456D01*
X6809064Y-16350606D01*
X6711675Y-16242445D01*
X6711674Y-16242444D01*
X6707253Y-16237534D01*
X6592829Y-16154400D01*
X6558094Y-16129163D01*
X6558093Y-16129162D01*
X6552752Y-16125282D01*
X6546724Y-16122598D01*
X6546722Y-16122597D01*
X6384319Y-16050291D01*
X6384318Y-16050291D01*
X6378288Y-16047606D01*
X6284887Y-16027753D01*
X6197944Y-16009272D01*
X6197939Y-16009272D01*
X6191487Y-16007900D01*
X6000513Y-16007900D01*
X5994061Y-16009272D01*
X5994056Y-16009272D01*
X5907113Y-16027753D01*
X5813712Y-16047606D01*
X5807682Y-16050291D01*
X5807681Y-16050291D01*
X5645278Y-16122597D01*
X5645276Y-16122598D01*
X5639248Y-16125282D01*
X5633907Y-16129162D01*
X5633906Y-16129163D01*
X5528539Y-16205717D01*
X5461671Y-16229575D01*
X5392520Y-16213495D01*
X5343040Y-16162581D01*
X5329168Y-16116951D01*
X5313832Y-15971035D01*
X5313832Y-15971033D01*
X5313142Y-15964472D01*
X5254127Y-15782844D01*
X5248902Y-15773793D01*
X5179696Y-15653926D01*
X5158640Y-15617456D01*
X5130142Y-15585805D01*
X5035275Y-15480445D01*
X5035274Y-15480444D01*
X5030853Y-15475534D01*
X4876352Y-15363282D01*
X4870324Y-15360598D01*
X4870322Y-15360597D01*
X4707919Y-15288291D01*
X4707918Y-15288291D01*
X4701888Y-15285606D01*
X4592920Y-15262444D01*
X4521544Y-15247272D01*
X4521539Y-15247272D01*
X4515087Y-15245900D01*
X4324113Y-15245900D01*
X4317661Y-15247272D01*
X4317656Y-15247272D01*
X4246280Y-15262444D01*
X4137312Y-15285606D01*
X4131282Y-15288291D01*
X4131281Y-15288291D01*
X3968878Y-15360597D01*
X3968876Y-15360598D01*
X3962848Y-15363282D01*
X3808347Y-15475534D01*
X3803926Y-15480444D01*
X3803925Y-15480445D01*
X3709059Y-15585805D01*
X3680560Y-15617456D01*
X3659504Y-15653926D01*
X3590299Y-15773793D01*
X3585073Y-15782844D01*
X3526058Y-15964472D01*
X3525368Y-15971033D01*
X3525368Y-15971035D01*
X3517320Y-16047606D01*
X3506096Y-16154400D01*
X3506786Y-16160965D01*
X3519847Y-16285230D01*
X3526058Y-16344328D01*
X3585073Y-16525956D01*
X3680560Y-16691344D01*
X3753737Y-16772615D01*
X3784453Y-16836621D01*
X3786100Y-16856924D01*
X3786100Y-17447233D01*
X3785573Y-17458416D01*
X3783898Y-17465909D01*
X3784147Y-17473835D01*
X3784147Y-17473836D01*
X3786038Y-17533986D01*
X3786100Y-17537945D01*
X3786100Y-17565856D01*
X3786597Y-17569790D01*
X3786597Y-17569791D01*
X3786605Y-17569856D01*
X3787538Y-17581693D01*
X3788927Y-17625889D01*
X3794045Y-17643505D01*
X3794578Y-17645339D01*
X3798587Y-17664700D01*
X3801126Y-17684797D01*
X3804045Y-17692168D01*
X3804045Y-17692170D01*
X3817404Y-17725912D01*
X3821249Y-17737142D01*
X3831297Y-17771728D01*
X3833582Y-17779593D01*
X3837615Y-17786412D01*
X3837617Y-17786417D01*
X3843893Y-17797028D01*
X3852588Y-17814776D01*
X3860048Y-17833617D01*
X3864710Y-17840033D01*
X3864710Y-17840034D01*
X3886036Y-17869387D01*
X3892552Y-17879307D01*
X3915058Y-17917362D01*
X3929379Y-17931683D01*
X3942219Y-17946716D01*
X3954128Y-17963107D01*
X3960234Y-17968158D01*
X3988205Y-17991298D01*
X3996984Y-17999288D01*
X6012478Y-20014782D01*
X6046504Y-20077094D01*
X6048692Y-20090703D01*
X6066058Y-20255928D01*
X6125073Y-20437556D01*
X6128376Y-20443278D01*
X6128377Y-20443279D01*
X6156984Y-20492827D01*
X6220560Y-20602944D01*
X6224978Y-20607851D01*
X6224979Y-20607852D01*
X6309258Y-20701453D01*
X6348347Y-20744866D01*
X6502848Y-20857118D01*
X6508876Y-20859802D01*
X6508878Y-20859803D01*
X6635836Y-20916328D01*
X6677312Y-20934794D01*
X6770713Y-20954647D01*
X6857656Y-20973128D01*
X6857661Y-20973128D01*
X6864113Y-20974500D01*
X7055087Y-20974500D01*
X7061539Y-20973128D01*
X7061544Y-20973128D01*
X7148487Y-20954647D01*
X7241888Y-20934794D01*
X7247919Y-20932109D01*
X7248374Y-20931961D01*
X7319342Y-20929933D01*
X7380140Y-20966596D01*
X7411465Y-21030308D01*
X7403373Y-21100842D01*
X7376406Y-21140889D01*
X7110700Y-21406595D01*
X7048388Y-21440621D01*
X7021605Y-21443500D01*
X6965713Y-21443500D01*
X6959261Y-21444872D01*
X6959256Y-21444872D01*
X6888327Y-21459949D01*
X6778912Y-21483206D01*
X6772882Y-21485891D01*
X6772881Y-21485891D01*
X6610478Y-21558197D01*
X6610476Y-21558198D01*
X6604448Y-21560882D01*
X6599107Y-21564762D01*
X6599106Y-21564763D01*
X6560917Y-21592509D01*
X6449947Y-21673134D01*
X6445526Y-21678044D01*
X6445525Y-21678045D01*
X6347152Y-21787300D01*
X6322160Y-21815056D01*
X6318859Y-21820774D01*
X6250581Y-21939035D01*
X6226673Y-21980444D01*
X6167658Y-22162072D01*
X6147696Y-22352000D01*
X6148386Y-22358565D01*
X6161417Y-22482544D01*
X6167658Y-22541928D01*
X6226673Y-22723556D01*
X6229976Y-22729278D01*
X6229977Y-22729279D01*
X6257758Y-22777396D01*
X6322160Y-22888944D01*
X6326578Y-22893851D01*
X6326579Y-22893852D01*
X6445270Y-23025672D01*
X6449947Y-23030866D01*
X6539738Y-23096103D01*
X6595389Y-23136536D01*
X6604448Y-23143118D01*
X6610476Y-23145802D01*
X6610478Y-23145803D01*
X6767246Y-23215600D01*
X6778912Y-23220794D01*
X6856482Y-23237282D01*
X6959256Y-23259128D01*
X6959261Y-23259128D01*
X6965713Y-23260500D01*
X7156687Y-23260500D01*
X7163139Y-23259128D01*
X7163144Y-23259128D01*
X7265918Y-23237282D01*
X7343488Y-23220794D01*
X7355154Y-23215600D01*
X7511922Y-23145803D01*
X7511924Y-23145802D01*
X7517952Y-23143118D01*
X7527012Y-23136536D01*
X7566929Y-23107534D01*
X7640185Y-23054310D01*
X7707050Y-23030453D01*
X7746630Y-23039657D01*
X7737805Y-23015997D01*
X7752896Y-22946623D01*
X7769844Y-22922702D01*
X7800240Y-22888944D01*
X7864642Y-22777396D01*
X7892423Y-22729279D01*
X7892424Y-22729278D01*
X7895727Y-22723556D01*
X7954742Y-22541928D01*
X7960984Y-22482544D01*
X7972107Y-22376707D01*
X7999120Y-22311050D01*
X8008322Y-22300782D01*
X11340905Y-18968199D01*
X11403217Y-18934173D01*
X11474032Y-18939238D01*
X11519095Y-18968199D01*
X12097811Y-19546915D01*
X12131837Y-19609227D01*
X12126772Y-19680042D01*
X12082777Y-19737946D01*
X11936347Y-19844334D01*
X11931926Y-19849244D01*
X11931925Y-19849245D01*
X11855168Y-19934493D01*
X11808560Y-19986256D01*
X11713073Y-20151644D01*
X11654058Y-20333272D01*
X11653368Y-20339833D01*
X11653368Y-20339835D01*
X11643758Y-20431271D01*
X11634096Y-20523200D01*
X11634786Y-20529765D01*
X11652626Y-20699500D01*
X11654058Y-20713128D01*
X11713073Y-20894756D01*
X11716376Y-20900478D01*
X11716377Y-20900479D01*
X11729152Y-20922606D01*
X11808560Y-21060144D01*
X11846060Y-21101792D01*
X11876776Y-21165797D01*
X11868011Y-21236251D01*
X11822548Y-21290782D01*
X11752422Y-21312100D01*
X10077754Y-21312100D01*
X10066571Y-21311573D01*
X10059078Y-21309898D01*
X10051152Y-21310147D01*
X10051151Y-21310147D01*
X9990988Y-21312038D01*
X9987030Y-21312100D01*
X9959130Y-21312100D01*
X9955140Y-21312604D01*
X9943306Y-21313536D01*
X9899097Y-21314926D01*
X9891483Y-21317138D01*
X9891478Y-21317139D01*
X9879645Y-21320577D01*
X9860282Y-21324588D01*
X9840189Y-21327126D01*
X9832822Y-21330043D01*
X9832817Y-21330044D01*
X9799078Y-21343402D01*
X9787851Y-21347246D01*
X9745393Y-21359582D01*
X9738567Y-21363619D01*
X9727958Y-21369893D01*
X9710210Y-21378588D01*
X9691369Y-21386048D01*
X9684953Y-21390710D01*
X9684952Y-21390710D01*
X9655599Y-21412036D01*
X9645679Y-21418552D01*
X9614451Y-21437020D01*
X9614448Y-21437022D01*
X9607624Y-21441058D01*
X9593303Y-21455379D01*
X9578270Y-21468219D01*
X9561879Y-21480128D01*
X9556828Y-21486234D01*
X9533688Y-21514205D01*
X9525698Y-21522984D01*
X7952579Y-23096103D01*
X7890267Y-23130129D01*
X7831452Y-23125922D01*
X7839782Y-23167029D01*
X7814024Y-23233188D01*
X7803339Y-23245342D01*
X3150436Y-27898245D01*
X3142150Y-27905785D01*
X3135671Y-27909897D01*
X3130246Y-27915674D01*
X3089046Y-27959548D01*
X3086291Y-27962390D01*
X3066554Y-27982127D01*
X3064074Y-27985324D01*
X3056371Y-27994344D01*
X3026103Y-28026576D01*
X3022284Y-28033522D01*
X3022282Y-28033525D01*
X3016341Y-28044331D01*
X3005490Y-28060850D01*
X2993075Y-28076856D01*
X2989930Y-28084125D01*
X2989927Y-28084129D01*
X2975515Y-28117434D01*
X2970298Y-28128084D01*
X2948994Y-28166837D01*
X2944178Y-28185596D01*
X2943956Y-28186459D01*
X2937552Y-28205163D01*
X2929508Y-28223752D01*
X2928269Y-28231575D01*
X2928266Y-28231585D01*
X2922590Y-28267421D01*
X2920184Y-28279041D01*
X2909189Y-28321867D01*
X2909189Y-28342121D01*
X2907638Y-28361831D01*
X2904469Y-28381840D01*
X508000Y-28381840D01*
X508000Y-20269200D01*
X3658496Y-20269200D01*
X3659186Y-20275765D01*
X3673234Y-20409421D01*
X3678458Y-20459128D01*
X3737473Y-20640756D01*
X3740776Y-20646478D01*
X3740777Y-20646479D01*
X3772660Y-20701702D01*
X3832960Y-20806144D01*
X3837378Y-20811051D01*
X3837379Y-20811052D01*
X3926261Y-20909765D01*
X3960747Y-20948066D01*
X4115248Y-21060318D01*
X4121276Y-21063002D01*
X4121278Y-21063003D01*
X4283681Y-21135309D01*
X4289712Y-21137994D01*
X4367282Y-21154482D01*
X4470056Y-21176328D01*
X4470061Y-21176328D01*
X4476513Y-21177700D01*
X4667487Y-21177700D01*
X4673939Y-21176328D01*
X4673944Y-21176328D01*
X4776718Y-21154482D01*
X4854288Y-21137994D01*
X4860319Y-21135309D01*
X5022722Y-21063003D01*
X5022724Y-21063002D01*
X5028752Y-21060318D01*
X5183253Y-20948066D01*
X5217739Y-20909765D01*
X5306621Y-20811052D01*
X5306622Y-20811051D01*
X5311040Y-20806144D01*
X5371340Y-20701702D01*
X5403223Y-20646479D01*
X5403224Y-20646478D01*
X5406527Y-20640756D01*
X5465542Y-20459128D01*
X5470767Y-20409421D01*
X5484814Y-20275765D01*
X5485504Y-20269200D01*
X5468435Y-20106795D01*
X5466232Y-20085835D01*
X5466232Y-20085833D01*
X5465542Y-20079272D01*
X5406527Y-19897644D01*
X5394073Y-19876072D01*
X5360487Y-19817900D01*
X5311040Y-19732256D01*
X5264027Y-19680042D01*
X5187675Y-19595245D01*
X5187674Y-19595244D01*
X5183253Y-19590334D01*
X5028752Y-19478082D01*
X5022724Y-19475398D01*
X5022722Y-19475397D01*
X4860319Y-19403091D01*
X4860318Y-19403091D01*
X4854288Y-19400406D01*
X4760887Y-19380553D01*
X4673944Y-19362072D01*
X4673939Y-19362072D01*
X4667487Y-19360700D01*
X4476513Y-19360700D01*
X4470061Y-19362072D01*
X4470056Y-19362072D01*
X4383113Y-19380553D01*
X4289712Y-19400406D01*
X4283682Y-19403091D01*
X4283681Y-19403091D01*
X4121278Y-19475397D01*
X4121276Y-19475398D01*
X4115248Y-19478082D01*
X3960747Y-19590334D01*
X3956326Y-19595244D01*
X3956325Y-19595245D01*
X3879974Y-19680042D01*
X3832960Y-19732256D01*
X3783513Y-19817900D01*
X3749928Y-19876072D01*
X3737473Y-19897644D01*
X3678458Y-20079272D01*
X3677768Y-20085833D01*
X3677768Y-20085835D01*
X3675565Y-20106795D01*
X3658496Y-20269200D01*
X508000Y-20269200D01*
X508000Y-634000D01*
X528002Y-565879D01*
X581658Y-519386D01*
X634000Y-508000D01*
X39366000Y-508000D01*
X39434121Y-528002D01*
G37*
%TD.AperFunction*%
%TA.AperFunction,Conductor*%
G36*
X15830721Y-22599102D02*
G01*
X15877214Y-22652758D01*
X15887318Y-22723032D01*
X15871719Y-22768100D01*
X15831177Y-22838321D01*
X15827873Y-22844044D01*
X15811691Y-22893846D01*
X15772002Y-23015997D01*
X15768858Y-23025672D01*
X15768168Y-23032235D01*
X15768168Y-23032236D01*
X15764106Y-23070879D01*
X15737092Y-23136536D01*
X15690045Y-23172814D01*
X15551278Y-23234597D01*
X15551276Y-23234598D01*
X15545248Y-23237282D01*
X15390747Y-23349534D01*
X15386326Y-23354444D01*
X15386325Y-23354445D01*
X15291767Y-23459463D01*
X15262960Y-23491456D01*
X15228414Y-23551291D01*
X15174673Y-23644374D01*
X15167473Y-23656844D01*
X15108458Y-23838472D01*
X15107768Y-23845033D01*
X15107768Y-23845035D01*
X15097497Y-23942756D01*
X15088496Y-24028400D01*
X15089186Y-24034965D01*
X15104289Y-24178658D01*
X15108458Y-24218328D01*
X15167473Y-24399956D01*
X15262960Y-24565344D01*
X15390747Y-24707266D01*
X15545248Y-24819518D01*
X15551276Y-24822202D01*
X15551278Y-24822203D01*
X15713681Y-24894509D01*
X15719712Y-24897194D01*
X15813112Y-24917047D01*
X15900056Y-24935528D01*
X15900061Y-24935528D01*
X15906513Y-24936900D01*
X16023962Y-24936900D01*
X16092083Y-24956902D01*
X16138576Y-25010558D01*
X16148680Y-25080832D01*
X16139599Y-25112941D01*
X16132715Y-25128849D01*
X16127498Y-25139498D01*
X16106194Y-25178251D01*
X16104223Y-25185926D01*
X16104223Y-25185927D01*
X16101156Y-25197873D01*
X16094752Y-25216577D01*
X16086708Y-25235166D01*
X16085469Y-25242989D01*
X16085466Y-25242999D01*
X16079790Y-25278835D01*
X16077384Y-25290455D01*
X16072397Y-25309879D01*
X16066389Y-25333281D01*
X16066389Y-25353535D01*
X16064838Y-25373245D01*
X16061669Y-25393254D01*
X16062415Y-25401146D01*
X16065830Y-25437272D01*
X16066389Y-25449130D01*
X16066389Y-26774100D01*
X16046387Y-26842221D01*
X15992731Y-26888714D01*
X15940389Y-26900100D01*
X11681000Y-26900100D01*
X11612879Y-26880098D01*
X11593653Y-26863757D01*
X11593380Y-26864060D01*
X11588468Y-26859637D01*
X11584053Y-26854734D01*
X11446303Y-26754652D01*
X11434894Y-26746363D01*
X11434893Y-26746362D01*
X11429552Y-26742482D01*
X11423524Y-26739798D01*
X11423522Y-26739797D01*
X11261119Y-26667491D01*
X11261118Y-26667491D01*
X11255088Y-26664806D01*
X11161687Y-26644953D01*
X11074744Y-26626472D01*
X11074739Y-26626472D01*
X11068287Y-26625100D01*
X10877313Y-26625100D01*
X10870861Y-26626472D01*
X10870856Y-26626472D01*
X10783913Y-26644953D01*
X10690512Y-26664806D01*
X10684482Y-26667491D01*
X10684481Y-26667491D01*
X10522078Y-26739797D01*
X10522076Y-26739798D01*
X10516048Y-26742482D01*
X10510707Y-26746362D01*
X10510706Y-26746363D01*
X10499297Y-26754652D01*
X10361547Y-26854734D01*
X10233760Y-26996656D01*
X10138273Y-27162044D01*
X10079258Y-27343672D01*
X10078568Y-27350233D01*
X10078568Y-27350235D01*
X10071555Y-27416962D01*
X10059296Y-27533600D01*
X10059986Y-27540165D01*
X10064372Y-27581891D01*
X10079258Y-27723528D01*
X10137756Y-27903565D01*
X10139784Y-27974531D01*
X10103121Y-28035329D01*
X10039409Y-28066655D01*
X10017923Y-28068500D01*
X5076180Y-28068500D01*
X5008059Y-28048498D01*
X4961566Y-27994842D01*
X4951462Y-27924568D01*
X4980956Y-27859988D01*
X4987085Y-27853405D01*
X7555791Y-25284700D01*
X10224486Y-22616005D01*
X10286798Y-22581979D01*
X10313581Y-22579100D01*
X15762600Y-22579100D01*
X15830721Y-22599102D01*
G37*
%TD.AperFunction*%
%TA.AperFunction,Conductor*%
G36*
X19650839Y-20288148D02*
G01*
X19707675Y-20330695D01*
X19732486Y-20397215D01*
X19726640Y-20445139D01*
X19680458Y-20587272D01*
X19679768Y-20593833D01*
X19679768Y-20593835D01*
X19668656Y-20699562D01*
X19660496Y-20777200D01*
X19661186Y-20783765D01*
X19678863Y-20951949D01*
X19680458Y-20967128D01*
X19739473Y-21148756D01*
X19742776Y-21154478D01*
X19742777Y-21154479D01*
X19755392Y-21176328D01*
X19834960Y-21314144D01*
X19839378Y-21319051D01*
X19839379Y-21319052D01*
X19952668Y-21444872D01*
X19962747Y-21456066D01*
X20051024Y-21520203D01*
X20103318Y-21558197D01*
X20117248Y-21568318D01*
X20123276Y-21571002D01*
X20123278Y-21571003D01*
X20266794Y-21634900D01*
X20291712Y-21645994D01*
X20385112Y-21665847D01*
X20472056Y-21684328D01*
X20472061Y-21684328D01*
X20478513Y-21685700D01*
X20669487Y-21685700D01*
X20675939Y-21684328D01*
X20675944Y-21684328D01*
X20762888Y-21665847D01*
X20856288Y-21645994D01*
X20881206Y-21634900D01*
X21024722Y-21571003D01*
X21024724Y-21571002D01*
X21030752Y-21568318D01*
X21044683Y-21558197D01*
X21176545Y-21462393D01*
X21185253Y-21456066D01*
X21189668Y-21451163D01*
X21194580Y-21446740D01*
X21195705Y-21447989D01*
X21249014Y-21415149D01*
X21282200Y-21410700D01*
X22398006Y-21410700D01*
X22466127Y-21430702D01*
X22512620Y-21484358D01*
X22522724Y-21554632D01*
X22493230Y-21619212D01*
X22487102Y-21625794D01*
X21348647Y-22764248D01*
X20232547Y-23880348D01*
X20224261Y-23887888D01*
X20217782Y-23892000D01*
X20212357Y-23897777D01*
X20171157Y-23941651D01*
X20168402Y-23944493D01*
X20148665Y-23964230D01*
X20146185Y-23967427D01*
X20138482Y-23976447D01*
X20108214Y-24008679D01*
X20104395Y-24015625D01*
X20104393Y-24015628D01*
X20098452Y-24026434D01*
X20087601Y-24042953D01*
X20075186Y-24058959D01*
X20072041Y-24066228D01*
X20072038Y-24066232D01*
X20057626Y-24099537D01*
X20052409Y-24110187D01*
X20031105Y-24148940D01*
X20029134Y-24156615D01*
X20029134Y-24156616D01*
X20026067Y-24168562D01*
X20019663Y-24187266D01*
X20011619Y-24205855D01*
X20010380Y-24213678D01*
X20010377Y-24213688D01*
X20004701Y-24249524D01*
X20002295Y-24261144D01*
X19991300Y-24303970D01*
X19991300Y-24324224D01*
X19989749Y-24343934D01*
X19986580Y-24363943D01*
X19987326Y-24371835D01*
X19990741Y-24407961D01*
X19991300Y-24419819D01*
X19991300Y-26831076D01*
X19971298Y-26899197D01*
X19958943Y-26915378D01*
X19917179Y-26961762D01*
X19856736Y-26999000D01*
X19785752Y-26997649D01*
X19734450Y-26966545D01*
X19568005Y-26800100D01*
X19533979Y-26737788D01*
X19531100Y-26711005D01*
X19531100Y-25825754D01*
X19531627Y-25814571D01*
X19533302Y-25807078D01*
X19531162Y-25738987D01*
X19531100Y-25735030D01*
X19531100Y-25707130D01*
X19530596Y-25703139D01*
X19529663Y-25691297D01*
X19529358Y-25681574D01*
X19528274Y-25647097D01*
X19522621Y-25627638D01*
X19518612Y-25608279D01*
X19518193Y-25604964D01*
X19516074Y-25588189D01*
X19513158Y-25580823D01*
X19513156Y-25580817D01*
X19499800Y-25547084D01*
X19495955Y-25535854D01*
X19485830Y-25501003D01*
X19485830Y-25501002D01*
X19483619Y-25493393D01*
X19473305Y-25475952D01*
X19464608Y-25458199D01*
X19460072Y-25446744D01*
X19457152Y-25439369D01*
X19431163Y-25403598D01*
X19424647Y-25393678D01*
X19419766Y-25385425D01*
X19402142Y-25355624D01*
X19387821Y-25341303D01*
X19374980Y-25326269D01*
X19367731Y-25316292D01*
X19363072Y-25309879D01*
X19328995Y-25281688D01*
X19320216Y-25273698D01*
X17682666Y-23636147D01*
X17675126Y-23627861D01*
X17671014Y-23621382D01*
X17621362Y-23574756D01*
X17618521Y-23572002D01*
X17598784Y-23552265D01*
X17595652Y-23549836D01*
X17592683Y-23547218D01*
X17593472Y-23546323D01*
X17554893Y-23492911D01*
X17551038Y-23422020D01*
X17553853Y-23411957D01*
X17553902Y-23411805D01*
X17555942Y-23405528D01*
X17558492Y-23381272D01*
X17575214Y-23222165D01*
X17575904Y-23215600D01*
X17573625Y-23193921D01*
X17556632Y-23032235D01*
X17556632Y-23032233D01*
X17555942Y-23025672D01*
X17496927Y-22844044D01*
X17492620Y-22836583D01*
X17433036Y-22733382D01*
X17401440Y-22678656D01*
X17362270Y-22635153D01*
X17331554Y-22571147D01*
X17340319Y-22500694D01*
X17350672Y-22482562D01*
X17350640Y-22482544D01*
X17442823Y-22322879D01*
X17442824Y-22322878D01*
X17446127Y-22317156D01*
X17505142Y-22135528D01*
X17525104Y-21945600D01*
X17514549Y-21845170D01*
X17505832Y-21762235D01*
X17505832Y-21762233D01*
X17505142Y-21755672D01*
X17446127Y-21574044D01*
X17440581Y-21564437D01*
X17394347Y-21484358D01*
X17350640Y-21408656D01*
X17334482Y-21390710D01*
X17227275Y-21271645D01*
X17227274Y-21271644D01*
X17222853Y-21266734D01*
X17068352Y-21154482D01*
X17062324Y-21151798D01*
X17062322Y-21151797D01*
X16899919Y-21079491D01*
X16899918Y-21079491D01*
X16893888Y-21076806D01*
X16788599Y-21054426D01*
X16713544Y-21038472D01*
X16713539Y-21038472D01*
X16707087Y-21037100D01*
X16516113Y-21037100D01*
X16509661Y-21038472D01*
X16509656Y-21038472D01*
X16434601Y-21054426D01*
X16329312Y-21076806D01*
X16323282Y-21079491D01*
X16323281Y-21079491D01*
X16160878Y-21151797D01*
X16160876Y-21151798D01*
X16154848Y-21154482D01*
X16149507Y-21158362D01*
X16149506Y-21158363D01*
X16042303Y-21236251D01*
X16000347Y-21266734D01*
X15995932Y-21271637D01*
X15991020Y-21276060D01*
X15989895Y-21274811D01*
X15936586Y-21307651D01*
X15903400Y-21312100D01*
X13342778Y-21312100D01*
X13274657Y-21292098D01*
X13228164Y-21238442D01*
X13218060Y-21168168D01*
X13249140Y-21101792D01*
X13286640Y-21060144D01*
X13366048Y-20922606D01*
X13378823Y-20900479D01*
X13378824Y-20900478D01*
X13382127Y-20894756D01*
X13417281Y-20786564D01*
X13457355Y-20727958D01*
X13522751Y-20700321D01*
X13537114Y-20699500D01*
X18794150Y-20699500D01*
X18805333Y-20700027D01*
X18812826Y-20701702D01*
X18820752Y-20701453D01*
X18820753Y-20701453D01*
X18880903Y-20699562D01*
X18884862Y-20699500D01*
X18912773Y-20699500D01*
X18916708Y-20699003D01*
X18916773Y-20698995D01*
X18928610Y-20698062D01*
X18960868Y-20697048D01*
X18964887Y-20696922D01*
X18972806Y-20696673D01*
X18992260Y-20691021D01*
X19011617Y-20687013D01*
X19023847Y-20685468D01*
X19023848Y-20685468D01*
X19031714Y-20684474D01*
X19039085Y-20681555D01*
X19039087Y-20681555D01*
X19072829Y-20668196D01*
X19084059Y-20664351D01*
X19118900Y-20654229D01*
X19118901Y-20654229D01*
X19126510Y-20652018D01*
X19133329Y-20647985D01*
X19133334Y-20647983D01*
X19143945Y-20641707D01*
X19161693Y-20633012D01*
X19180534Y-20625552D01*
X19216304Y-20599564D01*
X19226224Y-20593048D01*
X19257452Y-20574580D01*
X19257455Y-20574578D01*
X19264279Y-20570542D01*
X19278600Y-20556221D01*
X19293634Y-20543380D01*
X19303611Y-20536131D01*
X19310024Y-20531472D01*
X19338215Y-20497395D01*
X19346205Y-20488616D01*
X19517712Y-20317109D01*
X19580024Y-20283083D01*
X19650839Y-20288148D01*
G37*
%TD.AperFunction*%
%TD*%
M02*
