%TF.GenerationSoftware,KiCad,Pcbnew,(6.0.1)*%
%TF.CreationDate,2022-11-17T20:37:07-05:00*%
%TF.ProjectId,ThermixelGrid,54686572-6d69-4786-956c-477269642e6b,rev?*%
%TF.SameCoordinates,Original*%
%TF.FileFunction,Paste,Bot*%
%TF.FilePolarity,Positive*%
%FSLAX46Y46*%
G04 Gerber Fmt 4.6, Leading zero omitted, Abs format (unit mm)*
G04 Created by KiCad (PCBNEW (6.0.1)) date 2022-11-17 20:37:07*
%MOMM*%
%LPD*%
G01*
G04 APERTURE LIST*
G04 Aperture macros list*
%AMRoundRect*
0 Rectangle with rounded corners*
0 $1 Rounding radius*
0 $2 $3 $4 $5 $6 $7 $8 $9 X,Y pos of 4 corners*
0 Add a 4 corners polygon primitive as box body*
4,1,4,$2,$3,$4,$5,$6,$7,$8,$9,$2,$3,0*
0 Add four circle primitives for the rounded corners*
1,1,$1+$1,$2,$3*
1,1,$1+$1,$4,$5*
1,1,$1+$1,$6,$7*
1,1,$1+$1,$8,$9*
0 Add four rect primitives between the rounded corners*
20,1,$1+$1,$2,$3,$4,$5,0*
20,1,$1+$1,$4,$5,$6,$7,0*
20,1,$1+$1,$6,$7,$8,$9,0*
20,1,$1+$1,$8,$9,$2,$3,0*%
G04 Aperture macros list end*
%ADD10RoundRect,0.381000X-0.381000X-1.359000X0.381000X-1.359000X0.381000X1.359000X-0.381000X1.359000X0*%
%ADD11RoundRect,0.381000X-1.359000X0.381000X-1.359000X-0.381000X1.359000X-0.381000X1.359000X0.381000X0*%
%ADD12RoundRect,0.249999X-0.262501X-0.450001X0.262501X-0.450001X0.262501X0.450001X-0.262501X0.450001X0*%
%ADD13RoundRect,0.100000X-0.637500X-0.100000X0.637500X-0.100000X0.637500X0.100000X-0.637500X0.100000X0*%
%ADD14RoundRect,0.250000X0.475000X-0.337500X0.475000X0.337500X-0.475000X0.337500X-0.475000X-0.337500X0*%
G04 APERTURE END LIST*
D10*
%TO.C,J1*%
X16170000Y-2000000D03*
X18710000Y-2000000D03*
X21250000Y-2000000D03*
X23790000Y-2000000D03*
%TD*%
%TO.C,J2*%
X16210000Y-38000000D03*
X18750000Y-38000000D03*
X21290000Y-38000000D03*
X23830000Y-38000000D03*
%TD*%
D11*
%TO.C,J3*%
X2000000Y-16170000D03*
X2000000Y-18710000D03*
X2000000Y-21250000D03*
X2000000Y-23790000D03*
%TD*%
%TO.C,J4*%
X38000000Y-16170000D03*
X38000000Y-18710000D03*
X38000000Y-21250000D03*
X38000000Y-23790000D03*
%TD*%
D12*
%TO.C,R26*%
X7217400Y-1542600D03*
X9042400Y-1542600D03*
%TD*%
%TO.C,R27*%
X7217400Y-3657600D03*
X9042400Y-3657600D03*
%TD*%
D13*
%TO.C,U1*%
X19171500Y-17481000D03*
X19171500Y-16831000D03*
X19171500Y-16181000D03*
X19171500Y-15531000D03*
X19171500Y-14881000D03*
X19171500Y-14231000D03*
X19171500Y-13581000D03*
X19171500Y-12931000D03*
X19171500Y-12281000D03*
X19171500Y-11631000D03*
X19171500Y-10981000D03*
X19171500Y-10331000D03*
X24896500Y-10331000D03*
X24896500Y-10981000D03*
X24896500Y-11631000D03*
X24896500Y-12281000D03*
X24896500Y-12931000D03*
X24896500Y-13581000D03*
X24896500Y-14231000D03*
X24896500Y-14881000D03*
X24896500Y-15531000D03*
X24896500Y-16181000D03*
X24896500Y-16831000D03*
X24896500Y-17481000D03*
%TD*%
%TO.C,U2*%
X19171500Y-29419000D03*
X19171500Y-28769000D03*
X19171500Y-28119000D03*
X19171500Y-27469000D03*
X19171500Y-26819000D03*
X19171500Y-26169000D03*
X19171500Y-25519000D03*
X19171500Y-24869000D03*
X19171500Y-24219000D03*
X19171500Y-23569000D03*
X19171500Y-22919000D03*
X19171500Y-22269000D03*
X24896500Y-22269000D03*
X24896500Y-22919000D03*
X24896500Y-23569000D03*
X24896500Y-24219000D03*
X24896500Y-24869000D03*
X24896500Y-25519000D03*
X24896500Y-26169000D03*
X24896500Y-26819000D03*
X24896500Y-27469000D03*
X24896500Y-28119000D03*
X24896500Y-28769000D03*
X24896500Y-29419000D03*
%TD*%
D14*
%TO.C,C1*%
X27940000Y-29055500D03*
X27940000Y-26980500D03*
%TD*%
%TO.C,C2*%
X28194000Y-17229500D03*
X28194000Y-15154500D03*
%TD*%
M02*
