M48
; DRILL file {KiCad (6.0.1)} date Thu Nov 17 20:37:09 2022
; FORMAT={-:-/ absolute / inch / decimal}
; #@! TF.CreationDate,2022-11-17T20:37:09-05:00
; #@! TF.GenerationSoftware,Kicad,Pcbnew,(6.0.1)
; #@! TF.FileFunction,Plated,1,4,PTH
FMAT,2
INCH
; #@! TA.AperFunction,Plated,PTH,ViaDrill
T1C0.0157
%
G90
G05
T1
X0.158Y-0.18
X0.162Y-0.502
X0.164Y-1.418
X0.168Y-0.126
X0.168Y-1.13
X0.174Y-0.636
X0.18Y-0.798
X0.24Y-0.666
X0.274Y-0.79
X0.278Y-0.88
X0.284Y-1.392
X0.29Y-1.03
X0.296Y-0.416
X0.348Y-0.65
X0.432Y-1.084
X0.438Y-0.4735
X0.472Y-0.194
X0.494Y-0.808
X0.494Y-1.438
X0.556Y-0.134
X0.574Y-0.826
X0.574Y-1.436
X0.582Y-0.352
X0.596Y-1.282
X0.616Y-0.706
X0.6215Y-0.566
X0.626Y-0.196
X0.626Y-1.036
X0.626Y-1.178
X0.63Y-0.946
X0.638Y-1.338
X0.642Y-0.474
X0.654Y-0.864
X0.656Y-0.914
X0.6727Y-0.4494
X0.674Y-0.984
X0.686Y-1.03
X0.69Y-1.382
X0.692Y-0.6085
X0.696Y-0.192
X0.7031Y-0.4954
X0.736Y-1.382
X0.76Y-0.1953
X0.806Y-1.4
X0.81Y-0.818
X0.812Y-1.084
X0.814Y-0.4294
X0.82Y-0.176
X0.822Y-0.488
X0.826Y-1.146
X0.86Y-0.528
X0.87Y-0.974
X0.886Y-0.324
X0.8962Y-0.4602
X0.908Y-1.032
X0.9121Y-1.109
X0.916Y-0.914
X0.918Y-1.166
X0.9247Y-0.506
X0.926Y-0.71
X0.938Y-1.36
X1.04Y-0.928
X1.041Y-0.6546
X1.042Y-0.436
X1.0466Y-0.6084
X1.056Y-1.1
X1.058Y-0.508
X1.084Y-0.9262
X1.098Y-0.186
X1.1Y-1.44
X1.106Y-0.502
X1.122Y-0.816
X1.174Y-0.15
X1.182Y-0.928
X1.184Y-0.97
X1.25Y-0.686
X1.252Y-1.408
X1.256Y-0.858
X1.264Y-0.974
X1.268Y-0.106
X1.268Y-1.092
X1.336Y-0.714
X1.376Y-0.638
X1.387Y-0.7634
X1.41Y-0.822
X1.41Y-1.436
X1.414Y-1.12
X1.418Y-0.176
X1.418Y-0.504
T0
M30
