%TF.GenerationSoftware,KiCad,Pcbnew,(6.0.1)*%
%TF.CreationDate,2022-11-17T20:37:07-05:00*%
%TF.ProjectId,ThermixelGrid,54686572-6d69-4786-956c-477269642e6b,rev?*%
%TF.SameCoordinates,Original*%
%TF.FileFunction,Copper,L3,Inr*%
%TF.FilePolarity,Positive*%
%FSLAX46Y46*%
G04 Gerber Fmt 4.6, Leading zero omitted, Abs format (unit mm)*
G04 Created by KiCad (PCBNEW (6.0.1)) date 2022-11-17 20:37:07*
%MOMM*%
%LPD*%
G01*
G04 APERTURE LIST*
%TA.AperFunction,ViaPad*%
%ADD10C,0.800000*%
%TD*%
%TA.AperFunction,Conductor*%
%ADD11C,0.250000*%
%TD*%
G04 APERTURE END LIST*
D10*
%TO.N,GND*%
X15646400Y-17932400D03*
X7213600Y-35356800D03*
X31902400Y-21793200D03*
X8839200Y-16510000D03*
X31800800Y-35763200D03*
X15785500Y-14376400D03*
X23825200Y-34544000D03*
X32207200Y-27736800D03*
X15900400Y-26314400D03*
X14782800Y-8940800D03*
X23520400Y-18034000D03*
X7518400Y-10566400D03*
X32207200Y-2692400D03*
X29819600Y-3810000D03*
X15900400Y-29921200D03*
X14579600Y-20980400D03*
X14122400Y-3403600D03*
X7366000Y-26162000D03*
%TO.N,+5V*%
X20828000Y-4470400D03*
X4267200Y-3200400D03*
X20472400Y-35560000D03*
X35814000Y-20878800D03*
X4572000Y-20269200D03*
%TO.N,SCL*%
X33934400Y-18135600D03*
X17678400Y-4876800D03*
X26582446Y-15452372D03*
X15138400Y-32562800D03*
X17526000Y-35102800D03*
X6096000Y-16916400D03*
X23167109Y-28167389D03*
X32105600Y-24739600D03*
%TO.N,SDA*%
X14579600Y-36474400D03*
X31750000Y-17424400D03*
X6959600Y-20066000D03*
X34950400Y-16205200D03*
X15900400Y-4978400D03*
X23317200Y-29616400D03*
X16205200Y-33985200D03*
X26441829Y-16626289D03*
X4419600Y-16154400D03*
%TO.N,Net-(R1-Pad2)*%
X4013200Y-4572000D03*
X17576800Y-15456500D03*
%TO.N,Net-(R2-Pad2)*%
X11988800Y-4927600D03*
X16306800Y-12039600D03*
%TO.N,Net-(R3-Pad2)*%
X17087280Y-11415216D03*
X19305230Y-4959862D03*
%TO.N,Net-(R4-Pad2)*%
X27889200Y-4724400D03*
X17859869Y-12582631D03*
%TO.N,Net-(R5-Pad2)*%
X36017200Y-4470400D03*
X21844000Y-13411200D03*
%TO.N,Net-(R6-Pad2)*%
X4114800Y-12750800D03*
X20878800Y-12395200D03*
%TO.N,Net-(R7-Pad2)*%
X11125200Y-12026300D03*
X22504400Y-8229600D03*
%TO.N,Net-(R8-Pad2)*%
X20675600Y-10906500D03*
%TO.N,Net-(R9-Pad2)*%
X28092400Y-12750800D03*
%TO.N,Net-(R10-Pad2)*%
X36017200Y-12801600D03*
X26466800Y-11074400D03*
%TO.N,Net-(R11-Pad2)*%
X22762699Y-11688299D03*
X7061200Y-22352000D03*
%TO.N,Net-(R12-Pad2)*%
X23487199Y-12852400D03*
X12547600Y-20523200D03*
%TO.N,Net-(R13-Pad2)*%
X20574000Y-20777200D03*
X26873200Y-12903200D03*
%TO.N,Net-(R14-Pad2)*%
X20624800Y-27533600D03*
X28498800Y-20726400D03*
%TO.N,Net-(R15-Pad2)*%
X35229139Y-19390062D03*
X22098000Y-24739600D03*
%TO.N,Net-(R16-Pad2)*%
X4267200Y-28702000D03*
X17424400Y-26162000D03*
%TO.N,Net-(R17-Pad2)*%
X10972800Y-27533600D03*
X17119600Y-24993600D03*
%TO.N,Net-(R18-Pad2)*%
X16002000Y-24028400D03*
X20980400Y-29108400D03*
%TO.N,Net-(R19-Pad2)*%
X23063200Y-26212800D03*
X26822400Y-27940000D03*
%TO.N,Net-(R20-Pad2)*%
X16662400Y-23215600D03*
X35915600Y-28448000D03*
%TO.N,Net-(R21-Pad2)*%
X4165600Y-36017200D03*
X16611600Y-21945600D03*
%TO.N,Net-(R22-Pad2)*%
X12547600Y-36525200D03*
X27533600Y-23524500D03*
%TO.N,Net-(R23-Pad2)*%
X23266400Y-23215600D03*
X18694400Y-35102800D03*
%TO.N,Net-(R24-Pad2)*%
X27940000Y-36576000D03*
X30073600Y-24638000D03*
X26416000Y-23571200D03*
%TO.N,Net-(R25-Pad2)*%
X35814000Y-36474400D03*
X30022800Y-23571200D03*
%TD*%
D11*
%TO.N,SCL*%
X19605333Y-4235351D02*
X20029741Y-4659759D01*
X20029741Y-4659759D02*
X20029741Y-4738941D01*
X24037014Y-7620000D02*
X31089600Y-14672586D01*
X31089600Y-14672586D02*
X31089600Y-16205200D01*
X22910800Y-7620000D02*
X24037014Y-7620000D01*
X20029741Y-4738941D02*
X22910800Y-7620000D01*
X6096000Y-16916400D02*
X6096000Y-16030886D01*
X6096000Y-16030886D02*
X17250086Y-4876800D01*
X17250086Y-4876800D02*
X17678400Y-4876800D01*
X32004000Y-16205200D02*
X33934400Y-18135600D01*
X23167109Y-28167389D02*
X18771698Y-32562800D01*
X27335274Y-16205200D02*
X32004000Y-16205200D01*
X17678400Y-4876800D02*
X18319849Y-4235351D01*
X13817600Y-24638000D02*
X6096000Y-16916400D01*
X13817600Y-33028614D02*
X13817600Y-24638000D01*
X17526000Y-35102800D02*
X15891786Y-35102800D01*
X26582446Y-15452372D02*
X27335274Y-16205200D01*
X15891786Y-35102800D02*
X13817600Y-33028614D01*
X18319849Y-4235351D02*
X19605333Y-4235351D01*
X18771698Y-32562800D02*
X15138400Y-32562800D01*
%TO.N,SDA*%
X16205200Y-33985200D02*
X18948400Y-33985200D01*
X15900400Y-4978400D02*
X4724400Y-16154400D01*
X27239940Y-17424400D02*
X31750000Y-17424400D01*
X9474521Y-22580921D02*
X9474521Y-31369321D01*
X21793200Y-3048000D02*
X17830800Y-3048000D01*
X17830800Y-3048000D02*
X15900400Y-4978400D01*
X9474521Y-31369321D02*
X14579600Y-36474400D01*
X4724400Y-16154400D02*
X4419600Y-16154400D01*
X6959600Y-20066000D02*
X9474521Y-22580921D01*
X26441829Y-16626289D02*
X27239940Y-17424400D01*
X34950400Y-16205200D02*
X21793200Y-3048000D01*
X18948400Y-33985200D02*
X23317200Y-29616400D01*
%TO.N,Net-(R7-Pad2)*%
X22453600Y-8280400D02*
X17627600Y-8280400D01*
X22504400Y-8229600D02*
X22453600Y-8280400D01*
X17627600Y-8280400D02*
X15217295Y-10690705D01*
X15217295Y-10690705D02*
X12460795Y-10690705D01*
X12460795Y-10690705D02*
X11125200Y-12026300D01*
%TO.N,Net-(R15-Pad2)*%
X22098000Y-20726400D02*
X22098000Y-24739600D01*
X35229139Y-19390062D02*
X35213601Y-19405600D01*
X23418800Y-19405600D02*
X22098000Y-20726400D01*
X35213601Y-19405600D02*
X23418800Y-19405600D01*
%TO.N,Net-(R20-Pad2)*%
X16662400Y-23215600D02*
X17435813Y-23215600D01*
X17435813Y-23215600D02*
X19708502Y-25488289D01*
X32955889Y-25488289D02*
X35915600Y-28448000D01*
X19708502Y-25488289D02*
X32955889Y-25488289D01*
%TO.N,Net-(R24-Pad2)*%
X27482800Y-24638000D02*
X30073600Y-24638000D01*
X26416000Y-23571200D02*
X27482800Y-24638000D01*
%TD*%
%TA.AperFunction,Conductor*%
%TO.N,GND*%
G36*
X39434121Y-528002D02*
G01*
X39480614Y-581658D01*
X39492000Y-634000D01*
X39492000Y-39366000D01*
X39471998Y-39434121D01*
X39418342Y-39480614D01*
X39366000Y-39492000D01*
X634000Y-39492000D01*
X565879Y-39471998D01*
X519386Y-39418342D01*
X508000Y-39366000D01*
X508000Y-36017200D01*
X3252096Y-36017200D01*
X3272058Y-36207128D01*
X3331073Y-36388756D01*
X3426560Y-36554144D01*
X3554347Y-36696066D01*
X3708848Y-36808318D01*
X3714876Y-36811002D01*
X3714878Y-36811003D01*
X3877281Y-36883309D01*
X3883312Y-36885994D01*
X3976713Y-36905847D01*
X4063656Y-36924328D01*
X4063661Y-36924328D01*
X4070113Y-36925700D01*
X4261087Y-36925700D01*
X4267539Y-36924328D01*
X4267544Y-36924328D01*
X4354487Y-36905847D01*
X4447888Y-36885994D01*
X4453919Y-36883309D01*
X4616322Y-36811003D01*
X4616324Y-36811002D01*
X4622352Y-36808318D01*
X4776853Y-36696066D01*
X4904640Y-36554144D01*
X5000127Y-36388756D01*
X5059142Y-36207128D01*
X5079104Y-36017200D01*
X5074311Y-35971594D01*
X5059832Y-35833835D01*
X5059832Y-35833833D01*
X5059142Y-35827272D01*
X5000127Y-35645644D01*
X4904640Y-35480256D01*
X4833823Y-35401605D01*
X4781275Y-35343245D01*
X4781274Y-35343244D01*
X4776853Y-35338334D01*
X4622352Y-35226082D01*
X4616324Y-35223398D01*
X4616322Y-35223397D01*
X4453919Y-35151091D01*
X4453918Y-35151091D01*
X4447888Y-35148406D01*
X4354488Y-35128553D01*
X4267544Y-35110072D01*
X4267539Y-35110072D01*
X4261087Y-35108700D01*
X4070113Y-35108700D01*
X4063661Y-35110072D01*
X4063656Y-35110072D01*
X3976712Y-35128553D01*
X3883312Y-35148406D01*
X3877282Y-35151091D01*
X3877281Y-35151091D01*
X3714878Y-35223397D01*
X3714876Y-35223398D01*
X3708848Y-35226082D01*
X3554347Y-35338334D01*
X3549926Y-35343244D01*
X3549925Y-35343245D01*
X3497378Y-35401605D01*
X3426560Y-35480256D01*
X3331073Y-35645644D01*
X3272058Y-35827272D01*
X3271368Y-35833833D01*
X3271368Y-35833835D01*
X3256889Y-35971594D01*
X3252096Y-36017200D01*
X508000Y-36017200D01*
X508000Y-28702000D01*
X3353696Y-28702000D01*
X3354386Y-28708565D01*
X3369094Y-28848500D01*
X3373658Y-28891928D01*
X3432673Y-29073556D01*
X3435976Y-29079278D01*
X3435977Y-29079279D01*
X3460616Y-29121955D01*
X3528160Y-29238944D01*
X3532578Y-29243851D01*
X3532579Y-29243852D01*
X3587282Y-29304606D01*
X3655947Y-29380866D01*
X3710077Y-29420194D01*
X3783682Y-29473671D01*
X3810448Y-29493118D01*
X3816476Y-29495802D01*
X3816478Y-29495803D01*
X3978881Y-29568109D01*
X3984912Y-29570794D01*
X4078313Y-29590647D01*
X4165256Y-29609128D01*
X4165261Y-29609128D01*
X4171713Y-29610500D01*
X4362687Y-29610500D01*
X4369139Y-29609128D01*
X4369144Y-29609128D01*
X4456087Y-29590647D01*
X4549488Y-29570794D01*
X4555519Y-29568109D01*
X4717922Y-29495803D01*
X4717924Y-29495802D01*
X4723952Y-29493118D01*
X4750719Y-29473671D01*
X4824323Y-29420194D01*
X4878453Y-29380866D01*
X4947118Y-29304606D01*
X5001821Y-29243852D01*
X5001822Y-29243851D01*
X5006240Y-29238944D01*
X5073784Y-29121955D01*
X5098423Y-29079279D01*
X5098424Y-29079278D01*
X5101727Y-29073556D01*
X5160742Y-28891928D01*
X5165307Y-28848500D01*
X5180014Y-28708565D01*
X5180704Y-28702000D01*
X5173280Y-28631365D01*
X5161432Y-28518635D01*
X5161432Y-28518633D01*
X5160742Y-28512072D01*
X5101727Y-28330444D01*
X5096181Y-28320837D01*
X5054089Y-28247932D01*
X5006240Y-28165056D01*
X4986095Y-28142682D01*
X4882875Y-28028045D01*
X4882874Y-28028044D01*
X4878453Y-28023134D01*
X4764029Y-27940000D01*
X4729294Y-27914763D01*
X4729293Y-27914762D01*
X4723952Y-27910882D01*
X4717924Y-27908198D01*
X4717922Y-27908197D01*
X4555519Y-27835891D01*
X4555518Y-27835891D01*
X4549488Y-27833206D01*
X4449962Y-27812051D01*
X4369144Y-27794872D01*
X4369139Y-27794872D01*
X4362687Y-27793500D01*
X4171713Y-27793500D01*
X4165261Y-27794872D01*
X4165256Y-27794872D01*
X4084438Y-27812051D01*
X3984912Y-27833206D01*
X3978882Y-27835891D01*
X3978881Y-27835891D01*
X3816478Y-27908197D01*
X3816476Y-27908198D01*
X3810448Y-27910882D01*
X3805107Y-27914762D01*
X3805106Y-27914763D01*
X3770371Y-27940000D01*
X3655947Y-28023134D01*
X3651526Y-28028044D01*
X3651525Y-28028045D01*
X3548306Y-28142682D01*
X3528160Y-28165056D01*
X3480311Y-28247932D01*
X3438220Y-28320837D01*
X3432673Y-28330444D01*
X3373658Y-28512072D01*
X3372968Y-28518633D01*
X3372968Y-28518635D01*
X3361120Y-28631365D01*
X3353696Y-28702000D01*
X508000Y-28702000D01*
X508000Y-20269200D01*
X3658496Y-20269200D01*
X3659186Y-20275765D01*
X3665617Y-20336948D01*
X3678458Y-20459128D01*
X3737473Y-20640756D01*
X3832960Y-20806144D01*
X3837378Y-20811051D01*
X3837379Y-20811052D01*
X3926261Y-20909765D01*
X3960747Y-20948066D01*
X4115248Y-21060318D01*
X4121276Y-21063002D01*
X4121278Y-21063003D01*
X4283681Y-21135309D01*
X4289712Y-21137994D01*
X4367282Y-21154482D01*
X4470056Y-21176328D01*
X4470061Y-21176328D01*
X4476513Y-21177700D01*
X4667487Y-21177700D01*
X4673939Y-21176328D01*
X4673944Y-21176328D01*
X4776718Y-21154482D01*
X4854288Y-21137994D01*
X4860319Y-21135309D01*
X5022722Y-21063003D01*
X5022724Y-21063002D01*
X5028752Y-21060318D01*
X5183253Y-20948066D01*
X5217739Y-20909765D01*
X5306621Y-20811052D01*
X5306622Y-20811051D01*
X5311040Y-20806144D01*
X5406527Y-20640756D01*
X5465542Y-20459128D01*
X5478384Y-20336948D01*
X5484814Y-20275765D01*
X5485504Y-20269200D01*
X5476535Y-20183865D01*
X5466232Y-20085835D01*
X5466232Y-20085833D01*
X5465542Y-20079272D01*
X5406527Y-19897644D01*
X5394073Y-19876072D01*
X5331293Y-19767336D01*
X5311040Y-19732256D01*
X5183253Y-19590334D01*
X5028752Y-19478082D01*
X5022724Y-19475398D01*
X5022722Y-19475397D01*
X4860319Y-19403091D01*
X4860318Y-19403091D01*
X4854288Y-19400406D01*
X4760887Y-19380553D01*
X4673944Y-19362072D01*
X4673939Y-19362072D01*
X4667487Y-19360700D01*
X4476513Y-19360700D01*
X4470061Y-19362072D01*
X4470056Y-19362072D01*
X4383113Y-19380553D01*
X4289712Y-19400406D01*
X4283682Y-19403091D01*
X4283681Y-19403091D01*
X4121278Y-19475397D01*
X4121276Y-19475398D01*
X4115248Y-19478082D01*
X3960747Y-19590334D01*
X3832960Y-19732256D01*
X3812707Y-19767336D01*
X3749928Y-19876072D01*
X3737473Y-19897644D01*
X3678458Y-20079272D01*
X3677768Y-20085833D01*
X3677768Y-20085835D01*
X3667465Y-20183865D01*
X3658496Y-20269200D01*
X508000Y-20269200D01*
X508000Y-16154400D01*
X3506096Y-16154400D01*
X3506786Y-16160965D01*
X3524202Y-16326666D01*
X3526058Y-16344328D01*
X3585073Y-16525956D01*
X3680560Y-16691344D01*
X3684978Y-16696251D01*
X3684979Y-16696252D01*
X3787087Y-16809654D01*
X3808347Y-16833266D01*
X3962848Y-16945518D01*
X3968876Y-16948202D01*
X3968878Y-16948203D01*
X4093231Y-17003568D01*
X4137312Y-17023194D01*
X4230713Y-17043047D01*
X4317656Y-17061528D01*
X4317661Y-17061528D01*
X4324113Y-17062900D01*
X4515087Y-17062900D01*
X4521539Y-17061528D01*
X4521544Y-17061528D01*
X4608487Y-17043047D01*
X4701888Y-17023194D01*
X4745969Y-17003568D01*
X4870322Y-16948203D01*
X4870324Y-16948202D01*
X4876352Y-16945518D01*
X4916430Y-16916400D01*
X4987061Y-16865083D01*
X5053929Y-16841225D01*
X5123080Y-16857305D01*
X5172560Y-16908219D01*
X5186432Y-16953849D01*
X5199060Y-17073994D01*
X5202458Y-17106328D01*
X5261473Y-17287956D01*
X5356960Y-17453344D01*
X5484747Y-17595266D01*
X5639248Y-17707518D01*
X5645276Y-17710202D01*
X5645278Y-17710203D01*
X5807681Y-17782509D01*
X5813712Y-17785194D01*
X5898682Y-17803255D01*
X5994056Y-17823528D01*
X5994061Y-17823528D01*
X6000513Y-17824900D01*
X6056406Y-17824900D01*
X6124527Y-17844902D01*
X6145501Y-17861805D01*
X7244638Y-18960942D01*
X7278664Y-19023254D01*
X7273599Y-19094069D01*
X7231052Y-19150905D01*
X7164532Y-19175716D01*
X7129347Y-19173284D01*
X7061546Y-19158873D01*
X7061547Y-19158873D01*
X7055087Y-19157500D01*
X6864113Y-19157500D01*
X6857661Y-19158872D01*
X6857656Y-19158872D01*
X6778414Y-19175716D01*
X6677312Y-19197206D01*
X6671282Y-19199891D01*
X6671281Y-19199891D01*
X6508878Y-19272197D01*
X6508876Y-19272198D01*
X6502848Y-19274882D01*
X6348347Y-19387134D01*
X6220560Y-19529056D01*
X6125073Y-19694444D01*
X6066058Y-19876072D01*
X6065368Y-19882633D01*
X6065368Y-19882635D01*
X6062377Y-19911091D01*
X6046096Y-20066000D01*
X6046786Y-20072565D01*
X6064403Y-20240177D01*
X6066058Y-20255928D01*
X6125073Y-20437556D01*
X6128376Y-20443278D01*
X6128377Y-20443279D01*
X6141152Y-20465406D01*
X6220560Y-20602944D01*
X6348347Y-20744866D01*
X6502848Y-20857118D01*
X6508876Y-20859802D01*
X6508878Y-20859803D01*
X6635836Y-20916328D01*
X6677312Y-20934794D01*
X6770713Y-20954647D01*
X6857656Y-20973128D01*
X6857661Y-20973128D01*
X6864113Y-20974500D01*
X6920006Y-20974500D01*
X6988127Y-20994502D01*
X7009101Y-21011405D01*
X7226101Y-21228405D01*
X7260127Y-21290717D01*
X7255062Y-21361532D01*
X7212515Y-21418368D01*
X7145995Y-21443179D01*
X7137006Y-21443500D01*
X6965713Y-21443500D01*
X6959261Y-21444872D01*
X6959256Y-21444872D01*
X6888327Y-21459949D01*
X6778912Y-21483206D01*
X6772882Y-21485891D01*
X6772881Y-21485891D01*
X6610478Y-21558197D01*
X6610476Y-21558198D01*
X6604448Y-21560882D01*
X6599107Y-21564762D01*
X6599106Y-21564763D01*
X6560917Y-21592509D01*
X6449947Y-21673134D01*
X6445526Y-21678044D01*
X6445525Y-21678045D01*
X6347152Y-21787300D01*
X6322160Y-21815056D01*
X6318859Y-21820774D01*
X6250581Y-21939035D01*
X6226673Y-21980444D01*
X6167658Y-22162072D01*
X6166968Y-22168633D01*
X6166968Y-22168635D01*
X6153019Y-22301355D01*
X6147696Y-22352000D01*
X6148386Y-22358565D01*
X6165989Y-22526045D01*
X6167658Y-22541928D01*
X6226673Y-22723556D01*
X6229976Y-22729278D01*
X6229977Y-22729279D01*
X6234585Y-22737260D01*
X6322160Y-22888944D01*
X6326578Y-22893851D01*
X6326579Y-22893852D01*
X6445270Y-23025672D01*
X6449947Y-23030866D01*
X6505020Y-23070879D01*
X6595389Y-23136536D01*
X6604448Y-23143118D01*
X6610476Y-23145802D01*
X6610478Y-23145803D01*
X6767246Y-23215600D01*
X6778912Y-23220794D01*
X6843850Y-23234597D01*
X6959256Y-23259128D01*
X6959261Y-23259128D01*
X6965713Y-23260500D01*
X7156687Y-23260500D01*
X7163139Y-23259128D01*
X7163144Y-23259128D01*
X7278550Y-23234597D01*
X7343488Y-23220794D01*
X7355154Y-23215600D01*
X7511922Y-23145803D01*
X7511924Y-23145802D01*
X7517952Y-23143118D01*
X7527012Y-23136536D01*
X7617380Y-23070879D01*
X7672453Y-23030866D01*
X7677130Y-23025672D01*
X7795821Y-22893852D01*
X7795822Y-22893851D01*
X7800240Y-22888944D01*
X7887815Y-22737260D01*
X7892423Y-22729279D01*
X7892424Y-22729278D01*
X7895727Y-22723556D01*
X7954742Y-22541928D01*
X7956412Y-22526045D01*
X7974014Y-22358565D01*
X7974704Y-22352000D01*
X7967854Y-22286828D01*
X7980626Y-22216990D01*
X8029128Y-22165144D01*
X8097961Y-22147749D01*
X8165271Y-22170330D01*
X8182259Y-22184563D01*
X8804116Y-22806420D01*
X8838142Y-22868732D01*
X8841021Y-22895515D01*
X8841021Y-30418762D01*
X8821019Y-30486883D01*
X8767363Y-30533376D01*
X8697089Y-30543480D01*
X8666806Y-30535172D01*
X8546149Y-30485194D01*
X8503164Y-30467389D01*
X8503162Y-30467388D01*
X8498591Y-30465495D01*
X8413968Y-30445179D01*
X8257216Y-30407546D01*
X8257210Y-30407545D01*
X8252403Y-30406391D01*
X8152584Y-30398535D01*
X8065655Y-30391693D01*
X8065648Y-30391693D01*
X8063199Y-30391500D01*
X7936801Y-30391500D01*
X7934352Y-30391693D01*
X7934345Y-30391693D01*
X7847416Y-30398535D01*
X7747597Y-30406391D01*
X7742790Y-30407545D01*
X7742784Y-30407546D01*
X7586032Y-30445179D01*
X7501409Y-30465495D01*
X7496838Y-30467388D01*
X7496836Y-30467389D01*
X7272072Y-30560489D01*
X7272068Y-30560491D01*
X7267498Y-30562384D01*
X7051624Y-30694672D01*
X6859102Y-30859102D01*
X6694672Y-31051624D01*
X6562384Y-31267498D01*
X6465495Y-31501409D01*
X6464340Y-31506221D01*
X6419764Y-31691896D01*
X6406391Y-31747597D01*
X6386526Y-32000000D01*
X6406391Y-32252403D01*
X6465495Y-32498591D01*
X6562384Y-32732502D01*
X6694672Y-32948376D01*
X6859102Y-33140898D01*
X7051624Y-33305328D01*
X7267498Y-33437616D01*
X7272068Y-33439509D01*
X7272072Y-33439511D01*
X7422698Y-33501902D01*
X7501409Y-33534505D01*
X7586032Y-33554821D01*
X7742784Y-33592454D01*
X7742790Y-33592455D01*
X7747597Y-33593609D01*
X7847416Y-33601465D01*
X7934345Y-33608307D01*
X7934352Y-33608307D01*
X7936801Y-33608500D01*
X8063199Y-33608500D01*
X8065648Y-33608307D01*
X8065655Y-33608307D01*
X8152584Y-33601465D01*
X8252403Y-33593609D01*
X8257210Y-33592455D01*
X8257216Y-33592454D01*
X8413968Y-33554821D01*
X8498591Y-33534505D01*
X8577302Y-33501902D01*
X8727928Y-33439511D01*
X8727932Y-33439509D01*
X8732502Y-33437616D01*
X8948376Y-33305328D01*
X9140898Y-33140898D01*
X9305328Y-32948376D01*
X9437616Y-32732502D01*
X9513124Y-32550210D01*
X9557672Y-32494929D01*
X9625036Y-32472508D01*
X9693827Y-32490066D01*
X9718628Y-32509333D01*
X12610901Y-35401605D01*
X12644927Y-35463917D01*
X12639862Y-35534732D01*
X12597315Y-35591568D01*
X12530795Y-35616379D01*
X12521806Y-35616700D01*
X12452113Y-35616700D01*
X12445661Y-35618072D01*
X12445656Y-35618072D01*
X12371095Y-35633921D01*
X12265312Y-35656406D01*
X12259282Y-35659091D01*
X12259281Y-35659091D01*
X12096878Y-35731397D01*
X12096876Y-35731398D01*
X12090848Y-35734082D01*
X12085507Y-35737962D01*
X12085506Y-35737963D01*
X12078071Y-35743365D01*
X11936347Y-35846334D01*
X11931926Y-35851244D01*
X11931925Y-35851245D01*
X11823563Y-35971594D01*
X11808560Y-35988256D01*
X11713073Y-36153644D01*
X11654058Y-36335272D01*
X11653368Y-36341833D01*
X11653368Y-36341835D01*
X11640125Y-36467835D01*
X11634096Y-36525200D01*
X11634786Y-36531765D01*
X11652463Y-36699949D01*
X11654058Y-36715128D01*
X11713073Y-36896756D01*
X11808560Y-37062144D01*
X11812978Y-37067051D01*
X11812979Y-37067052D01*
X11894103Y-37157149D01*
X11936347Y-37204066D01*
X12090848Y-37316318D01*
X12096876Y-37319002D01*
X12096878Y-37319003D01*
X12240394Y-37382900D01*
X12265312Y-37393994D01*
X12358713Y-37413847D01*
X12445656Y-37432328D01*
X12445661Y-37432328D01*
X12452113Y-37433700D01*
X12643087Y-37433700D01*
X12649539Y-37432328D01*
X12649544Y-37432328D01*
X12736487Y-37413847D01*
X12829888Y-37393994D01*
X12854806Y-37382900D01*
X12998322Y-37319003D01*
X12998324Y-37319002D01*
X13004352Y-37316318D01*
X13158853Y-37204066D01*
X13201097Y-37157149D01*
X13282221Y-37067052D01*
X13282222Y-37067051D01*
X13286640Y-37062144D01*
X13382127Y-36896756D01*
X13441142Y-36715128D01*
X13443075Y-36696737D01*
X13470090Y-36631081D01*
X13528312Y-36590452D01*
X13599257Y-36587751D01*
X13660401Y-36623834D01*
X13688217Y-36670972D01*
X13745073Y-36845956D01*
X13840560Y-37011344D01*
X13844978Y-37016251D01*
X13844979Y-37016252D01*
X13926892Y-37107226D01*
X13968347Y-37153266D01*
X14122848Y-37265518D01*
X14128876Y-37268202D01*
X14128878Y-37268203D01*
X14291281Y-37340509D01*
X14297312Y-37343194D01*
X14390713Y-37363047D01*
X14477656Y-37381528D01*
X14477661Y-37381528D01*
X14484113Y-37382900D01*
X14675087Y-37382900D01*
X14681539Y-37381528D01*
X14681544Y-37381528D01*
X14768487Y-37363047D01*
X14861888Y-37343194D01*
X14867919Y-37340509D01*
X15030322Y-37268203D01*
X15030324Y-37268202D01*
X15036352Y-37265518D01*
X15190853Y-37153266D01*
X15232308Y-37107226D01*
X15314221Y-37016252D01*
X15314222Y-37016251D01*
X15318640Y-37011344D01*
X15414127Y-36845956D01*
X15473142Y-36664328D01*
X15476637Y-36631081D01*
X15482426Y-36576000D01*
X27026496Y-36576000D01*
X27027186Y-36582565D01*
X27041779Y-36721406D01*
X27046458Y-36765928D01*
X27105473Y-36947556D01*
X27200960Y-37112944D01*
X27205378Y-37117851D01*
X27205379Y-37117852D01*
X27286503Y-37207949D01*
X27328747Y-37254866D01*
X27347104Y-37268203D01*
X27450320Y-37343194D01*
X27483248Y-37367118D01*
X27489276Y-37369802D01*
X27489278Y-37369803D01*
X27632794Y-37433700D01*
X27657712Y-37444794D01*
X27751113Y-37464647D01*
X27838056Y-37483128D01*
X27838061Y-37483128D01*
X27844513Y-37484500D01*
X28035487Y-37484500D01*
X28041939Y-37483128D01*
X28041944Y-37483128D01*
X28128887Y-37464647D01*
X28222288Y-37444794D01*
X28247206Y-37433700D01*
X28390722Y-37369803D01*
X28390724Y-37369802D01*
X28396752Y-37367118D01*
X28429681Y-37343194D01*
X28532896Y-37268203D01*
X28551253Y-37254866D01*
X28593497Y-37207949D01*
X28674621Y-37117852D01*
X28674622Y-37117851D01*
X28679040Y-37112944D01*
X28774527Y-36947556D01*
X28833542Y-36765928D01*
X28838222Y-36721406D01*
X28852814Y-36582565D01*
X28853504Y-36576000D01*
X28842826Y-36474400D01*
X34900496Y-36474400D01*
X34901186Y-36480965D01*
X34916964Y-36631081D01*
X34920458Y-36664328D01*
X34979473Y-36845956D01*
X35074960Y-37011344D01*
X35079378Y-37016251D01*
X35079379Y-37016252D01*
X35161292Y-37107226D01*
X35202747Y-37153266D01*
X35357248Y-37265518D01*
X35363276Y-37268202D01*
X35363278Y-37268203D01*
X35525681Y-37340509D01*
X35531712Y-37343194D01*
X35625113Y-37363047D01*
X35712056Y-37381528D01*
X35712061Y-37381528D01*
X35718513Y-37382900D01*
X35909487Y-37382900D01*
X35915939Y-37381528D01*
X35915944Y-37381528D01*
X36002887Y-37363047D01*
X36096288Y-37343194D01*
X36102319Y-37340509D01*
X36264722Y-37268203D01*
X36264724Y-37268202D01*
X36270752Y-37265518D01*
X36425253Y-37153266D01*
X36466708Y-37107226D01*
X36548621Y-37016252D01*
X36548622Y-37016251D01*
X36553040Y-37011344D01*
X36648527Y-36845956D01*
X36707542Y-36664328D01*
X36711037Y-36631081D01*
X36726814Y-36480965D01*
X36727504Y-36474400D01*
X36722711Y-36428794D01*
X36708232Y-36291035D01*
X36708232Y-36291033D01*
X36707542Y-36284472D01*
X36648527Y-36102844D01*
X36553040Y-35937456D01*
X36478914Y-35855130D01*
X36429675Y-35800445D01*
X36429674Y-35800444D01*
X36425253Y-35795534D01*
X36304687Y-35707937D01*
X36276094Y-35687163D01*
X36276093Y-35687162D01*
X36270752Y-35683282D01*
X36264724Y-35680598D01*
X36264722Y-35680597D01*
X36102319Y-35608291D01*
X36102318Y-35608291D01*
X36096288Y-35605606D01*
X35999604Y-35585055D01*
X35915944Y-35567272D01*
X35915939Y-35567272D01*
X35909487Y-35565900D01*
X35718513Y-35565900D01*
X35712061Y-35567272D01*
X35712056Y-35567272D01*
X35628396Y-35585055D01*
X35531712Y-35605606D01*
X35525682Y-35608291D01*
X35525681Y-35608291D01*
X35363278Y-35680597D01*
X35363276Y-35680598D01*
X35357248Y-35683282D01*
X35351907Y-35687162D01*
X35351906Y-35687163D01*
X35323313Y-35707937D01*
X35202747Y-35795534D01*
X35198326Y-35800444D01*
X35198325Y-35800445D01*
X35149087Y-35855130D01*
X35074960Y-35937456D01*
X34979473Y-36102844D01*
X34920458Y-36284472D01*
X34919768Y-36291033D01*
X34919768Y-36291035D01*
X34905289Y-36428794D01*
X34900496Y-36474400D01*
X28842826Y-36474400D01*
X28834232Y-36392635D01*
X28834232Y-36392633D01*
X28833542Y-36386072D01*
X28774527Y-36204444D01*
X28679040Y-36039056D01*
X28654049Y-36011300D01*
X28555675Y-35902045D01*
X28555674Y-35902044D01*
X28551253Y-35897134D01*
X28396752Y-35784882D01*
X28390724Y-35782198D01*
X28390722Y-35782197D01*
X28228319Y-35709891D01*
X28228318Y-35709891D01*
X28222288Y-35707206D01*
X28118509Y-35685147D01*
X28041944Y-35668872D01*
X28041939Y-35668872D01*
X28035487Y-35667500D01*
X27844513Y-35667500D01*
X27838061Y-35668872D01*
X27838056Y-35668872D01*
X27761491Y-35685147D01*
X27657712Y-35707206D01*
X27651682Y-35709891D01*
X27651681Y-35709891D01*
X27489278Y-35782197D01*
X27489276Y-35782198D01*
X27483248Y-35784882D01*
X27328747Y-35897134D01*
X27324326Y-35902044D01*
X27324325Y-35902045D01*
X27225952Y-36011300D01*
X27200960Y-36039056D01*
X27105473Y-36204444D01*
X27046458Y-36386072D01*
X27045768Y-36392633D01*
X27045768Y-36392635D01*
X27037174Y-36474400D01*
X27026496Y-36576000D01*
X15482426Y-36576000D01*
X15492414Y-36480965D01*
X15493104Y-36474400D01*
X15488311Y-36428794D01*
X15473832Y-36291035D01*
X15473832Y-36291033D01*
X15473142Y-36284472D01*
X15414127Y-36102844D01*
X15318640Y-35937456D01*
X15244514Y-35855130D01*
X15195275Y-35800445D01*
X15195274Y-35800444D01*
X15190853Y-35795534D01*
X15070287Y-35707937D01*
X15041694Y-35687163D01*
X15041693Y-35687162D01*
X15036352Y-35683282D01*
X15030324Y-35680598D01*
X15030322Y-35680597D01*
X14867919Y-35608291D01*
X14867918Y-35608291D01*
X14861888Y-35605606D01*
X14765204Y-35585055D01*
X14681544Y-35567272D01*
X14681539Y-35567272D01*
X14675087Y-35565900D01*
X14619194Y-35565900D01*
X14551073Y-35545898D01*
X14530099Y-35528995D01*
X10144926Y-31143821D01*
X10110900Y-31081509D01*
X10108021Y-31054726D01*
X10108021Y-28259137D01*
X10128023Y-28191016D01*
X10181679Y-28144523D01*
X10251953Y-28134419D01*
X10316533Y-28163913D01*
X10327647Y-28174816D01*
X10361547Y-28212466D01*
X10398902Y-28239606D01*
X10502118Y-28314597D01*
X10516048Y-28324718D01*
X10522076Y-28327402D01*
X10522078Y-28327403D01*
X10671811Y-28394068D01*
X10690512Y-28402394D01*
X10783912Y-28422247D01*
X10870856Y-28440728D01*
X10870861Y-28440728D01*
X10877313Y-28442100D01*
X11068287Y-28442100D01*
X11074739Y-28440728D01*
X11074744Y-28440728D01*
X11161687Y-28422247D01*
X11255088Y-28402394D01*
X11273789Y-28394068D01*
X11423522Y-28327403D01*
X11423524Y-28327402D01*
X11429552Y-28324718D01*
X11443483Y-28314597D01*
X11546698Y-28239606D01*
X11584053Y-28212466D01*
X11621593Y-28170774D01*
X11707421Y-28075452D01*
X11707422Y-28075451D01*
X11711840Y-28070544D01*
X11770114Y-27969610D01*
X11804023Y-27910879D01*
X11804024Y-27910878D01*
X11807327Y-27905156D01*
X11866342Y-27723528D01*
X11881229Y-27581891D01*
X11885614Y-27540165D01*
X11886304Y-27533600D01*
X11881158Y-27484640D01*
X11867032Y-27350235D01*
X11867032Y-27350233D01*
X11866342Y-27343672D01*
X11807327Y-27162044D01*
X11711840Y-26996656D01*
X11584053Y-26854734D01*
X11446303Y-26754652D01*
X11434894Y-26746363D01*
X11434893Y-26746362D01*
X11429552Y-26742482D01*
X11423524Y-26739798D01*
X11423522Y-26739797D01*
X11261119Y-26667491D01*
X11261118Y-26667491D01*
X11255088Y-26664806D01*
X11161687Y-26644953D01*
X11074744Y-26626472D01*
X11074739Y-26626472D01*
X11068287Y-26625100D01*
X10877313Y-26625100D01*
X10870861Y-26626472D01*
X10870856Y-26626472D01*
X10783913Y-26644953D01*
X10690512Y-26664806D01*
X10684482Y-26667491D01*
X10684481Y-26667491D01*
X10522078Y-26739797D01*
X10522076Y-26739798D01*
X10516048Y-26742482D01*
X10510707Y-26746362D01*
X10510706Y-26746363D01*
X10499297Y-26754652D01*
X10361547Y-26854734D01*
X10327655Y-26892375D01*
X10267212Y-26929613D01*
X10196228Y-26928262D01*
X10137243Y-26888748D01*
X10108985Y-26823618D01*
X10108021Y-26808063D01*
X10108021Y-22659684D01*
X10108548Y-22648500D01*
X10110222Y-22641012D01*
X10108083Y-22572953D01*
X10108021Y-22568996D01*
X10108021Y-22541065D01*
X10107515Y-22537059D01*
X10106582Y-22525213D01*
X10105443Y-22488958D01*
X10105194Y-22481031D01*
X10099543Y-22461579D01*
X10095535Y-22442227D01*
X10093989Y-22429989D01*
X10093988Y-22429987D01*
X10092995Y-22422124D01*
X10076715Y-22381007D01*
X10072880Y-22369806D01*
X10060539Y-22327327D01*
X10056506Y-22320508D01*
X10056504Y-22320503D01*
X10050228Y-22309892D01*
X10041531Y-22292142D01*
X10034073Y-22273304D01*
X10008092Y-22237544D01*
X10001574Y-22227622D01*
X9983099Y-22196381D01*
X9983095Y-22196376D01*
X9979063Y-22189558D01*
X9964739Y-22175234D01*
X9951897Y-22160199D01*
X9939993Y-22143814D01*
X9905927Y-22115632D01*
X9897148Y-22107643D01*
X7906722Y-20117217D01*
X7872696Y-20054905D01*
X7870507Y-20041292D01*
X7854322Y-19887296D01*
X7867094Y-19817458D01*
X7915596Y-19765611D01*
X7984429Y-19748217D01*
X8051739Y-19770799D01*
X8068727Y-19785031D01*
X13147195Y-24863499D01*
X13181221Y-24925811D01*
X13184100Y-24952594D01*
X13184100Y-32949847D01*
X13183573Y-32961030D01*
X13181898Y-32968523D01*
X13182147Y-32976449D01*
X13182147Y-32976450D01*
X13184038Y-33036600D01*
X13184100Y-33040559D01*
X13184100Y-33068470D01*
X13184597Y-33072404D01*
X13184597Y-33072405D01*
X13184605Y-33072470D01*
X13185538Y-33084307D01*
X13186927Y-33128503D01*
X13191460Y-33144106D01*
X13192578Y-33147953D01*
X13196587Y-33167314D01*
X13199126Y-33187411D01*
X13202045Y-33194782D01*
X13202045Y-33194784D01*
X13215404Y-33228526D01*
X13219249Y-33239756D01*
X13231582Y-33282207D01*
X13235615Y-33289026D01*
X13235617Y-33289031D01*
X13241893Y-33299642D01*
X13250588Y-33317390D01*
X13258048Y-33336231D01*
X13262710Y-33342647D01*
X13262710Y-33342648D01*
X13284036Y-33372001D01*
X13290552Y-33381921D01*
X13293351Y-33386653D01*
X13313058Y-33419976D01*
X13327379Y-33434297D01*
X13340219Y-33449330D01*
X13352128Y-33465721D01*
X13358234Y-33470772D01*
X13386205Y-33493912D01*
X13394984Y-33501902D01*
X15388134Y-35495053D01*
X15395674Y-35503339D01*
X15399786Y-35509818D01*
X15405563Y-35515243D01*
X15449437Y-35556443D01*
X15452279Y-35559198D01*
X15472016Y-35578935D01*
X15475213Y-35581415D01*
X15484233Y-35589118D01*
X15516465Y-35619386D01*
X15523411Y-35623205D01*
X15523414Y-35623207D01*
X15534220Y-35629148D01*
X15550739Y-35639999D01*
X15566745Y-35652414D01*
X15574014Y-35655559D01*
X15574018Y-35655562D01*
X15607323Y-35669974D01*
X15617973Y-35675191D01*
X15656726Y-35696495D01*
X15664401Y-35698466D01*
X15664402Y-35698466D01*
X15676348Y-35701533D01*
X15695052Y-35707937D01*
X15705521Y-35712467D01*
X15713641Y-35715981D01*
X15721464Y-35717220D01*
X15721474Y-35717223D01*
X15757310Y-35722899D01*
X15768930Y-35725305D01*
X15792659Y-35731397D01*
X15811756Y-35736300D01*
X15832010Y-35736300D01*
X15851720Y-35737851D01*
X15871729Y-35741020D01*
X15879621Y-35740274D01*
X15915747Y-35736859D01*
X15927605Y-35736300D01*
X16817800Y-35736300D01*
X16885921Y-35756302D01*
X16905147Y-35772643D01*
X16905420Y-35772340D01*
X16910332Y-35776763D01*
X16914747Y-35781666D01*
X16924515Y-35788763D01*
X17003755Y-35846334D01*
X17069248Y-35893918D01*
X17075276Y-35896602D01*
X17075278Y-35896603D01*
X17167036Y-35937456D01*
X17243712Y-35971594D01*
X17337112Y-35991447D01*
X17424056Y-36009928D01*
X17424061Y-36009928D01*
X17430513Y-36011300D01*
X17621487Y-36011300D01*
X17627939Y-36009928D01*
X17627944Y-36009928D01*
X17714888Y-35991447D01*
X17808288Y-35971594D01*
X17884964Y-35937456D01*
X17976722Y-35896603D01*
X17976724Y-35896602D01*
X17982752Y-35893918D01*
X18036139Y-35855130D01*
X18103007Y-35831271D01*
X18172158Y-35847352D01*
X18184261Y-35855130D01*
X18237648Y-35893918D01*
X18243676Y-35896602D01*
X18243678Y-35896603D01*
X18335436Y-35937456D01*
X18412112Y-35971594D01*
X18505512Y-35991447D01*
X18592456Y-36009928D01*
X18592461Y-36009928D01*
X18598913Y-36011300D01*
X18789887Y-36011300D01*
X18796339Y-36009928D01*
X18796344Y-36009928D01*
X18883288Y-35991447D01*
X18976688Y-35971594D01*
X19053364Y-35937456D01*
X19145122Y-35896603D01*
X19145124Y-35896602D01*
X19151152Y-35893918D01*
X19305653Y-35781666D01*
X19342923Y-35740274D01*
X19367960Y-35712467D01*
X19428406Y-35675227D01*
X19499390Y-35676579D01*
X19558374Y-35716092D01*
X19581428Y-35757839D01*
X19637873Y-35931556D01*
X19733360Y-36096944D01*
X19861147Y-36238866D01*
X20015648Y-36351118D01*
X20021676Y-36353802D01*
X20021678Y-36353803D01*
X20184081Y-36426109D01*
X20190112Y-36428794D01*
X20283513Y-36448647D01*
X20370456Y-36467128D01*
X20370461Y-36467128D01*
X20376913Y-36468500D01*
X20567887Y-36468500D01*
X20574339Y-36467128D01*
X20574344Y-36467128D01*
X20661287Y-36448647D01*
X20754688Y-36428794D01*
X20760719Y-36426109D01*
X20923122Y-36353803D01*
X20923124Y-36353802D01*
X20929152Y-36351118D01*
X21083653Y-36238866D01*
X21211440Y-36096944D01*
X21306927Y-35931556D01*
X21365942Y-35749928D01*
X21367212Y-35737851D01*
X21385214Y-35566565D01*
X21385904Y-35560000D01*
X21365942Y-35370072D01*
X21306927Y-35188444D01*
X21211440Y-35023056D01*
X21083653Y-34881134D01*
X20929152Y-34768882D01*
X20923124Y-34766198D01*
X20923122Y-34766197D01*
X20760719Y-34693891D01*
X20760718Y-34693891D01*
X20754688Y-34691206D01*
X20661288Y-34671353D01*
X20574344Y-34652872D01*
X20574339Y-34652872D01*
X20567887Y-34651500D01*
X20376913Y-34651500D01*
X20370461Y-34652872D01*
X20370456Y-34652872D01*
X20283512Y-34671353D01*
X20190112Y-34691206D01*
X20184082Y-34693891D01*
X20184081Y-34693891D01*
X20021678Y-34766197D01*
X20021676Y-34766198D01*
X20015648Y-34768882D01*
X19861147Y-34881134D01*
X19856726Y-34886044D01*
X19856725Y-34886045D01*
X19798840Y-34950333D01*
X19738394Y-34987573D01*
X19667410Y-34986221D01*
X19608426Y-34946708D01*
X19585371Y-34904960D01*
X19577630Y-34881134D01*
X19528927Y-34731244D01*
X19433440Y-34565856D01*
X19429021Y-34560948D01*
X19425139Y-34555605D01*
X19427486Y-34553900D01*
X19402274Y-34501304D01*
X19411070Y-34430854D01*
X19437542Y-34391962D01*
X21829504Y-32000000D01*
X30386526Y-32000000D01*
X30406391Y-32252403D01*
X30465495Y-32498591D01*
X30562384Y-32732502D01*
X30694672Y-32948376D01*
X30859102Y-33140898D01*
X31051624Y-33305328D01*
X31267498Y-33437616D01*
X31272068Y-33439509D01*
X31272072Y-33439511D01*
X31422698Y-33501902D01*
X31501409Y-33534505D01*
X31586032Y-33554821D01*
X31742784Y-33592454D01*
X31742790Y-33592455D01*
X31747597Y-33593609D01*
X31847416Y-33601465D01*
X31934345Y-33608307D01*
X31934352Y-33608307D01*
X31936801Y-33608500D01*
X32063199Y-33608500D01*
X32065648Y-33608307D01*
X32065655Y-33608307D01*
X32152584Y-33601465D01*
X32252403Y-33593609D01*
X32257210Y-33592455D01*
X32257216Y-33592454D01*
X32413968Y-33554821D01*
X32498591Y-33534505D01*
X32577302Y-33501902D01*
X32727928Y-33439511D01*
X32727932Y-33439509D01*
X32732502Y-33437616D01*
X32948376Y-33305328D01*
X33140898Y-33140898D01*
X33305328Y-32948376D01*
X33437616Y-32732502D01*
X33534505Y-32498591D01*
X33593609Y-32252403D01*
X33613474Y-32000000D01*
X33593609Y-31747597D01*
X33580237Y-31691896D01*
X33535660Y-31506221D01*
X33534505Y-31501409D01*
X33437616Y-31267498D01*
X33305328Y-31051624D01*
X33140898Y-30859102D01*
X32948376Y-30694672D01*
X32732502Y-30562384D01*
X32727932Y-30560491D01*
X32727928Y-30560489D01*
X32503164Y-30467389D01*
X32503162Y-30467388D01*
X32498591Y-30465495D01*
X32413968Y-30445179D01*
X32257216Y-30407546D01*
X32257210Y-30407545D01*
X32252403Y-30406391D01*
X32152584Y-30398535D01*
X32065655Y-30391693D01*
X32065648Y-30391693D01*
X32063199Y-30391500D01*
X31936801Y-30391500D01*
X31934352Y-30391693D01*
X31934345Y-30391693D01*
X31847416Y-30398535D01*
X31747597Y-30406391D01*
X31742790Y-30407545D01*
X31742784Y-30407546D01*
X31586032Y-30445179D01*
X31501409Y-30465495D01*
X31496838Y-30467388D01*
X31496836Y-30467389D01*
X31272072Y-30560489D01*
X31272068Y-30560491D01*
X31267498Y-30562384D01*
X31051624Y-30694672D01*
X30859102Y-30859102D01*
X30694672Y-31051624D01*
X30562384Y-31267498D01*
X30465495Y-31501409D01*
X30464340Y-31506221D01*
X30419764Y-31691896D01*
X30406391Y-31747597D01*
X30386526Y-32000000D01*
X21829504Y-32000000D01*
X23267699Y-30561805D01*
X23330011Y-30527779D01*
X23356794Y-30524900D01*
X23412687Y-30524900D01*
X23419139Y-30523528D01*
X23419144Y-30523528D01*
X23506088Y-30505047D01*
X23599488Y-30485194D01*
X23643733Y-30465495D01*
X23767922Y-30410203D01*
X23767924Y-30410202D01*
X23773952Y-30407518D01*
X23928453Y-30295266D01*
X24056240Y-30153344D01*
X24151727Y-29987956D01*
X24210742Y-29806328D01*
X24212746Y-29787266D01*
X24230014Y-29622965D01*
X24230704Y-29616400D01*
X24225911Y-29570794D01*
X24211432Y-29433035D01*
X24211432Y-29433033D01*
X24210742Y-29426472D01*
X24151727Y-29244844D01*
X24146181Y-29235237D01*
X24072951Y-29108400D01*
X24056240Y-29079456D01*
X23928453Y-28937534D01*
X23901243Y-28917765D01*
X23857891Y-28861543D01*
X23851816Y-28790807D01*
X23881668Y-28731522D01*
X23906149Y-28704333D01*
X23975479Y-28584250D01*
X23998332Y-28544668D01*
X23998333Y-28544667D01*
X24001636Y-28538945D01*
X24060651Y-28357317D01*
X24063476Y-28330444D01*
X24079923Y-28173954D01*
X24080613Y-28167389D01*
X24071715Y-28082729D01*
X24061341Y-27984024D01*
X24061341Y-27984022D01*
X24060651Y-27977461D01*
X24048479Y-27940000D01*
X25908896Y-27940000D01*
X25909586Y-27946565D01*
X25922617Y-28070544D01*
X25928858Y-28129928D01*
X25987873Y-28311556D01*
X25991176Y-28317278D01*
X25991177Y-28317279D01*
X25995472Y-28324718D01*
X26083360Y-28476944D01*
X26087778Y-28481851D01*
X26087779Y-28481852D01*
X26153902Y-28555289D01*
X26211147Y-28618866D01*
X26274773Y-28665093D01*
X26334607Y-28708565D01*
X26365648Y-28731118D01*
X26371676Y-28733802D01*
X26371678Y-28733803D01*
X26392625Y-28743129D01*
X26540112Y-28808794D01*
X26633513Y-28828647D01*
X26720456Y-28847128D01*
X26720461Y-28847128D01*
X26726913Y-28848500D01*
X26917887Y-28848500D01*
X26924339Y-28847128D01*
X26924344Y-28847128D01*
X27011287Y-28828647D01*
X27104688Y-28808794D01*
X27252175Y-28743129D01*
X27273122Y-28733803D01*
X27273124Y-28733802D01*
X27279152Y-28731118D01*
X27310194Y-28708565D01*
X27370027Y-28665093D01*
X27433653Y-28618866D01*
X27490898Y-28555289D01*
X27557021Y-28481852D01*
X27557022Y-28481851D01*
X27561440Y-28476944D01*
X27649328Y-28324718D01*
X27653623Y-28317279D01*
X27653624Y-28317278D01*
X27656927Y-28311556D01*
X27715942Y-28129928D01*
X27722184Y-28070544D01*
X27735214Y-27946565D01*
X27735904Y-27940000D01*
X27724680Y-27833206D01*
X27716632Y-27756635D01*
X27716632Y-27756633D01*
X27715942Y-27750072D01*
X27656927Y-27568444D01*
X27633020Y-27527035D01*
X27564741Y-27408774D01*
X27561440Y-27403056D01*
X27507971Y-27343672D01*
X27438075Y-27266045D01*
X27438074Y-27266044D01*
X27433653Y-27261134D01*
X27324619Y-27181916D01*
X27284494Y-27152763D01*
X27284493Y-27152762D01*
X27279152Y-27148882D01*
X27273124Y-27146198D01*
X27273122Y-27146197D01*
X27110719Y-27073891D01*
X27110718Y-27073891D01*
X27104688Y-27071206D01*
X27011287Y-27051353D01*
X26924344Y-27032872D01*
X26924339Y-27032872D01*
X26917887Y-27031500D01*
X26726913Y-27031500D01*
X26720461Y-27032872D01*
X26720456Y-27032872D01*
X26633512Y-27051353D01*
X26540112Y-27071206D01*
X26534082Y-27073891D01*
X26534081Y-27073891D01*
X26371678Y-27146197D01*
X26371676Y-27146198D01*
X26365648Y-27148882D01*
X26360307Y-27152762D01*
X26360306Y-27152763D01*
X26320181Y-27181916D01*
X26211147Y-27261134D01*
X26206726Y-27266044D01*
X26206725Y-27266045D01*
X26136830Y-27343672D01*
X26083360Y-27403056D01*
X26080059Y-27408774D01*
X26011781Y-27527035D01*
X25987873Y-27568444D01*
X25928858Y-27750072D01*
X25928168Y-27756633D01*
X25928168Y-27756635D01*
X25920120Y-27833206D01*
X25908896Y-27940000D01*
X24048479Y-27940000D01*
X24001636Y-27795833D01*
X23983980Y-27765251D01*
X23909450Y-27636163D01*
X23906149Y-27630445D01*
X23818950Y-27533600D01*
X23782784Y-27493434D01*
X23782783Y-27493433D01*
X23778362Y-27488523D01*
X23623861Y-27376271D01*
X23617833Y-27373587D01*
X23617831Y-27373586D01*
X23455428Y-27301280D01*
X23455427Y-27301280D01*
X23449397Y-27298595D01*
X23442942Y-27297223D01*
X23442939Y-27297222D01*
X23428485Y-27294150D01*
X23366011Y-27260422D01*
X23331690Y-27198273D01*
X23336417Y-27127434D01*
X23378692Y-27070396D01*
X23403432Y-27055796D01*
X23513922Y-27006603D01*
X23513924Y-27006602D01*
X23519952Y-27003918D01*
X23529948Y-26996656D01*
X23595214Y-26949237D01*
X23674453Y-26891666D01*
X23716697Y-26844749D01*
X23797821Y-26754652D01*
X23797822Y-26754651D01*
X23802240Y-26749744D01*
X23897727Y-26584356D01*
X23956742Y-26402728D01*
X23961422Y-26358206D01*
X23974411Y-26234618D01*
X24001424Y-26168962D01*
X24059646Y-26128332D01*
X24099721Y-26121789D01*
X32641295Y-26121789D01*
X32709416Y-26141791D01*
X32730390Y-26158694D01*
X34968478Y-28396782D01*
X35002504Y-28459094D01*
X35004693Y-28472707D01*
X35020463Y-28622749D01*
X35022058Y-28637928D01*
X35081073Y-28819556D01*
X35176560Y-28984944D01*
X35180978Y-28989851D01*
X35180979Y-28989852D01*
X35261659Y-29079456D01*
X35304347Y-29126866D01*
X35458848Y-29239118D01*
X35464876Y-29241802D01*
X35464878Y-29241803D01*
X35591836Y-29298328D01*
X35633312Y-29316794D01*
X35726713Y-29336647D01*
X35813656Y-29355128D01*
X35813661Y-29355128D01*
X35820113Y-29356500D01*
X36011087Y-29356500D01*
X36017539Y-29355128D01*
X36017544Y-29355128D01*
X36104487Y-29336647D01*
X36197888Y-29316794D01*
X36239364Y-29298328D01*
X36366322Y-29241803D01*
X36366324Y-29241802D01*
X36372352Y-29239118D01*
X36526853Y-29126866D01*
X36569541Y-29079456D01*
X36650221Y-28989852D01*
X36650222Y-28989851D01*
X36654640Y-28984944D01*
X36750127Y-28819556D01*
X36809142Y-28637928D01*
X36810738Y-28622749D01*
X36828414Y-28454565D01*
X36829104Y-28448000D01*
X36824311Y-28402394D01*
X36809832Y-28264635D01*
X36809832Y-28264633D01*
X36809142Y-28258072D01*
X36750127Y-28076444D01*
X36654640Y-27911056D01*
X36526853Y-27769134D01*
X36372352Y-27656882D01*
X36366324Y-27654198D01*
X36366322Y-27654197D01*
X36203919Y-27581891D01*
X36203918Y-27581891D01*
X36197888Y-27579206D01*
X36104487Y-27559353D01*
X36017544Y-27540872D01*
X36017539Y-27540872D01*
X36011087Y-27539500D01*
X35955195Y-27539500D01*
X35887074Y-27519498D01*
X35866100Y-27502595D01*
X33459541Y-25096036D01*
X33452001Y-25087750D01*
X33447889Y-25081271D01*
X33398237Y-25034645D01*
X33395396Y-25031891D01*
X33375659Y-25012154D01*
X33372462Y-25009674D01*
X33363440Y-25001969D01*
X33336989Y-24977130D01*
X33331210Y-24971703D01*
X33324264Y-24967884D01*
X33324261Y-24967882D01*
X33313455Y-24961941D01*
X33296936Y-24951090D01*
X33296472Y-24950730D01*
X33280930Y-24938675D01*
X33273661Y-24935530D01*
X33273657Y-24935527D01*
X33240352Y-24921115D01*
X33229702Y-24915898D01*
X33190949Y-24894594D01*
X33182066Y-24892313D01*
X33176543Y-24890895D01*
X33171326Y-24889556D01*
X33152623Y-24883152D01*
X33141309Y-24878256D01*
X33141308Y-24878256D01*
X33134034Y-24875108D01*
X33126206Y-24873868D01*
X33124704Y-24873630D01*
X33123622Y-24873117D01*
X33118590Y-24871655D01*
X33118826Y-24870843D01*
X33060551Y-24843218D01*
X33023023Y-24782950D01*
X33018414Y-24749181D01*
X33018414Y-24746165D01*
X33019104Y-24739600D01*
X33003195Y-24588237D01*
X32999832Y-24556235D01*
X32999832Y-24556233D01*
X32999142Y-24549672D01*
X32940127Y-24368044D01*
X32934581Y-24358437D01*
X32866796Y-24241031D01*
X32844640Y-24202656D01*
X32716853Y-24060734D01*
X32562352Y-23948482D01*
X32556324Y-23945798D01*
X32556322Y-23945797D01*
X32393919Y-23873491D01*
X32393918Y-23873491D01*
X32387888Y-23870806D01*
X32266646Y-23845035D01*
X32207544Y-23832472D01*
X32207539Y-23832472D01*
X32201087Y-23831100D01*
X32010113Y-23831100D01*
X32003661Y-23832472D01*
X32003656Y-23832472D01*
X31944554Y-23845035D01*
X31823312Y-23870806D01*
X31817282Y-23873491D01*
X31817281Y-23873491D01*
X31654878Y-23945797D01*
X31654876Y-23945798D01*
X31648848Y-23948482D01*
X31494347Y-24060734D01*
X31366560Y-24202656D01*
X31344404Y-24241031D01*
X31276620Y-24358437D01*
X31271073Y-24368044D01*
X31232399Y-24487068D01*
X31218252Y-24530609D01*
X31178178Y-24589215D01*
X31112782Y-24616852D01*
X31042825Y-24604745D01*
X30990519Y-24556739D01*
X30973109Y-24504844D01*
X30967832Y-24454635D01*
X30967832Y-24454633D01*
X30967142Y-24448072D01*
X30908127Y-24266444D01*
X30896692Y-24246637D01*
X30825659Y-24123606D01*
X30808921Y-24054611D01*
X30825658Y-23997609D01*
X30857327Y-23942756D01*
X30916342Y-23761128D01*
X30920591Y-23720706D01*
X30935614Y-23577765D01*
X30936304Y-23571200D01*
X30919551Y-23411806D01*
X30917032Y-23387835D01*
X30917032Y-23387833D01*
X30916342Y-23381272D01*
X30857327Y-23199644D01*
X30761840Y-23034256D01*
X30634053Y-22892334D01*
X30508713Y-22801269D01*
X30484894Y-22783963D01*
X30484893Y-22783962D01*
X30479552Y-22780082D01*
X30473524Y-22777398D01*
X30473522Y-22777397D01*
X30311119Y-22705091D01*
X30311118Y-22705091D01*
X30305088Y-22702406D01*
X30192154Y-22678401D01*
X30124744Y-22664072D01*
X30124739Y-22664072D01*
X30118287Y-22662700D01*
X29927313Y-22662700D01*
X29920861Y-22664072D01*
X29920856Y-22664072D01*
X29853446Y-22678401D01*
X29740512Y-22702406D01*
X29734482Y-22705091D01*
X29734481Y-22705091D01*
X29572078Y-22777397D01*
X29572076Y-22777398D01*
X29566048Y-22780082D01*
X29560707Y-22783962D01*
X29560706Y-22783963D01*
X29536887Y-22801269D01*
X29411547Y-22892334D01*
X29283760Y-23034256D01*
X29188273Y-23199644D01*
X29129258Y-23381272D01*
X29128568Y-23387833D01*
X29128568Y-23387835D01*
X29126049Y-23411806D01*
X29109296Y-23571200D01*
X29109986Y-23577765D01*
X29125010Y-23720706D01*
X29129258Y-23761128D01*
X29154744Y-23839564D01*
X29156772Y-23910531D01*
X29120110Y-23971329D01*
X29056398Y-24002654D01*
X29034911Y-24004500D01*
X28506316Y-24004500D01*
X28438195Y-23984498D01*
X28391702Y-23930842D01*
X28381598Y-23860568D01*
X28386483Y-23839564D01*
X28425102Y-23720706D01*
X28427142Y-23714428D01*
X28447104Y-23524500D01*
X28432050Y-23381272D01*
X28427832Y-23341135D01*
X28427832Y-23341133D01*
X28427142Y-23334572D01*
X28368127Y-23152944D01*
X28272640Y-22987556D01*
X28183850Y-22888944D01*
X28149275Y-22850545D01*
X28149274Y-22850544D01*
X28144853Y-22845634D01*
X28002584Y-22742269D01*
X27995694Y-22737263D01*
X27995693Y-22737262D01*
X27990352Y-22733382D01*
X27984324Y-22730698D01*
X27984322Y-22730697D01*
X27821919Y-22658391D01*
X27821918Y-22658391D01*
X27815888Y-22655706D01*
X27709484Y-22633089D01*
X27635544Y-22617372D01*
X27635539Y-22617372D01*
X27629087Y-22616000D01*
X27438113Y-22616000D01*
X27431661Y-22617372D01*
X27431656Y-22617372D01*
X27357716Y-22633089D01*
X27251312Y-22655706D01*
X27245282Y-22658391D01*
X27245281Y-22658391D01*
X27082879Y-22730697D01*
X27076848Y-22733382D01*
X27071512Y-22737259D01*
X27071510Y-22737260D01*
X27016248Y-22777411D01*
X26949380Y-22801269D01*
X26879182Y-22784592D01*
X26878098Y-22783966D01*
X26872752Y-22780082D01*
X26866723Y-22777398D01*
X26866720Y-22777396D01*
X26704319Y-22705091D01*
X26704318Y-22705091D01*
X26698288Y-22702406D01*
X26585354Y-22678401D01*
X26517944Y-22664072D01*
X26517939Y-22664072D01*
X26511487Y-22662700D01*
X26320513Y-22662700D01*
X26314061Y-22664072D01*
X26314056Y-22664072D01*
X26246646Y-22678401D01*
X26133712Y-22702406D01*
X26127682Y-22705091D01*
X26127681Y-22705091D01*
X25965278Y-22777397D01*
X25965276Y-22777398D01*
X25959248Y-22780082D01*
X25953907Y-22783962D01*
X25953906Y-22783963D01*
X25930087Y-22801269D01*
X25804747Y-22892334D01*
X25676960Y-23034256D01*
X25581473Y-23199644D01*
X25522458Y-23381272D01*
X25521768Y-23387833D01*
X25521768Y-23387835D01*
X25519249Y-23411806D01*
X25502496Y-23571200D01*
X25503186Y-23577765D01*
X25518210Y-23720706D01*
X25522458Y-23761128D01*
X25581473Y-23942756D01*
X25584776Y-23948478D01*
X25584777Y-23948479D01*
X25597970Y-23971329D01*
X25676960Y-24108144D01*
X25681378Y-24113051D01*
X25681379Y-24113052D01*
X25776170Y-24218328D01*
X25804747Y-24250066D01*
X25959248Y-24362318D01*
X25965276Y-24365002D01*
X25965278Y-24365003D01*
X26127681Y-24437309D01*
X26133712Y-24439994D01*
X26227112Y-24459847D01*
X26314056Y-24478328D01*
X26314061Y-24478328D01*
X26320513Y-24479700D01*
X26376405Y-24479700D01*
X26444526Y-24499702D01*
X26465500Y-24516605D01*
X26588589Y-24639694D01*
X26622615Y-24702006D01*
X26617550Y-24772821D01*
X26575003Y-24829657D01*
X26508483Y-24854468D01*
X26499494Y-24854789D01*
X23136814Y-24854789D01*
X23068693Y-24834787D01*
X23022200Y-24781131D01*
X23013129Y-24739429D01*
X23011504Y-24739600D01*
X22992232Y-24556235D01*
X22992232Y-24556233D01*
X22991542Y-24549672D01*
X22932527Y-24368044D01*
X22880136Y-24277301D01*
X22863399Y-24208308D01*
X22886619Y-24141216D01*
X22942426Y-24097329D01*
X23015453Y-24091056D01*
X23164456Y-24122728D01*
X23164461Y-24122728D01*
X23170913Y-24124100D01*
X23361887Y-24124100D01*
X23368339Y-24122728D01*
X23368344Y-24122728D01*
X23455287Y-24104247D01*
X23548688Y-24084394D01*
X23554719Y-24081709D01*
X23717122Y-24009403D01*
X23717124Y-24009402D01*
X23723152Y-24006718D01*
X23877653Y-23894466D01*
X24005440Y-23752544D01*
X24100927Y-23587156D01*
X24159942Y-23405528D01*
X24162492Y-23381272D01*
X24179214Y-23222165D01*
X24179904Y-23215600D01*
X24173319Y-23152944D01*
X24160632Y-23032235D01*
X24160632Y-23032233D01*
X24159942Y-23025672D01*
X24100927Y-22844044D01*
X24005440Y-22678656D01*
X23991198Y-22662838D01*
X23882075Y-22541645D01*
X23882074Y-22541644D01*
X23877653Y-22536734D01*
X23723152Y-22424482D01*
X23717124Y-22421798D01*
X23717122Y-22421797D01*
X23554719Y-22349491D01*
X23554718Y-22349491D01*
X23548688Y-22346806D01*
X23436121Y-22322879D01*
X23368344Y-22308472D01*
X23368339Y-22308472D01*
X23361887Y-22307100D01*
X23170913Y-22307100D01*
X23164461Y-22308472D01*
X23164456Y-22308472D01*
X23096679Y-22322879D01*
X22984112Y-22346806D01*
X22908748Y-22380360D01*
X22838382Y-22389794D01*
X22774085Y-22359688D01*
X22736272Y-22299599D01*
X22731500Y-22265253D01*
X22731500Y-21040994D01*
X22751502Y-20972873D01*
X22768405Y-20951899D01*
X23644299Y-20076005D01*
X23706611Y-20041979D01*
X23733394Y-20039100D01*
X27628330Y-20039100D01*
X27696451Y-20059102D01*
X27742944Y-20112758D01*
X27753048Y-20183032D01*
X27737449Y-20228099D01*
X27719999Y-20258324D01*
X27669783Y-20345301D01*
X27664273Y-20354844D01*
X27605258Y-20536472D01*
X27604568Y-20543033D01*
X27604568Y-20543035D01*
X27587381Y-20706565D01*
X27585296Y-20726400D01*
X27605258Y-20916328D01*
X27664273Y-21097956D01*
X27759760Y-21263344D01*
X27764178Y-21268251D01*
X27764179Y-21268252D01*
X27848169Y-21361532D01*
X27887547Y-21405266D01*
X28042048Y-21517518D01*
X28048076Y-21520202D01*
X28048078Y-21520203D01*
X28210481Y-21592509D01*
X28216512Y-21595194D01*
X28309912Y-21615047D01*
X28396856Y-21633528D01*
X28396861Y-21633528D01*
X28403313Y-21634900D01*
X28594287Y-21634900D01*
X28600739Y-21633528D01*
X28600744Y-21633528D01*
X28687688Y-21615047D01*
X28781088Y-21595194D01*
X28787119Y-21592509D01*
X28949522Y-21520203D01*
X28949524Y-21520202D01*
X28955552Y-21517518D01*
X29110053Y-21405266D01*
X29149431Y-21361532D01*
X29233421Y-21268252D01*
X29233422Y-21268251D01*
X29237840Y-21263344D01*
X29333327Y-21097956D01*
X29392342Y-20916328D01*
X29412304Y-20726400D01*
X29410219Y-20706565D01*
X29393032Y-20543035D01*
X29393032Y-20543033D01*
X29392342Y-20536472D01*
X29333327Y-20354844D01*
X29327818Y-20345301D01*
X29277601Y-20258324D01*
X29260151Y-20228099D01*
X29243413Y-20159105D01*
X29266633Y-20092013D01*
X29322440Y-20048126D01*
X29369270Y-20039100D01*
X34537423Y-20039100D01*
X34605544Y-20059102D01*
X34616727Y-20067641D01*
X34617886Y-20068928D01*
X34623225Y-20072807D01*
X34678213Y-20112758D01*
X34772387Y-20181180D01*
X34778415Y-20183864D01*
X34778417Y-20183865D01*
X34940822Y-20256172D01*
X34940824Y-20256173D01*
X34946851Y-20258856D01*
X34948843Y-20259280D01*
X35006051Y-20298397D01*
X35033689Y-20363794D01*
X35021582Y-20433750D01*
X35017643Y-20441132D01*
X34979473Y-20507244D01*
X34920458Y-20688872D01*
X34919768Y-20695433D01*
X34919768Y-20695435D01*
X34903183Y-20853237D01*
X34900496Y-20878800D01*
X34901186Y-20885365D01*
X34912657Y-20994502D01*
X34920458Y-21068728D01*
X34979473Y-21250356D01*
X34982776Y-21256078D01*
X34982777Y-21256079D01*
X34988929Y-21266734D01*
X35074960Y-21415744D01*
X35079378Y-21420651D01*
X35079379Y-21420652D01*
X35169015Y-21520203D01*
X35202747Y-21557666D01*
X35233940Y-21580329D01*
X35324320Y-21645994D01*
X35357248Y-21669918D01*
X35363276Y-21672602D01*
X35363278Y-21672603D01*
X35525681Y-21744909D01*
X35531712Y-21747594D01*
X35625112Y-21767447D01*
X35712056Y-21785928D01*
X35712061Y-21785928D01*
X35718513Y-21787300D01*
X35909487Y-21787300D01*
X35915939Y-21785928D01*
X35915944Y-21785928D01*
X36002888Y-21767447D01*
X36096288Y-21747594D01*
X36102319Y-21744909D01*
X36264722Y-21672603D01*
X36264724Y-21672602D01*
X36270752Y-21669918D01*
X36303681Y-21645994D01*
X36394060Y-21580329D01*
X36425253Y-21557666D01*
X36458985Y-21520203D01*
X36548621Y-21420652D01*
X36548622Y-21420651D01*
X36553040Y-21415744D01*
X36639071Y-21266734D01*
X36645223Y-21256079D01*
X36645224Y-21256078D01*
X36648527Y-21250356D01*
X36707542Y-21068728D01*
X36715344Y-20994502D01*
X36726814Y-20885365D01*
X36727504Y-20878800D01*
X36724817Y-20853237D01*
X36708232Y-20695435D01*
X36708232Y-20695433D01*
X36707542Y-20688872D01*
X36648527Y-20507244D01*
X36553040Y-20341856D01*
X36532325Y-20318849D01*
X36429675Y-20204845D01*
X36429674Y-20204844D01*
X36425253Y-20199934D01*
X36270752Y-20087682D01*
X36264724Y-20084998D01*
X36264722Y-20084997D01*
X36102317Y-20012690D01*
X36102315Y-20012689D01*
X36096288Y-20010006D01*
X36094296Y-20009582D01*
X36037088Y-19970465D01*
X36009450Y-19905068D01*
X36021557Y-19835112D01*
X36025496Y-19827730D01*
X36063666Y-19761618D01*
X36122681Y-19579990D01*
X36127434Y-19534774D01*
X36141953Y-19396627D01*
X36142643Y-19390062D01*
X36122681Y-19200134D01*
X36063666Y-19018506D01*
X35968179Y-18853118D01*
X35951813Y-18834941D01*
X35844814Y-18716107D01*
X35844813Y-18716106D01*
X35840392Y-18711196D01*
X35685891Y-18598944D01*
X35679863Y-18596260D01*
X35679861Y-18596259D01*
X35517458Y-18523953D01*
X35517457Y-18523953D01*
X35511427Y-18521268D01*
X35415467Y-18500871D01*
X35331083Y-18482934D01*
X35331078Y-18482934D01*
X35324626Y-18481562D01*
X35133652Y-18481562D01*
X35127200Y-18482934D01*
X35127195Y-18482934D01*
X34964272Y-18517565D01*
X34893481Y-18512163D01*
X34836849Y-18469346D01*
X34812355Y-18402709D01*
X34818242Y-18355382D01*
X34825902Y-18331806D01*
X34827942Y-18325528D01*
X34831341Y-18293194D01*
X34847214Y-18142165D01*
X34847904Y-18135600D01*
X34841840Y-18077902D01*
X34828632Y-17952235D01*
X34828632Y-17952233D01*
X34827942Y-17945672D01*
X34768927Y-17764044D01*
X34673440Y-17598656D01*
X34649164Y-17571694D01*
X34550075Y-17461645D01*
X34550074Y-17461644D01*
X34545653Y-17456734D01*
X34391152Y-17344482D01*
X34385124Y-17341798D01*
X34385122Y-17341797D01*
X34222719Y-17269491D01*
X34222718Y-17269491D01*
X34216688Y-17266806D01*
X34123287Y-17246953D01*
X34036344Y-17228472D01*
X34036339Y-17228472D01*
X34029887Y-17227100D01*
X33973994Y-17227100D01*
X33905873Y-17207098D01*
X33884899Y-17190195D01*
X32507652Y-15812947D01*
X32500112Y-15804661D01*
X32496000Y-15798182D01*
X32486360Y-15789129D01*
X32446349Y-15751557D01*
X32443507Y-15748802D01*
X32423770Y-15729065D01*
X32420573Y-15726585D01*
X32411551Y-15718880D01*
X32385100Y-15694041D01*
X32379321Y-15688614D01*
X32372375Y-15684795D01*
X32372372Y-15684793D01*
X32361566Y-15678852D01*
X32345047Y-15668001D01*
X32339048Y-15663348D01*
X32329041Y-15655586D01*
X32321772Y-15652441D01*
X32321768Y-15652438D01*
X32288463Y-15638026D01*
X32277813Y-15632809D01*
X32239060Y-15611505D01*
X32219437Y-15606467D01*
X32200734Y-15600063D01*
X32189420Y-15595167D01*
X32189419Y-15595167D01*
X32182145Y-15592019D01*
X32174322Y-15590780D01*
X32174312Y-15590777D01*
X32138476Y-15585101D01*
X32126856Y-15582695D01*
X32091711Y-15573672D01*
X32091710Y-15573672D01*
X32084030Y-15571700D01*
X32063776Y-15571700D01*
X32044065Y-15570149D01*
X32031886Y-15568220D01*
X32024057Y-15566980D01*
X32016165Y-15567726D01*
X31980039Y-15571141D01*
X31968181Y-15571700D01*
X31849100Y-15571700D01*
X31780979Y-15551698D01*
X31734486Y-15498042D01*
X31723100Y-15445700D01*
X31723100Y-14751354D01*
X31723627Y-14740171D01*
X31725302Y-14732678D01*
X31723162Y-14664587D01*
X31723100Y-14660630D01*
X31723100Y-14632730D01*
X31722596Y-14628739D01*
X31721663Y-14616897D01*
X31720523Y-14580622D01*
X31720274Y-14572697D01*
X31718062Y-14565083D01*
X31718061Y-14565078D01*
X31714623Y-14553245D01*
X31710612Y-14533881D01*
X31709067Y-14521650D01*
X31708074Y-14513789D01*
X31705157Y-14506422D01*
X31705156Y-14506417D01*
X31691798Y-14472678D01*
X31687954Y-14461451D01*
X31677830Y-14426608D01*
X31675618Y-14418993D01*
X31665307Y-14401558D01*
X31656612Y-14383810D01*
X31649152Y-14364969D01*
X31623164Y-14329199D01*
X31616648Y-14319279D01*
X31598180Y-14288051D01*
X31598178Y-14288048D01*
X31594142Y-14281224D01*
X31579821Y-14266903D01*
X31566980Y-14251869D01*
X31559731Y-14241892D01*
X31555072Y-14235479D01*
X31520995Y-14207288D01*
X31512216Y-14199298D01*
X24540666Y-7227747D01*
X24533126Y-7219461D01*
X24529014Y-7212982D01*
X24479362Y-7166356D01*
X24476521Y-7163602D01*
X24456784Y-7143865D01*
X24453587Y-7141385D01*
X24444565Y-7133680D01*
X24418114Y-7108841D01*
X24412335Y-7103414D01*
X24405389Y-7099595D01*
X24405386Y-7099593D01*
X24394580Y-7093652D01*
X24378061Y-7082801D01*
X24377597Y-7082441D01*
X24362055Y-7070386D01*
X24354786Y-7067241D01*
X24354782Y-7067238D01*
X24321477Y-7052826D01*
X24310827Y-7047609D01*
X24272074Y-7026305D01*
X24252451Y-7021267D01*
X24233748Y-7014863D01*
X24222434Y-7009967D01*
X24222433Y-7009967D01*
X24215159Y-7006819D01*
X24207336Y-7005580D01*
X24207326Y-7005577D01*
X24171490Y-6999901D01*
X24159870Y-6997495D01*
X24124725Y-6988472D01*
X24124724Y-6988472D01*
X24117044Y-6986500D01*
X24096790Y-6986500D01*
X24077079Y-6984949D01*
X24064900Y-6983020D01*
X24057071Y-6981780D01*
X24049179Y-6982526D01*
X24013053Y-6985941D01*
X24001195Y-6986500D01*
X23225394Y-6986500D01*
X23157273Y-6966498D01*
X23136299Y-6949595D01*
X22578204Y-6391500D01*
X21474865Y-5288160D01*
X21440840Y-5225850D01*
X21445905Y-5155035D01*
X21470325Y-5114757D01*
X21562621Y-5012252D01*
X21562622Y-5012251D01*
X21567040Y-5007344D01*
X21662527Y-4841956D01*
X21721542Y-4660328D01*
X21741504Y-4470400D01*
X21732607Y-4385748D01*
X21722232Y-4287035D01*
X21722232Y-4287033D01*
X21721542Y-4280472D01*
X21687240Y-4174902D01*
X21685212Y-4103936D01*
X21721875Y-4043138D01*
X21785587Y-4011813D01*
X21856120Y-4019905D01*
X21896168Y-4046872D01*
X34003278Y-16153982D01*
X34037304Y-16216294D01*
X34039492Y-16229903D01*
X34047220Y-16303429D01*
X34053948Y-16367437D01*
X34056858Y-16395128D01*
X34115873Y-16576756D01*
X34211360Y-16742144D01*
X34215778Y-16747051D01*
X34215779Y-16747052D01*
X34296903Y-16837149D01*
X34339147Y-16884066D01*
X34493648Y-16996318D01*
X34499676Y-16999002D01*
X34499678Y-16999003D01*
X34643194Y-17062900D01*
X34668112Y-17073994D01*
X34761512Y-17093847D01*
X34848456Y-17112328D01*
X34848461Y-17112328D01*
X34854913Y-17113700D01*
X35045887Y-17113700D01*
X35052339Y-17112328D01*
X35052344Y-17112328D01*
X35139288Y-17093847D01*
X35232688Y-17073994D01*
X35257606Y-17062900D01*
X35401122Y-16999003D01*
X35401124Y-16999002D01*
X35407152Y-16996318D01*
X35561653Y-16884066D01*
X35603897Y-16837149D01*
X35685021Y-16747052D01*
X35685022Y-16747051D01*
X35689440Y-16742144D01*
X35784927Y-16576756D01*
X35843942Y-16395128D01*
X35846853Y-16367437D01*
X35863214Y-16211765D01*
X35863904Y-16205200D01*
X35851727Y-16089345D01*
X35844632Y-16021835D01*
X35844632Y-16021833D01*
X35843942Y-16015272D01*
X35784927Y-15833644D01*
X35779318Y-15823928D01*
X35704327Y-15694041D01*
X35689440Y-15668256D01*
X35675198Y-15652438D01*
X35566075Y-15531245D01*
X35566074Y-15531244D01*
X35561653Y-15526334D01*
X35444584Y-15441278D01*
X35412494Y-15417963D01*
X35412493Y-15417962D01*
X35407152Y-15414082D01*
X35401124Y-15411398D01*
X35401122Y-15411397D01*
X35238719Y-15339091D01*
X35238718Y-15339091D01*
X35232688Y-15336406D01*
X35139287Y-15316553D01*
X35052344Y-15298072D01*
X35052339Y-15298072D01*
X35045887Y-15296700D01*
X34989994Y-15296700D01*
X34921873Y-15276698D01*
X34900899Y-15259795D01*
X32442704Y-12801600D01*
X35103696Y-12801600D01*
X35104386Y-12808165D01*
X35119094Y-12948100D01*
X35123658Y-12991528D01*
X35182673Y-13173156D01*
X35278160Y-13338544D01*
X35282578Y-13343451D01*
X35282579Y-13343452D01*
X35363703Y-13433549D01*
X35405947Y-13480466D01*
X35560448Y-13592718D01*
X35566476Y-13595402D01*
X35566478Y-13595403D01*
X35709994Y-13659300D01*
X35734912Y-13670394D01*
X35828313Y-13690247D01*
X35915256Y-13708728D01*
X35915261Y-13708728D01*
X35921713Y-13710100D01*
X36112687Y-13710100D01*
X36119139Y-13708728D01*
X36119144Y-13708728D01*
X36206087Y-13690247D01*
X36299488Y-13670394D01*
X36324406Y-13659300D01*
X36467922Y-13595403D01*
X36467924Y-13595402D01*
X36473952Y-13592718D01*
X36628453Y-13480466D01*
X36670697Y-13433549D01*
X36751821Y-13343452D01*
X36751822Y-13343451D01*
X36756240Y-13338544D01*
X36851727Y-13173156D01*
X36910742Y-12991528D01*
X36915307Y-12948100D01*
X36930014Y-12808165D01*
X36930704Y-12801600D01*
X36923424Y-12732334D01*
X36911432Y-12618235D01*
X36911432Y-12618233D01*
X36910742Y-12611672D01*
X36851727Y-12430044D01*
X36836448Y-12403579D01*
X36759541Y-12270374D01*
X36756240Y-12264656D01*
X36730264Y-12235806D01*
X36632875Y-12127645D01*
X36632874Y-12127644D01*
X36628453Y-12122734D01*
X36510577Y-12037092D01*
X36479294Y-12014363D01*
X36479293Y-12014362D01*
X36473952Y-12010482D01*
X36467924Y-12007798D01*
X36467922Y-12007797D01*
X36305519Y-11935491D01*
X36305518Y-11935491D01*
X36299488Y-11932806D01*
X36185966Y-11908676D01*
X36119144Y-11894472D01*
X36119139Y-11894472D01*
X36112687Y-11893100D01*
X35921713Y-11893100D01*
X35915261Y-11894472D01*
X35915256Y-11894472D01*
X35848434Y-11908676D01*
X35734912Y-11932806D01*
X35728882Y-11935491D01*
X35728881Y-11935491D01*
X35566478Y-12007797D01*
X35566476Y-12007798D01*
X35560448Y-12010482D01*
X35555107Y-12014362D01*
X35555106Y-12014363D01*
X35523823Y-12037092D01*
X35405947Y-12122734D01*
X35401526Y-12127644D01*
X35401525Y-12127645D01*
X35304137Y-12235806D01*
X35278160Y-12264656D01*
X35274859Y-12270374D01*
X35197953Y-12403579D01*
X35182673Y-12430044D01*
X35123658Y-12611672D01*
X35122968Y-12618233D01*
X35122968Y-12618235D01*
X35110976Y-12732334D01*
X35103696Y-12801600D01*
X32442704Y-12801600D01*
X27641105Y-8000000D01*
X30386526Y-8000000D01*
X30406391Y-8252403D01*
X30407545Y-8257210D01*
X30407546Y-8257216D01*
X30433742Y-8366330D01*
X30465495Y-8498591D01*
X30467388Y-8503162D01*
X30467389Y-8503164D01*
X30507979Y-8601156D01*
X30562384Y-8732502D01*
X30694672Y-8948376D01*
X30859102Y-9140898D01*
X31051624Y-9305328D01*
X31267498Y-9437616D01*
X31272068Y-9439509D01*
X31272072Y-9439511D01*
X31496836Y-9532611D01*
X31501409Y-9534505D01*
X31586032Y-9554821D01*
X31742784Y-9592454D01*
X31742790Y-9592455D01*
X31747597Y-9593609D01*
X31847416Y-9601465D01*
X31934345Y-9608307D01*
X31934352Y-9608307D01*
X31936801Y-9608500D01*
X32063199Y-9608500D01*
X32065648Y-9608307D01*
X32065655Y-9608307D01*
X32152584Y-9601465D01*
X32252403Y-9593609D01*
X32257210Y-9592455D01*
X32257216Y-9592454D01*
X32413968Y-9554821D01*
X32498591Y-9534505D01*
X32503164Y-9532611D01*
X32727928Y-9439511D01*
X32727932Y-9439509D01*
X32732502Y-9437616D01*
X32948376Y-9305328D01*
X33140898Y-9140898D01*
X33305328Y-8948376D01*
X33437616Y-8732502D01*
X33492022Y-8601156D01*
X33532611Y-8503164D01*
X33532612Y-8503162D01*
X33534505Y-8498591D01*
X33566258Y-8366330D01*
X33592454Y-8257216D01*
X33592455Y-8257210D01*
X33593609Y-8252403D01*
X33613474Y-8000000D01*
X33593609Y-7747597D01*
X33588307Y-7725510D01*
X33535660Y-7506221D01*
X33534505Y-7501409D01*
X33437616Y-7267498D01*
X33305328Y-7051624D01*
X33140898Y-6859102D01*
X32948376Y-6694672D01*
X32732502Y-6562384D01*
X32727932Y-6560491D01*
X32727928Y-6560489D01*
X32503164Y-6467389D01*
X32503162Y-6467388D01*
X32498591Y-6465495D01*
X32413968Y-6445179D01*
X32257216Y-6407546D01*
X32257210Y-6407545D01*
X32252403Y-6406391D01*
X32152584Y-6398535D01*
X32065655Y-6391693D01*
X32065648Y-6391693D01*
X32063199Y-6391500D01*
X31936801Y-6391500D01*
X31934352Y-6391693D01*
X31934345Y-6391693D01*
X31847416Y-6398535D01*
X31747597Y-6406391D01*
X31742790Y-6407545D01*
X31742784Y-6407546D01*
X31586032Y-6445179D01*
X31501409Y-6465495D01*
X31496838Y-6467388D01*
X31496836Y-6467389D01*
X31272072Y-6560489D01*
X31272068Y-6560491D01*
X31267498Y-6562384D01*
X31051624Y-6694672D01*
X30859102Y-6859102D01*
X30694672Y-7051624D01*
X30562384Y-7267498D01*
X30465495Y-7501409D01*
X30464340Y-7506221D01*
X30411694Y-7725510D01*
X30406391Y-7747597D01*
X30386526Y-8000000D01*
X27641105Y-8000000D01*
X24365505Y-4724400D01*
X26975696Y-4724400D01*
X26976386Y-4730965D01*
X26978951Y-4755365D01*
X26995658Y-4914328D01*
X27054673Y-5095956D01*
X27057976Y-5101678D01*
X27057977Y-5101679D01*
X27070752Y-5123806D01*
X27150160Y-5261344D01*
X27154578Y-5266251D01*
X27154579Y-5266252D01*
X27244215Y-5365803D01*
X27277947Y-5403266D01*
X27362289Y-5464544D01*
X27413449Y-5501714D01*
X27432448Y-5515518D01*
X27438476Y-5518202D01*
X27438478Y-5518203D01*
X27570737Y-5577088D01*
X27606912Y-5593194D01*
X27700312Y-5613047D01*
X27787256Y-5631528D01*
X27787261Y-5631528D01*
X27793713Y-5632900D01*
X27984687Y-5632900D01*
X27991139Y-5631528D01*
X27991144Y-5631528D01*
X28078088Y-5613047D01*
X28171488Y-5593194D01*
X28207663Y-5577088D01*
X28339922Y-5518203D01*
X28339924Y-5518202D01*
X28345952Y-5515518D01*
X28364952Y-5501714D01*
X28416111Y-5464544D01*
X28500453Y-5403266D01*
X28534185Y-5365803D01*
X28623821Y-5266252D01*
X28623822Y-5266251D01*
X28628240Y-5261344D01*
X28707648Y-5123806D01*
X28720423Y-5101679D01*
X28720424Y-5101678D01*
X28723727Y-5095956D01*
X28782742Y-4914328D01*
X28799450Y-4755365D01*
X28802014Y-4730965D01*
X28802704Y-4724400D01*
X28782742Y-4534472D01*
X28761924Y-4470400D01*
X35103696Y-4470400D01*
X35123658Y-4660328D01*
X35182673Y-4841956D01*
X35278160Y-5007344D01*
X35282578Y-5012251D01*
X35282579Y-5012252D01*
X35364492Y-5103226D01*
X35405947Y-5149266D01*
X35560448Y-5261518D01*
X35566476Y-5264202D01*
X35566478Y-5264203D01*
X35728881Y-5336509D01*
X35734912Y-5339194D01*
X35828312Y-5359047D01*
X35915256Y-5377528D01*
X35915261Y-5377528D01*
X35921713Y-5378900D01*
X36112687Y-5378900D01*
X36119139Y-5377528D01*
X36119144Y-5377528D01*
X36206088Y-5359047D01*
X36299488Y-5339194D01*
X36305519Y-5336509D01*
X36467922Y-5264203D01*
X36467924Y-5264202D01*
X36473952Y-5261518D01*
X36628453Y-5149266D01*
X36669908Y-5103226D01*
X36751821Y-5012252D01*
X36751822Y-5012251D01*
X36756240Y-5007344D01*
X36851727Y-4841956D01*
X36910742Y-4660328D01*
X36930704Y-4470400D01*
X36921807Y-4385748D01*
X36911432Y-4287035D01*
X36911432Y-4287033D01*
X36910742Y-4280472D01*
X36851727Y-4098844D01*
X36756240Y-3933456D01*
X36747024Y-3923220D01*
X36632875Y-3796445D01*
X36632874Y-3796444D01*
X36628453Y-3791534D01*
X36473952Y-3679282D01*
X36467924Y-3676598D01*
X36467922Y-3676597D01*
X36305519Y-3604291D01*
X36305518Y-3604291D01*
X36299488Y-3601606D01*
X36186921Y-3577679D01*
X36119144Y-3563272D01*
X36119139Y-3563272D01*
X36112687Y-3561900D01*
X35921713Y-3561900D01*
X35915261Y-3563272D01*
X35915256Y-3563272D01*
X35847479Y-3577679D01*
X35734912Y-3601606D01*
X35728882Y-3604291D01*
X35728881Y-3604291D01*
X35566478Y-3676597D01*
X35566476Y-3676598D01*
X35560448Y-3679282D01*
X35405947Y-3791534D01*
X35401526Y-3796444D01*
X35401525Y-3796445D01*
X35287377Y-3923220D01*
X35278160Y-3933456D01*
X35182673Y-4098844D01*
X35123658Y-4280472D01*
X35122968Y-4287033D01*
X35122968Y-4287035D01*
X35112593Y-4385748D01*
X35103696Y-4470400D01*
X28761924Y-4470400D01*
X28723727Y-4352844D01*
X28628240Y-4187456D01*
X28548454Y-4098844D01*
X28504875Y-4050445D01*
X28504874Y-4050444D01*
X28500453Y-4045534D01*
X28345952Y-3933282D01*
X28339924Y-3930598D01*
X28339922Y-3930597D01*
X28177519Y-3858291D01*
X28177518Y-3858291D01*
X28171488Y-3855606D01*
X28078087Y-3835753D01*
X27991144Y-3817272D01*
X27991139Y-3817272D01*
X27984687Y-3815900D01*
X27793713Y-3815900D01*
X27787261Y-3817272D01*
X27787256Y-3817272D01*
X27700313Y-3835753D01*
X27606912Y-3855606D01*
X27600882Y-3858291D01*
X27600881Y-3858291D01*
X27438478Y-3930597D01*
X27438476Y-3930598D01*
X27432448Y-3933282D01*
X27277947Y-4045534D01*
X27273526Y-4050444D01*
X27273525Y-4050445D01*
X27229947Y-4098844D01*
X27150160Y-4187456D01*
X27054673Y-4352844D01*
X26995658Y-4534472D01*
X26975696Y-4724400D01*
X24365505Y-4724400D01*
X22296852Y-2655747D01*
X22289312Y-2647461D01*
X22285200Y-2640982D01*
X22235548Y-2594356D01*
X22232707Y-2591602D01*
X22212970Y-2571865D01*
X22209773Y-2569385D01*
X22200751Y-2561680D01*
X22187322Y-2549069D01*
X22168521Y-2531414D01*
X22161575Y-2527595D01*
X22161572Y-2527593D01*
X22150766Y-2521652D01*
X22134247Y-2510801D01*
X22133783Y-2510441D01*
X22118241Y-2498386D01*
X22110972Y-2495241D01*
X22110968Y-2495238D01*
X22077663Y-2480826D01*
X22067013Y-2475609D01*
X22028260Y-2454305D01*
X22008637Y-2449267D01*
X21989934Y-2442863D01*
X21978620Y-2437967D01*
X21978619Y-2437967D01*
X21971345Y-2434819D01*
X21963522Y-2433580D01*
X21963512Y-2433577D01*
X21927676Y-2427901D01*
X21916056Y-2425495D01*
X21880911Y-2416472D01*
X21880910Y-2416472D01*
X21873230Y-2414500D01*
X21852976Y-2414500D01*
X21833265Y-2412949D01*
X21821086Y-2411020D01*
X21813257Y-2409780D01*
X21783986Y-2412547D01*
X21769239Y-2413941D01*
X21757381Y-2414500D01*
X17909567Y-2414500D01*
X17898384Y-2413973D01*
X17890891Y-2412298D01*
X17882965Y-2412547D01*
X17882964Y-2412547D01*
X17822801Y-2414438D01*
X17818843Y-2414500D01*
X17790944Y-2414500D01*
X17786954Y-2415004D01*
X17775120Y-2415936D01*
X17730911Y-2417326D01*
X17723297Y-2419538D01*
X17723292Y-2419539D01*
X17711459Y-2422977D01*
X17692096Y-2426988D01*
X17672003Y-2429526D01*
X17664636Y-2432443D01*
X17664631Y-2432444D01*
X17630892Y-2445802D01*
X17619665Y-2449646D01*
X17577207Y-2461982D01*
X17570381Y-2466019D01*
X17559772Y-2472293D01*
X17542024Y-2480988D01*
X17523183Y-2488448D01*
X17516767Y-2493110D01*
X17516766Y-2493110D01*
X17487413Y-2514436D01*
X17477493Y-2520952D01*
X17446265Y-2539420D01*
X17446262Y-2539422D01*
X17439438Y-2543458D01*
X17425117Y-2557779D01*
X17410084Y-2570619D01*
X17393693Y-2582528D01*
X17385017Y-2593016D01*
X17365502Y-2616605D01*
X17357512Y-2625384D01*
X15949900Y-4032995D01*
X15887588Y-4067021D01*
X15860805Y-4069900D01*
X15804913Y-4069900D01*
X15798461Y-4071272D01*
X15798456Y-4071272D01*
X15719026Y-4088156D01*
X15618112Y-4109606D01*
X15612082Y-4112291D01*
X15612081Y-4112291D01*
X15449678Y-4184597D01*
X15449676Y-4184598D01*
X15443648Y-4187282D01*
X15438307Y-4191162D01*
X15438306Y-4191163D01*
X15388243Y-4227536D01*
X15289147Y-4299534D01*
X15284726Y-4304444D01*
X15284725Y-4304445D01*
X15211520Y-4385748D01*
X15161360Y-4441456D01*
X15144649Y-4470400D01*
X15089781Y-4565435D01*
X15065873Y-4606844D01*
X15006858Y-4788472D01*
X15006168Y-4795033D01*
X15006168Y-4795035D01*
X14989493Y-4953693D01*
X14962480Y-5019350D01*
X14953278Y-5029618D01*
X4746471Y-15236424D01*
X4684159Y-15270450D01*
X4631179Y-15270576D01*
X4521544Y-15247272D01*
X4521539Y-15247272D01*
X4515087Y-15245900D01*
X4324113Y-15245900D01*
X4317661Y-15247272D01*
X4317656Y-15247272D01*
X4246280Y-15262444D01*
X4137312Y-15285606D01*
X4131282Y-15288291D01*
X4131281Y-15288291D01*
X3968878Y-15360597D01*
X3968876Y-15360598D01*
X3962848Y-15363282D01*
X3808347Y-15475534D01*
X3803926Y-15480444D01*
X3803925Y-15480445D01*
X3690455Y-15606467D01*
X3680560Y-15617456D01*
X3658546Y-15655586D01*
X3603137Y-15751557D01*
X3585073Y-15782844D01*
X3526058Y-15964472D01*
X3525368Y-15971033D01*
X3525368Y-15971035D01*
X3521071Y-16011916D01*
X3506096Y-16154400D01*
X508000Y-16154400D01*
X508000Y-12750800D01*
X3201296Y-12750800D01*
X3201986Y-12757365D01*
X3217860Y-12908394D01*
X3221258Y-12940728D01*
X3280273Y-13122356D01*
X3375760Y-13287744D01*
X3380178Y-13292651D01*
X3380179Y-13292652D01*
X3441776Y-13361062D01*
X3503547Y-13429666D01*
X3658048Y-13541918D01*
X3664076Y-13544602D01*
X3664078Y-13544603D01*
X3791036Y-13601128D01*
X3832512Y-13619594D01*
X3925912Y-13639447D01*
X4012856Y-13657928D01*
X4012861Y-13657928D01*
X4019313Y-13659300D01*
X4210287Y-13659300D01*
X4216739Y-13657928D01*
X4216744Y-13657928D01*
X4303688Y-13639447D01*
X4397088Y-13619594D01*
X4438564Y-13601128D01*
X4565522Y-13544603D01*
X4565524Y-13544602D01*
X4571552Y-13541918D01*
X4726053Y-13429666D01*
X4787824Y-13361062D01*
X4849421Y-13292652D01*
X4849422Y-13292651D01*
X4853840Y-13287744D01*
X4949327Y-13122356D01*
X5008342Y-12940728D01*
X5011741Y-12908394D01*
X5027614Y-12757365D01*
X5028304Y-12750800D01*
X5025314Y-12722349D01*
X5009032Y-12567435D01*
X5009032Y-12567433D01*
X5008342Y-12560872D01*
X4949327Y-12379244D01*
X4941829Y-12366256D01*
X4857141Y-12219574D01*
X4853840Y-12213856D01*
X4771794Y-12122734D01*
X4730475Y-12076845D01*
X4730474Y-12076844D01*
X4726053Y-12071934D01*
X4606881Y-11985350D01*
X4576894Y-11963563D01*
X4576893Y-11963562D01*
X4571552Y-11959682D01*
X4565524Y-11956998D01*
X4565522Y-11956997D01*
X4403119Y-11884691D01*
X4403118Y-11884691D01*
X4397088Y-11882006D01*
X4275846Y-11856235D01*
X4216744Y-11843672D01*
X4216739Y-11843672D01*
X4210287Y-11842300D01*
X4019313Y-11842300D01*
X4012861Y-11843672D01*
X4012856Y-11843672D01*
X3953754Y-11856235D01*
X3832512Y-11882006D01*
X3826482Y-11884691D01*
X3826481Y-11884691D01*
X3664078Y-11956997D01*
X3664076Y-11956998D01*
X3658048Y-11959682D01*
X3652707Y-11963562D01*
X3652706Y-11963563D01*
X3622719Y-11985350D01*
X3503547Y-12071934D01*
X3499126Y-12076844D01*
X3499125Y-12076845D01*
X3457807Y-12122734D01*
X3375760Y-12213856D01*
X3372459Y-12219574D01*
X3287772Y-12366256D01*
X3280273Y-12379244D01*
X3221258Y-12560872D01*
X3220568Y-12567433D01*
X3220568Y-12567435D01*
X3204286Y-12722349D01*
X3201296Y-12750800D01*
X508000Y-12750800D01*
X508000Y-8000000D01*
X6386526Y-8000000D01*
X6406391Y-8252403D01*
X6407545Y-8257210D01*
X6407546Y-8257216D01*
X6433742Y-8366330D01*
X6465495Y-8498591D01*
X6467388Y-8503162D01*
X6467389Y-8503164D01*
X6507979Y-8601156D01*
X6562384Y-8732502D01*
X6694672Y-8948376D01*
X6859102Y-9140898D01*
X7051624Y-9305328D01*
X7267498Y-9437616D01*
X7272068Y-9439509D01*
X7272072Y-9439511D01*
X7496836Y-9532611D01*
X7501409Y-9534505D01*
X7586032Y-9554821D01*
X7742784Y-9592454D01*
X7742790Y-9592455D01*
X7747597Y-9593609D01*
X7847416Y-9601465D01*
X7934345Y-9608307D01*
X7934352Y-9608307D01*
X7936801Y-9608500D01*
X8063199Y-9608500D01*
X8065648Y-9608307D01*
X8065655Y-9608307D01*
X8152584Y-9601465D01*
X8252403Y-9593609D01*
X8257210Y-9592455D01*
X8257216Y-9592454D01*
X8413968Y-9554821D01*
X8498591Y-9534505D01*
X8503164Y-9532611D01*
X8727928Y-9439511D01*
X8727932Y-9439509D01*
X8732502Y-9437616D01*
X8948376Y-9305328D01*
X9140898Y-9140898D01*
X9305328Y-8948376D01*
X9437616Y-8732502D01*
X9492022Y-8601156D01*
X9532611Y-8503164D01*
X9532612Y-8503162D01*
X9534505Y-8498591D01*
X9566258Y-8366330D01*
X9592454Y-8257216D01*
X9592455Y-8257210D01*
X9593609Y-8252403D01*
X9613474Y-8000000D01*
X9593609Y-7747597D01*
X9588307Y-7725510D01*
X9535660Y-7506221D01*
X9534505Y-7501409D01*
X9437616Y-7267498D01*
X9305328Y-7051624D01*
X9140898Y-6859102D01*
X8948376Y-6694672D01*
X8732502Y-6562384D01*
X8727932Y-6560491D01*
X8727928Y-6560489D01*
X8503164Y-6467389D01*
X8503162Y-6467388D01*
X8498591Y-6465495D01*
X8413968Y-6445179D01*
X8257216Y-6407546D01*
X8257210Y-6407545D01*
X8252403Y-6406391D01*
X8152584Y-6398535D01*
X8065655Y-6391693D01*
X8065648Y-6391693D01*
X8063199Y-6391500D01*
X7936801Y-6391500D01*
X7934352Y-6391693D01*
X7934345Y-6391693D01*
X7847416Y-6398535D01*
X7747597Y-6406391D01*
X7742790Y-6407545D01*
X7742784Y-6407546D01*
X7586032Y-6445179D01*
X7501409Y-6465495D01*
X7496838Y-6467388D01*
X7496836Y-6467389D01*
X7272072Y-6560489D01*
X7272068Y-6560491D01*
X7267498Y-6562384D01*
X7051624Y-6694672D01*
X6859102Y-6859102D01*
X6694672Y-7051624D01*
X6562384Y-7267498D01*
X6465495Y-7501409D01*
X6464340Y-7506221D01*
X6411694Y-7725510D01*
X6406391Y-7747597D01*
X6386526Y-8000000D01*
X508000Y-8000000D01*
X508000Y-4572000D01*
X3099696Y-4572000D01*
X3100386Y-4578565D01*
X3117109Y-4737672D01*
X3119658Y-4761928D01*
X3178673Y-4943556D01*
X3181976Y-4949278D01*
X3181977Y-4949279D01*
X3198790Y-4978400D01*
X3274160Y-5108944D01*
X3278578Y-5113851D01*
X3278579Y-5113852D01*
X3397525Y-5245955D01*
X3401947Y-5250866D01*
X3459762Y-5292871D01*
X3523520Y-5339194D01*
X3556448Y-5363118D01*
X3562476Y-5365802D01*
X3562478Y-5365803D01*
X3724881Y-5438109D01*
X3730912Y-5440794D01*
X3824312Y-5460647D01*
X3911256Y-5479128D01*
X3911261Y-5479128D01*
X3917713Y-5480500D01*
X4108687Y-5480500D01*
X4115139Y-5479128D01*
X4115144Y-5479128D01*
X4202088Y-5460647D01*
X4295488Y-5440794D01*
X4301519Y-5438109D01*
X4463922Y-5365803D01*
X4463924Y-5365802D01*
X4469952Y-5363118D01*
X4502881Y-5339194D01*
X4566638Y-5292871D01*
X4624453Y-5250866D01*
X4628875Y-5245955D01*
X4747821Y-5113852D01*
X4747822Y-5113851D01*
X4752240Y-5108944D01*
X4827610Y-4978400D01*
X4844423Y-4949279D01*
X4844424Y-4949278D01*
X4847727Y-4943556D01*
X4852911Y-4927600D01*
X11075296Y-4927600D01*
X11095258Y-5117528D01*
X11154273Y-5299156D01*
X11157576Y-5304878D01*
X11157577Y-5304879D01*
X11175839Y-5336509D01*
X11249760Y-5464544D01*
X11254178Y-5469451D01*
X11254179Y-5469452D01*
X11335303Y-5559549D01*
X11377547Y-5606466D01*
X11532048Y-5718718D01*
X11538076Y-5721402D01*
X11538078Y-5721403D01*
X11681594Y-5785300D01*
X11706512Y-5796394D01*
X11799913Y-5816247D01*
X11886856Y-5834728D01*
X11886861Y-5834728D01*
X11893313Y-5836100D01*
X12084287Y-5836100D01*
X12090739Y-5834728D01*
X12090744Y-5834728D01*
X12177687Y-5816247D01*
X12271088Y-5796394D01*
X12296006Y-5785300D01*
X12439522Y-5721403D01*
X12439524Y-5721402D01*
X12445552Y-5718718D01*
X12600053Y-5606466D01*
X12642297Y-5559549D01*
X12723421Y-5469452D01*
X12723422Y-5469451D01*
X12727840Y-5464544D01*
X12801761Y-5336509D01*
X12820023Y-5304879D01*
X12820024Y-5304878D01*
X12823327Y-5299156D01*
X12882342Y-5117528D01*
X12902304Y-4927600D01*
X12887681Y-4788472D01*
X12883032Y-4744235D01*
X12883032Y-4744233D01*
X12882342Y-4737672D01*
X12823327Y-4556044D01*
X12810873Y-4534472D01*
X12731141Y-4396374D01*
X12727840Y-4390656D01*
X12645794Y-4299534D01*
X12604475Y-4253645D01*
X12604474Y-4253644D01*
X12600053Y-4248734D01*
X12445552Y-4136482D01*
X12439524Y-4133798D01*
X12439522Y-4133797D01*
X12277119Y-4061491D01*
X12277118Y-4061491D01*
X12271088Y-4058806D01*
X12159354Y-4035056D01*
X12090744Y-4020472D01*
X12090739Y-4020472D01*
X12084287Y-4019100D01*
X11893313Y-4019100D01*
X11886861Y-4020472D01*
X11886856Y-4020472D01*
X11818246Y-4035056D01*
X11706512Y-4058806D01*
X11700482Y-4061491D01*
X11700481Y-4061491D01*
X11538078Y-4133797D01*
X11538076Y-4133798D01*
X11532048Y-4136482D01*
X11377547Y-4248734D01*
X11373126Y-4253644D01*
X11373125Y-4253645D01*
X11331807Y-4299534D01*
X11249760Y-4390656D01*
X11246459Y-4396374D01*
X11166728Y-4534472D01*
X11154273Y-4556044D01*
X11095258Y-4737672D01*
X11094568Y-4744233D01*
X11094568Y-4744235D01*
X11089919Y-4788472D01*
X11075296Y-4927600D01*
X4852911Y-4927600D01*
X4906742Y-4761928D01*
X4909292Y-4737672D01*
X4926014Y-4578565D01*
X4926704Y-4572000D01*
X4924425Y-4550321D01*
X4907432Y-4388635D01*
X4907432Y-4388633D01*
X4906742Y-4382072D01*
X4847727Y-4200444D01*
X4840229Y-4187456D01*
X4796832Y-4112291D01*
X4782897Y-4088155D01*
X4766159Y-4019161D01*
X4789379Y-3952069D01*
X4817953Y-3923222D01*
X4852606Y-3898045D01*
X4873109Y-3883149D01*
X4873111Y-3883147D01*
X4878453Y-3879266D01*
X4957447Y-3791534D01*
X5001821Y-3742252D01*
X5001822Y-3742251D01*
X5006240Y-3737344D01*
X5101727Y-3571956D01*
X5160742Y-3390328D01*
X5180704Y-3200400D01*
X5160742Y-3010472D01*
X5101727Y-2828844D01*
X5006240Y-2663456D01*
X4986005Y-2640982D01*
X4882875Y-2526445D01*
X4882874Y-2526444D01*
X4878453Y-2521534D01*
X4755832Y-2432444D01*
X4729294Y-2413163D01*
X4729293Y-2413162D01*
X4723952Y-2409282D01*
X4717924Y-2406598D01*
X4717922Y-2406597D01*
X4555519Y-2334291D01*
X4555518Y-2334291D01*
X4549488Y-2331606D01*
X4456088Y-2311753D01*
X4369144Y-2293272D01*
X4369139Y-2293272D01*
X4362687Y-2291900D01*
X4171713Y-2291900D01*
X4165261Y-2293272D01*
X4165256Y-2293272D01*
X4078312Y-2311753D01*
X3984912Y-2331606D01*
X3978882Y-2334291D01*
X3978881Y-2334291D01*
X3816478Y-2406597D01*
X3816476Y-2406598D01*
X3810448Y-2409282D01*
X3805107Y-2413162D01*
X3805106Y-2413163D01*
X3778568Y-2432444D01*
X3655947Y-2521534D01*
X3651526Y-2526444D01*
X3651525Y-2526445D01*
X3548396Y-2640982D01*
X3528160Y-2663456D01*
X3432673Y-2828844D01*
X3373658Y-3010472D01*
X3353696Y-3200400D01*
X3373658Y-3390328D01*
X3432673Y-3571956D01*
X3495919Y-3681500D01*
X3497503Y-3684244D01*
X3514241Y-3753239D01*
X3491021Y-3820331D01*
X3462447Y-3849178D01*
X3428469Y-3873865D01*
X3421035Y-3879266D01*
X3401947Y-3893134D01*
X3397526Y-3898044D01*
X3397525Y-3898045D01*
X3365798Y-3933282D01*
X3274160Y-4035056D01*
X3229568Y-4112291D01*
X3186172Y-4187456D01*
X3178673Y-4200444D01*
X3119658Y-4382072D01*
X3118968Y-4388633D01*
X3118968Y-4388635D01*
X3101975Y-4550321D01*
X3099696Y-4572000D01*
X508000Y-4572000D01*
X508000Y-634000D01*
X528002Y-565879D01*
X581658Y-519386D01*
X634000Y-508000D01*
X39366000Y-508000D01*
X39434121Y-528002D01*
G37*
%TD.AperFunction*%
%TA.AperFunction,Conductor*%
G36*
X23790541Y-8273502D02*
G01*
X23811515Y-8290405D01*
X25799946Y-10278836D01*
X25833972Y-10341148D01*
X25828907Y-10411963D01*
X25804488Y-10452240D01*
X25727760Y-10537456D01*
X25632273Y-10702844D01*
X25573258Y-10884472D01*
X25572568Y-10891033D01*
X25572568Y-10891035D01*
X25555866Y-11049945D01*
X25553296Y-11074400D01*
X25553986Y-11080965D01*
X25571593Y-11248482D01*
X25573258Y-11264328D01*
X25632273Y-11445956D01*
X25727760Y-11611344D01*
X25732178Y-11616251D01*
X25732179Y-11616252D01*
X25824199Y-11718451D01*
X25855547Y-11753266D01*
X25954643Y-11825264D01*
X26000053Y-11858256D01*
X26010048Y-11865518D01*
X26016076Y-11868202D01*
X26016078Y-11868203D01*
X26167296Y-11935529D01*
X26184512Y-11943194D01*
X26266975Y-11960722D01*
X26329448Y-11994450D01*
X26363770Y-12056600D01*
X26359042Y-12127439D01*
X26314840Y-12185904D01*
X26267293Y-12220449D01*
X26267288Y-12220454D01*
X26261947Y-12224334D01*
X26257526Y-12229244D01*
X26257525Y-12229245D01*
X26184320Y-12310548D01*
X26134160Y-12366256D01*
X26038673Y-12531644D01*
X25979658Y-12713272D01*
X25978968Y-12719833D01*
X25978968Y-12719835D01*
X25960830Y-12892409D01*
X25959696Y-12903200D01*
X25960386Y-12909765D01*
X25978063Y-13077949D01*
X25979658Y-13093128D01*
X26038673Y-13274756D01*
X26041976Y-13280478D01*
X26041977Y-13280479D01*
X26049005Y-13292652D01*
X26134160Y-13440144D01*
X26138578Y-13445051D01*
X26138579Y-13445052D01*
X26246754Y-13565193D01*
X26261947Y-13582066D01*
X26309904Y-13616909D01*
X26383520Y-13670394D01*
X26416448Y-13694318D01*
X26422476Y-13697002D01*
X26422478Y-13697003D01*
X26565994Y-13760900D01*
X26590912Y-13771994D01*
X26684312Y-13791847D01*
X26771256Y-13810328D01*
X26771261Y-13810328D01*
X26777713Y-13811700D01*
X26968687Y-13811700D01*
X26975139Y-13810328D01*
X26975144Y-13810328D01*
X27062087Y-13791847D01*
X27155488Y-13771994D01*
X27180406Y-13760900D01*
X27323922Y-13697003D01*
X27323924Y-13697002D01*
X27329952Y-13694318D01*
X27362881Y-13670394D01*
X27475134Y-13588837D01*
X27484453Y-13582066D01*
X27488868Y-13577163D01*
X27488871Y-13577160D01*
X27492273Y-13573382D01*
X27552720Y-13536145D01*
X27623704Y-13537499D01*
X27637155Y-13542589D01*
X27734544Y-13585949D01*
X27810112Y-13619594D01*
X27903512Y-13639447D01*
X27990456Y-13657928D01*
X27990461Y-13657928D01*
X27996913Y-13659300D01*
X28187887Y-13659300D01*
X28194339Y-13657928D01*
X28194344Y-13657928D01*
X28281288Y-13639447D01*
X28374688Y-13619594D01*
X28416164Y-13601128D01*
X28543122Y-13544603D01*
X28543124Y-13544602D01*
X28549152Y-13541918D01*
X28570573Y-13526355D01*
X28698309Y-13433549D01*
X28698311Y-13433547D01*
X28703653Y-13429666D01*
X28720280Y-13411200D01*
X28731896Y-13398300D01*
X28792342Y-13361062D01*
X28863326Y-13362414D01*
X28914626Y-13393517D01*
X30419195Y-14898086D01*
X30453221Y-14960398D01*
X30456100Y-14987181D01*
X30456100Y-15445700D01*
X30436098Y-15513821D01*
X30382442Y-15560314D01*
X30330100Y-15571700D01*
X27649868Y-15571700D01*
X27581747Y-15551698D01*
X27560773Y-15534795D01*
X27529568Y-15503590D01*
X27495542Y-15441278D01*
X27493353Y-15427665D01*
X27492334Y-15417963D01*
X27479733Y-15298072D01*
X27476678Y-15269007D01*
X27476678Y-15269005D01*
X27475988Y-15262444D01*
X27416973Y-15080816D01*
X27321486Y-14915428D01*
X27193699Y-14773506D01*
X27094603Y-14701508D01*
X27044540Y-14665135D01*
X27044539Y-14665134D01*
X27039198Y-14661254D01*
X27033170Y-14658570D01*
X27033168Y-14658569D01*
X26870765Y-14586263D01*
X26870764Y-14586263D01*
X26864734Y-14583578D01*
X26771334Y-14563725D01*
X26684390Y-14545244D01*
X26684385Y-14545244D01*
X26677933Y-14543872D01*
X26486959Y-14543872D01*
X26480507Y-14545244D01*
X26480502Y-14545244D01*
X26393558Y-14563725D01*
X26300158Y-14583578D01*
X26294128Y-14586263D01*
X26294127Y-14586263D01*
X26131724Y-14658569D01*
X26131722Y-14658570D01*
X26125694Y-14661254D01*
X26120353Y-14665134D01*
X26120352Y-14665135D01*
X26070289Y-14701508D01*
X25971193Y-14773506D01*
X25843406Y-14915428D01*
X25747919Y-15080816D01*
X25688904Y-15262444D01*
X25688214Y-15269005D01*
X25688214Y-15269007D01*
X25681130Y-15336406D01*
X25668942Y-15452372D01*
X25669632Y-15458937D01*
X25684879Y-15604001D01*
X25688904Y-15642300D01*
X25747919Y-15823928D01*
X25751222Y-15829650D01*
X25751223Y-15829651D01*
X25777884Y-15875829D01*
X25794622Y-15944824D01*
X25771402Y-16011916D01*
X25762402Y-16023138D01*
X25702789Y-16089345D01*
X25661439Y-16160965D01*
X25613651Y-16243737D01*
X25607302Y-16254733D01*
X25548287Y-16436361D01*
X25547597Y-16442922D01*
X25547597Y-16442924D01*
X25534192Y-16570471D01*
X25528325Y-16626289D01*
X25529015Y-16632854D01*
X25541018Y-16747052D01*
X25548287Y-16816217D01*
X25607302Y-16997845D01*
X25702789Y-17163233D01*
X25707207Y-17168140D01*
X25707208Y-17168141D01*
X25742285Y-17207098D01*
X25830576Y-17305155D01*
X25985077Y-17417407D01*
X25991105Y-17420091D01*
X25991107Y-17420092D01*
X26153510Y-17492398D01*
X26159541Y-17495083D01*
X26252941Y-17514936D01*
X26339885Y-17533417D01*
X26339890Y-17533417D01*
X26346342Y-17534789D01*
X26402235Y-17534789D01*
X26470356Y-17554791D01*
X26491330Y-17571694D01*
X26736283Y-17816647D01*
X26743827Y-17824937D01*
X26747940Y-17831418D01*
X26753717Y-17836843D01*
X26797607Y-17878058D01*
X26800449Y-17880813D01*
X26820170Y-17900534D01*
X26823365Y-17903012D01*
X26832387Y-17910718D01*
X26864619Y-17940986D01*
X26871568Y-17944806D01*
X26882372Y-17950746D01*
X26898896Y-17961599D01*
X26914899Y-17974013D01*
X26955483Y-17991576D01*
X26966113Y-17996783D01*
X27004880Y-18018095D01*
X27012557Y-18020066D01*
X27012562Y-18020068D01*
X27024498Y-18023132D01*
X27043206Y-18029537D01*
X27061795Y-18037581D01*
X27069620Y-18038820D01*
X27069622Y-18038821D01*
X27105459Y-18044497D01*
X27117080Y-18046904D01*
X27152229Y-18055928D01*
X27159910Y-18057900D01*
X27180171Y-18057900D01*
X27199880Y-18059451D01*
X27219883Y-18062619D01*
X27227775Y-18061873D01*
X27233002Y-18061379D01*
X27263894Y-18058459D01*
X27275751Y-18057900D01*
X31041800Y-18057900D01*
X31109921Y-18077902D01*
X31129147Y-18094243D01*
X31129420Y-18093940D01*
X31134332Y-18098363D01*
X31138747Y-18103266D01*
X31293248Y-18215518D01*
X31299276Y-18218202D01*
X31299278Y-18218203D01*
X31461681Y-18290509D01*
X31467712Y-18293194D01*
X31561112Y-18313047D01*
X31648056Y-18331528D01*
X31648061Y-18331528D01*
X31654513Y-18332900D01*
X31845487Y-18332900D01*
X31851939Y-18331528D01*
X31851944Y-18331528D01*
X31938888Y-18313047D01*
X32032288Y-18293194D01*
X32038319Y-18290509D01*
X32200722Y-18218203D01*
X32200724Y-18218202D01*
X32206752Y-18215518D01*
X32361253Y-18103266D01*
X32369650Y-18093940D01*
X32484621Y-17966252D01*
X32484622Y-17966251D01*
X32489040Y-17961344D01*
X32544270Y-17865683D01*
X32595653Y-17816690D01*
X32665367Y-17803255D01*
X32731278Y-17829642D01*
X32742482Y-17839586D01*
X32869147Y-17966252D01*
X32987279Y-18084384D01*
X33021304Y-18146696D01*
X33023493Y-18160309D01*
X33037460Y-18293194D01*
X33040858Y-18325528D01*
X33099873Y-18507156D01*
X33103176Y-18512878D01*
X33103177Y-18512879D01*
X33143719Y-18583100D01*
X33160457Y-18652096D01*
X33137236Y-18719187D01*
X33081429Y-18763074D01*
X33034600Y-18772100D01*
X23497567Y-18772100D01*
X23486384Y-18771573D01*
X23478891Y-18769898D01*
X23470965Y-18770147D01*
X23470964Y-18770147D01*
X23410814Y-18772038D01*
X23406855Y-18772100D01*
X23378944Y-18772100D01*
X23375010Y-18772597D01*
X23375009Y-18772597D01*
X23374944Y-18772605D01*
X23363107Y-18773538D01*
X23331290Y-18774538D01*
X23326829Y-18774678D01*
X23318910Y-18774927D01*
X23301254Y-18780056D01*
X23299458Y-18780578D01*
X23280106Y-18784586D01*
X23273035Y-18785480D01*
X23260003Y-18787126D01*
X23252634Y-18790043D01*
X23252632Y-18790044D01*
X23218897Y-18803400D01*
X23207669Y-18807245D01*
X23165207Y-18819582D01*
X23158385Y-18823616D01*
X23158379Y-18823619D01*
X23147768Y-18829894D01*
X23130018Y-18838590D01*
X23118556Y-18843128D01*
X23118551Y-18843131D01*
X23111183Y-18846048D01*
X23104768Y-18850709D01*
X23075425Y-18872027D01*
X23065507Y-18878543D01*
X23046819Y-18889595D01*
X23027437Y-18901058D01*
X23013113Y-18915382D01*
X22998081Y-18928221D01*
X22981693Y-18940128D01*
X22953512Y-18974193D01*
X22945522Y-18982973D01*
X21705747Y-20222748D01*
X21697461Y-20230288D01*
X21690982Y-20234400D01*
X21685557Y-20240177D01*
X21644357Y-20284051D01*
X21641602Y-20286893D01*
X21621865Y-20306630D01*
X21619385Y-20309827D01*
X21611682Y-20318847D01*
X21581414Y-20351079D01*
X21580205Y-20353278D01*
X21525890Y-20395161D01*
X21455154Y-20401236D01*
X21392363Y-20368104D01*
X21371058Y-20340746D01*
X21339966Y-20286893D01*
X21313040Y-20240256D01*
X21262266Y-20183865D01*
X21189675Y-20103245D01*
X21189674Y-20103244D01*
X21185253Y-20098334D01*
X21064413Y-20010538D01*
X21036094Y-19989963D01*
X21036093Y-19989962D01*
X21030752Y-19986082D01*
X21024724Y-19983398D01*
X21024722Y-19983397D01*
X20862319Y-19911091D01*
X20862318Y-19911091D01*
X20856288Y-19908406D01*
X20735046Y-19882635D01*
X20675944Y-19870072D01*
X20675939Y-19870072D01*
X20669487Y-19868700D01*
X20478513Y-19868700D01*
X20472061Y-19870072D01*
X20472056Y-19870072D01*
X20412954Y-19882635D01*
X20291712Y-19908406D01*
X20285682Y-19911091D01*
X20285681Y-19911091D01*
X20123278Y-19983397D01*
X20123276Y-19983398D01*
X20117248Y-19986082D01*
X20111907Y-19989962D01*
X20111906Y-19989963D01*
X20083587Y-20010538D01*
X19962747Y-20098334D01*
X19958326Y-20103244D01*
X19958325Y-20103245D01*
X19885735Y-20183865D01*
X19834960Y-20240256D01*
X19739473Y-20405644D01*
X19680458Y-20587272D01*
X19679768Y-20593833D01*
X19679768Y-20593835D01*
X19669090Y-20695435D01*
X19660496Y-20777200D01*
X19661186Y-20783765D01*
X19678863Y-20951949D01*
X19680458Y-20967128D01*
X19739473Y-21148756D01*
X19742776Y-21154478D01*
X19742777Y-21154479D01*
X19755392Y-21176328D01*
X19834960Y-21314144D01*
X19839378Y-21319051D01*
X19839379Y-21319052D01*
X19952668Y-21444872D01*
X19962747Y-21456066D01*
X20041986Y-21513637D01*
X20103318Y-21558197D01*
X20117248Y-21568318D01*
X20123276Y-21571002D01*
X20123278Y-21571003D01*
X20266794Y-21634900D01*
X20291712Y-21645994D01*
X20385112Y-21665847D01*
X20472056Y-21684328D01*
X20472061Y-21684328D01*
X20478513Y-21685700D01*
X20669487Y-21685700D01*
X20675939Y-21684328D01*
X20675944Y-21684328D01*
X20762888Y-21665847D01*
X20856288Y-21645994D01*
X20881206Y-21634900D01*
X21024722Y-21571003D01*
X21024724Y-21571002D01*
X21030752Y-21568318D01*
X21044683Y-21558197D01*
X21106014Y-21513637D01*
X21185253Y-21456066D01*
X21196568Y-21443500D01*
X21222793Y-21414374D01*
X21244864Y-21389861D01*
X21305310Y-21352621D01*
X21376293Y-21353973D01*
X21435278Y-21393486D01*
X21463536Y-21458617D01*
X21464500Y-21474171D01*
X21464500Y-24037076D01*
X21444498Y-24105197D01*
X21432142Y-24121379D01*
X21358960Y-24202656D01*
X21336804Y-24241031D01*
X21269020Y-24358437D01*
X21263473Y-24368044D01*
X21204458Y-24549672D01*
X21203768Y-24556233D01*
X21203768Y-24556235D01*
X21200405Y-24588237D01*
X21184496Y-24739600D01*
X21182086Y-24739347D01*
X21165184Y-24796910D01*
X21111528Y-24843403D01*
X21059186Y-24854789D01*
X20023096Y-24854789D01*
X19954975Y-24834787D01*
X19934001Y-24817884D01*
X18948590Y-23832472D01*
X17939465Y-22823347D01*
X17931925Y-22815061D01*
X17927813Y-22808582D01*
X17878161Y-22761956D01*
X17875320Y-22759202D01*
X17855583Y-22739465D01*
X17852386Y-22736985D01*
X17843364Y-22729280D01*
X17816913Y-22704441D01*
X17811134Y-22699014D01*
X17804188Y-22695195D01*
X17804185Y-22695193D01*
X17793379Y-22689252D01*
X17776860Y-22678401D01*
X17770861Y-22673748D01*
X17760854Y-22665986D01*
X17753585Y-22662841D01*
X17753581Y-22662838D01*
X17720276Y-22648426D01*
X17709626Y-22643209D01*
X17670873Y-22621905D01*
X17651250Y-22616867D01*
X17632547Y-22610463D01*
X17621233Y-22605567D01*
X17621232Y-22605567D01*
X17613958Y-22602419D01*
X17606135Y-22601180D01*
X17606125Y-22601177D01*
X17570289Y-22595501D01*
X17558669Y-22593095D01*
X17523524Y-22584072D01*
X17523523Y-22584072D01*
X17515843Y-22582100D01*
X17507914Y-22582100D01*
X17500053Y-22581107D01*
X17500338Y-22578852D01*
X17443279Y-22562098D01*
X17396786Y-22508442D01*
X17386682Y-22438168D01*
X17402281Y-22393100D01*
X17442823Y-22322879D01*
X17442824Y-22322878D01*
X17446127Y-22317156D01*
X17505142Y-22135528D01*
X17525104Y-21945600D01*
X17524414Y-21939035D01*
X17505832Y-21762235D01*
X17505832Y-21762233D01*
X17505142Y-21755672D01*
X17446127Y-21574044D01*
X17440581Y-21564437D01*
X17395232Y-21485891D01*
X17350640Y-21408656D01*
X17335638Y-21391994D01*
X17227275Y-21271645D01*
X17227274Y-21271644D01*
X17222853Y-21266734D01*
X17068352Y-21154482D01*
X17062324Y-21151798D01*
X17062322Y-21151797D01*
X16899919Y-21079491D01*
X16899918Y-21079491D01*
X16893888Y-21076806D01*
X16788599Y-21054426D01*
X16713544Y-21038472D01*
X16713539Y-21038472D01*
X16707087Y-21037100D01*
X16516113Y-21037100D01*
X16509661Y-21038472D01*
X16509656Y-21038472D01*
X16434601Y-21054426D01*
X16329312Y-21076806D01*
X16323282Y-21079491D01*
X16323281Y-21079491D01*
X16160878Y-21151797D01*
X16160876Y-21151798D01*
X16154848Y-21154482D01*
X16000347Y-21266734D01*
X15995926Y-21271644D01*
X15995925Y-21271645D01*
X15887563Y-21391994D01*
X15872560Y-21408656D01*
X15827968Y-21485891D01*
X15782620Y-21564437D01*
X15777073Y-21574044D01*
X15718058Y-21755672D01*
X15717368Y-21762233D01*
X15717368Y-21762235D01*
X15698786Y-21939035D01*
X15698096Y-21945600D01*
X15718058Y-22135528D01*
X15777073Y-22317156D01*
X15780376Y-22322878D01*
X15780377Y-22322879D01*
X15801629Y-22359688D01*
X15872560Y-22482544D01*
X15911730Y-22526047D01*
X15942446Y-22590053D01*
X15933681Y-22660506D01*
X15923328Y-22678638D01*
X15923360Y-22678656D01*
X15864802Y-22780082D01*
X15827873Y-22844044D01*
X15768858Y-23025672D01*
X15768168Y-23032235D01*
X15768168Y-23032236D01*
X15764106Y-23070879D01*
X15737092Y-23136536D01*
X15690045Y-23172814D01*
X15551278Y-23234597D01*
X15551276Y-23234598D01*
X15545248Y-23237282D01*
X15390747Y-23349534D01*
X15262960Y-23491456D01*
X15167473Y-23656844D01*
X15108458Y-23838472D01*
X15107768Y-23845033D01*
X15107768Y-23845035D01*
X15104777Y-23873491D01*
X15088496Y-24028400D01*
X15089186Y-24034965D01*
X15106626Y-24200893D01*
X15108458Y-24218328D01*
X15167473Y-24399956D01*
X15262960Y-24565344D01*
X15267378Y-24570251D01*
X15267379Y-24570252D01*
X15292493Y-24598144D01*
X15390747Y-24707266D01*
X15545248Y-24819518D01*
X15551276Y-24822202D01*
X15551278Y-24822203D01*
X15702678Y-24889610D01*
X15719712Y-24897194D01*
X15813112Y-24917047D01*
X15900056Y-24935528D01*
X15900061Y-24935528D01*
X15906513Y-24936900D01*
X16086685Y-24936900D01*
X16154806Y-24956902D01*
X16201299Y-25010558D01*
X16211995Y-25049729D01*
X16216206Y-25089791D01*
X16226058Y-25183528D01*
X16285073Y-25365156D01*
X16380560Y-25530544D01*
X16508347Y-25672466D01*
X16527040Y-25686047D01*
X16531254Y-25689109D01*
X16574608Y-25745332D01*
X16580683Y-25816068D01*
X16577026Y-25829981D01*
X16554038Y-25900732D01*
X16530858Y-25972072D01*
X16530168Y-25978633D01*
X16530168Y-25978635D01*
X16524449Y-26033046D01*
X16510896Y-26162000D01*
X16530858Y-26351928D01*
X16589873Y-26533556D01*
X16685360Y-26698944D01*
X16689778Y-26703851D01*
X16689779Y-26703852D01*
X16783611Y-26808063D01*
X16813147Y-26840866D01*
X16967648Y-26953118D01*
X16973676Y-26955802D01*
X16973678Y-26955803D01*
X17136081Y-27028109D01*
X17142112Y-27030794D01*
X17235513Y-27050647D01*
X17322456Y-27069128D01*
X17322461Y-27069128D01*
X17328913Y-27070500D01*
X17519887Y-27070500D01*
X17526339Y-27069128D01*
X17526344Y-27069128D01*
X17613287Y-27050647D01*
X17706688Y-27030794D01*
X17712719Y-27028109D01*
X17875122Y-26955803D01*
X17875124Y-26955802D01*
X17881152Y-26953118D01*
X18035653Y-26840866D01*
X18065189Y-26808063D01*
X18159021Y-26703852D01*
X18159022Y-26703851D01*
X18163440Y-26698944D01*
X18258927Y-26533556D01*
X18317942Y-26351928D01*
X18337904Y-26162000D01*
X18324351Y-26033046D01*
X18318632Y-25978635D01*
X18318632Y-25978633D01*
X18317942Y-25972072D01*
X18258927Y-25790444D01*
X18163440Y-25625056D01*
X18035653Y-25483134D01*
X18012746Y-25466491D01*
X17969392Y-25410268D01*
X17963317Y-25339532D01*
X17966974Y-25325619D01*
X18011102Y-25189806D01*
X18013142Y-25183528D01*
X18022994Y-25089791D01*
X18032579Y-24998599D01*
X18059592Y-24932942D01*
X18117814Y-24892313D01*
X18188759Y-24889610D01*
X18246984Y-24922675D01*
X19204845Y-25880536D01*
X19212389Y-25888826D01*
X19216502Y-25895307D01*
X19222279Y-25900732D01*
X19266169Y-25941947D01*
X19269011Y-25944702D01*
X19288733Y-25964424D01*
X19291857Y-25966847D01*
X19291861Y-25966851D01*
X19291926Y-25966901D01*
X19300947Y-25974606D01*
X19333181Y-26004875D01*
X19340129Y-26008694D01*
X19340131Y-26008696D01*
X19350934Y-26014635D01*
X19367461Y-26025491D01*
X19377200Y-26033046D01*
X19377202Y-26033047D01*
X19383462Y-26037903D01*
X19424042Y-26055463D01*
X19434690Y-26060680D01*
X19473442Y-26081984D01*
X19481118Y-26083955D01*
X19481121Y-26083956D01*
X19493064Y-26087022D01*
X19511769Y-26093426D01*
X19530357Y-26101470D01*
X19538180Y-26102709D01*
X19538190Y-26102712D01*
X19574026Y-26108388D01*
X19585646Y-26110794D01*
X19620791Y-26119817D01*
X19628472Y-26121789D01*
X19648726Y-26121789D01*
X19668436Y-26123340D01*
X19688445Y-26126509D01*
X19696337Y-26125763D01*
X19732463Y-26122348D01*
X19744321Y-26121789D01*
X22026679Y-26121789D01*
X22094800Y-26141791D01*
X22141293Y-26195447D01*
X22151989Y-26234618D01*
X22164979Y-26358206D01*
X22169658Y-26402728D01*
X22228673Y-26584356D01*
X22324160Y-26749744D01*
X22328578Y-26754651D01*
X22328579Y-26754652D01*
X22409703Y-26844749D01*
X22451947Y-26891666D01*
X22531186Y-26949237D01*
X22596453Y-26996656D01*
X22606448Y-27003918D01*
X22612476Y-27006602D01*
X22612478Y-27006603D01*
X22774881Y-27078909D01*
X22780912Y-27081594D01*
X22787367Y-27082966D01*
X22787370Y-27082967D01*
X22801824Y-27086039D01*
X22864298Y-27119767D01*
X22898619Y-27181916D01*
X22893892Y-27252755D01*
X22851617Y-27309793D01*
X22826877Y-27324393D01*
X22716387Y-27373586D01*
X22716385Y-27373587D01*
X22710357Y-27376271D01*
X22555856Y-27488523D01*
X22551435Y-27493433D01*
X22551434Y-27493434D01*
X22515269Y-27533600D01*
X22428069Y-27630445D01*
X22424768Y-27636163D01*
X22350239Y-27765251D01*
X22332582Y-27795833D01*
X22273567Y-27977461D01*
X22256883Y-28136206D01*
X22256202Y-28142682D01*
X22229189Y-28208339D01*
X22219987Y-28218607D01*
X21883305Y-28555289D01*
X21820993Y-28589315D01*
X21750178Y-28584250D01*
X21700578Y-28550507D01*
X21591653Y-28429534D01*
X21479553Y-28348088D01*
X21442494Y-28321163D01*
X21442493Y-28321162D01*
X21437152Y-28317282D01*
X21431124Y-28314598D01*
X21431122Y-28314597D01*
X21384662Y-28293912D01*
X21330566Y-28247932D01*
X21309917Y-28180005D01*
X21329269Y-28111697D01*
X21342274Y-28094496D01*
X21359421Y-28075452D01*
X21359422Y-28075451D01*
X21363840Y-28070544D01*
X21422114Y-27969610D01*
X21456023Y-27910879D01*
X21456024Y-27910878D01*
X21459327Y-27905156D01*
X21518342Y-27723528D01*
X21533229Y-27581891D01*
X21537614Y-27540165D01*
X21538304Y-27533600D01*
X21533158Y-27484640D01*
X21519032Y-27350235D01*
X21519032Y-27350233D01*
X21518342Y-27343672D01*
X21459327Y-27162044D01*
X21363840Y-26996656D01*
X21236053Y-26854734D01*
X21098303Y-26754652D01*
X21086894Y-26746363D01*
X21086893Y-26746362D01*
X21081552Y-26742482D01*
X21075524Y-26739798D01*
X21075522Y-26739797D01*
X20913119Y-26667491D01*
X20913118Y-26667491D01*
X20907088Y-26664806D01*
X20813687Y-26644953D01*
X20726744Y-26626472D01*
X20726739Y-26626472D01*
X20720287Y-26625100D01*
X20529313Y-26625100D01*
X20522861Y-26626472D01*
X20522856Y-26626472D01*
X20435913Y-26644953D01*
X20342512Y-26664806D01*
X20336482Y-26667491D01*
X20336481Y-26667491D01*
X20174078Y-26739797D01*
X20174076Y-26739798D01*
X20168048Y-26742482D01*
X20162707Y-26746362D01*
X20162706Y-26746363D01*
X20151297Y-26754652D01*
X20013547Y-26854734D01*
X19885760Y-26996656D01*
X19790273Y-27162044D01*
X19731258Y-27343672D01*
X19730568Y-27350233D01*
X19730568Y-27350235D01*
X19716442Y-27484640D01*
X19711296Y-27533600D01*
X19711986Y-27540165D01*
X19716372Y-27581891D01*
X19731258Y-27723528D01*
X19790273Y-27905156D01*
X19793576Y-27910878D01*
X19793577Y-27910879D01*
X19827486Y-27969610D01*
X19885760Y-28070544D01*
X19890178Y-28075451D01*
X19890179Y-28075452D01*
X19976007Y-28170774D01*
X20013547Y-28212466D01*
X20050902Y-28239606D01*
X20154118Y-28314597D01*
X20168048Y-28324718D01*
X20174076Y-28327402D01*
X20174078Y-28327403D01*
X20220538Y-28348088D01*
X20274634Y-28394068D01*
X20295283Y-28461995D01*
X20275931Y-28530303D01*
X20262926Y-28547504D01*
X20245779Y-28566548D01*
X20241360Y-28571456D01*
X20202982Y-28637928D01*
X20151420Y-28727237D01*
X20145873Y-28736844D01*
X20086858Y-28918472D01*
X20086168Y-28925033D01*
X20086168Y-28925035D01*
X20079356Y-28989852D01*
X20066896Y-29108400D01*
X20067586Y-29114965D01*
X20080617Y-29238944D01*
X20086858Y-29298328D01*
X20145873Y-29479956D01*
X20241360Y-29645344D01*
X20369147Y-29787266D01*
X20413233Y-29819297D01*
X20456587Y-29875518D01*
X20462663Y-29946254D01*
X20428267Y-30010327D01*
X18546198Y-31892395D01*
X18483886Y-31926421D01*
X18457103Y-31929300D01*
X15846600Y-31929300D01*
X15778479Y-31909298D01*
X15759253Y-31892957D01*
X15758980Y-31893260D01*
X15754068Y-31888837D01*
X15749653Y-31883934D01*
X15595152Y-31771682D01*
X15589124Y-31768998D01*
X15589122Y-31768997D01*
X15426719Y-31696691D01*
X15426718Y-31696691D01*
X15420688Y-31694006D01*
X15327288Y-31674153D01*
X15240344Y-31655672D01*
X15240339Y-31655672D01*
X15233887Y-31654300D01*
X15042913Y-31654300D01*
X15036461Y-31655672D01*
X15036456Y-31655672D01*
X14949512Y-31674153D01*
X14856112Y-31694006D01*
X14850082Y-31696691D01*
X14850081Y-31696691D01*
X14687678Y-31768997D01*
X14687676Y-31768998D01*
X14681648Y-31771682D01*
X14676307Y-31775562D01*
X14676306Y-31775563D01*
X14651161Y-31793832D01*
X14584293Y-31817691D01*
X14515141Y-31801610D01*
X14465661Y-31750696D01*
X14451100Y-31691896D01*
X14451100Y-24716763D01*
X14451627Y-24705579D01*
X14453301Y-24698091D01*
X14451162Y-24630032D01*
X14451100Y-24626075D01*
X14451100Y-24598144D01*
X14450594Y-24594138D01*
X14449661Y-24582292D01*
X14448522Y-24546037D01*
X14448273Y-24538110D01*
X14442622Y-24518658D01*
X14438614Y-24499306D01*
X14437068Y-24487068D01*
X14437067Y-24487066D01*
X14436074Y-24479203D01*
X14419794Y-24438086D01*
X14415959Y-24426885D01*
X14403618Y-24384406D01*
X14399585Y-24377587D01*
X14399583Y-24377582D01*
X14393307Y-24366971D01*
X14384610Y-24349221D01*
X14377152Y-24330383D01*
X14351171Y-24294623D01*
X14344653Y-24284701D01*
X14326178Y-24253460D01*
X14326174Y-24253455D01*
X14322142Y-24246637D01*
X14307818Y-24232313D01*
X14294976Y-24217278D01*
X14283072Y-24200893D01*
X14249006Y-24172711D01*
X14240227Y-24164722D01*
X10598705Y-20523200D01*
X11634096Y-20523200D01*
X11634786Y-20529765D01*
X11651509Y-20688872D01*
X11654058Y-20713128D01*
X11713073Y-20894756D01*
X11716376Y-20900478D01*
X11716377Y-20900479D01*
X11729152Y-20922606D01*
X11808560Y-21060144D01*
X11812978Y-21065051D01*
X11812979Y-21065052D01*
X11893502Y-21154482D01*
X11936347Y-21202066D01*
X12090848Y-21314318D01*
X12096876Y-21317002D01*
X12096878Y-21317003D01*
X12259281Y-21389309D01*
X12265312Y-21391994D01*
X12358712Y-21411847D01*
X12445656Y-21430328D01*
X12445661Y-21430328D01*
X12452113Y-21431700D01*
X12643087Y-21431700D01*
X12649539Y-21430328D01*
X12649544Y-21430328D01*
X12736488Y-21411847D01*
X12829888Y-21391994D01*
X12835919Y-21389309D01*
X12998322Y-21317003D01*
X12998324Y-21317002D01*
X13004352Y-21314318D01*
X13158853Y-21202066D01*
X13201698Y-21154482D01*
X13282221Y-21065052D01*
X13282222Y-21065051D01*
X13286640Y-21060144D01*
X13366048Y-20922606D01*
X13378823Y-20900479D01*
X13378824Y-20900478D01*
X13382127Y-20894756D01*
X13441142Y-20713128D01*
X13443692Y-20688872D01*
X13460414Y-20529765D01*
X13461104Y-20523200D01*
X13441142Y-20333272D01*
X13382127Y-20151644D01*
X13286640Y-19986256D01*
X13206854Y-19897644D01*
X13163275Y-19849245D01*
X13163274Y-19849244D01*
X13158853Y-19844334D01*
X13004352Y-19732082D01*
X12998324Y-19729398D01*
X12998322Y-19729397D01*
X12835919Y-19657091D01*
X12835918Y-19657091D01*
X12829888Y-19654406D01*
X12736487Y-19634553D01*
X12649544Y-19616072D01*
X12649539Y-19616072D01*
X12643087Y-19614700D01*
X12452113Y-19614700D01*
X12445661Y-19616072D01*
X12445656Y-19616072D01*
X12358713Y-19634553D01*
X12265312Y-19654406D01*
X12259282Y-19657091D01*
X12259281Y-19657091D01*
X12096878Y-19729397D01*
X12096876Y-19729398D01*
X12090848Y-19732082D01*
X11936347Y-19844334D01*
X11931926Y-19849244D01*
X11931925Y-19849245D01*
X11888347Y-19897644D01*
X11808560Y-19986256D01*
X11713073Y-20151644D01*
X11654058Y-20333272D01*
X11634096Y-20523200D01*
X10598705Y-20523200D01*
X7043122Y-16967617D01*
X7009096Y-16905305D01*
X7006907Y-16891692D01*
X6990232Y-16733035D01*
X6990232Y-16733033D01*
X6989542Y-16726472D01*
X6930527Y-16544844D01*
X6835040Y-16379456D01*
X6824218Y-16367437D01*
X6793501Y-16303429D01*
X6802265Y-16232976D01*
X6828759Y-16194031D01*
X7566290Y-15456500D01*
X16663296Y-15456500D01*
X16663986Y-15463065D01*
X16679989Y-15615321D01*
X16683258Y-15646428D01*
X16742273Y-15828056D01*
X16837760Y-15993444D01*
X16842178Y-15998351D01*
X16842179Y-15998352D01*
X16929258Y-16095063D01*
X16965547Y-16135366D01*
X17120048Y-16247618D01*
X17126076Y-16250302D01*
X17126078Y-16250303D01*
X17189590Y-16278580D01*
X17294512Y-16325294D01*
X17387913Y-16345147D01*
X17474856Y-16363628D01*
X17474861Y-16363628D01*
X17481313Y-16365000D01*
X17672287Y-16365000D01*
X17678739Y-16363628D01*
X17678744Y-16363628D01*
X17765687Y-16345147D01*
X17859088Y-16325294D01*
X17964010Y-16278580D01*
X18027522Y-16250303D01*
X18027524Y-16250302D01*
X18033552Y-16247618D01*
X18188053Y-16135366D01*
X18224342Y-16095063D01*
X18311421Y-15998352D01*
X18311422Y-15998351D01*
X18315840Y-15993444D01*
X18411327Y-15828056D01*
X18470342Y-15646428D01*
X18473612Y-15615321D01*
X18489614Y-15463065D01*
X18490304Y-15456500D01*
X18485564Y-15411397D01*
X18471032Y-15273135D01*
X18471032Y-15273133D01*
X18470342Y-15266572D01*
X18411327Y-15084944D01*
X18315840Y-14919556D01*
X18296509Y-14898086D01*
X18192475Y-14782545D01*
X18192474Y-14782544D01*
X18188053Y-14777634D01*
X18033552Y-14665382D01*
X18027524Y-14662698D01*
X18027522Y-14662697D01*
X17865119Y-14590391D01*
X17865118Y-14590391D01*
X17859088Y-14587706D01*
X17765688Y-14567853D01*
X17678744Y-14549372D01*
X17678739Y-14549372D01*
X17672287Y-14548000D01*
X17481313Y-14548000D01*
X17474861Y-14549372D01*
X17474856Y-14549372D01*
X17387912Y-14567853D01*
X17294512Y-14587706D01*
X17288482Y-14590391D01*
X17288481Y-14590391D01*
X17126078Y-14662697D01*
X17126076Y-14662698D01*
X17120048Y-14665382D01*
X16965547Y-14777634D01*
X16961126Y-14782544D01*
X16961125Y-14782545D01*
X16857092Y-14898086D01*
X16837760Y-14919556D01*
X16742273Y-15084944D01*
X16683258Y-15266572D01*
X16682568Y-15273133D01*
X16682568Y-15273135D01*
X16668036Y-15411397D01*
X16663296Y-15456500D01*
X7566290Y-15456500D01*
X10327043Y-12695747D01*
X10389355Y-12661721D01*
X10460170Y-12666786D01*
X10503962Y-12696576D01*
X10504623Y-12695841D01*
X10509525Y-12700254D01*
X10513947Y-12705166D01*
X10597672Y-12765996D01*
X10637641Y-12795035D01*
X10668448Y-12817418D01*
X10674476Y-12820102D01*
X10674478Y-12820103D01*
X10776204Y-12865394D01*
X10842912Y-12895094D01*
X10936312Y-12914947D01*
X11023256Y-12933428D01*
X11023261Y-12933428D01*
X11029713Y-12934800D01*
X11220687Y-12934800D01*
X11227139Y-12933428D01*
X11227144Y-12933428D01*
X11314088Y-12914947D01*
X11407488Y-12895094D01*
X11474196Y-12865394D01*
X11575922Y-12820103D01*
X11575924Y-12820102D01*
X11581952Y-12817418D01*
X11612760Y-12795035D01*
X11652728Y-12765996D01*
X11736453Y-12705166D01*
X11740875Y-12700255D01*
X11859821Y-12568152D01*
X11859822Y-12568151D01*
X11864240Y-12563244D01*
X11941722Y-12429042D01*
X11956423Y-12403579D01*
X11956424Y-12403578D01*
X11959727Y-12397856D01*
X12018742Y-12216228D01*
X12020554Y-12198994D01*
X12033172Y-12078931D01*
X12036107Y-12051006D01*
X12063120Y-11985350D01*
X12072322Y-11975082D01*
X12686294Y-11361110D01*
X12748606Y-11327084D01*
X12775389Y-11324205D01*
X15138528Y-11324205D01*
X15149711Y-11324732D01*
X15157204Y-11326407D01*
X15165130Y-11326158D01*
X15165131Y-11326158D01*
X15225281Y-11324267D01*
X15229240Y-11324205D01*
X15257151Y-11324205D01*
X15261086Y-11323708D01*
X15261151Y-11323700D01*
X15272988Y-11322767D01*
X15305246Y-11321753D01*
X15309265Y-11321627D01*
X15317184Y-11321378D01*
X15336638Y-11315726D01*
X15355995Y-11311718D01*
X15368225Y-11310173D01*
X15368226Y-11310173D01*
X15376092Y-11309179D01*
X15383463Y-11306260D01*
X15383465Y-11306260D01*
X15417207Y-11292901D01*
X15428435Y-11289057D01*
X15448048Y-11283359D01*
X15452813Y-11281974D01*
X15523809Y-11282175D01*
X15583426Y-11320728D01*
X15612736Y-11385392D01*
X15602433Y-11455637D01*
X15581606Y-11487278D01*
X15567760Y-11502656D01*
X15472273Y-11668044D01*
X15413258Y-11849672D01*
X15412568Y-11856233D01*
X15412568Y-11856235D01*
X15402263Y-11954282D01*
X15393296Y-12039600D01*
X15393986Y-12046165D01*
X15412207Y-12219525D01*
X15413258Y-12229528D01*
X15472273Y-12411156D01*
X15475576Y-12416878D01*
X15475577Y-12416879D01*
X15509203Y-12475121D01*
X15567760Y-12576544D01*
X15572178Y-12581451D01*
X15572179Y-12581452D01*
X15687068Y-12709049D01*
X15695547Y-12718466D01*
X15714635Y-12732334D01*
X15819007Y-12808165D01*
X15850048Y-12830718D01*
X15856076Y-12833402D01*
X15856078Y-12833403D01*
X16012846Y-12903200D01*
X16024512Y-12908394D01*
X16117913Y-12928247D01*
X16204856Y-12946728D01*
X16204861Y-12946728D01*
X16211313Y-12948100D01*
X16402287Y-12948100D01*
X16408739Y-12946728D01*
X16408744Y-12946728D01*
X16495687Y-12928247D01*
X16589088Y-12908394D01*
X16600754Y-12903200D01*
X16757522Y-12833403D01*
X16757524Y-12833402D01*
X16763552Y-12830718D01*
X16802586Y-12802358D01*
X16869454Y-12778500D01*
X16938605Y-12794580D01*
X16988085Y-12845494D01*
X16996478Y-12865353D01*
X17025342Y-12954187D01*
X17120829Y-13119575D01*
X17125247Y-13124482D01*
X17125248Y-13124483D01*
X17183342Y-13189003D01*
X17248616Y-13261497D01*
X17403117Y-13373749D01*
X17409145Y-13376433D01*
X17409147Y-13376434D01*
X17539400Y-13434426D01*
X17577581Y-13451425D01*
X17670981Y-13471278D01*
X17757925Y-13489759D01*
X17757930Y-13489759D01*
X17764382Y-13491131D01*
X17955356Y-13491131D01*
X17961808Y-13489759D01*
X17961813Y-13489759D01*
X18048756Y-13471278D01*
X18142157Y-13451425D01*
X18180338Y-13434426D01*
X18310591Y-13376434D01*
X18310593Y-13376433D01*
X18316621Y-13373749D01*
X18471122Y-13261497D01*
X18536396Y-13189003D01*
X18594490Y-13124483D01*
X18594491Y-13124482D01*
X18598909Y-13119575D01*
X18694396Y-12954187D01*
X18753411Y-12772559D01*
X18754682Y-12760471D01*
X18772683Y-12589196D01*
X18773373Y-12582631D01*
X18763774Y-12491305D01*
X18754101Y-12399266D01*
X18754101Y-12399264D01*
X18753411Y-12392703D01*
X18694396Y-12211075D01*
X18679864Y-12185904D01*
X18610153Y-12065163D01*
X18598909Y-12045687D01*
X18584721Y-12029929D01*
X18475544Y-11908676D01*
X18475543Y-11908675D01*
X18471122Y-11903765D01*
X18316621Y-11791513D01*
X18310593Y-11788829D01*
X18310591Y-11788828D01*
X18148188Y-11716522D01*
X18148187Y-11716522D01*
X18142157Y-11713837D01*
X18100184Y-11704915D01*
X18084145Y-11701506D01*
X18021671Y-11667777D01*
X17987350Y-11605628D01*
X17985032Y-11565089D01*
X18000094Y-11421781D01*
X18000784Y-11415216D01*
X17991225Y-11324267D01*
X17981512Y-11231851D01*
X17981512Y-11231849D01*
X17980822Y-11225288D01*
X17921807Y-11043660D01*
X17842617Y-10906500D01*
X19762096Y-10906500D01*
X19762786Y-10913065D01*
X19772915Y-11009433D01*
X19782058Y-11096428D01*
X19841073Y-11278056D01*
X19844376Y-11283778D01*
X19844377Y-11283779D01*
X19869379Y-11327084D01*
X19936560Y-11443444D01*
X19940975Y-11448347D01*
X19940979Y-11448352D01*
X20059925Y-11580455D01*
X20064347Y-11585366D01*
X20145266Y-11644157D01*
X20188619Y-11700378D01*
X20194694Y-11771114D01*
X20164841Y-11830400D01*
X20139760Y-11858256D01*
X20044273Y-12023644D01*
X19985258Y-12205272D01*
X19984568Y-12211833D01*
X19984568Y-12211835D01*
X19976663Y-12287050D01*
X19965296Y-12395200D01*
X19965986Y-12401765D01*
X19984306Y-12576066D01*
X19985258Y-12585128D01*
X20044273Y-12766756D01*
X20047576Y-12772478D01*
X20047577Y-12772479D01*
X20071282Y-12813537D01*
X20139760Y-12932144D01*
X20144178Y-12937051D01*
X20144179Y-12937052D01*
X20198882Y-12997806D01*
X20267547Y-13074066D01*
X20325362Y-13116071D01*
X20395282Y-13166871D01*
X20422048Y-13186318D01*
X20428076Y-13189002D01*
X20428078Y-13189003D01*
X20579873Y-13256586D01*
X20596512Y-13263994D01*
X20689912Y-13283847D01*
X20776856Y-13302328D01*
X20776861Y-13302328D01*
X20783313Y-13303700D01*
X20805746Y-13303700D01*
X20873867Y-13323702D01*
X20920360Y-13377358D01*
X20931056Y-13416529D01*
X20948863Y-13585949D01*
X20950458Y-13601128D01*
X21009473Y-13782756D01*
X21104960Y-13948144D01*
X21232747Y-14090066D01*
X21387248Y-14202318D01*
X21393276Y-14205002D01*
X21393278Y-14205003D01*
X21516555Y-14259889D01*
X21561712Y-14279994D01*
X21655112Y-14299847D01*
X21742056Y-14318328D01*
X21742061Y-14318328D01*
X21748513Y-14319700D01*
X21939487Y-14319700D01*
X21945939Y-14318328D01*
X21945944Y-14318328D01*
X22032888Y-14299847D01*
X22126288Y-14279994D01*
X22171445Y-14259889D01*
X22294722Y-14205003D01*
X22294724Y-14205002D01*
X22300752Y-14202318D01*
X22455253Y-14090066D01*
X22583040Y-13948144D01*
X22678527Y-13782756D01*
X22728748Y-13628193D01*
X22768822Y-13569587D01*
X22834218Y-13541950D01*
X22904175Y-13554057D01*
X22922642Y-13565193D01*
X22999407Y-13620966D01*
X23030447Y-13643518D01*
X23036475Y-13646202D01*
X23036477Y-13646203D01*
X23179993Y-13710100D01*
X23204911Y-13721194D01*
X23298311Y-13741047D01*
X23385255Y-13759528D01*
X23385260Y-13759528D01*
X23391712Y-13760900D01*
X23582686Y-13760900D01*
X23589138Y-13759528D01*
X23589143Y-13759528D01*
X23676087Y-13741047D01*
X23769487Y-13721194D01*
X23794405Y-13710100D01*
X23937921Y-13646203D01*
X23937923Y-13646202D01*
X23943951Y-13643518D01*
X23976880Y-13619594D01*
X24019213Y-13588837D01*
X24098452Y-13531266D01*
X24140696Y-13484349D01*
X24221820Y-13394252D01*
X24221821Y-13394251D01*
X24226239Y-13389344D01*
X24321726Y-13223956D01*
X24380741Y-13042328D01*
X24385421Y-12997806D01*
X24400013Y-12858965D01*
X24400703Y-12852400D01*
X24398016Y-12826837D01*
X24381431Y-12669035D01*
X24381431Y-12669033D01*
X24380741Y-12662472D01*
X24321726Y-12480844D01*
X24226239Y-12315456D01*
X24176080Y-12259748D01*
X24102874Y-12178445D01*
X24102873Y-12178444D01*
X24098452Y-12173534D01*
X23943951Y-12061282D01*
X23937923Y-12058598D01*
X23937921Y-12058597D01*
X23775518Y-11986291D01*
X23775517Y-11986291D01*
X23769487Y-11983606D01*
X23763032Y-11982234D01*
X23763029Y-11982233D01*
X23758855Y-11981346D01*
X23696382Y-11947618D01*
X23662060Y-11885469D01*
X23659741Y-11844929D01*
X23675513Y-11694864D01*
X23676203Y-11688299D01*
X23667352Y-11604082D01*
X23656931Y-11504934D01*
X23656931Y-11504932D01*
X23656241Y-11498371D01*
X23597226Y-11316743D01*
X23581242Y-11289057D01*
X23505040Y-11157073D01*
X23501739Y-11151355D01*
X23483502Y-11131100D01*
X23378374Y-11014344D01*
X23378373Y-11014343D01*
X23373952Y-11009433D01*
X23274856Y-10937435D01*
X23224793Y-10901062D01*
X23224792Y-10901061D01*
X23219451Y-10897181D01*
X23213423Y-10894497D01*
X23213421Y-10894496D01*
X23051018Y-10822190D01*
X23051017Y-10822190D01*
X23044987Y-10819505D01*
X22951586Y-10799652D01*
X22864643Y-10781171D01*
X22864638Y-10781171D01*
X22858186Y-10779799D01*
X22667212Y-10779799D01*
X22660760Y-10781171D01*
X22660755Y-10781171D01*
X22573811Y-10799652D01*
X22480411Y-10819505D01*
X22474381Y-10822190D01*
X22474380Y-10822190D01*
X22311977Y-10894496D01*
X22311975Y-10894497D01*
X22305947Y-10897181D01*
X22300606Y-10901061D01*
X22300605Y-10901062D01*
X22250542Y-10937435D01*
X22151446Y-11009433D01*
X22147025Y-11014343D01*
X22147024Y-11014344D01*
X22041897Y-11131100D01*
X22023659Y-11151355D01*
X22020358Y-11157073D01*
X21944157Y-11289057D01*
X21928172Y-11316743D01*
X21869157Y-11498371D01*
X21868467Y-11504932D01*
X21868467Y-11504934D01*
X21858046Y-11604082D01*
X21849195Y-11688299D01*
X21849885Y-11694864D01*
X21860562Y-11796450D01*
X21847790Y-11866288D01*
X21799288Y-11918135D01*
X21730455Y-11935529D01*
X21663145Y-11912948D01*
X21626133Y-11872620D01*
X21622477Y-11866288D01*
X21617840Y-11858256D01*
X21605841Y-11844929D01*
X21494475Y-11721245D01*
X21494474Y-11721244D01*
X21490053Y-11716334D01*
X21409134Y-11657543D01*
X21365781Y-11601322D01*
X21359706Y-11530586D01*
X21389559Y-11471300D01*
X21414640Y-11443444D01*
X21481821Y-11327084D01*
X21506823Y-11283779D01*
X21506824Y-11283778D01*
X21510127Y-11278056D01*
X21569142Y-11096428D01*
X21578286Y-11009433D01*
X21588414Y-10913065D01*
X21589104Y-10906500D01*
X21569142Y-10716572D01*
X21510127Y-10534944D01*
X21414640Y-10369556D01*
X21389062Y-10341148D01*
X21291275Y-10232545D01*
X21291274Y-10232544D01*
X21286853Y-10227634D01*
X21132352Y-10115382D01*
X21126324Y-10112698D01*
X21126322Y-10112697D01*
X20963919Y-10040391D01*
X20963918Y-10040391D01*
X20957888Y-10037706D01*
X20864487Y-10017853D01*
X20777544Y-9999372D01*
X20777539Y-9999372D01*
X20771087Y-9998000D01*
X20580113Y-9998000D01*
X20573661Y-9999372D01*
X20573656Y-9999372D01*
X20486713Y-10017853D01*
X20393312Y-10037706D01*
X20387282Y-10040391D01*
X20387281Y-10040391D01*
X20224878Y-10112697D01*
X20224876Y-10112698D01*
X20218848Y-10115382D01*
X20064347Y-10227634D01*
X20059926Y-10232544D01*
X20059925Y-10232545D01*
X19962139Y-10341148D01*
X19936560Y-10369556D01*
X19841073Y-10534944D01*
X19782058Y-10716572D01*
X19762096Y-10906500D01*
X17842617Y-10906500D01*
X17826320Y-10878272D01*
X17698533Y-10736350D01*
X17544032Y-10624098D01*
X17538004Y-10621414D01*
X17538002Y-10621413D01*
X17375599Y-10549107D01*
X17375598Y-10549107D01*
X17369568Y-10546422D01*
X17276168Y-10526569D01*
X17189224Y-10508088D01*
X17189219Y-10508088D01*
X17182767Y-10506716D01*
X16991793Y-10506716D01*
X16985341Y-10508088D01*
X16985336Y-10508088D01*
X16898392Y-10526569D01*
X16804992Y-10546422D01*
X16798962Y-10549107D01*
X16798961Y-10549107D01*
X16636558Y-10621413D01*
X16636556Y-10621414D01*
X16630528Y-10624098D01*
X16476027Y-10736350D01*
X16348240Y-10878272D01*
X16252753Y-11043660D01*
X16250712Y-11049943D01*
X16247790Y-11058936D01*
X16207718Y-11117543D01*
X16154154Y-11143250D01*
X16024512Y-11170806D01*
X16018485Y-11173489D01*
X16018477Y-11173492D01*
X15940030Y-11208419D01*
X15869663Y-11217853D01*
X15805366Y-11187746D01*
X15767553Y-11127657D01*
X15768229Y-11056664D01*
X15799687Y-11004217D01*
X16804533Y-9999372D01*
X17853100Y-8950805D01*
X17915412Y-8916779D01*
X17942195Y-8913900D01*
X21859686Y-8913900D01*
X21927807Y-8933902D01*
X21933747Y-8937964D01*
X22047648Y-9020718D01*
X22053676Y-9023402D01*
X22053678Y-9023403D01*
X22216081Y-9095709D01*
X22222112Y-9098394D01*
X22315512Y-9118247D01*
X22402456Y-9136728D01*
X22402461Y-9136728D01*
X22408913Y-9138100D01*
X22599887Y-9138100D01*
X22606339Y-9136728D01*
X22606344Y-9136728D01*
X22693288Y-9118247D01*
X22786688Y-9098394D01*
X22792719Y-9095709D01*
X22955122Y-9023403D01*
X22955124Y-9023402D01*
X22961152Y-9020718D01*
X23115653Y-8908466D01*
X23243440Y-8766544D01*
X23338927Y-8601156D01*
X23397942Y-8419528D01*
X23403533Y-8366329D01*
X23430546Y-8300673D01*
X23488767Y-8260043D01*
X23528843Y-8253500D01*
X23722420Y-8253500D01*
X23790541Y-8273502D01*
G37*
%TD.AperFunction*%
%TA.AperFunction,Conductor*%
G36*
X18494241Y-5438528D02*
G01*
X18553225Y-5478042D01*
X18558738Y-5485939D01*
X18559006Y-5485744D01*
X18562889Y-5491088D01*
X18566190Y-5496806D01*
X18693977Y-5638728D01*
X18737849Y-5670603D01*
X18842955Y-5746967D01*
X18848478Y-5750980D01*
X18854506Y-5753664D01*
X18854508Y-5753665D01*
X19016911Y-5825971D01*
X19022942Y-5828656D01*
X19116342Y-5848509D01*
X19203286Y-5866990D01*
X19203291Y-5866990D01*
X19209743Y-5868362D01*
X19400717Y-5868362D01*
X19407169Y-5866990D01*
X19407174Y-5866990D01*
X19494118Y-5848509D01*
X19587518Y-5828656D01*
X19593549Y-5825971D01*
X19755952Y-5753665D01*
X19755954Y-5753664D01*
X19761982Y-5750980D01*
X19767506Y-5746967D01*
X19897269Y-5652688D01*
X19964137Y-5628830D01*
X20033288Y-5644910D01*
X20060425Y-5665529D01*
X21826701Y-7431805D01*
X21860727Y-7494117D01*
X21855662Y-7564932D01*
X21813115Y-7621768D01*
X21746595Y-7646579D01*
X21737606Y-7646900D01*
X17706367Y-7646900D01*
X17695184Y-7646373D01*
X17687691Y-7644698D01*
X17679765Y-7644947D01*
X17679764Y-7644947D01*
X17619614Y-7646838D01*
X17615655Y-7646900D01*
X17587744Y-7646900D01*
X17583810Y-7647397D01*
X17583809Y-7647397D01*
X17583744Y-7647405D01*
X17571907Y-7648338D01*
X17539649Y-7649352D01*
X17535630Y-7649478D01*
X17527711Y-7649727D01*
X17508257Y-7655379D01*
X17488900Y-7659387D01*
X17476670Y-7660932D01*
X17476669Y-7660932D01*
X17468803Y-7661926D01*
X17461432Y-7664845D01*
X17461430Y-7664845D01*
X17427688Y-7678204D01*
X17416458Y-7682049D01*
X17381617Y-7692171D01*
X17381616Y-7692171D01*
X17374007Y-7694382D01*
X17367188Y-7698415D01*
X17367183Y-7698417D01*
X17356572Y-7704693D01*
X17338824Y-7713388D01*
X17319983Y-7720848D01*
X17313567Y-7725510D01*
X17313566Y-7725510D01*
X17284213Y-7746836D01*
X17274293Y-7753352D01*
X17243065Y-7771820D01*
X17243062Y-7771822D01*
X17236238Y-7775858D01*
X17221917Y-7790179D01*
X17206884Y-7803019D01*
X17190493Y-7814928D01*
X17185442Y-7821034D01*
X17162302Y-7849005D01*
X17154312Y-7857784D01*
X14991795Y-10020300D01*
X14929483Y-10054326D01*
X14902700Y-10057205D01*
X13269775Y-10057205D01*
X13201654Y-10037203D01*
X13155161Y-9983547D01*
X13145057Y-9913273D01*
X13174551Y-9848693D01*
X13180680Y-9842110D01*
X17252596Y-5770194D01*
X17314908Y-5736168D01*
X17383730Y-5741090D01*
X17383802Y-5740868D01*
X17384700Y-5741160D01*
X17385723Y-5741233D01*
X17388821Y-5742499D01*
X17390077Y-5742907D01*
X17396112Y-5745594D01*
X17421451Y-5750980D01*
X17576456Y-5783928D01*
X17576461Y-5783928D01*
X17582913Y-5785300D01*
X17773887Y-5785300D01*
X17780339Y-5783928D01*
X17780344Y-5783928D01*
X17867287Y-5765447D01*
X17960688Y-5745594D01*
X17970647Y-5741160D01*
X18129122Y-5670603D01*
X18129124Y-5670602D01*
X18135152Y-5667918D01*
X18175329Y-5638728D01*
X18190557Y-5627664D01*
X18289653Y-5555666D01*
X18362812Y-5474414D01*
X18423257Y-5437176D01*
X18494241Y-5438528D01*
G37*
%TD.AperFunction*%
%TD*%
M02*
